%TF.GenerationSoftware,KiCad,Pcbnew,(6.0.10-0)*%
%TF.CreationDate,2023-03-08T08:25:19-06:00*%
%TF.ProjectId,The-GarlicBoard-2,5468652d-4761-4726-9c69-63426f617264,rev?*%
%TF.SameCoordinates,Original*%
%TF.FileFunction,Soldermask,Top*%
%TF.FilePolarity,Negative*%
%FSLAX46Y46*%
G04 Gerber Fmt 4.6, Leading zero omitted, Abs format (unit mm)*
G04 Created by KiCad (PCBNEW (6.0.10-0)) date 2023-03-08 08:25:19*
%MOMM*%
%LPD*%
G01*
G04 APERTURE LIST*
%ADD10C,2.200000*%
%ADD11R,2.000000X2.000000*%
%ADD12C,2.000000*%
%ADD13R,3.200000X2.000000*%
%ADD14C,2.100000*%
%ADD15C,1.750000*%
%ADD16C,3.987800*%
%ADD17C,3.300000*%
%ADD18C,0.600000*%
%ADD19R,1.700000X1.700000*%
%ADD20O,1.700000X1.700000*%
G04 APERTURE END LIST*
D10*
X373000000Y-148720000D03*
X49151000Y-148720000D03*
X372999000Y-110617000D03*
X258701000Y-148720000D03*
X258700000Y-110617000D03*
X49150000Y-110617000D03*
D11*
X298824000Y-98592000D03*
D12*
X298824000Y-103592000D03*
X298824000Y-101092000D03*
D13*
X306324000Y-106692000D03*
X306324000Y-95492000D03*
D12*
X313324000Y-103592000D03*
X313324000Y-98592000D03*
D14*
X287274000Y-106172000D03*
X275367750Y-144272000D03*
D15*
X220980000Y-120142000D03*
X210820000Y-120142000D03*
D16*
X215900000Y-120142000D03*
D17*
X212090000Y-117602000D03*
X218440000Y-115062000D03*
D14*
X241966750Y-163322000D03*
D16*
X101600000Y-120142000D03*
D15*
X106680000Y-120142000D03*
X96520000Y-120142000D03*
D17*
X97790000Y-117602000D03*
X104140000Y-115062000D03*
D16*
X382524000Y-158242000D03*
D15*
X387604000Y-158242000D03*
X377444000Y-158242000D03*
D17*
X378714000Y-155702000D03*
X385064000Y-153162000D03*
D14*
X287274000Y-163322000D03*
X134874000Y-106172000D03*
D15*
X244094000Y-101092000D03*
D16*
X249174000Y-101092000D03*
D15*
X254254000Y-101092000D03*
D17*
X245364000Y-98552000D03*
X251714000Y-96012000D03*
D15*
X280447750Y-139192000D03*
X270287750Y-139192000D03*
D16*
X275367750Y-139192000D03*
D17*
X271557750Y-136652000D03*
X277907750Y-134112000D03*
D18*
X267050000Y-124100000D03*
X268550000Y-127100000D03*
X268550000Y-124100000D03*
X267050000Y-127100000D03*
X265550000Y-127100000D03*
X267050000Y-125600000D03*
X265550000Y-125600000D03*
X268550000Y-125600000D03*
X265550000Y-124100000D03*
D14*
X101600000Y-125222000D03*
D15*
X292354000Y-158242000D03*
D16*
X287274000Y-158242000D03*
D15*
X282194000Y-158242000D03*
D17*
X283464000Y-155702000D03*
X289814000Y-153162000D03*
D14*
X382524000Y-163322000D03*
X82550000Y-125222000D03*
X325374000Y-144272000D03*
X115824000Y-106172000D03*
D15*
X84486750Y-158242000D03*
X94646750Y-158242000D03*
D16*
X89566750Y-158242000D03*
D17*
X85756750Y-155702000D03*
X92106750Y-153162000D03*
D15*
X192278000Y-139192000D03*
X182118000Y-139192000D03*
D16*
X187198000Y-139192000D03*
D17*
X183388000Y-136652000D03*
X189738000Y-134112000D03*
D16*
X244348000Y-139192000D03*
D15*
X239268000Y-139192000D03*
X249428000Y-139192000D03*
D17*
X240538000Y-136652000D03*
X246888000Y-134112000D03*
D15*
X163830000Y-120142000D03*
X153670000Y-120142000D03*
D16*
X158750000Y-120142000D03*
D17*
X154940000Y-117602000D03*
X161290000Y-115062000D03*
D14*
X325374000Y-106172000D03*
X225298000Y-144272000D03*
D16*
X280130250Y-120142000D03*
D15*
X275050250Y-120142000D03*
X285210250Y-120142000D03*
D17*
X276320250Y-117602000D03*
X282670250Y-115062000D03*
D14*
X63500000Y-125222000D03*
D16*
X211074000Y-101092000D03*
D15*
X205994000Y-101092000D03*
X216154000Y-101092000D03*
D17*
X207264000Y-98552000D03*
X213614000Y-96012000D03*
D14*
X325374000Y-163322000D03*
X120650000Y-125222000D03*
D18*
X304742000Y-133459000D03*
X302242000Y-133459000D03*
X304742000Y-135959000D03*
X303492000Y-133459000D03*
X303492000Y-135959000D03*
X303492000Y-134709000D03*
X302242000Y-134709000D03*
X302242000Y-135959000D03*
X304742000Y-134709000D03*
D15*
X175006000Y-158242000D03*
X185166000Y-158242000D03*
D16*
X180086000Y-158242000D03*
D17*
X176276000Y-155702000D03*
X182626000Y-153162000D03*
D15*
X144018000Y-139192000D03*
D16*
X149098000Y-139192000D03*
D15*
X154178000Y-139192000D03*
D17*
X145288000Y-136652000D03*
X151638000Y-134112000D03*
D14*
X363474000Y-163322000D03*
X192024000Y-106172000D03*
D16*
X130048000Y-139192000D03*
D15*
X124968000Y-139192000D03*
X135128000Y-139192000D03*
D17*
X126238000Y-136652000D03*
X132588000Y-134112000D03*
D16*
X63500000Y-120142000D03*
D15*
X58420000Y-120142000D03*
X68580000Y-120142000D03*
D17*
X59690000Y-117602000D03*
X66040000Y-115062000D03*
D14*
X127666750Y-163322000D03*
D15*
X330454000Y-158242000D03*
X320294000Y-158242000D03*
D16*
X325374000Y-158242000D03*
D17*
X321564000Y-155702000D03*
X327914000Y-153162000D03*
D14*
X218186000Y-163322000D03*
D16*
X96774000Y-101092000D03*
D15*
X91694000Y-101092000D03*
X101854000Y-101092000D03*
D17*
X92964000Y-98552000D03*
X99314000Y-96012000D03*
D14*
X139700000Y-125222000D03*
X363474000Y-144272000D03*
X149100000Y-144272000D03*
X72898000Y-144272000D03*
D15*
X72644000Y-101092000D03*
X82804000Y-101092000D03*
D16*
X77724000Y-101092000D03*
D17*
X73914000Y-98552000D03*
X80264000Y-96012000D03*
D16*
X363474000Y-120142000D03*
D15*
X368554000Y-120142000D03*
X358394000Y-120142000D03*
D17*
X359664000Y-117602000D03*
X366014000Y-115062000D03*
D15*
X236886750Y-158242000D03*
X247046750Y-158242000D03*
D16*
X241966750Y-158242000D03*
D17*
X238156750Y-155702000D03*
X244506750Y-153162000D03*
D15*
X282194000Y-101092000D03*
X292354000Y-101092000D03*
D16*
X287274000Y-101092000D03*
D17*
X283464000Y-98552000D03*
X289814000Y-96012000D03*
D14*
X180086000Y-163322000D03*
X187198000Y-144272000D03*
X382524000Y-144272000D03*
D15*
X77470000Y-120142000D03*
X87630000Y-120142000D03*
D16*
X82550000Y-120142000D03*
D17*
X78740000Y-117602000D03*
X85090000Y-115062000D03*
D15*
X270922750Y-158242000D03*
D16*
X265842750Y-158242000D03*
D15*
X260762750Y-158242000D03*
D17*
X262032750Y-155702000D03*
X268382750Y-153162000D03*
D14*
X344424000Y-144272000D03*
X215900000Y-125222000D03*
X196850000Y-125222000D03*
D16*
X363474000Y-158242000D03*
D15*
X368554000Y-158242000D03*
X358394000Y-158242000D03*
D17*
X359664000Y-155702000D03*
X366014000Y-153162000D03*
D16*
X120650000Y-120142000D03*
D15*
X125730000Y-120142000D03*
X115570000Y-120142000D03*
D17*
X116840000Y-117602000D03*
X123190000Y-115062000D03*
D15*
X144780000Y-120142000D03*
X134620000Y-120142000D03*
D16*
X139700000Y-120142000D03*
D17*
X135890000Y-117602000D03*
X142240000Y-115062000D03*
D16*
X382524000Y-120142000D03*
D15*
X387604000Y-120142000D03*
X377444000Y-120142000D03*
D17*
X378714000Y-117602000D03*
X385064000Y-115062000D03*
D15*
X339344000Y-139192000D03*
X349504000Y-139192000D03*
D16*
X344424000Y-139192000D03*
D17*
X340614000Y-136652000D03*
X346964000Y-134112000D03*
D15*
X320294000Y-120142000D03*
D16*
X325374000Y-120142000D03*
D15*
X330454000Y-120142000D03*
D17*
X321564000Y-117602000D03*
X327914000Y-115062000D03*
D14*
X344424000Y-106172000D03*
D15*
X320294000Y-139192000D03*
X330454000Y-139192000D03*
D16*
X325374000Y-139192000D03*
D17*
X321564000Y-136652000D03*
X327914000Y-134112000D03*
D15*
X220218000Y-139192000D03*
X230378000Y-139192000D03*
D16*
X225298000Y-139192000D03*
D17*
X221488000Y-136652000D03*
X227838000Y-134112000D03*
D14*
X363474000Y-125222000D03*
X77724000Y-106172000D03*
X280130250Y-125222000D03*
D15*
X132746750Y-158242000D03*
X122586750Y-158242000D03*
D16*
X127666750Y-158242000D03*
D17*
X123856750Y-155702000D03*
X130206750Y-153162000D03*
D16*
X65786000Y-158242000D03*
D15*
X70866000Y-158242000D03*
X60706000Y-158242000D03*
D17*
X61976000Y-155702000D03*
X68326000Y-153162000D03*
D15*
X36925250Y-158242000D03*
X47085250Y-158242000D03*
D16*
X42005250Y-158242000D03*
D17*
X38195250Y-155702000D03*
X44545250Y-153162000D03*
D15*
X182880000Y-120142000D03*
X172720000Y-120142000D03*
D16*
X177800000Y-120142000D03*
D17*
X173990000Y-117602000D03*
X180340000Y-115062000D03*
D16*
X234950000Y-120142000D03*
D15*
X229870000Y-120142000D03*
X240030000Y-120142000D03*
D17*
X231140000Y-117602000D03*
X237490000Y-115062000D03*
D15*
X178054000Y-101092000D03*
X167894000Y-101092000D03*
D16*
X172974000Y-101092000D03*
D17*
X169164000Y-98552000D03*
X175514000Y-96012000D03*
D14*
X268224000Y-106172000D03*
X58674000Y-106172000D03*
X344424000Y-125222000D03*
D15*
X330454000Y-101092000D03*
X320294000Y-101092000D03*
D16*
X325374000Y-101092000D03*
D17*
X321564000Y-98552000D03*
X327914000Y-96012000D03*
D14*
X244348000Y-144272000D03*
X46767750Y-144272000D03*
D15*
X377444000Y-101092000D03*
X387604000Y-101092000D03*
D16*
X382524000Y-101092000D03*
D17*
X378714000Y-98552000D03*
X385064000Y-96012000D03*
D14*
X234950000Y-125222000D03*
X382524000Y-106172000D03*
D15*
X53594000Y-101092000D03*
X63754000Y-101092000D03*
D16*
X58674000Y-101092000D03*
D17*
X54864000Y-98552000D03*
X61214000Y-96012000D03*
D14*
X325374000Y-125222000D03*
D16*
X254000000Y-120142000D03*
D15*
X248920000Y-120142000D03*
X259080000Y-120142000D03*
D17*
X250190000Y-117602000D03*
X256540000Y-115062000D03*
D14*
X65786000Y-163322000D03*
D15*
X47085250Y-120142000D03*
X36925250Y-120142000D03*
D16*
X42005250Y-120142000D03*
D17*
X38195250Y-117602000D03*
X44545250Y-115062000D03*
D15*
X197104000Y-101092000D03*
D16*
X192024000Y-101092000D03*
D15*
X186944000Y-101092000D03*
D17*
X188214000Y-98552000D03*
X194564000Y-96012000D03*
D14*
X42005250Y-125222000D03*
D16*
X115824000Y-101092000D03*
D15*
X120904000Y-101092000D03*
X110744000Y-101092000D03*
D17*
X112014000Y-98552000D03*
X118364000Y-96012000D03*
D14*
X344424000Y-163322000D03*
X110998000Y-144272000D03*
D15*
X34544000Y-101092000D03*
D16*
X39624000Y-101092000D03*
D15*
X44704000Y-101092000D03*
D17*
X35814000Y-98552000D03*
X42164000Y-96012000D03*
D15*
X223266000Y-158242000D03*
D16*
X218186000Y-158242000D03*
D15*
X213106000Y-158242000D03*
D17*
X214376000Y-155702000D03*
X220726000Y-153162000D03*
D14*
X158750000Y-125222000D03*
D15*
X67818000Y-139192000D03*
D16*
X72898000Y-139192000D03*
D15*
X77978000Y-139192000D03*
D17*
X69088000Y-136652000D03*
X75438000Y-134112000D03*
D15*
X358394000Y-139192000D03*
X368554000Y-139192000D03*
D16*
X363474000Y-139192000D03*
D17*
X359664000Y-136652000D03*
X366014000Y-134112000D03*
D15*
X41687750Y-139192000D03*
D16*
X46767750Y-139192000D03*
D15*
X51847750Y-139192000D03*
D17*
X42957750Y-136652000D03*
X49307750Y-134112000D03*
D19*
X295700000Y-141100000D03*
D20*
X295700000Y-143640000D03*
X295700000Y-146180000D03*
X295700000Y-148720000D03*
D14*
X42005250Y-163322000D03*
X177800000Y-125222000D03*
D16*
X230124000Y-101092000D03*
D15*
X225044000Y-101092000D03*
X235204000Y-101092000D03*
D17*
X226314000Y-98552000D03*
X232664000Y-96012000D03*
D14*
X363474000Y-106172000D03*
D15*
X349504000Y-158242000D03*
D16*
X344424000Y-158242000D03*
D15*
X339344000Y-158242000D03*
D17*
X340614000Y-155702000D03*
X346964000Y-153162000D03*
D14*
X265842750Y-163322000D03*
D15*
X349504000Y-120142000D03*
D16*
X344424000Y-120142000D03*
D15*
X339344000Y-120142000D03*
D17*
X340614000Y-117602000D03*
X346964000Y-115062000D03*
D15*
X201930000Y-120142000D03*
X191770000Y-120142000D03*
D16*
X196850000Y-120142000D03*
D17*
X193040000Y-117602000D03*
X199390000Y-115062000D03*
D16*
X268224000Y-101092000D03*
D15*
X273304000Y-101092000D03*
X263144000Y-101092000D03*
D17*
X264414000Y-98552000D03*
X270764000Y-96012000D03*
D14*
X168148000Y-144272000D03*
X249174000Y-106172000D03*
X206248000Y-144272000D03*
X230124000Y-106172000D03*
D15*
X163068000Y-139192000D03*
X173228000Y-139192000D03*
D16*
X168148000Y-139192000D03*
D17*
X164338000Y-136652000D03*
X170688000Y-134112000D03*
D14*
X172974000Y-106172000D03*
D16*
X91948000Y-139192000D03*
D15*
X97028000Y-139192000D03*
X86868000Y-139192000D03*
D17*
X88138000Y-136652000D03*
X94488000Y-134112000D03*
D14*
X130048000Y-144272000D03*
X382524000Y-125222000D03*
X153924000Y-106172000D03*
D15*
X358394000Y-101092000D03*
D16*
X363474000Y-101092000D03*
D15*
X368554000Y-101092000D03*
D17*
X359664000Y-98552000D03*
X366014000Y-96012000D03*
D15*
X349504000Y-101092000D03*
D16*
X344424000Y-101092000D03*
D15*
X339344000Y-101092000D03*
D17*
X340614000Y-98552000D03*
X346964000Y-96012000D03*
D15*
X201168000Y-139192000D03*
X211328000Y-139192000D03*
D16*
X206248000Y-139192000D03*
D17*
X202438000Y-136652000D03*
X208788000Y-134112000D03*
D14*
X39624000Y-106172000D03*
D15*
X116078000Y-139192000D03*
D16*
X110998000Y-139192000D03*
D15*
X105918000Y-139192000D03*
D17*
X107188000Y-136652000D03*
X113538000Y-134112000D03*
D14*
X211074000Y-106172000D03*
X96774000Y-106172000D03*
X89566750Y-163322000D03*
D16*
X153924000Y-101092000D03*
D15*
X159004000Y-101092000D03*
X148844000Y-101092000D03*
D17*
X150114000Y-98552000D03*
X156464000Y-96012000D03*
D15*
X387604000Y-139192000D03*
X377444000Y-139192000D03*
D16*
X382524000Y-139192000D03*
D17*
X378714000Y-136652000D03*
X385064000Y-134112000D03*
D14*
X91948000Y-144272000D03*
D16*
X134874000Y-101092000D03*
D15*
X129794000Y-101092000D03*
X139954000Y-101092000D03*
D17*
X131064000Y-98552000D03*
X137414000Y-96012000D03*
D14*
X254000000Y-125222000D03*
M02*
