%TF.GenerationSoftware,KiCad,Pcbnew,(6.0.10-0)*%
%TF.CreationDate,2023-02-15T12:56:22-06:00*%
%TF.ProjectId,The-GarlicBoard-2,5468652d-4761-4726-9c69-63426f617264,rev?*%
%TF.SameCoordinates,Original*%
%TF.FileFunction,Drillmap*%
%TF.FilePolarity,Positive*%
%FSLAX45Y45*%
G04 Gerber Fmt 4.5, Leading zero omitted, Abs format (unit mm)*
G04 Created by KiCad (PCBNEW (6.0.10-0)) date 2023-02-15 12:56:22*
%MOMM*%
%LPD*%
G01*
G04 APERTURE LIST*
%ADD10C,0.200000*%
%ADD11C,0.170000*%
%ADD12C,0.175000*%
%ADD13C,0.210000*%
%ADD14C,0.220000*%
%ADD15C,0.304800*%
%ADD16C,0.398780*%
G04 APERTURE END LIST*
D10*
X20203136Y-16724196D02*
G75*
G03*
X20344557Y-16624200I4J149996D01*
G01*
X3062400Y-13390964D02*
X3062400Y-16224200D01*
X5336664Y-16724200D02*
X9723136Y-16724200D01*
X39152399Y-13390964D02*
G75*
G03*
X39052400Y-13249543I-150009J-6D01*
G01*
X27350636Y-16724196D02*
G75*
G03*
X27492057Y-16624200I4J149996D01*
G01*
X3062400Y-9709206D02*
X3062400Y-12542436D01*
X33914164Y-16724200D02*
X36878136Y-16724200D01*
X3562393Y-16724200D02*
X4488136Y-16724200D01*
X4629557Y-9309200D02*
G75*
G03*
X5195243Y-9309200I282843J100000D01*
G01*
X36878136Y-16724206D02*
G75*
G03*
X37019557Y-16624200I-6J150006D01*
G01*
X3062400Y-16224200D02*
G75*
G03*
X3562393Y-16724200I500000J0D01*
G01*
X3562400Y-9209200D02*
G75*
G03*
X3062400Y-9709206I0J-500000D01*
G01*
X19733136Y-9209200D02*
X12961664Y-9209200D01*
X33772743Y-16624200D02*
G75*
G03*
X33207057Y-16624200I-282843J-100000D01*
G01*
X5195243Y-16624200D02*
G75*
G03*
X4629557Y-16624200I-282843J-100000D01*
G01*
X36878136Y-9209200D02*
X33914164Y-9209200D01*
X3062404Y-12542436D02*
G75*
G03*
X3162400Y-12683857I149996J-4D01*
G01*
X9723136Y-16724196D02*
G75*
G03*
X9864557Y-16624200I4J149996D01*
G01*
X28057743Y-16624200D02*
G75*
G03*
X27492057Y-16624200I-282843J-100000D01*
G01*
X28057739Y-16624201D02*
G75*
G03*
X28199164Y-16724200I141421J50001D01*
G01*
X3162400Y-13249543D02*
G75*
G03*
X3062400Y-13390964I50000J-141421D01*
G01*
X12254561Y-9309199D02*
G75*
G03*
X12113136Y-9209200I-141421J-50001D01*
G01*
X21051664Y-16724200D02*
X27350636Y-16724200D01*
X4488136Y-9209200D02*
X3562400Y-9209200D01*
X12254557Y-9309200D02*
G75*
G03*
X12820243Y-9309200I282843J100000D01*
G01*
X37585242Y-16624200D02*
G75*
G03*
X37726664Y-16724200I141428J50010D01*
G01*
X28199164Y-16724200D02*
X33065636Y-16724200D01*
X39052400Y-12683857D02*
G75*
G03*
X39052400Y-13249543I100000J-282843D01*
G01*
X4488136Y-16724196D02*
G75*
G03*
X4629557Y-16624200I4J149996D01*
G01*
X27492057Y-9309200D02*
G75*
G03*
X28057743Y-9309200I282843J100000D01*
G01*
X33772739Y-16624201D02*
G75*
G03*
X33914164Y-16724200I141421J50001D01*
G01*
X4629561Y-9309199D02*
G75*
G03*
X4488136Y-9209200I-141421J-50001D01*
G01*
X14963136Y-16724196D02*
G75*
G03*
X15104557Y-16624200I4J149996D01*
G01*
X38652400Y-9209200D02*
X37726664Y-9209200D01*
X12113136Y-9209200D02*
X5336664Y-9209200D01*
X38652400Y-16724200D02*
G75*
G03*
X39152400Y-16224200I0J500000D01*
G01*
X15670243Y-16624200D02*
G75*
G03*
X15104557Y-16624200I-282843J-100000D01*
G01*
X33914164Y-9209204D02*
G75*
G03*
X33772743Y-9309200I-4J-149996D01*
G01*
X37726664Y-9209204D02*
G75*
G03*
X37585243Y-9309200I-4J-149996D01*
G01*
X19874561Y-9309199D02*
G75*
G03*
X19733136Y-9209200I-141421J-50001D01*
G01*
X10430243Y-16624200D02*
G75*
G03*
X9864557Y-16624200I-282843J-100000D01*
G01*
X27492061Y-9309199D02*
G75*
G03*
X27350636Y-9209200I-141421J-50001D01*
G01*
X5336664Y-9209204D02*
G75*
G03*
X5195243Y-9309200I-4J-149996D01*
G01*
X33065636Y-9209200D02*
X28199164Y-9209200D01*
X37019561Y-9309199D02*
G75*
G03*
X36878136Y-9209200I-141421J-50001D01*
G01*
X37585243Y-16624200D02*
G75*
G03*
X37019557Y-16624200I-282843J-100000D01*
G01*
X15670239Y-16624201D02*
G75*
G03*
X15811664Y-16724200I141421J50001D01*
G01*
X10430239Y-16624201D02*
G75*
G03*
X10571664Y-16724200I141421J50001D01*
G01*
X33065636Y-16724196D02*
G75*
G03*
X33207057Y-16624200I4J149996D01*
G01*
X19874557Y-9309200D02*
G75*
G03*
X20440243Y-9309200I282843J100000D01*
G01*
X15811664Y-16724200D02*
X20203136Y-16724200D01*
X39052402Y-12683863D02*
G75*
G03*
X39152400Y-12542436I-49992J141414D01*
G01*
X39152400Y-16224200D02*
X39152400Y-13390964D01*
X33207061Y-9309199D02*
G75*
G03*
X33065636Y-9209200I-141421J-50001D01*
G01*
X10571664Y-16724200D02*
X14963136Y-16724200D01*
X5195239Y-16624201D02*
G75*
G03*
X5336664Y-16724200I141421J50001D01*
G01*
X28199164Y-9209204D02*
G75*
G03*
X28057743Y-9309200I-4J-149996D01*
G01*
X37726664Y-16724200D02*
X38652400Y-16724200D01*
X3162400Y-13249543D02*
G75*
G03*
X3162400Y-12683857I-100000J282843D01*
G01*
X39152400Y-9709200D02*
G75*
G03*
X38652400Y-9209200I-500000J0D01*
G01*
X37019557Y-9309200D02*
G75*
G03*
X37585243Y-9309200I282843J100000D01*
G01*
X20581664Y-9209204D02*
G75*
G03*
X20440243Y-9309200I-4J-149996D01*
G01*
X20910239Y-16624201D02*
G75*
G03*
X21051664Y-16724200I141421J50001D01*
G01*
X12961664Y-9209204D02*
G75*
G03*
X12820243Y-9309200I-4J-149996D01*
G01*
X20910243Y-16624200D02*
G75*
G03*
X20344557Y-16624200I-282843J-100000D01*
G01*
X33207057Y-9309200D02*
G75*
G03*
X33772743Y-9309200I282843J100000D01*
G01*
X39152400Y-12542436D02*
X39152400Y-9709200D01*
X27350636Y-9209200D02*
X20581664Y-9209200D01*
D11*
X29889250Y-10645450D02*
X30059250Y-10815450D01*
X30059250Y-10645450D02*
X29889250Y-10815450D01*
D12*
X3541900Y-10109200D02*
G75*
G03*
X3541900Y-10109200I-87500J0D01*
G01*
X3780025Y-12014200D02*
G75*
G03*
X3780025Y-12014200I-87500J0D01*
G01*
X3780025Y-15824200D02*
G75*
G03*
X3780025Y-15824200I-87500J0D01*
G01*
X4256275Y-13919200D02*
G75*
G03*
X4256275Y-13919200I-87500J0D01*
G01*
X4557900Y-10109200D02*
G75*
G03*
X4557900Y-10109200I-87500J0D01*
G01*
X4796025Y-12014200D02*
G75*
G03*
X4796025Y-12014200I-87500J0D01*
G01*
X4796025Y-15824200D02*
G75*
G03*
X4796025Y-15824200I-87500J0D01*
G01*
X5272275Y-13919200D02*
G75*
G03*
X5272275Y-13919200I-87500J0D01*
G01*
X5446900Y-10109200D02*
G75*
G03*
X5446900Y-10109200I-87500J0D01*
G01*
X5929500Y-12014200D02*
G75*
G03*
X5929500Y-12014200I-87500J0D01*
G01*
X6158100Y-15824200D02*
G75*
G03*
X6158100Y-15824200I-87500J0D01*
G01*
X6462900Y-10109200D02*
G75*
G03*
X6462900Y-10109200I-87500J0D01*
G01*
X6869300Y-13919200D02*
G75*
G03*
X6869300Y-13919200I-87500J0D01*
G01*
X6945500Y-12014200D02*
G75*
G03*
X6945500Y-12014200I-87500J0D01*
G01*
X7174100Y-15824200D02*
G75*
G03*
X7174100Y-15824200I-87500J0D01*
G01*
X7351900Y-10109200D02*
G75*
G03*
X7351900Y-10109200I-87500J0D01*
G01*
X7834500Y-12014200D02*
G75*
G03*
X7834500Y-12014200I-87500J0D01*
G01*
X7885300Y-13919200D02*
G75*
G03*
X7885300Y-13919200I-87500J0D01*
G01*
X8367900Y-10109200D02*
G75*
G03*
X8367900Y-10109200I-87500J0D01*
G01*
X8536175Y-15824200D02*
G75*
G03*
X8536175Y-15824200I-87500J0D01*
G01*
X8774300Y-13919200D02*
G75*
G03*
X8774300Y-13919200I-87500J0D01*
G01*
X8850500Y-12014200D02*
G75*
G03*
X8850500Y-12014200I-87500J0D01*
G01*
X9256900Y-10109200D02*
G75*
G03*
X9256900Y-10109200I-87500J0D01*
G01*
X9552175Y-15824200D02*
G75*
G03*
X9552175Y-15824200I-87500J0D01*
G01*
X9739500Y-12014200D02*
G75*
G03*
X9739500Y-12014200I-87500J0D01*
G01*
X9790300Y-13919200D02*
G75*
G03*
X9790300Y-13919200I-87500J0D01*
G01*
X10272900Y-10109200D02*
G75*
G03*
X10272900Y-10109200I-87500J0D01*
G01*
X10679300Y-13919200D02*
G75*
G03*
X10679300Y-13919200I-87500J0D01*
G01*
X10755500Y-12014200D02*
G75*
G03*
X10755500Y-12014200I-87500J0D01*
G01*
X11161900Y-10109200D02*
G75*
G03*
X11161900Y-10109200I-87500J0D01*
G01*
X11644500Y-12014200D02*
G75*
G03*
X11644500Y-12014200I-87500J0D01*
G01*
X11695300Y-13919200D02*
G75*
G03*
X11695300Y-13919200I-87500J0D01*
G01*
X12177900Y-10109200D02*
G75*
G03*
X12177900Y-10109200I-87500J0D01*
G01*
X12346175Y-15824200D02*
G75*
G03*
X12346175Y-15824200I-87500J0D01*
G01*
X12584300Y-13919200D02*
G75*
G03*
X12584300Y-13919200I-87500J0D01*
G01*
X12660500Y-12014200D02*
G75*
G03*
X12660500Y-12014200I-87500J0D01*
G01*
X13066900Y-10109200D02*
G75*
G03*
X13066900Y-10109200I-87500J0D01*
G01*
X13362175Y-15824200D02*
G75*
G03*
X13362175Y-15824200I-87500J0D01*
G01*
X13549500Y-12014200D02*
G75*
G03*
X13549500Y-12014200I-87500J0D01*
G01*
X13600300Y-13919200D02*
G75*
G03*
X13600300Y-13919200I-87500J0D01*
G01*
X14082900Y-10109200D02*
G75*
G03*
X14082900Y-10109200I-87500J0D01*
G01*
X14489300Y-13919200D02*
G75*
G03*
X14489300Y-13919200I-87500J0D01*
G01*
X14565500Y-12014200D02*
G75*
G03*
X14565500Y-12014200I-87500J0D01*
G01*
X14971900Y-10109200D02*
G75*
G03*
X14971900Y-10109200I-87500J0D01*
G01*
X15454500Y-12014200D02*
G75*
G03*
X15454500Y-12014200I-87500J0D01*
G01*
X15505300Y-13919200D02*
G75*
G03*
X15505300Y-13919200I-87500J0D01*
G01*
X15987900Y-10109200D02*
G75*
G03*
X15987900Y-10109200I-87500J0D01*
G01*
X16394300Y-13919200D02*
G75*
G03*
X16394300Y-13919200I-87500J0D01*
G01*
X16470500Y-12014200D02*
G75*
G03*
X16470500Y-12014200I-87500J0D01*
G01*
X16876900Y-10109200D02*
G75*
G03*
X16876900Y-10109200I-87500J0D01*
G01*
X17359500Y-12014200D02*
G75*
G03*
X17359500Y-12014200I-87500J0D01*
G01*
X17410300Y-13919200D02*
G75*
G03*
X17410300Y-13919200I-87500J0D01*
G01*
X17588100Y-15824200D02*
G75*
G03*
X17588100Y-15824200I-87500J0D01*
G01*
X17892900Y-10109200D02*
G75*
G03*
X17892900Y-10109200I-87500J0D01*
G01*
X18299300Y-13919200D02*
G75*
G03*
X18299300Y-13919200I-87500J0D01*
G01*
X18375500Y-12014200D02*
G75*
G03*
X18375500Y-12014200I-87500J0D01*
G01*
X18604100Y-15824200D02*
G75*
G03*
X18604100Y-15824200I-87500J0D01*
G01*
X18781900Y-10109200D02*
G75*
G03*
X18781900Y-10109200I-87500J0D01*
G01*
X19264500Y-12014200D02*
G75*
G03*
X19264500Y-12014200I-87500J0D01*
G01*
X19315300Y-13919200D02*
G75*
G03*
X19315300Y-13919200I-87500J0D01*
G01*
X19797900Y-10109200D02*
G75*
G03*
X19797900Y-10109200I-87500J0D01*
G01*
X20204300Y-13919200D02*
G75*
G03*
X20204300Y-13919200I-87500J0D01*
G01*
X20280500Y-12014200D02*
G75*
G03*
X20280500Y-12014200I-87500J0D01*
G01*
X20686900Y-10109200D02*
G75*
G03*
X20686900Y-10109200I-87500J0D01*
G01*
X21169500Y-12014200D02*
G75*
G03*
X21169500Y-12014200I-87500J0D01*
G01*
X21220300Y-13919200D02*
G75*
G03*
X21220300Y-13919200I-87500J0D01*
G01*
X21398100Y-15824200D02*
G75*
G03*
X21398100Y-15824200I-87500J0D01*
G01*
X21702900Y-10109200D02*
G75*
G03*
X21702900Y-10109200I-87500J0D01*
G01*
X22109300Y-13919200D02*
G75*
G03*
X22109300Y-13919200I-87500J0D01*
G01*
X22185500Y-12014200D02*
G75*
G03*
X22185500Y-12014200I-87500J0D01*
G01*
X22414100Y-15824200D02*
G75*
G03*
X22414100Y-15824200I-87500J0D01*
G01*
X22591900Y-10109200D02*
G75*
G03*
X22591900Y-10109200I-87500J0D01*
G01*
X23074500Y-12014200D02*
G75*
G03*
X23074500Y-12014200I-87500J0D01*
G01*
X23125300Y-13919200D02*
G75*
G03*
X23125300Y-13919200I-87500J0D01*
G01*
X23607900Y-10109200D02*
G75*
G03*
X23607900Y-10109200I-87500J0D01*
G01*
X23776175Y-15824200D02*
G75*
G03*
X23776175Y-15824200I-87500J0D01*
G01*
X24014300Y-13919200D02*
G75*
G03*
X24014300Y-13919200I-87500J0D01*
G01*
X24090500Y-12014200D02*
G75*
G03*
X24090500Y-12014200I-87500J0D01*
G01*
X24496900Y-10109200D02*
G75*
G03*
X24496900Y-10109200I-87500J0D01*
G01*
X24792175Y-15824200D02*
G75*
G03*
X24792175Y-15824200I-87500J0D01*
G01*
X24979500Y-12014200D02*
G75*
G03*
X24979500Y-12014200I-87500J0D01*
G01*
X25030300Y-13919200D02*
G75*
G03*
X25030300Y-13919200I-87500J0D01*
G01*
X25512900Y-10109200D02*
G75*
G03*
X25512900Y-10109200I-87500J0D01*
G01*
X25995500Y-12014200D02*
G75*
G03*
X25995500Y-12014200I-87500J0D01*
G01*
X26163775Y-15824200D02*
G75*
G03*
X26163775Y-15824200I-87500J0D01*
G01*
X26401900Y-10109200D02*
G75*
G03*
X26401900Y-10109200I-87500J0D01*
G01*
X27116275Y-13919200D02*
G75*
G03*
X27116275Y-13919200I-87500J0D01*
G01*
X27179775Y-15824200D02*
G75*
G03*
X27179775Y-15824200I-87500J0D01*
G01*
X27417900Y-10109200D02*
G75*
G03*
X27417900Y-10109200I-87500J0D01*
G01*
X27592525Y-12014200D02*
G75*
G03*
X27592525Y-12014200I-87500J0D01*
G01*
X28132275Y-13919200D02*
G75*
G03*
X28132275Y-13919200I-87500J0D01*
G01*
X28306900Y-10109200D02*
G75*
G03*
X28306900Y-10109200I-87500J0D01*
G01*
X28306900Y-15824200D02*
G75*
G03*
X28306900Y-15824200I-87500J0D01*
G01*
X28608525Y-12014200D02*
G75*
G03*
X28608525Y-12014200I-87500J0D01*
G01*
X29322900Y-10109200D02*
G75*
G03*
X29322900Y-10109200I-87500J0D01*
G01*
X29322900Y-15824200D02*
G75*
G03*
X29322900Y-15824200I-87500J0D01*
G01*
X32116900Y-10109200D02*
G75*
G03*
X32116900Y-10109200I-87500J0D01*
G01*
X32116900Y-12014200D02*
G75*
G03*
X32116900Y-12014200I-87500J0D01*
G01*
X32116900Y-13919200D02*
G75*
G03*
X32116900Y-13919200I-87500J0D01*
G01*
X32116900Y-15824200D02*
G75*
G03*
X32116900Y-15824200I-87500J0D01*
G01*
X33132900Y-10109200D02*
G75*
G03*
X33132900Y-10109200I-87500J0D01*
G01*
X33132900Y-12014200D02*
G75*
G03*
X33132900Y-12014200I-87500J0D01*
G01*
X33132900Y-13919200D02*
G75*
G03*
X33132900Y-13919200I-87500J0D01*
G01*
X33132900Y-15824200D02*
G75*
G03*
X33132900Y-15824200I-87500J0D01*
G01*
X34021900Y-10109200D02*
G75*
G03*
X34021900Y-10109200I-87500J0D01*
G01*
X34021900Y-12014200D02*
G75*
G03*
X34021900Y-12014200I-87500J0D01*
G01*
X34021900Y-13919200D02*
G75*
G03*
X34021900Y-13919200I-87500J0D01*
G01*
X34021900Y-15824200D02*
G75*
G03*
X34021900Y-15824200I-87500J0D01*
G01*
X35037900Y-10109200D02*
G75*
G03*
X35037900Y-10109200I-87500J0D01*
G01*
X35037900Y-12014200D02*
G75*
G03*
X35037900Y-12014200I-87500J0D01*
G01*
X35037900Y-13919200D02*
G75*
G03*
X35037900Y-13919200I-87500J0D01*
G01*
X35037900Y-15824200D02*
G75*
G03*
X35037900Y-15824200I-87500J0D01*
G01*
X35926900Y-10109200D02*
G75*
G03*
X35926900Y-10109200I-87500J0D01*
G01*
X35926900Y-12014200D02*
G75*
G03*
X35926900Y-12014200I-87500J0D01*
G01*
X35926900Y-13919200D02*
G75*
G03*
X35926900Y-13919200I-87500J0D01*
G01*
X35926900Y-15824200D02*
G75*
G03*
X35926900Y-15824200I-87500J0D01*
G01*
X36942900Y-10109200D02*
G75*
G03*
X36942900Y-10109200I-87500J0D01*
G01*
X36942900Y-12014200D02*
G75*
G03*
X36942900Y-12014200I-87500J0D01*
G01*
X36942900Y-13919200D02*
G75*
G03*
X36942900Y-13919200I-87500J0D01*
G01*
X36942900Y-15824200D02*
G75*
G03*
X36942900Y-15824200I-87500J0D01*
G01*
X37831900Y-10109200D02*
G75*
G03*
X37831900Y-10109200I-87500J0D01*
G01*
X37831900Y-12014200D02*
G75*
G03*
X37831900Y-12014200I-87500J0D01*
G01*
X37831900Y-13919200D02*
G75*
G03*
X37831900Y-13919200I-87500J0D01*
G01*
X37831900Y-15824200D02*
G75*
G03*
X37831900Y-15824200I-87500J0D01*
G01*
X38847900Y-10109200D02*
G75*
G03*
X38847900Y-10109200I-87500J0D01*
G01*
X38847900Y-12014200D02*
G75*
G03*
X38847900Y-12014200I-87500J0D01*
G01*
X38847900Y-13919200D02*
G75*
G03*
X38847900Y-13919200I-87500J0D01*
G01*
X38847900Y-15824200D02*
G75*
G03*
X38847900Y-15824200I-87500J0D01*
G01*
D13*
X3962400Y-10512200D02*
X3962400Y-10722200D01*
X3857400Y-10617200D02*
X4067400Y-10617200D01*
X4200525Y-12417200D02*
X4200525Y-12627200D01*
X4095525Y-12522200D02*
X4305525Y-12522200D01*
X4200525Y-16227200D02*
X4200525Y-16437200D01*
X4095525Y-16332200D02*
X4305525Y-16332200D01*
X4676775Y-14322200D02*
X4676775Y-14532200D01*
X4571775Y-14427200D02*
X4781775Y-14427200D01*
X5867400Y-10512200D02*
X5867400Y-10722200D01*
X5762400Y-10617200D02*
X5972400Y-10617200D01*
X6350000Y-12417200D02*
X6350000Y-12627200D01*
X6245000Y-12522200D02*
X6455000Y-12522200D01*
X6578600Y-16227200D02*
X6578600Y-16437200D01*
X6473600Y-16332200D02*
X6683600Y-16332200D01*
X7289800Y-14322200D02*
X7289800Y-14532200D01*
X7184800Y-14427200D02*
X7394800Y-14427200D01*
X7772400Y-10512200D02*
X7772400Y-10722200D01*
X7667400Y-10617200D02*
X7877400Y-10617200D01*
X8255000Y-12417200D02*
X8255000Y-12627200D01*
X8150000Y-12522200D02*
X8360000Y-12522200D01*
X8956675Y-16227200D02*
X8956675Y-16437200D01*
X8851675Y-16332200D02*
X9061675Y-16332200D01*
X9194800Y-14322200D02*
X9194800Y-14532200D01*
X9089800Y-14427200D02*
X9299800Y-14427200D01*
X9677400Y-10512200D02*
X9677400Y-10722200D01*
X9572400Y-10617200D02*
X9782400Y-10617200D01*
X10160000Y-12417200D02*
X10160000Y-12627200D01*
X10055000Y-12522200D02*
X10265000Y-12522200D01*
X11099800Y-14322200D02*
X11099800Y-14532200D01*
X10994800Y-14427200D02*
X11204800Y-14427200D01*
X11582400Y-10512200D02*
X11582400Y-10722200D01*
X11477400Y-10617200D02*
X11687400Y-10617200D01*
X12065000Y-12417200D02*
X12065000Y-12627200D01*
X11960000Y-12522200D02*
X12170000Y-12522200D01*
X12766675Y-16227200D02*
X12766675Y-16437200D01*
X12661675Y-16332200D02*
X12871675Y-16332200D01*
X13004800Y-14322200D02*
X13004800Y-14532200D01*
X12899800Y-14427200D02*
X13109800Y-14427200D01*
X13487400Y-10512200D02*
X13487400Y-10722200D01*
X13382400Y-10617200D02*
X13592400Y-10617200D01*
X13970000Y-12417200D02*
X13970000Y-12627200D01*
X13865000Y-12522200D02*
X14075000Y-12522200D01*
X14910000Y-14322200D02*
X14910000Y-14532200D01*
X14805000Y-14427200D02*
X15015000Y-14427200D01*
X15392400Y-10512200D02*
X15392400Y-10722200D01*
X15287400Y-10617200D02*
X15497400Y-10617200D01*
X15875000Y-12417200D02*
X15875000Y-12627200D01*
X15770000Y-12522200D02*
X15980000Y-12522200D01*
X16814800Y-14322200D02*
X16814800Y-14532200D01*
X16709800Y-14427200D02*
X16919800Y-14427200D01*
X17297400Y-10512200D02*
X17297400Y-10722200D01*
X17192400Y-10617200D02*
X17402400Y-10617200D01*
X17780000Y-12417200D02*
X17780000Y-12627200D01*
X17675000Y-12522200D02*
X17885000Y-12522200D01*
X18008600Y-16227200D02*
X18008600Y-16437200D01*
X17903600Y-16332200D02*
X18113600Y-16332200D01*
X18719800Y-14322200D02*
X18719800Y-14532200D01*
X18614800Y-14427200D02*
X18824800Y-14427200D01*
X19202400Y-10512200D02*
X19202400Y-10722200D01*
X19097400Y-10617200D02*
X19307400Y-10617200D01*
X19685000Y-12417200D02*
X19685000Y-12627200D01*
X19580000Y-12522200D02*
X19790000Y-12522200D01*
X20624800Y-14322200D02*
X20624800Y-14532200D01*
X20519800Y-14427200D02*
X20729800Y-14427200D01*
X21107400Y-10512200D02*
X21107400Y-10722200D01*
X21002400Y-10617200D02*
X21212400Y-10617200D01*
X21590000Y-12417200D02*
X21590000Y-12627200D01*
X21485000Y-12522200D02*
X21695000Y-12522200D01*
X21818600Y-16227200D02*
X21818600Y-16437200D01*
X21713600Y-16332200D02*
X21923600Y-16332200D01*
X22529800Y-14322200D02*
X22529800Y-14532200D01*
X22424800Y-14427200D02*
X22634800Y-14427200D01*
X23012400Y-10512200D02*
X23012400Y-10722200D01*
X22907400Y-10617200D02*
X23117400Y-10617200D01*
X23495000Y-12417200D02*
X23495000Y-12627200D01*
X23390000Y-12522200D02*
X23600000Y-12522200D01*
X24196675Y-16227200D02*
X24196675Y-16437200D01*
X24091675Y-16332200D02*
X24301675Y-16332200D01*
X24434800Y-14322200D02*
X24434800Y-14532200D01*
X24329800Y-14427200D02*
X24539800Y-14427200D01*
X24917400Y-10512200D02*
X24917400Y-10722200D01*
X24812400Y-10617200D02*
X25022400Y-10617200D01*
X25400000Y-12417200D02*
X25400000Y-12627200D01*
X25295000Y-12522200D02*
X25505000Y-12522200D01*
X26584275Y-16227200D02*
X26584275Y-16437200D01*
X26479275Y-16332200D02*
X26689275Y-16332200D01*
X26822400Y-10512200D02*
X26822400Y-10722200D01*
X26717400Y-10617200D02*
X26927400Y-10617200D01*
X27536775Y-14322200D02*
X27536775Y-14532200D01*
X27431775Y-14427200D02*
X27641775Y-14427200D01*
X28013025Y-12417200D02*
X28013025Y-12627200D01*
X27908025Y-12522200D02*
X28118025Y-12522200D01*
X28727400Y-10512200D02*
X28727400Y-10722200D01*
X28622400Y-10617200D02*
X28832400Y-10617200D01*
X28727400Y-16227200D02*
X28727400Y-16437200D01*
X28622400Y-16332200D02*
X28832400Y-16332200D01*
X32537400Y-10512200D02*
X32537400Y-10722200D01*
X32432400Y-10617200D02*
X32642400Y-10617200D01*
X32537400Y-12417200D02*
X32537400Y-12627200D01*
X32432400Y-12522200D02*
X32642400Y-12522200D01*
X32537400Y-14322200D02*
X32537400Y-14532200D01*
X32432400Y-14427200D02*
X32642400Y-14427200D01*
X32537400Y-16227200D02*
X32537400Y-16437200D01*
X32432400Y-16332200D02*
X32642400Y-16332200D01*
X34442400Y-10512200D02*
X34442400Y-10722200D01*
X34337400Y-10617200D02*
X34547400Y-10617200D01*
X34442400Y-12417200D02*
X34442400Y-12627200D01*
X34337400Y-12522200D02*
X34547400Y-12522200D01*
X34442400Y-14322200D02*
X34442400Y-14532200D01*
X34337400Y-14427200D02*
X34547400Y-14427200D01*
X34442400Y-16227200D02*
X34442400Y-16437200D01*
X34337400Y-16332200D02*
X34547400Y-16332200D01*
X36347400Y-10512200D02*
X36347400Y-10722200D01*
X36242400Y-10617200D02*
X36452400Y-10617200D01*
X36347400Y-12417200D02*
X36347400Y-12627200D01*
X36242400Y-12522200D02*
X36452400Y-12522200D01*
X36347400Y-14322200D02*
X36347400Y-14532200D01*
X36242400Y-14427200D02*
X36452400Y-14427200D01*
X36347400Y-16227200D02*
X36347400Y-16437200D01*
X36242400Y-16332200D02*
X36452400Y-16332200D01*
X38252400Y-10512200D02*
X38252400Y-10722200D01*
X38147400Y-10617200D02*
X38357400Y-10617200D01*
X38252400Y-12417200D02*
X38252400Y-12627200D01*
X38147400Y-12522200D02*
X38357400Y-12522200D01*
X38252400Y-14322200D02*
X38252400Y-14532200D01*
X38147400Y-14427200D02*
X38357400Y-14427200D01*
X38252400Y-16227200D02*
X38252400Y-16437200D01*
X38147400Y-16332200D02*
X38357400Y-16332200D01*
D14*
X5468933Y-11139483D02*
X5468933Y-10983918D01*
X5313368Y-10983918D01*
X5313368Y-11139483D01*
X5468933Y-11139483D01*
X5468933Y-14949482D02*
X5468933Y-14793917D01*
X5313368Y-14793917D01*
X5313368Y-14949482D01*
X5468933Y-14949482D01*
X25471432Y-14949482D02*
X25471432Y-14793917D01*
X25315867Y-14793917D01*
X25315867Y-14949482D01*
X25471432Y-14949482D01*
X25947782Y-11137783D02*
X25947782Y-10982218D01*
X25792217Y-10982218D01*
X25792217Y-11137783D01*
X25947782Y-11137783D01*
X37377683Y-11139483D02*
X37377683Y-10983918D01*
X37222118Y-10983918D01*
X37222118Y-11139483D01*
X37377683Y-11139483D01*
X37377783Y-14947782D02*
X37377783Y-14792217D01*
X37222218Y-14792217D01*
X37222218Y-14947782D01*
X37377783Y-14947782D01*
D15*
X11572875Y-16675100D02*
X11725275Y-16522700D01*
X11572875Y-16370300D01*
X11420475Y-16522700D01*
X11572875Y-16675100D01*
X13960475Y-16675100D02*
X14112875Y-16522700D01*
X13960475Y-16370300D01*
X13808075Y-16522700D01*
X13960475Y-16675100D01*
X16814800Y-16675100D02*
X16967200Y-16522700D01*
X16814800Y-16370300D01*
X16662400Y-16522700D01*
X16814800Y-16675100D01*
X19202400Y-16675100D02*
X19354800Y-16522700D01*
X19202400Y-16370300D01*
X19050000Y-16522700D01*
X19202400Y-16675100D01*
X26342975Y-13373100D02*
X26495375Y-13220700D01*
X26342975Y-13068300D01*
X26190575Y-13220700D01*
X26342975Y-13373100D01*
X28730575Y-13373100D02*
X28882975Y-13220700D01*
X28730575Y-13068300D01*
X28578175Y-13220700D01*
X28730575Y-13373100D01*
D16*
X3763010Y-9909810D02*
X4161790Y-10308590D01*
X4161790Y-9909810D02*
X3763010Y-10308590D01*
X4161790Y-10109200D02*
G75*
G03*
X4161790Y-10109200I-199390J0D01*
G01*
X4001135Y-11814810D02*
X4399915Y-12213590D01*
X4399915Y-11814810D02*
X4001135Y-12213590D01*
X4399915Y-12014200D02*
G75*
G03*
X4399915Y-12014200I-199390J0D01*
G01*
X4001135Y-15624810D02*
X4399915Y-16023590D01*
X4399915Y-15624810D02*
X4001135Y-16023590D01*
X4399915Y-15824200D02*
G75*
G03*
X4399915Y-15824200I-199390J0D01*
G01*
X4477385Y-13719810D02*
X4876165Y-14118590D01*
X4876165Y-13719810D02*
X4477385Y-14118590D01*
X4876165Y-13919200D02*
G75*
G03*
X4876165Y-13919200I-199390J0D01*
G01*
X5668010Y-9909810D02*
X6066790Y-10308590D01*
X6066790Y-9909810D02*
X5668010Y-10308590D01*
X6066790Y-10109200D02*
G75*
G03*
X6066790Y-10109200I-199390J0D01*
G01*
X6150610Y-11814810D02*
X6549390Y-12213590D01*
X6549390Y-11814810D02*
X6150610Y-12213590D01*
X6549390Y-12014200D02*
G75*
G03*
X6549390Y-12014200I-199390J0D01*
G01*
X6379210Y-15624810D02*
X6777990Y-16023590D01*
X6777990Y-15624810D02*
X6379210Y-16023590D01*
X6777990Y-15824200D02*
G75*
G03*
X6777990Y-15824200I-199390J0D01*
G01*
X7090410Y-13719810D02*
X7489190Y-14118590D01*
X7489190Y-13719810D02*
X7090410Y-14118590D01*
X7489190Y-13919200D02*
G75*
G03*
X7489190Y-13919200I-199390J0D01*
G01*
X7573010Y-9909810D02*
X7971790Y-10308590D01*
X7971790Y-9909810D02*
X7573010Y-10308590D01*
X7971790Y-10109200D02*
G75*
G03*
X7971790Y-10109200I-199390J0D01*
G01*
X8055610Y-11814810D02*
X8454390Y-12213590D01*
X8454390Y-11814810D02*
X8055610Y-12213590D01*
X8454390Y-12014200D02*
G75*
G03*
X8454390Y-12014200I-199390J0D01*
G01*
X8757285Y-15624810D02*
X9156065Y-16023590D01*
X9156065Y-15624810D02*
X8757285Y-16023590D01*
X9156065Y-15824200D02*
G75*
G03*
X9156065Y-15824200I-199390J0D01*
G01*
X8995410Y-13719810D02*
X9394190Y-14118590D01*
X9394190Y-13719810D02*
X8995410Y-14118590D01*
X9394190Y-13919200D02*
G75*
G03*
X9394190Y-13919200I-199390J0D01*
G01*
X9478010Y-9909810D02*
X9876790Y-10308590D01*
X9876790Y-9909810D02*
X9478010Y-10308590D01*
X9876790Y-10109200D02*
G75*
G03*
X9876790Y-10109200I-199390J0D01*
G01*
X9960610Y-11814810D02*
X10359390Y-12213590D01*
X10359390Y-11814810D02*
X9960610Y-12213590D01*
X10359390Y-12014200D02*
G75*
G03*
X10359390Y-12014200I-199390J0D01*
G01*
X10900410Y-13719810D02*
X11299190Y-14118590D01*
X11299190Y-13719810D02*
X10900410Y-14118590D01*
X11299190Y-13919200D02*
G75*
G03*
X11299190Y-13919200I-199390J0D01*
G01*
X11373485Y-14799310D02*
X11772265Y-15198090D01*
X11772265Y-14799310D02*
X11373485Y-15198090D01*
X11772265Y-14998700D02*
G75*
G03*
X11772265Y-14998700I-199390J0D01*
G01*
X11383010Y-9909810D02*
X11781790Y-10308590D01*
X11781790Y-9909810D02*
X11383010Y-10308590D01*
X11781790Y-10109200D02*
G75*
G03*
X11781790Y-10109200I-199390J0D01*
G01*
X11865610Y-11814810D02*
X12264390Y-12213590D01*
X12264390Y-11814810D02*
X11865610Y-12213590D01*
X12264390Y-12014200D02*
G75*
G03*
X12264390Y-12014200I-199390J0D01*
G01*
X12567285Y-15624810D02*
X12966065Y-16023590D01*
X12966065Y-15624810D02*
X12567285Y-16023590D01*
X12966065Y-15824200D02*
G75*
G03*
X12966065Y-15824200I-199390J0D01*
G01*
X12805410Y-13719810D02*
X13204190Y-14118590D01*
X13204190Y-13719810D02*
X12805410Y-14118590D01*
X13204190Y-13919200D02*
G75*
G03*
X13204190Y-13919200I-199390J0D01*
G01*
X13288010Y-9909810D02*
X13686790Y-10308590D01*
X13686790Y-9909810D02*
X13288010Y-10308590D01*
X13686790Y-10109200D02*
G75*
G03*
X13686790Y-10109200I-199390J0D01*
G01*
X13761085Y-14799310D02*
X14159865Y-15198090D01*
X14159865Y-14799310D02*
X13761085Y-15198090D01*
X14159865Y-14998700D02*
G75*
G03*
X14159865Y-14998700I-199390J0D01*
G01*
X13770610Y-11814810D02*
X14169390Y-12213590D01*
X14169390Y-11814810D02*
X13770610Y-12213590D01*
X14169390Y-12014200D02*
G75*
G03*
X14169390Y-12014200I-199390J0D01*
G01*
X14710410Y-13719810D02*
X15109190Y-14118590D01*
X15109190Y-13719810D02*
X14710410Y-14118590D01*
X15109190Y-13919200D02*
G75*
G03*
X15109190Y-13919200I-199390J0D01*
G01*
X15193010Y-9909810D02*
X15591790Y-10308590D01*
X15591790Y-9909810D02*
X15193010Y-10308590D01*
X15591790Y-10109200D02*
G75*
G03*
X15591790Y-10109200I-199390J0D01*
G01*
X15675610Y-11814810D02*
X16074390Y-12213590D01*
X16074390Y-11814810D02*
X15675610Y-12213590D01*
X16074390Y-12014200D02*
G75*
G03*
X16074390Y-12014200I-199390J0D01*
G01*
X16615410Y-13719810D02*
X17014190Y-14118590D01*
X17014190Y-13719810D02*
X16615410Y-14118590D01*
X17014190Y-13919200D02*
G75*
G03*
X17014190Y-13919200I-199390J0D01*
G01*
X16615410Y-14799310D02*
X17014190Y-15198090D01*
X17014190Y-14799310D02*
X16615410Y-15198090D01*
X17014190Y-14998700D02*
G75*
G03*
X17014190Y-14998700I-199390J0D01*
G01*
X17098010Y-9909810D02*
X17496790Y-10308590D01*
X17496790Y-9909810D02*
X17098010Y-10308590D01*
X17496790Y-10109200D02*
G75*
G03*
X17496790Y-10109200I-199390J0D01*
G01*
X17580610Y-11814810D02*
X17979390Y-12213590D01*
X17979390Y-11814810D02*
X17580610Y-12213590D01*
X17979390Y-12014200D02*
G75*
G03*
X17979390Y-12014200I-199390J0D01*
G01*
X17809210Y-15624810D02*
X18207990Y-16023590D01*
X18207990Y-15624810D02*
X17809210Y-16023590D01*
X18207990Y-15824200D02*
G75*
G03*
X18207990Y-15824200I-199390J0D01*
G01*
X18520410Y-13719810D02*
X18919190Y-14118590D01*
X18919190Y-13719810D02*
X18520410Y-14118590D01*
X18919190Y-13919200D02*
G75*
G03*
X18919190Y-13919200I-199390J0D01*
G01*
X19003010Y-9909810D02*
X19401790Y-10308590D01*
X19401790Y-9909810D02*
X19003010Y-10308590D01*
X19401790Y-10109200D02*
G75*
G03*
X19401790Y-10109200I-199390J0D01*
G01*
X19003010Y-14799310D02*
X19401790Y-15198090D01*
X19401790Y-14799310D02*
X19003010Y-15198090D01*
X19401790Y-14998700D02*
G75*
G03*
X19401790Y-14998700I-199390J0D01*
G01*
X19485610Y-11814810D02*
X19884390Y-12213590D01*
X19884390Y-11814810D02*
X19485610Y-12213590D01*
X19884390Y-12014200D02*
G75*
G03*
X19884390Y-12014200I-199390J0D01*
G01*
X20425410Y-13719810D02*
X20824190Y-14118590D01*
X20824190Y-13719810D02*
X20425410Y-14118590D01*
X20824190Y-13919200D02*
G75*
G03*
X20824190Y-13919200I-199390J0D01*
G01*
X20908010Y-9909810D02*
X21306790Y-10308590D01*
X21306790Y-9909810D02*
X20908010Y-10308590D01*
X21306790Y-10109200D02*
G75*
G03*
X21306790Y-10109200I-199390J0D01*
G01*
X21390610Y-11814810D02*
X21789390Y-12213590D01*
X21789390Y-11814810D02*
X21390610Y-12213590D01*
X21789390Y-12014200D02*
G75*
G03*
X21789390Y-12014200I-199390J0D01*
G01*
X21619210Y-15624810D02*
X22017990Y-16023590D01*
X22017990Y-15624810D02*
X21619210Y-16023590D01*
X22017990Y-15824200D02*
G75*
G03*
X22017990Y-15824200I-199390J0D01*
G01*
X22330410Y-13719810D02*
X22729190Y-14118590D01*
X22729190Y-13719810D02*
X22330410Y-14118590D01*
X22729190Y-13919200D02*
G75*
G03*
X22729190Y-13919200I-199390J0D01*
G01*
X22813010Y-9909810D02*
X23211790Y-10308590D01*
X23211790Y-9909810D02*
X22813010Y-10308590D01*
X23211790Y-10109200D02*
G75*
G03*
X23211790Y-10109200I-199390J0D01*
G01*
X23295610Y-11814810D02*
X23694390Y-12213590D01*
X23694390Y-11814810D02*
X23295610Y-12213590D01*
X23694390Y-12014200D02*
G75*
G03*
X23694390Y-12014200I-199390J0D01*
G01*
X23997285Y-15624810D02*
X24396065Y-16023590D01*
X24396065Y-15624810D02*
X23997285Y-16023590D01*
X24396065Y-15824200D02*
G75*
G03*
X24396065Y-15824200I-199390J0D01*
G01*
X24235410Y-13719810D02*
X24634190Y-14118590D01*
X24634190Y-13719810D02*
X24235410Y-14118590D01*
X24634190Y-13919200D02*
G75*
G03*
X24634190Y-13919200I-199390J0D01*
G01*
X24718010Y-9909810D02*
X25116790Y-10308590D01*
X25116790Y-9909810D02*
X24718010Y-10308590D01*
X25116790Y-10109200D02*
G75*
G03*
X25116790Y-10109200I-199390J0D01*
G01*
X25200610Y-11814810D02*
X25599390Y-12213590D01*
X25599390Y-11814810D02*
X25200610Y-12213590D01*
X25599390Y-12014200D02*
G75*
G03*
X25599390Y-12014200I-199390J0D01*
G01*
X26143585Y-14545310D02*
X26542365Y-14944090D01*
X26542365Y-14545310D02*
X26143585Y-14944090D01*
X26542365Y-14744700D02*
G75*
G03*
X26542365Y-14744700I-199390J0D01*
G01*
X26384885Y-15624810D02*
X26783665Y-16023590D01*
X26783665Y-15624810D02*
X26384885Y-16023590D01*
X26783665Y-15824200D02*
G75*
G03*
X26783665Y-15824200I-199390J0D01*
G01*
X26623010Y-9909810D02*
X27021790Y-10308590D01*
X27021790Y-9909810D02*
X26623010Y-10308590D01*
X27021790Y-10109200D02*
G75*
G03*
X27021790Y-10109200I-199390J0D01*
G01*
X27337385Y-13719810D02*
X27736165Y-14118590D01*
X27736165Y-13719810D02*
X27337385Y-14118590D01*
X27736165Y-13919200D02*
G75*
G03*
X27736165Y-13919200I-199390J0D01*
G01*
X27813635Y-11814810D02*
X28212415Y-12213590D01*
X28212415Y-11814810D02*
X27813635Y-12213590D01*
X28212415Y-12014200D02*
G75*
G03*
X28212415Y-12014200I-199390J0D01*
G01*
X28528010Y-9909810D02*
X28926790Y-10308590D01*
X28926790Y-9909810D02*
X28528010Y-10308590D01*
X28926790Y-10109200D02*
G75*
G03*
X28926790Y-10109200I-199390J0D01*
G01*
X28528010Y-15624810D02*
X28926790Y-16023590D01*
X28926790Y-15624810D02*
X28528010Y-16023590D01*
X28926790Y-15824200D02*
G75*
G03*
X28926790Y-15824200I-199390J0D01*
G01*
X28531185Y-14545310D02*
X28929965Y-14944090D01*
X28929965Y-14545310D02*
X28531185Y-14944090D01*
X28929965Y-14744700D02*
G75*
G03*
X28929965Y-14744700I-199390J0D01*
G01*
X32338010Y-9909810D02*
X32736790Y-10308590D01*
X32736790Y-9909810D02*
X32338010Y-10308590D01*
X32736790Y-10109200D02*
G75*
G03*
X32736790Y-10109200I-199390J0D01*
G01*
X32338010Y-11814810D02*
X32736790Y-12213590D01*
X32736790Y-11814810D02*
X32338010Y-12213590D01*
X32736790Y-12014200D02*
G75*
G03*
X32736790Y-12014200I-199390J0D01*
G01*
X32338010Y-13719810D02*
X32736790Y-14118590D01*
X32736790Y-13719810D02*
X32338010Y-14118590D01*
X32736790Y-13919200D02*
G75*
G03*
X32736790Y-13919200I-199390J0D01*
G01*
X32338010Y-15624810D02*
X32736790Y-16023590D01*
X32736790Y-15624810D02*
X32338010Y-16023590D01*
X32736790Y-15824200D02*
G75*
G03*
X32736790Y-15824200I-199390J0D01*
G01*
X34243010Y-9909810D02*
X34641790Y-10308590D01*
X34641790Y-9909810D02*
X34243010Y-10308590D01*
X34641790Y-10109200D02*
G75*
G03*
X34641790Y-10109200I-199390J0D01*
G01*
X34243010Y-11814810D02*
X34641790Y-12213590D01*
X34641790Y-11814810D02*
X34243010Y-12213590D01*
X34641790Y-12014200D02*
G75*
G03*
X34641790Y-12014200I-199390J0D01*
G01*
X34243010Y-13719810D02*
X34641790Y-14118590D01*
X34641790Y-13719810D02*
X34243010Y-14118590D01*
X34641790Y-13919200D02*
G75*
G03*
X34641790Y-13919200I-199390J0D01*
G01*
X34243010Y-15624810D02*
X34641790Y-16023590D01*
X34641790Y-15624810D02*
X34243010Y-16023590D01*
X34641790Y-15824200D02*
G75*
G03*
X34641790Y-15824200I-199390J0D01*
G01*
X36148010Y-9909810D02*
X36546790Y-10308590D01*
X36546790Y-9909810D02*
X36148010Y-10308590D01*
X36546790Y-10109200D02*
G75*
G03*
X36546790Y-10109200I-199390J0D01*
G01*
X36148010Y-11814810D02*
X36546790Y-12213590D01*
X36546790Y-11814810D02*
X36148010Y-12213590D01*
X36546790Y-12014200D02*
G75*
G03*
X36546790Y-12014200I-199390J0D01*
G01*
X36148010Y-13719810D02*
X36546790Y-14118590D01*
X36546790Y-13719810D02*
X36148010Y-14118590D01*
X36546790Y-13919200D02*
G75*
G03*
X36546790Y-13919200I-199390J0D01*
G01*
X36148010Y-15624810D02*
X36546790Y-16023590D01*
X36546790Y-15624810D02*
X36148010Y-16023590D01*
X36546790Y-15824200D02*
G75*
G03*
X36546790Y-15824200I-199390J0D01*
G01*
X38053010Y-9909810D02*
X38451790Y-10308590D01*
X38451790Y-9909810D02*
X38053010Y-10308590D01*
X38451790Y-10109200D02*
G75*
G03*
X38451790Y-10109200I-199390J0D01*
G01*
X38053010Y-11814810D02*
X38451790Y-12213590D01*
X38451790Y-11814810D02*
X38053010Y-12213590D01*
X38451790Y-12014200D02*
G75*
G03*
X38451790Y-12014200I-199390J0D01*
G01*
X38053010Y-13719810D02*
X38451790Y-14118590D01*
X38451790Y-13719810D02*
X38053010Y-14118590D01*
X38451790Y-13919200D02*
G75*
G03*
X38451790Y-13919200I-199390J0D01*
G01*
X38053010Y-15624810D02*
X38451790Y-16023590D01*
X38451790Y-15624810D02*
X38053010Y-16023590D01*
X38451790Y-15824200D02*
G75*
G03*
X38451790Y-15824200I-199390J0D01*
G01*
D10*
X3310019Y-17044676D02*
X3310019Y-16844676D01*
X3357638Y-16844676D01*
X3386209Y-16854200D01*
X3405257Y-16873248D01*
X3414781Y-16892295D01*
X3424305Y-16930390D01*
X3424305Y-16958962D01*
X3414781Y-16997057D01*
X3405257Y-17016105D01*
X3386209Y-17035152D01*
X3357638Y-17044676D01*
X3310019Y-17044676D01*
X3510019Y-17044676D02*
X3510019Y-16911343D01*
X3510019Y-16949438D02*
X3519543Y-16930390D01*
X3529067Y-16920867D01*
X3548114Y-16911343D01*
X3567162Y-16911343D01*
X3633828Y-17044676D02*
X3633828Y-16911343D01*
X3633828Y-16844676D02*
X3624305Y-16854200D01*
X3633828Y-16863724D01*
X3643352Y-16854200D01*
X3633828Y-16844676D01*
X3633828Y-16863724D01*
X3757638Y-17044676D02*
X3738590Y-17035152D01*
X3729067Y-17016105D01*
X3729067Y-16844676D01*
X3862400Y-17044676D02*
X3843352Y-17035152D01*
X3833828Y-17016105D01*
X3833828Y-16844676D01*
X4090971Y-17044676D02*
X4090971Y-16844676D01*
X4157638Y-16987533D01*
X4224305Y-16844676D01*
X4224305Y-17044676D01*
X4405257Y-17044676D02*
X4405257Y-16939914D01*
X4395733Y-16920867D01*
X4376686Y-16911343D01*
X4338590Y-16911343D01*
X4319543Y-16920867D01*
X4405257Y-17035152D02*
X4386210Y-17044676D01*
X4338590Y-17044676D01*
X4319543Y-17035152D01*
X4310019Y-17016105D01*
X4310019Y-16997057D01*
X4319543Y-16978010D01*
X4338590Y-16968486D01*
X4386210Y-16968486D01*
X4405257Y-16958962D01*
X4500495Y-16911343D02*
X4500495Y-17111343D01*
X4500495Y-16920867D02*
X4519543Y-16911343D01*
X4557638Y-16911343D01*
X4576686Y-16920867D01*
X4586210Y-16930390D01*
X4595733Y-16949438D01*
X4595733Y-17006581D01*
X4586210Y-17025629D01*
X4576686Y-17035152D01*
X4557638Y-17044676D01*
X4519543Y-17044676D01*
X4500495Y-17035152D01*
X4681448Y-17025629D02*
X4690971Y-17035152D01*
X4681448Y-17044676D01*
X4671924Y-17035152D01*
X4681448Y-17025629D01*
X4681448Y-17044676D01*
X4681448Y-16920867D02*
X4690971Y-16930390D01*
X4681448Y-16939914D01*
X4671924Y-16930390D01*
X4681448Y-16920867D01*
X4681448Y-16939914D01*
D11*
X2882400Y-17289200D02*
X3052400Y-17459200D01*
X3052400Y-17289200D02*
X2882400Y-17459200D01*
D10*
X3414781Y-17464676D02*
X3300495Y-17464676D01*
X3357638Y-17464676D02*
X3357638Y-17264676D01*
X3338590Y-17293248D01*
X3319543Y-17312295D01*
X3300495Y-17321819D01*
X3500495Y-17445629D02*
X3510019Y-17455152D01*
X3500495Y-17464676D01*
X3490971Y-17455152D01*
X3500495Y-17445629D01*
X3500495Y-17464676D01*
X3576686Y-17264676D02*
X3710019Y-17264676D01*
X3624305Y-17464676D01*
X3824305Y-17264676D02*
X3843352Y-17264676D01*
X3862400Y-17274200D01*
X3871924Y-17283724D01*
X3881448Y-17302771D01*
X3890971Y-17340867D01*
X3890971Y-17388486D01*
X3881448Y-17426581D01*
X3871924Y-17445629D01*
X3862400Y-17455152D01*
X3843352Y-17464676D01*
X3824305Y-17464676D01*
X3805257Y-17455152D01*
X3795733Y-17445629D01*
X3786209Y-17426581D01*
X3776686Y-17388486D01*
X3776686Y-17340867D01*
X3786209Y-17302771D01*
X3795733Y-17283724D01*
X3805257Y-17274200D01*
X3824305Y-17264676D01*
X4014781Y-17264676D02*
X4033828Y-17264676D01*
X4052876Y-17274200D01*
X4062400Y-17283724D01*
X4071924Y-17302771D01*
X4081448Y-17340867D01*
X4081448Y-17388486D01*
X4071924Y-17426581D01*
X4062400Y-17445629D01*
X4052876Y-17455152D01*
X4033828Y-17464676D01*
X4014781Y-17464676D01*
X3995733Y-17455152D01*
X3986209Y-17445629D01*
X3976686Y-17426581D01*
X3967162Y-17388486D01*
X3967162Y-17340867D01*
X3976686Y-17302771D01*
X3986209Y-17283724D01*
X3995733Y-17274200D01*
X4014781Y-17264676D01*
X4167162Y-17464676D02*
X4167162Y-17331343D01*
X4167162Y-17350390D02*
X4176686Y-17340867D01*
X4195733Y-17331343D01*
X4224305Y-17331343D01*
X4243352Y-17340867D01*
X4252876Y-17359914D01*
X4252876Y-17464676D01*
X4252876Y-17359914D02*
X4262400Y-17340867D01*
X4281448Y-17331343D01*
X4310019Y-17331343D01*
X4329067Y-17340867D01*
X4338590Y-17359914D01*
X4338590Y-17464676D01*
X4433829Y-17464676D02*
X4433829Y-17331343D01*
X4433829Y-17350390D02*
X4443352Y-17340867D01*
X4462400Y-17331343D01*
X4490971Y-17331343D01*
X4510019Y-17340867D01*
X4519543Y-17359914D01*
X4519543Y-17464676D01*
X4519543Y-17359914D02*
X4529067Y-17340867D01*
X4548114Y-17331343D01*
X4576686Y-17331343D01*
X4595733Y-17340867D01*
X4605257Y-17359914D01*
X4605257Y-17464676D01*
X4995733Y-17255152D02*
X4824305Y-17512295D01*
X5252876Y-17264676D02*
X5271924Y-17264676D01*
X5290971Y-17274200D01*
X5300495Y-17283724D01*
X5310019Y-17302771D01*
X5319543Y-17340867D01*
X5319543Y-17388486D01*
X5310019Y-17426581D01*
X5300495Y-17445629D01*
X5290971Y-17455152D01*
X5271924Y-17464676D01*
X5252876Y-17464676D01*
X5233829Y-17455152D01*
X5224305Y-17445629D01*
X5214781Y-17426581D01*
X5205257Y-17388486D01*
X5205257Y-17340867D01*
X5214781Y-17302771D01*
X5224305Y-17283724D01*
X5233829Y-17274200D01*
X5252876Y-17264676D01*
X5405257Y-17445629D02*
X5414781Y-17455152D01*
X5405257Y-17464676D01*
X5395733Y-17455152D01*
X5405257Y-17445629D01*
X5405257Y-17464676D01*
X5538590Y-17264676D02*
X5557638Y-17264676D01*
X5576686Y-17274200D01*
X5586210Y-17283724D01*
X5595733Y-17302771D01*
X5605257Y-17340867D01*
X5605257Y-17388486D01*
X5595733Y-17426581D01*
X5586210Y-17445629D01*
X5576686Y-17455152D01*
X5557638Y-17464676D01*
X5538590Y-17464676D01*
X5519543Y-17455152D01*
X5510019Y-17445629D01*
X5500495Y-17426581D01*
X5490971Y-17388486D01*
X5490971Y-17340867D01*
X5500495Y-17302771D01*
X5510019Y-17283724D01*
X5519543Y-17274200D01*
X5538590Y-17264676D01*
X5776686Y-17264676D02*
X5738590Y-17264676D01*
X5719543Y-17274200D01*
X5710019Y-17283724D01*
X5690971Y-17312295D01*
X5681448Y-17350390D01*
X5681448Y-17426581D01*
X5690971Y-17445629D01*
X5700495Y-17455152D01*
X5719543Y-17464676D01*
X5757638Y-17464676D01*
X5776686Y-17455152D01*
X5786209Y-17445629D01*
X5795733Y-17426581D01*
X5795733Y-17378962D01*
X5786209Y-17359914D01*
X5776686Y-17350390D01*
X5757638Y-17340867D01*
X5719543Y-17340867D01*
X5700495Y-17350390D01*
X5690971Y-17359914D01*
X5681448Y-17378962D01*
X5967162Y-17264676D02*
X5929067Y-17264676D01*
X5910019Y-17274200D01*
X5900495Y-17283724D01*
X5881448Y-17312295D01*
X5871924Y-17350390D01*
X5871924Y-17426581D01*
X5881448Y-17445629D01*
X5890971Y-17455152D01*
X5910019Y-17464676D01*
X5948114Y-17464676D01*
X5967162Y-17455152D01*
X5976686Y-17445629D01*
X5986209Y-17426581D01*
X5986209Y-17378962D01*
X5976686Y-17359914D01*
X5967162Y-17350390D01*
X5948114Y-17340867D01*
X5910019Y-17340867D01*
X5890971Y-17350390D01*
X5881448Y-17359914D01*
X5871924Y-17378962D01*
X6081448Y-17464676D02*
X6119543Y-17464676D01*
X6138590Y-17455152D01*
X6148114Y-17445629D01*
X6167162Y-17417057D01*
X6176686Y-17378962D01*
X6176686Y-17302771D01*
X6167162Y-17283724D01*
X6157638Y-17274200D01*
X6138590Y-17264676D01*
X6100495Y-17264676D01*
X6081448Y-17274200D01*
X6071924Y-17283724D01*
X6062400Y-17302771D01*
X6062400Y-17350390D01*
X6071924Y-17369438D01*
X6081448Y-17378962D01*
X6100495Y-17388486D01*
X6138590Y-17388486D01*
X6157638Y-17378962D01*
X6167162Y-17369438D01*
X6176686Y-17350390D01*
X6252876Y-17264676D02*
X6252876Y-17302771D01*
X6329067Y-17264676D02*
X6329067Y-17302771D01*
X6624305Y-17540867D02*
X6614781Y-17531343D01*
X6595733Y-17502771D01*
X6586209Y-17483724D01*
X6576686Y-17455152D01*
X6567162Y-17407533D01*
X6567162Y-17369438D01*
X6576686Y-17321819D01*
X6586209Y-17293248D01*
X6595733Y-17274200D01*
X6614781Y-17245629D01*
X6624305Y-17236105D01*
X6805257Y-17464676D02*
X6690971Y-17464676D01*
X6748114Y-17464676D02*
X6748114Y-17264676D01*
X6729067Y-17293248D01*
X6710019Y-17312295D01*
X6690971Y-17321819D01*
X7043352Y-17464676D02*
X7043352Y-17264676D01*
X7129067Y-17464676D02*
X7129067Y-17359914D01*
X7119543Y-17340867D01*
X7100495Y-17331343D01*
X7071924Y-17331343D01*
X7052876Y-17340867D01*
X7043352Y-17350390D01*
X7252876Y-17464676D02*
X7233828Y-17455152D01*
X7224305Y-17445629D01*
X7214781Y-17426581D01*
X7214781Y-17369438D01*
X7224305Y-17350390D01*
X7233828Y-17340867D01*
X7252876Y-17331343D01*
X7281448Y-17331343D01*
X7300495Y-17340867D01*
X7310019Y-17350390D01*
X7319543Y-17369438D01*
X7319543Y-17426581D01*
X7310019Y-17445629D01*
X7300495Y-17455152D01*
X7281448Y-17464676D01*
X7252876Y-17464676D01*
X7433828Y-17464676D02*
X7414781Y-17455152D01*
X7405257Y-17436105D01*
X7405257Y-17264676D01*
X7586209Y-17455152D02*
X7567162Y-17464676D01*
X7529067Y-17464676D01*
X7510019Y-17455152D01*
X7500495Y-17436105D01*
X7500495Y-17359914D01*
X7510019Y-17340867D01*
X7529067Y-17331343D01*
X7567162Y-17331343D01*
X7586209Y-17340867D01*
X7595733Y-17359914D01*
X7595733Y-17378962D01*
X7500495Y-17398010D01*
X7662400Y-17540867D02*
X7671924Y-17531343D01*
X7690971Y-17502771D01*
X7700495Y-17483724D01*
X7710019Y-17455152D01*
X7719543Y-17407533D01*
X7719543Y-17369438D01*
X7710019Y-17321819D01*
X7700495Y-17293248D01*
X7690971Y-17274200D01*
X7671924Y-17245629D01*
X7662400Y-17236105D01*
X8024305Y-17540867D02*
X8014781Y-17531343D01*
X7995733Y-17502771D01*
X7986209Y-17483724D01*
X7976686Y-17455152D01*
X7967162Y-17407533D01*
X7967162Y-17369438D01*
X7976686Y-17321819D01*
X7986209Y-17293248D01*
X7995733Y-17274200D01*
X8014781Y-17245629D01*
X8024305Y-17236105D01*
X8100495Y-17331343D02*
X8100495Y-17464676D01*
X8100495Y-17350390D02*
X8110019Y-17340867D01*
X8129067Y-17331343D01*
X8157638Y-17331343D01*
X8176686Y-17340867D01*
X8186209Y-17359914D01*
X8186209Y-17464676D01*
X8310019Y-17464676D02*
X8290971Y-17455152D01*
X8281448Y-17445629D01*
X8271924Y-17426581D01*
X8271924Y-17369438D01*
X8281448Y-17350390D01*
X8290971Y-17340867D01*
X8310019Y-17331343D01*
X8338590Y-17331343D01*
X8357638Y-17340867D01*
X8367162Y-17350390D01*
X8376686Y-17369438D01*
X8376686Y-17426581D01*
X8367162Y-17445629D01*
X8357638Y-17455152D01*
X8338590Y-17464676D01*
X8310019Y-17464676D01*
X8433829Y-17331343D02*
X8510019Y-17331343D01*
X8462400Y-17264676D02*
X8462400Y-17436105D01*
X8471924Y-17455152D01*
X8490971Y-17464676D01*
X8510019Y-17464676D01*
X8729067Y-17331343D02*
X8729067Y-17531343D01*
X8729067Y-17340867D02*
X8748114Y-17331343D01*
X8786210Y-17331343D01*
X8805257Y-17340867D01*
X8814781Y-17350390D01*
X8824305Y-17369438D01*
X8824305Y-17426581D01*
X8814781Y-17445629D01*
X8805257Y-17455152D01*
X8786210Y-17464676D01*
X8748114Y-17464676D01*
X8729067Y-17455152D01*
X8938590Y-17464676D02*
X8919543Y-17455152D01*
X8910019Y-17436105D01*
X8910019Y-17264676D01*
X9100495Y-17464676D02*
X9100495Y-17359914D01*
X9090971Y-17340867D01*
X9071924Y-17331343D01*
X9033829Y-17331343D01*
X9014781Y-17340867D01*
X9100495Y-17455152D02*
X9081448Y-17464676D01*
X9033829Y-17464676D01*
X9014781Y-17455152D01*
X9005257Y-17436105D01*
X9005257Y-17417057D01*
X9014781Y-17398010D01*
X9033829Y-17388486D01*
X9081448Y-17388486D01*
X9100495Y-17378962D01*
X9167162Y-17331343D02*
X9243352Y-17331343D01*
X9195733Y-17264676D02*
X9195733Y-17436105D01*
X9205257Y-17455152D01*
X9224305Y-17464676D01*
X9243352Y-17464676D01*
X9386210Y-17455152D02*
X9367162Y-17464676D01*
X9329067Y-17464676D01*
X9310019Y-17455152D01*
X9300495Y-17436105D01*
X9300495Y-17359914D01*
X9310019Y-17340867D01*
X9329067Y-17331343D01*
X9367162Y-17331343D01*
X9386210Y-17340867D01*
X9395733Y-17359914D01*
X9395733Y-17378962D01*
X9300495Y-17398010D01*
X9567162Y-17464676D02*
X9567162Y-17264676D01*
X9567162Y-17455152D02*
X9548114Y-17464676D01*
X9510019Y-17464676D01*
X9490971Y-17455152D01*
X9481448Y-17445629D01*
X9471924Y-17426581D01*
X9471924Y-17369438D01*
X9481448Y-17350390D01*
X9490971Y-17340867D01*
X9510019Y-17331343D01*
X9548114Y-17331343D01*
X9567162Y-17340867D01*
X9643352Y-17540867D02*
X9652876Y-17531343D01*
X9671924Y-17502771D01*
X9681448Y-17483724D01*
X9690971Y-17455152D01*
X9700495Y-17407533D01*
X9700495Y-17369438D01*
X9690971Y-17321819D01*
X9681448Y-17293248D01*
X9671924Y-17274200D01*
X9652876Y-17245629D01*
X9643352Y-17236105D01*
D12*
X3052400Y-17664200D02*
G75*
G03*
X3052400Y-17664200I-87500J0D01*
G01*
D10*
X3414781Y-17754676D02*
X3300495Y-17754676D01*
X3357638Y-17754676D02*
X3357638Y-17554676D01*
X3338590Y-17583248D01*
X3319543Y-17602295D01*
X3300495Y-17611819D01*
X3500495Y-17735629D02*
X3510019Y-17745152D01*
X3500495Y-17754676D01*
X3490971Y-17745152D01*
X3500495Y-17735629D01*
X3500495Y-17754676D01*
X3576686Y-17554676D02*
X3710019Y-17554676D01*
X3624305Y-17754676D01*
X3881448Y-17554676D02*
X3786209Y-17554676D01*
X3776686Y-17649914D01*
X3786209Y-17640390D01*
X3805257Y-17630867D01*
X3852876Y-17630867D01*
X3871924Y-17640390D01*
X3881448Y-17649914D01*
X3890971Y-17668962D01*
X3890971Y-17716581D01*
X3881448Y-17735629D01*
X3871924Y-17745152D01*
X3852876Y-17754676D01*
X3805257Y-17754676D01*
X3786209Y-17745152D01*
X3776686Y-17735629D01*
X4014781Y-17554676D02*
X4033828Y-17554676D01*
X4052876Y-17564200D01*
X4062400Y-17573724D01*
X4071924Y-17592771D01*
X4081448Y-17630867D01*
X4081448Y-17678486D01*
X4071924Y-17716581D01*
X4062400Y-17735629D01*
X4052876Y-17745152D01*
X4033828Y-17754676D01*
X4014781Y-17754676D01*
X3995733Y-17745152D01*
X3986209Y-17735629D01*
X3976686Y-17716581D01*
X3967162Y-17678486D01*
X3967162Y-17630867D01*
X3976686Y-17592771D01*
X3986209Y-17573724D01*
X3995733Y-17564200D01*
X4014781Y-17554676D01*
X4167162Y-17754676D02*
X4167162Y-17621343D01*
X4167162Y-17640390D02*
X4176686Y-17630867D01*
X4195733Y-17621343D01*
X4224305Y-17621343D01*
X4243352Y-17630867D01*
X4252876Y-17649914D01*
X4252876Y-17754676D01*
X4252876Y-17649914D02*
X4262400Y-17630867D01*
X4281448Y-17621343D01*
X4310019Y-17621343D01*
X4329067Y-17630867D01*
X4338590Y-17649914D01*
X4338590Y-17754676D01*
X4433829Y-17754676D02*
X4433829Y-17621343D01*
X4433829Y-17640390D02*
X4443352Y-17630867D01*
X4462400Y-17621343D01*
X4490971Y-17621343D01*
X4510019Y-17630867D01*
X4519543Y-17649914D01*
X4519543Y-17754676D01*
X4519543Y-17649914D02*
X4529067Y-17630867D01*
X4548114Y-17621343D01*
X4576686Y-17621343D01*
X4595733Y-17630867D01*
X4605257Y-17649914D01*
X4605257Y-17754676D01*
X4995733Y-17545152D02*
X4824305Y-17802295D01*
X5252876Y-17554676D02*
X5271924Y-17554676D01*
X5290971Y-17564200D01*
X5300495Y-17573724D01*
X5310019Y-17592771D01*
X5319543Y-17630867D01*
X5319543Y-17678486D01*
X5310019Y-17716581D01*
X5300495Y-17735629D01*
X5290971Y-17745152D01*
X5271924Y-17754676D01*
X5252876Y-17754676D01*
X5233829Y-17745152D01*
X5224305Y-17735629D01*
X5214781Y-17716581D01*
X5205257Y-17678486D01*
X5205257Y-17630867D01*
X5214781Y-17592771D01*
X5224305Y-17573724D01*
X5233829Y-17564200D01*
X5252876Y-17554676D01*
X5405257Y-17735629D02*
X5414781Y-17745152D01*
X5405257Y-17754676D01*
X5395733Y-17745152D01*
X5405257Y-17735629D01*
X5405257Y-17754676D01*
X5538590Y-17554676D02*
X5557638Y-17554676D01*
X5576686Y-17564200D01*
X5586210Y-17573724D01*
X5595733Y-17592771D01*
X5605257Y-17630867D01*
X5605257Y-17678486D01*
X5595733Y-17716581D01*
X5586210Y-17735629D01*
X5576686Y-17745152D01*
X5557638Y-17754676D01*
X5538590Y-17754676D01*
X5519543Y-17745152D01*
X5510019Y-17735629D01*
X5500495Y-17716581D01*
X5490971Y-17678486D01*
X5490971Y-17630867D01*
X5500495Y-17592771D01*
X5510019Y-17573724D01*
X5519543Y-17564200D01*
X5538590Y-17554676D01*
X5776686Y-17554676D02*
X5738590Y-17554676D01*
X5719543Y-17564200D01*
X5710019Y-17573724D01*
X5690971Y-17602295D01*
X5681448Y-17640390D01*
X5681448Y-17716581D01*
X5690971Y-17735629D01*
X5700495Y-17745152D01*
X5719543Y-17754676D01*
X5757638Y-17754676D01*
X5776686Y-17745152D01*
X5786209Y-17735629D01*
X5795733Y-17716581D01*
X5795733Y-17668962D01*
X5786209Y-17649914D01*
X5776686Y-17640390D01*
X5757638Y-17630867D01*
X5719543Y-17630867D01*
X5700495Y-17640390D01*
X5690971Y-17649914D01*
X5681448Y-17668962D01*
X5910019Y-17640390D02*
X5890971Y-17630867D01*
X5881448Y-17621343D01*
X5871924Y-17602295D01*
X5871924Y-17592771D01*
X5881448Y-17573724D01*
X5890971Y-17564200D01*
X5910019Y-17554676D01*
X5948114Y-17554676D01*
X5967162Y-17564200D01*
X5976686Y-17573724D01*
X5986209Y-17592771D01*
X5986209Y-17602295D01*
X5976686Y-17621343D01*
X5967162Y-17630867D01*
X5948114Y-17640390D01*
X5910019Y-17640390D01*
X5890971Y-17649914D01*
X5881448Y-17659438D01*
X5871924Y-17678486D01*
X5871924Y-17716581D01*
X5881448Y-17735629D01*
X5890971Y-17745152D01*
X5910019Y-17754676D01*
X5948114Y-17754676D01*
X5967162Y-17745152D01*
X5976686Y-17735629D01*
X5986209Y-17716581D01*
X5986209Y-17678486D01*
X5976686Y-17659438D01*
X5967162Y-17649914D01*
X5948114Y-17640390D01*
X6081448Y-17754676D02*
X6119543Y-17754676D01*
X6138590Y-17745152D01*
X6148114Y-17735629D01*
X6167162Y-17707057D01*
X6176686Y-17668962D01*
X6176686Y-17592771D01*
X6167162Y-17573724D01*
X6157638Y-17564200D01*
X6138590Y-17554676D01*
X6100495Y-17554676D01*
X6081448Y-17564200D01*
X6071924Y-17573724D01*
X6062400Y-17592771D01*
X6062400Y-17640390D01*
X6071924Y-17659438D01*
X6081448Y-17668962D01*
X6100495Y-17678486D01*
X6138590Y-17678486D01*
X6157638Y-17668962D01*
X6167162Y-17659438D01*
X6176686Y-17640390D01*
X6252876Y-17554676D02*
X6252876Y-17592771D01*
X6329067Y-17554676D02*
X6329067Y-17592771D01*
X6624305Y-17830867D02*
X6614781Y-17821343D01*
X6595733Y-17792771D01*
X6586209Y-17773724D01*
X6576686Y-17745152D01*
X6567162Y-17697533D01*
X6567162Y-17659438D01*
X6576686Y-17611819D01*
X6586209Y-17583248D01*
X6595733Y-17564200D01*
X6614781Y-17535629D01*
X6624305Y-17526105D01*
X6805257Y-17754676D02*
X6690971Y-17754676D01*
X6748114Y-17754676D02*
X6748114Y-17554676D01*
X6729067Y-17583248D01*
X6710019Y-17602295D01*
X6690971Y-17611819D01*
X6881448Y-17573724D02*
X6890971Y-17564200D01*
X6910019Y-17554676D01*
X6957638Y-17554676D01*
X6976686Y-17564200D01*
X6986209Y-17573724D01*
X6995733Y-17592771D01*
X6995733Y-17611819D01*
X6986209Y-17640390D01*
X6871924Y-17754676D01*
X6995733Y-17754676D01*
X7110019Y-17640390D02*
X7090971Y-17630867D01*
X7081448Y-17621343D01*
X7071924Y-17602295D01*
X7071924Y-17592771D01*
X7081448Y-17573724D01*
X7090971Y-17564200D01*
X7110019Y-17554676D01*
X7148114Y-17554676D01*
X7167162Y-17564200D01*
X7176686Y-17573724D01*
X7186209Y-17592771D01*
X7186209Y-17602295D01*
X7176686Y-17621343D01*
X7167162Y-17630867D01*
X7148114Y-17640390D01*
X7110019Y-17640390D01*
X7090971Y-17649914D01*
X7081448Y-17659438D01*
X7071924Y-17678486D01*
X7071924Y-17716581D01*
X7081448Y-17735629D01*
X7090971Y-17745152D01*
X7110019Y-17754676D01*
X7148114Y-17754676D01*
X7167162Y-17745152D01*
X7176686Y-17735629D01*
X7186209Y-17716581D01*
X7186209Y-17678486D01*
X7176686Y-17659438D01*
X7167162Y-17649914D01*
X7148114Y-17640390D01*
X7424305Y-17754676D02*
X7424305Y-17554676D01*
X7510019Y-17754676D02*
X7510019Y-17649914D01*
X7500495Y-17630867D01*
X7481448Y-17621343D01*
X7452876Y-17621343D01*
X7433828Y-17630867D01*
X7424305Y-17640390D01*
X7633828Y-17754676D02*
X7614781Y-17745152D01*
X7605257Y-17735629D01*
X7595733Y-17716581D01*
X7595733Y-17659438D01*
X7605257Y-17640390D01*
X7614781Y-17630867D01*
X7633828Y-17621343D01*
X7662400Y-17621343D01*
X7681448Y-17630867D01*
X7690971Y-17640390D01*
X7700495Y-17659438D01*
X7700495Y-17716581D01*
X7690971Y-17735629D01*
X7681448Y-17745152D01*
X7662400Y-17754676D01*
X7633828Y-17754676D01*
X7814781Y-17754676D02*
X7795733Y-17745152D01*
X7786209Y-17726105D01*
X7786209Y-17554676D01*
X7967162Y-17745152D02*
X7948114Y-17754676D01*
X7910019Y-17754676D01*
X7890971Y-17745152D01*
X7881448Y-17726105D01*
X7881448Y-17649914D01*
X7890971Y-17630867D01*
X7910019Y-17621343D01*
X7948114Y-17621343D01*
X7967162Y-17630867D01*
X7976686Y-17649914D01*
X7976686Y-17668962D01*
X7881448Y-17688010D01*
X8052876Y-17745152D02*
X8071924Y-17754676D01*
X8110019Y-17754676D01*
X8129067Y-17745152D01*
X8138590Y-17726105D01*
X8138590Y-17716581D01*
X8129067Y-17697533D01*
X8110019Y-17688010D01*
X8081448Y-17688010D01*
X8062400Y-17678486D01*
X8052876Y-17659438D01*
X8052876Y-17649914D01*
X8062400Y-17630867D01*
X8081448Y-17621343D01*
X8110019Y-17621343D01*
X8129067Y-17630867D01*
X8205257Y-17830867D02*
X8214781Y-17821343D01*
X8233828Y-17792771D01*
X8243352Y-17773724D01*
X8252876Y-17745152D01*
X8262400Y-17697533D01*
X8262400Y-17659438D01*
X8252876Y-17611819D01*
X8243352Y-17583248D01*
X8233828Y-17564200D01*
X8214781Y-17535629D01*
X8205257Y-17526105D01*
X8567162Y-17830867D02*
X8557638Y-17821343D01*
X8538590Y-17792771D01*
X8529067Y-17773724D01*
X8519543Y-17745152D01*
X8510019Y-17697533D01*
X8510019Y-17659438D01*
X8519543Y-17611819D01*
X8529067Y-17583248D01*
X8538590Y-17564200D01*
X8557638Y-17535629D01*
X8567162Y-17526105D01*
X8643352Y-17621343D02*
X8643352Y-17754676D01*
X8643352Y-17640390D02*
X8652876Y-17630867D01*
X8671924Y-17621343D01*
X8700495Y-17621343D01*
X8719543Y-17630867D01*
X8729067Y-17649914D01*
X8729067Y-17754676D01*
X8852876Y-17754676D02*
X8833829Y-17745152D01*
X8824305Y-17735629D01*
X8814781Y-17716581D01*
X8814781Y-17659438D01*
X8824305Y-17640390D01*
X8833829Y-17630867D01*
X8852876Y-17621343D01*
X8881448Y-17621343D01*
X8900495Y-17630867D01*
X8910019Y-17640390D01*
X8919543Y-17659438D01*
X8919543Y-17716581D01*
X8910019Y-17735629D01*
X8900495Y-17745152D01*
X8881448Y-17754676D01*
X8852876Y-17754676D01*
X8976686Y-17621343D02*
X9052876Y-17621343D01*
X9005257Y-17554676D02*
X9005257Y-17726105D01*
X9014781Y-17745152D01*
X9033829Y-17754676D01*
X9052876Y-17754676D01*
X9271924Y-17621343D02*
X9271924Y-17821343D01*
X9271924Y-17630867D02*
X9290971Y-17621343D01*
X9329067Y-17621343D01*
X9348114Y-17630867D01*
X9357638Y-17640390D01*
X9367162Y-17659438D01*
X9367162Y-17716581D01*
X9357638Y-17735629D01*
X9348114Y-17745152D01*
X9329067Y-17754676D01*
X9290971Y-17754676D01*
X9271924Y-17745152D01*
X9481448Y-17754676D02*
X9462400Y-17745152D01*
X9452876Y-17726105D01*
X9452876Y-17554676D01*
X9643352Y-17754676D02*
X9643352Y-17649914D01*
X9633829Y-17630867D01*
X9614781Y-17621343D01*
X9576686Y-17621343D01*
X9557638Y-17630867D01*
X9643352Y-17745152D02*
X9624305Y-17754676D01*
X9576686Y-17754676D01*
X9557638Y-17745152D01*
X9548114Y-17726105D01*
X9548114Y-17707057D01*
X9557638Y-17688010D01*
X9576686Y-17678486D01*
X9624305Y-17678486D01*
X9643352Y-17668962D01*
X9710019Y-17621343D02*
X9786210Y-17621343D01*
X9738590Y-17554676D02*
X9738590Y-17726105D01*
X9748114Y-17745152D01*
X9767162Y-17754676D01*
X9786210Y-17754676D01*
X9929067Y-17745152D02*
X9910019Y-17754676D01*
X9871924Y-17754676D01*
X9852876Y-17745152D01*
X9843352Y-17726105D01*
X9843352Y-17649914D01*
X9852876Y-17630867D01*
X9871924Y-17621343D01*
X9910019Y-17621343D01*
X9929067Y-17630867D01*
X9938590Y-17649914D01*
X9938590Y-17668962D01*
X9843352Y-17688010D01*
X10110019Y-17754676D02*
X10110019Y-17554676D01*
X10110019Y-17745152D02*
X10090971Y-17754676D01*
X10052876Y-17754676D01*
X10033829Y-17745152D01*
X10024305Y-17735629D01*
X10014781Y-17716581D01*
X10014781Y-17659438D01*
X10024305Y-17640390D01*
X10033829Y-17630867D01*
X10052876Y-17621343D01*
X10090971Y-17621343D01*
X10110019Y-17630867D01*
X10186210Y-17830867D02*
X10195733Y-17821343D01*
X10214781Y-17792771D01*
X10224305Y-17773724D01*
X10233829Y-17745152D01*
X10243352Y-17697533D01*
X10243352Y-17659438D01*
X10233829Y-17611819D01*
X10224305Y-17583248D01*
X10214781Y-17564200D01*
X10195733Y-17535629D01*
X10186210Y-17526105D01*
X2952400Y-17859200D02*
X2952400Y-18059200D01*
X2852400Y-17959200D02*
X3052400Y-17959200D01*
X3300495Y-17868724D02*
X3310019Y-17859200D01*
X3329067Y-17849676D01*
X3376686Y-17849676D01*
X3395733Y-17859200D01*
X3405257Y-17868724D01*
X3414781Y-17887771D01*
X3414781Y-17906819D01*
X3405257Y-17935390D01*
X3290971Y-18049676D01*
X3414781Y-18049676D01*
X3500495Y-18030629D02*
X3510019Y-18040152D01*
X3500495Y-18049676D01*
X3490971Y-18040152D01*
X3500495Y-18030629D01*
X3500495Y-18049676D01*
X3700495Y-18049676D02*
X3586209Y-18049676D01*
X3643352Y-18049676D02*
X3643352Y-17849676D01*
X3624305Y-17878248D01*
X3605257Y-17897295D01*
X3586209Y-17906819D01*
X3824305Y-17849676D02*
X3843352Y-17849676D01*
X3862400Y-17859200D01*
X3871924Y-17868724D01*
X3881448Y-17887771D01*
X3890971Y-17925867D01*
X3890971Y-17973486D01*
X3881448Y-18011581D01*
X3871924Y-18030629D01*
X3862400Y-18040152D01*
X3843352Y-18049676D01*
X3824305Y-18049676D01*
X3805257Y-18040152D01*
X3795733Y-18030629D01*
X3786209Y-18011581D01*
X3776686Y-17973486D01*
X3776686Y-17925867D01*
X3786209Y-17887771D01*
X3795733Y-17868724D01*
X3805257Y-17859200D01*
X3824305Y-17849676D01*
X4014781Y-17849676D02*
X4033828Y-17849676D01*
X4052876Y-17859200D01*
X4062400Y-17868724D01*
X4071924Y-17887771D01*
X4081448Y-17925867D01*
X4081448Y-17973486D01*
X4071924Y-18011581D01*
X4062400Y-18030629D01*
X4052876Y-18040152D01*
X4033828Y-18049676D01*
X4014781Y-18049676D01*
X3995733Y-18040152D01*
X3986209Y-18030629D01*
X3976686Y-18011581D01*
X3967162Y-17973486D01*
X3967162Y-17925867D01*
X3976686Y-17887771D01*
X3986209Y-17868724D01*
X3995733Y-17859200D01*
X4014781Y-17849676D01*
X4167162Y-18049676D02*
X4167162Y-17916343D01*
X4167162Y-17935390D02*
X4176686Y-17925867D01*
X4195733Y-17916343D01*
X4224305Y-17916343D01*
X4243352Y-17925867D01*
X4252876Y-17944914D01*
X4252876Y-18049676D01*
X4252876Y-17944914D02*
X4262400Y-17925867D01*
X4281448Y-17916343D01*
X4310019Y-17916343D01*
X4329067Y-17925867D01*
X4338590Y-17944914D01*
X4338590Y-18049676D01*
X4433829Y-18049676D02*
X4433829Y-17916343D01*
X4433829Y-17935390D02*
X4443352Y-17925867D01*
X4462400Y-17916343D01*
X4490971Y-17916343D01*
X4510019Y-17925867D01*
X4519543Y-17944914D01*
X4519543Y-18049676D01*
X4519543Y-17944914D02*
X4529067Y-17925867D01*
X4548114Y-17916343D01*
X4576686Y-17916343D01*
X4595733Y-17925867D01*
X4605257Y-17944914D01*
X4605257Y-18049676D01*
X4995733Y-17840152D02*
X4824305Y-18097295D01*
X5252876Y-17849676D02*
X5271924Y-17849676D01*
X5290971Y-17859200D01*
X5300495Y-17868724D01*
X5310019Y-17887771D01*
X5319543Y-17925867D01*
X5319543Y-17973486D01*
X5310019Y-18011581D01*
X5300495Y-18030629D01*
X5290971Y-18040152D01*
X5271924Y-18049676D01*
X5252876Y-18049676D01*
X5233829Y-18040152D01*
X5224305Y-18030629D01*
X5214781Y-18011581D01*
X5205257Y-17973486D01*
X5205257Y-17925867D01*
X5214781Y-17887771D01*
X5224305Y-17868724D01*
X5233829Y-17859200D01*
X5252876Y-17849676D01*
X5405257Y-18030629D02*
X5414781Y-18040152D01*
X5405257Y-18049676D01*
X5395733Y-18040152D01*
X5405257Y-18030629D01*
X5405257Y-18049676D01*
X5538590Y-17849676D02*
X5557638Y-17849676D01*
X5576686Y-17859200D01*
X5586210Y-17868724D01*
X5595733Y-17887771D01*
X5605257Y-17925867D01*
X5605257Y-17973486D01*
X5595733Y-18011581D01*
X5586210Y-18030629D01*
X5576686Y-18040152D01*
X5557638Y-18049676D01*
X5538590Y-18049676D01*
X5519543Y-18040152D01*
X5510019Y-18030629D01*
X5500495Y-18011581D01*
X5490971Y-17973486D01*
X5490971Y-17925867D01*
X5500495Y-17887771D01*
X5510019Y-17868724D01*
X5519543Y-17859200D01*
X5538590Y-17849676D01*
X5719543Y-17935390D02*
X5700495Y-17925867D01*
X5690971Y-17916343D01*
X5681448Y-17897295D01*
X5681448Y-17887771D01*
X5690971Y-17868724D01*
X5700495Y-17859200D01*
X5719543Y-17849676D01*
X5757638Y-17849676D01*
X5776686Y-17859200D01*
X5786209Y-17868724D01*
X5795733Y-17887771D01*
X5795733Y-17897295D01*
X5786209Y-17916343D01*
X5776686Y-17925867D01*
X5757638Y-17935390D01*
X5719543Y-17935390D01*
X5700495Y-17944914D01*
X5690971Y-17954438D01*
X5681448Y-17973486D01*
X5681448Y-18011581D01*
X5690971Y-18030629D01*
X5700495Y-18040152D01*
X5719543Y-18049676D01*
X5757638Y-18049676D01*
X5776686Y-18040152D01*
X5786209Y-18030629D01*
X5795733Y-18011581D01*
X5795733Y-17973486D01*
X5786209Y-17954438D01*
X5776686Y-17944914D01*
X5757638Y-17935390D01*
X5871924Y-17868724D02*
X5881448Y-17859200D01*
X5900495Y-17849676D01*
X5948114Y-17849676D01*
X5967162Y-17859200D01*
X5976686Y-17868724D01*
X5986209Y-17887771D01*
X5986209Y-17906819D01*
X5976686Y-17935390D01*
X5862400Y-18049676D01*
X5986209Y-18049676D01*
X6052876Y-17849676D02*
X6186209Y-17849676D01*
X6100495Y-18049676D01*
X6252876Y-17849676D02*
X6252876Y-17887771D01*
X6329067Y-17849676D02*
X6329067Y-17887771D01*
X6624305Y-18125867D02*
X6614781Y-18116343D01*
X6595733Y-18087771D01*
X6586209Y-18068724D01*
X6576686Y-18040152D01*
X6567162Y-17992533D01*
X6567162Y-17954438D01*
X6576686Y-17906819D01*
X6586209Y-17878248D01*
X6595733Y-17859200D01*
X6614781Y-17830629D01*
X6624305Y-17821105D01*
X6786209Y-17849676D02*
X6748114Y-17849676D01*
X6729067Y-17859200D01*
X6719543Y-17868724D01*
X6700495Y-17897295D01*
X6690971Y-17935390D01*
X6690971Y-18011581D01*
X6700495Y-18030629D01*
X6710019Y-18040152D01*
X6729067Y-18049676D01*
X6767162Y-18049676D01*
X6786209Y-18040152D01*
X6795733Y-18030629D01*
X6805257Y-18011581D01*
X6805257Y-17963962D01*
X6795733Y-17944914D01*
X6786209Y-17935390D01*
X6767162Y-17925867D01*
X6729067Y-17925867D01*
X6710019Y-17935390D01*
X6700495Y-17944914D01*
X6690971Y-17963962D01*
X6976686Y-17916343D02*
X6976686Y-18049676D01*
X6929067Y-17840152D02*
X6881448Y-17983010D01*
X7005257Y-17983010D01*
X7233828Y-18049676D02*
X7233828Y-17849676D01*
X7319543Y-18049676D02*
X7319543Y-17944914D01*
X7310019Y-17925867D01*
X7290971Y-17916343D01*
X7262400Y-17916343D01*
X7243352Y-17925867D01*
X7233828Y-17935390D01*
X7443352Y-18049676D02*
X7424305Y-18040152D01*
X7414781Y-18030629D01*
X7405257Y-18011581D01*
X7405257Y-17954438D01*
X7414781Y-17935390D01*
X7424305Y-17925867D01*
X7443352Y-17916343D01*
X7471924Y-17916343D01*
X7490971Y-17925867D01*
X7500495Y-17935390D01*
X7510019Y-17954438D01*
X7510019Y-18011581D01*
X7500495Y-18030629D01*
X7490971Y-18040152D01*
X7471924Y-18049676D01*
X7443352Y-18049676D01*
X7624305Y-18049676D02*
X7605257Y-18040152D01*
X7595733Y-18021105D01*
X7595733Y-17849676D01*
X7776686Y-18040152D02*
X7757638Y-18049676D01*
X7719543Y-18049676D01*
X7700495Y-18040152D01*
X7690971Y-18021105D01*
X7690971Y-17944914D01*
X7700495Y-17925867D01*
X7719543Y-17916343D01*
X7757638Y-17916343D01*
X7776686Y-17925867D01*
X7786209Y-17944914D01*
X7786209Y-17963962D01*
X7690971Y-17983010D01*
X7862400Y-18040152D02*
X7881448Y-18049676D01*
X7919543Y-18049676D01*
X7938590Y-18040152D01*
X7948114Y-18021105D01*
X7948114Y-18011581D01*
X7938590Y-17992533D01*
X7919543Y-17983010D01*
X7890971Y-17983010D01*
X7871924Y-17973486D01*
X7862400Y-17954438D01*
X7862400Y-17944914D01*
X7871924Y-17925867D01*
X7890971Y-17916343D01*
X7919543Y-17916343D01*
X7938590Y-17925867D01*
X8014781Y-18125867D02*
X8024305Y-18116343D01*
X8043352Y-18087771D01*
X8052876Y-18068724D01*
X8062400Y-18040152D01*
X8071924Y-17992533D01*
X8071924Y-17954438D01*
X8062400Y-17906819D01*
X8052876Y-17878248D01*
X8043352Y-17859200D01*
X8024305Y-17830629D01*
X8014781Y-17821105D01*
X8376686Y-18125867D02*
X8367162Y-18116343D01*
X8348114Y-18087771D01*
X8338590Y-18068724D01*
X8329067Y-18040152D01*
X8319543Y-17992533D01*
X8319543Y-17954438D01*
X8329067Y-17906819D01*
X8338590Y-17878248D01*
X8348114Y-17859200D01*
X8367162Y-17830629D01*
X8376686Y-17821105D01*
X8452876Y-17916343D02*
X8452876Y-18049676D01*
X8452876Y-17935390D02*
X8462400Y-17925867D01*
X8481448Y-17916343D01*
X8510019Y-17916343D01*
X8529067Y-17925867D01*
X8538590Y-17944914D01*
X8538590Y-18049676D01*
X8662400Y-18049676D02*
X8643352Y-18040152D01*
X8633829Y-18030629D01*
X8624305Y-18011581D01*
X8624305Y-17954438D01*
X8633829Y-17935390D01*
X8643352Y-17925867D01*
X8662400Y-17916343D01*
X8690971Y-17916343D01*
X8710019Y-17925867D01*
X8719543Y-17935390D01*
X8729067Y-17954438D01*
X8729067Y-18011581D01*
X8719543Y-18030629D01*
X8710019Y-18040152D01*
X8690971Y-18049676D01*
X8662400Y-18049676D01*
X8786210Y-17916343D02*
X8862400Y-17916343D01*
X8814781Y-17849676D02*
X8814781Y-18021105D01*
X8824305Y-18040152D01*
X8843352Y-18049676D01*
X8862400Y-18049676D01*
X9081448Y-17916343D02*
X9081448Y-18116343D01*
X9081448Y-17925867D02*
X9100495Y-17916343D01*
X9138590Y-17916343D01*
X9157638Y-17925867D01*
X9167162Y-17935390D01*
X9176686Y-17954438D01*
X9176686Y-18011581D01*
X9167162Y-18030629D01*
X9157638Y-18040152D01*
X9138590Y-18049676D01*
X9100495Y-18049676D01*
X9081448Y-18040152D01*
X9290971Y-18049676D02*
X9271924Y-18040152D01*
X9262400Y-18021105D01*
X9262400Y-17849676D01*
X9452876Y-18049676D02*
X9452876Y-17944914D01*
X9443352Y-17925867D01*
X9424305Y-17916343D01*
X9386210Y-17916343D01*
X9367162Y-17925867D01*
X9452876Y-18040152D02*
X9433829Y-18049676D01*
X9386210Y-18049676D01*
X9367162Y-18040152D01*
X9357638Y-18021105D01*
X9357638Y-18002057D01*
X9367162Y-17983010D01*
X9386210Y-17973486D01*
X9433829Y-17973486D01*
X9452876Y-17963962D01*
X9519543Y-17916343D02*
X9595733Y-17916343D01*
X9548114Y-17849676D02*
X9548114Y-18021105D01*
X9557638Y-18040152D01*
X9576686Y-18049676D01*
X9595733Y-18049676D01*
X9738590Y-18040152D02*
X9719543Y-18049676D01*
X9681448Y-18049676D01*
X9662400Y-18040152D01*
X9652876Y-18021105D01*
X9652876Y-17944914D01*
X9662400Y-17925867D01*
X9681448Y-17916343D01*
X9719543Y-17916343D01*
X9738590Y-17925867D01*
X9748114Y-17944914D01*
X9748114Y-17963962D01*
X9652876Y-17983010D01*
X9919543Y-18049676D02*
X9919543Y-17849676D01*
X9919543Y-18040152D02*
X9900495Y-18049676D01*
X9862400Y-18049676D01*
X9843352Y-18040152D01*
X9833829Y-18030629D01*
X9824305Y-18011581D01*
X9824305Y-17954438D01*
X9833829Y-17935390D01*
X9843352Y-17925867D01*
X9862400Y-17916343D01*
X9900495Y-17916343D01*
X9919543Y-17925867D01*
X9995733Y-18125867D02*
X10005257Y-18116343D01*
X10024305Y-18087771D01*
X10033829Y-18068724D01*
X10043352Y-18040152D01*
X10052876Y-17992533D01*
X10052876Y-17954438D01*
X10043352Y-17906819D01*
X10033829Y-17878248D01*
X10024305Y-17859200D01*
X10005257Y-17830629D01*
X9995733Y-17821105D01*
X3023111Y-18349911D02*
X3023111Y-18208489D01*
X2881689Y-18208489D01*
X2881689Y-18349911D01*
X3023111Y-18349911D01*
X3300495Y-18188724D02*
X3310019Y-18179200D01*
X3329067Y-18169676D01*
X3376686Y-18169676D01*
X3395733Y-18179200D01*
X3405257Y-18188724D01*
X3414781Y-18207771D01*
X3414781Y-18226819D01*
X3405257Y-18255390D01*
X3290971Y-18369676D01*
X3414781Y-18369676D01*
X3500495Y-18350629D02*
X3510019Y-18360152D01*
X3500495Y-18369676D01*
X3490971Y-18360152D01*
X3500495Y-18350629D01*
X3500495Y-18369676D01*
X3586209Y-18188724D02*
X3595733Y-18179200D01*
X3614781Y-18169676D01*
X3662400Y-18169676D01*
X3681448Y-18179200D01*
X3690971Y-18188724D01*
X3700495Y-18207771D01*
X3700495Y-18226819D01*
X3690971Y-18255390D01*
X3576686Y-18369676D01*
X3700495Y-18369676D01*
X3824305Y-18169676D02*
X3843352Y-18169676D01*
X3862400Y-18179200D01*
X3871924Y-18188724D01*
X3881448Y-18207771D01*
X3890971Y-18245867D01*
X3890971Y-18293486D01*
X3881448Y-18331581D01*
X3871924Y-18350629D01*
X3862400Y-18360152D01*
X3843352Y-18369676D01*
X3824305Y-18369676D01*
X3805257Y-18360152D01*
X3795733Y-18350629D01*
X3786209Y-18331581D01*
X3776686Y-18293486D01*
X3776686Y-18245867D01*
X3786209Y-18207771D01*
X3795733Y-18188724D01*
X3805257Y-18179200D01*
X3824305Y-18169676D01*
X4014781Y-18169676D02*
X4033828Y-18169676D01*
X4052876Y-18179200D01*
X4062400Y-18188724D01*
X4071924Y-18207771D01*
X4081448Y-18245867D01*
X4081448Y-18293486D01*
X4071924Y-18331581D01*
X4062400Y-18350629D01*
X4052876Y-18360152D01*
X4033828Y-18369676D01*
X4014781Y-18369676D01*
X3995733Y-18360152D01*
X3986209Y-18350629D01*
X3976686Y-18331581D01*
X3967162Y-18293486D01*
X3967162Y-18245867D01*
X3976686Y-18207771D01*
X3986209Y-18188724D01*
X3995733Y-18179200D01*
X4014781Y-18169676D01*
X4167162Y-18369676D02*
X4167162Y-18236343D01*
X4167162Y-18255390D02*
X4176686Y-18245867D01*
X4195733Y-18236343D01*
X4224305Y-18236343D01*
X4243352Y-18245867D01*
X4252876Y-18264914D01*
X4252876Y-18369676D01*
X4252876Y-18264914D02*
X4262400Y-18245867D01*
X4281448Y-18236343D01*
X4310019Y-18236343D01*
X4329067Y-18245867D01*
X4338590Y-18264914D01*
X4338590Y-18369676D01*
X4433829Y-18369676D02*
X4433829Y-18236343D01*
X4433829Y-18255390D02*
X4443352Y-18245867D01*
X4462400Y-18236343D01*
X4490971Y-18236343D01*
X4510019Y-18245867D01*
X4519543Y-18264914D01*
X4519543Y-18369676D01*
X4519543Y-18264914D02*
X4529067Y-18245867D01*
X4548114Y-18236343D01*
X4576686Y-18236343D01*
X4595733Y-18245867D01*
X4605257Y-18264914D01*
X4605257Y-18369676D01*
X4995733Y-18160152D02*
X4824305Y-18417295D01*
X5252876Y-18169676D02*
X5271924Y-18169676D01*
X5290971Y-18179200D01*
X5300495Y-18188724D01*
X5310019Y-18207771D01*
X5319543Y-18245867D01*
X5319543Y-18293486D01*
X5310019Y-18331581D01*
X5300495Y-18350629D01*
X5290971Y-18360152D01*
X5271924Y-18369676D01*
X5252876Y-18369676D01*
X5233829Y-18360152D01*
X5224305Y-18350629D01*
X5214781Y-18331581D01*
X5205257Y-18293486D01*
X5205257Y-18245867D01*
X5214781Y-18207771D01*
X5224305Y-18188724D01*
X5233829Y-18179200D01*
X5252876Y-18169676D01*
X5405257Y-18350629D02*
X5414781Y-18360152D01*
X5405257Y-18369676D01*
X5395733Y-18360152D01*
X5405257Y-18350629D01*
X5405257Y-18369676D01*
X5538590Y-18169676D02*
X5557638Y-18169676D01*
X5576686Y-18179200D01*
X5586210Y-18188724D01*
X5595733Y-18207771D01*
X5605257Y-18245867D01*
X5605257Y-18293486D01*
X5595733Y-18331581D01*
X5586210Y-18350629D01*
X5576686Y-18360152D01*
X5557638Y-18369676D01*
X5538590Y-18369676D01*
X5519543Y-18360152D01*
X5510019Y-18350629D01*
X5500495Y-18331581D01*
X5490971Y-18293486D01*
X5490971Y-18245867D01*
X5500495Y-18207771D01*
X5510019Y-18188724D01*
X5519543Y-18179200D01*
X5538590Y-18169676D01*
X5719543Y-18255390D02*
X5700495Y-18245867D01*
X5690971Y-18236343D01*
X5681448Y-18217295D01*
X5681448Y-18207771D01*
X5690971Y-18188724D01*
X5700495Y-18179200D01*
X5719543Y-18169676D01*
X5757638Y-18169676D01*
X5776686Y-18179200D01*
X5786209Y-18188724D01*
X5795733Y-18207771D01*
X5795733Y-18217295D01*
X5786209Y-18236343D01*
X5776686Y-18245867D01*
X5757638Y-18255390D01*
X5719543Y-18255390D01*
X5700495Y-18264914D01*
X5690971Y-18274438D01*
X5681448Y-18293486D01*
X5681448Y-18331581D01*
X5690971Y-18350629D01*
X5700495Y-18360152D01*
X5719543Y-18369676D01*
X5757638Y-18369676D01*
X5776686Y-18360152D01*
X5786209Y-18350629D01*
X5795733Y-18331581D01*
X5795733Y-18293486D01*
X5786209Y-18274438D01*
X5776686Y-18264914D01*
X5757638Y-18255390D01*
X5967162Y-18169676D02*
X5929067Y-18169676D01*
X5910019Y-18179200D01*
X5900495Y-18188724D01*
X5881448Y-18217295D01*
X5871924Y-18255390D01*
X5871924Y-18331581D01*
X5881448Y-18350629D01*
X5890971Y-18360152D01*
X5910019Y-18369676D01*
X5948114Y-18369676D01*
X5967162Y-18360152D01*
X5976686Y-18350629D01*
X5986209Y-18331581D01*
X5986209Y-18283962D01*
X5976686Y-18264914D01*
X5967162Y-18255390D01*
X5948114Y-18245867D01*
X5910019Y-18245867D01*
X5890971Y-18255390D01*
X5881448Y-18264914D01*
X5871924Y-18283962D01*
X6157638Y-18169676D02*
X6119543Y-18169676D01*
X6100495Y-18179200D01*
X6090971Y-18188724D01*
X6071924Y-18217295D01*
X6062400Y-18255390D01*
X6062400Y-18331581D01*
X6071924Y-18350629D01*
X6081448Y-18360152D01*
X6100495Y-18369676D01*
X6138590Y-18369676D01*
X6157638Y-18360152D01*
X6167162Y-18350629D01*
X6176686Y-18331581D01*
X6176686Y-18283962D01*
X6167162Y-18264914D01*
X6157638Y-18255390D01*
X6138590Y-18245867D01*
X6100495Y-18245867D01*
X6081448Y-18255390D01*
X6071924Y-18264914D01*
X6062400Y-18283962D01*
X6252876Y-18169676D02*
X6252876Y-18207771D01*
X6329067Y-18169676D02*
X6329067Y-18207771D01*
X6624305Y-18445867D02*
X6614781Y-18436343D01*
X6595733Y-18407771D01*
X6586209Y-18388724D01*
X6576686Y-18360152D01*
X6567162Y-18312533D01*
X6567162Y-18274438D01*
X6576686Y-18226819D01*
X6586209Y-18198248D01*
X6595733Y-18179200D01*
X6614781Y-18150629D01*
X6624305Y-18141105D01*
X6786209Y-18169676D02*
X6748114Y-18169676D01*
X6729067Y-18179200D01*
X6719543Y-18188724D01*
X6700495Y-18217295D01*
X6690971Y-18255390D01*
X6690971Y-18331581D01*
X6700495Y-18350629D01*
X6710019Y-18360152D01*
X6729067Y-18369676D01*
X6767162Y-18369676D01*
X6786209Y-18360152D01*
X6795733Y-18350629D01*
X6805257Y-18331581D01*
X6805257Y-18283962D01*
X6795733Y-18264914D01*
X6786209Y-18255390D01*
X6767162Y-18245867D01*
X6729067Y-18245867D01*
X6710019Y-18255390D01*
X6700495Y-18264914D01*
X6690971Y-18283962D01*
X7043352Y-18369676D02*
X7043352Y-18169676D01*
X7129067Y-18369676D02*
X7129067Y-18264914D01*
X7119543Y-18245867D01*
X7100495Y-18236343D01*
X7071924Y-18236343D01*
X7052876Y-18245867D01*
X7043352Y-18255390D01*
X7252876Y-18369676D02*
X7233828Y-18360152D01*
X7224305Y-18350629D01*
X7214781Y-18331581D01*
X7214781Y-18274438D01*
X7224305Y-18255390D01*
X7233828Y-18245867D01*
X7252876Y-18236343D01*
X7281448Y-18236343D01*
X7300495Y-18245867D01*
X7310019Y-18255390D01*
X7319543Y-18274438D01*
X7319543Y-18331581D01*
X7310019Y-18350629D01*
X7300495Y-18360152D01*
X7281448Y-18369676D01*
X7252876Y-18369676D01*
X7433828Y-18369676D02*
X7414781Y-18360152D01*
X7405257Y-18341105D01*
X7405257Y-18169676D01*
X7586209Y-18360152D02*
X7567162Y-18369676D01*
X7529067Y-18369676D01*
X7510019Y-18360152D01*
X7500495Y-18341105D01*
X7500495Y-18264914D01*
X7510019Y-18245867D01*
X7529067Y-18236343D01*
X7567162Y-18236343D01*
X7586209Y-18245867D01*
X7595733Y-18264914D01*
X7595733Y-18283962D01*
X7500495Y-18303010D01*
X7671924Y-18360152D02*
X7690971Y-18369676D01*
X7729067Y-18369676D01*
X7748114Y-18360152D01*
X7757638Y-18341105D01*
X7757638Y-18331581D01*
X7748114Y-18312533D01*
X7729067Y-18303010D01*
X7700495Y-18303010D01*
X7681448Y-18293486D01*
X7671924Y-18274438D01*
X7671924Y-18264914D01*
X7681448Y-18245867D01*
X7700495Y-18236343D01*
X7729067Y-18236343D01*
X7748114Y-18245867D01*
X7824305Y-18445867D02*
X7833828Y-18436343D01*
X7852876Y-18407771D01*
X7862400Y-18388724D01*
X7871924Y-18360152D01*
X7881448Y-18312533D01*
X7881448Y-18274438D01*
X7871924Y-18226819D01*
X7862400Y-18198248D01*
X7852876Y-18179200D01*
X7833828Y-18150629D01*
X7824305Y-18141105D01*
X8186209Y-18445867D02*
X8176686Y-18436343D01*
X8157638Y-18407771D01*
X8148114Y-18388724D01*
X8138590Y-18360152D01*
X8129067Y-18312533D01*
X8129067Y-18274438D01*
X8138590Y-18226819D01*
X8148114Y-18198248D01*
X8157638Y-18179200D01*
X8176686Y-18150629D01*
X8186209Y-18141105D01*
X8262400Y-18236343D02*
X8262400Y-18369676D01*
X8262400Y-18255390D02*
X8271924Y-18245867D01*
X8290971Y-18236343D01*
X8319543Y-18236343D01*
X8338590Y-18245867D01*
X8348114Y-18264914D01*
X8348114Y-18369676D01*
X8471924Y-18369676D02*
X8452876Y-18360152D01*
X8443352Y-18350629D01*
X8433829Y-18331581D01*
X8433829Y-18274438D01*
X8443352Y-18255390D01*
X8452876Y-18245867D01*
X8471924Y-18236343D01*
X8500495Y-18236343D01*
X8519543Y-18245867D01*
X8529067Y-18255390D01*
X8538590Y-18274438D01*
X8538590Y-18331581D01*
X8529067Y-18350629D01*
X8519543Y-18360152D01*
X8500495Y-18369676D01*
X8471924Y-18369676D01*
X8595733Y-18236343D02*
X8671924Y-18236343D01*
X8624305Y-18169676D02*
X8624305Y-18341105D01*
X8633829Y-18360152D01*
X8652876Y-18369676D01*
X8671924Y-18369676D01*
X8890971Y-18236343D02*
X8890971Y-18436343D01*
X8890971Y-18245867D02*
X8910019Y-18236343D01*
X8948114Y-18236343D01*
X8967162Y-18245867D01*
X8976686Y-18255390D01*
X8986210Y-18274438D01*
X8986210Y-18331581D01*
X8976686Y-18350629D01*
X8967162Y-18360152D01*
X8948114Y-18369676D01*
X8910019Y-18369676D01*
X8890971Y-18360152D01*
X9100495Y-18369676D02*
X9081448Y-18360152D01*
X9071924Y-18341105D01*
X9071924Y-18169676D01*
X9262400Y-18369676D02*
X9262400Y-18264914D01*
X9252876Y-18245867D01*
X9233829Y-18236343D01*
X9195733Y-18236343D01*
X9176686Y-18245867D01*
X9262400Y-18360152D02*
X9243352Y-18369676D01*
X9195733Y-18369676D01*
X9176686Y-18360152D01*
X9167162Y-18341105D01*
X9167162Y-18322057D01*
X9176686Y-18303010D01*
X9195733Y-18293486D01*
X9243352Y-18293486D01*
X9262400Y-18283962D01*
X9329067Y-18236343D02*
X9405257Y-18236343D01*
X9357638Y-18169676D02*
X9357638Y-18341105D01*
X9367162Y-18360152D01*
X9386210Y-18369676D01*
X9405257Y-18369676D01*
X9548114Y-18360152D02*
X9529067Y-18369676D01*
X9490971Y-18369676D01*
X9471924Y-18360152D01*
X9462400Y-18341105D01*
X9462400Y-18264914D01*
X9471924Y-18245867D01*
X9490971Y-18236343D01*
X9529067Y-18236343D01*
X9548114Y-18245867D01*
X9557638Y-18264914D01*
X9557638Y-18283962D01*
X9462400Y-18303010D01*
X9729067Y-18369676D02*
X9729067Y-18169676D01*
X9729067Y-18360152D02*
X9710019Y-18369676D01*
X9671924Y-18369676D01*
X9652876Y-18360152D01*
X9643352Y-18350629D01*
X9633829Y-18331581D01*
X9633829Y-18274438D01*
X9643352Y-18255390D01*
X9652876Y-18245867D01*
X9671924Y-18236343D01*
X9710019Y-18236343D01*
X9729067Y-18245867D01*
X9805257Y-18445867D02*
X9814781Y-18436343D01*
X9833829Y-18407771D01*
X9843352Y-18388724D01*
X9852876Y-18360152D01*
X9862400Y-18312533D01*
X9862400Y-18274438D01*
X9852876Y-18226819D01*
X9843352Y-18198248D01*
X9833829Y-18179200D01*
X9814781Y-18150629D01*
X9805257Y-18141105D01*
X2952400Y-18699200D02*
X3052400Y-18599200D01*
X2952400Y-18499200D01*
X2852400Y-18599200D01*
X2952400Y-18699200D01*
X3290971Y-18489676D02*
X3414781Y-18489676D01*
X3348114Y-18565867D01*
X3376686Y-18565867D01*
X3395733Y-18575390D01*
X3405257Y-18584914D01*
X3414781Y-18603962D01*
X3414781Y-18651581D01*
X3405257Y-18670629D01*
X3395733Y-18680152D01*
X3376686Y-18689676D01*
X3319543Y-18689676D01*
X3300495Y-18680152D01*
X3290971Y-18670629D01*
X3500495Y-18670629D02*
X3510019Y-18680152D01*
X3500495Y-18689676D01*
X3490971Y-18680152D01*
X3500495Y-18670629D01*
X3500495Y-18689676D01*
X3633828Y-18489676D02*
X3652876Y-18489676D01*
X3671924Y-18499200D01*
X3681448Y-18508724D01*
X3690971Y-18527771D01*
X3700495Y-18565867D01*
X3700495Y-18613486D01*
X3690971Y-18651581D01*
X3681448Y-18670629D01*
X3671924Y-18680152D01*
X3652876Y-18689676D01*
X3633828Y-18689676D01*
X3614781Y-18680152D01*
X3605257Y-18670629D01*
X3595733Y-18651581D01*
X3586209Y-18613486D01*
X3586209Y-18565867D01*
X3595733Y-18527771D01*
X3605257Y-18508724D01*
X3614781Y-18499200D01*
X3633828Y-18489676D01*
X3871924Y-18556343D02*
X3871924Y-18689676D01*
X3824305Y-18480152D02*
X3776686Y-18623010D01*
X3900495Y-18623010D01*
X4005257Y-18575390D02*
X3986209Y-18565867D01*
X3976686Y-18556343D01*
X3967162Y-18537295D01*
X3967162Y-18527771D01*
X3976686Y-18508724D01*
X3986209Y-18499200D01*
X4005257Y-18489676D01*
X4043352Y-18489676D01*
X4062400Y-18499200D01*
X4071924Y-18508724D01*
X4081448Y-18527771D01*
X4081448Y-18537295D01*
X4071924Y-18556343D01*
X4062400Y-18565867D01*
X4043352Y-18575390D01*
X4005257Y-18575390D01*
X3986209Y-18584914D01*
X3976686Y-18594438D01*
X3967162Y-18613486D01*
X3967162Y-18651581D01*
X3976686Y-18670629D01*
X3986209Y-18680152D01*
X4005257Y-18689676D01*
X4043352Y-18689676D01*
X4062400Y-18680152D01*
X4071924Y-18670629D01*
X4081448Y-18651581D01*
X4081448Y-18613486D01*
X4071924Y-18594438D01*
X4062400Y-18584914D01*
X4043352Y-18575390D01*
X4167162Y-18689676D02*
X4167162Y-18556343D01*
X4167162Y-18575390D02*
X4176686Y-18565867D01*
X4195733Y-18556343D01*
X4224305Y-18556343D01*
X4243352Y-18565867D01*
X4252876Y-18584914D01*
X4252876Y-18689676D01*
X4252876Y-18584914D02*
X4262400Y-18565867D01*
X4281448Y-18556343D01*
X4310019Y-18556343D01*
X4329067Y-18565867D01*
X4338590Y-18584914D01*
X4338590Y-18689676D01*
X4433829Y-18689676D02*
X4433829Y-18556343D01*
X4433829Y-18575390D02*
X4443352Y-18565867D01*
X4462400Y-18556343D01*
X4490971Y-18556343D01*
X4510019Y-18565867D01*
X4519543Y-18584914D01*
X4519543Y-18689676D01*
X4519543Y-18584914D02*
X4529067Y-18565867D01*
X4548114Y-18556343D01*
X4576686Y-18556343D01*
X4595733Y-18565867D01*
X4605257Y-18584914D01*
X4605257Y-18689676D01*
X4995733Y-18480152D02*
X4824305Y-18737295D01*
X5252876Y-18489676D02*
X5271924Y-18489676D01*
X5290971Y-18499200D01*
X5300495Y-18508724D01*
X5310019Y-18527771D01*
X5319543Y-18565867D01*
X5319543Y-18613486D01*
X5310019Y-18651581D01*
X5300495Y-18670629D01*
X5290971Y-18680152D01*
X5271924Y-18689676D01*
X5252876Y-18689676D01*
X5233829Y-18680152D01*
X5224305Y-18670629D01*
X5214781Y-18651581D01*
X5205257Y-18613486D01*
X5205257Y-18565867D01*
X5214781Y-18527771D01*
X5224305Y-18508724D01*
X5233829Y-18499200D01*
X5252876Y-18489676D01*
X5405257Y-18670629D02*
X5414781Y-18680152D01*
X5405257Y-18689676D01*
X5395733Y-18680152D01*
X5405257Y-18670629D01*
X5405257Y-18689676D01*
X5605257Y-18689676D02*
X5490971Y-18689676D01*
X5548114Y-18689676D02*
X5548114Y-18489676D01*
X5529067Y-18518248D01*
X5510019Y-18537295D01*
X5490971Y-18546819D01*
X5681448Y-18508724D02*
X5690971Y-18499200D01*
X5710019Y-18489676D01*
X5757638Y-18489676D01*
X5776686Y-18499200D01*
X5786209Y-18508724D01*
X5795733Y-18527771D01*
X5795733Y-18546819D01*
X5786209Y-18575390D01*
X5671924Y-18689676D01*
X5795733Y-18689676D01*
X5919543Y-18489676D02*
X5938590Y-18489676D01*
X5957638Y-18499200D01*
X5967162Y-18508724D01*
X5976686Y-18527771D01*
X5986209Y-18565867D01*
X5986209Y-18613486D01*
X5976686Y-18651581D01*
X5967162Y-18670629D01*
X5957638Y-18680152D01*
X5938590Y-18689676D01*
X5919543Y-18689676D01*
X5900495Y-18680152D01*
X5890971Y-18670629D01*
X5881448Y-18651581D01*
X5871924Y-18613486D01*
X5871924Y-18565867D01*
X5881448Y-18527771D01*
X5890971Y-18508724D01*
X5900495Y-18499200D01*
X5919543Y-18489676D01*
X6110019Y-18489676D02*
X6129067Y-18489676D01*
X6148114Y-18499200D01*
X6157638Y-18508724D01*
X6167162Y-18527771D01*
X6176686Y-18565867D01*
X6176686Y-18613486D01*
X6167162Y-18651581D01*
X6157638Y-18670629D01*
X6148114Y-18680152D01*
X6129067Y-18689676D01*
X6110019Y-18689676D01*
X6090971Y-18680152D01*
X6081448Y-18670629D01*
X6071924Y-18651581D01*
X6062400Y-18613486D01*
X6062400Y-18565867D01*
X6071924Y-18527771D01*
X6081448Y-18508724D01*
X6090971Y-18499200D01*
X6110019Y-18489676D01*
X6252876Y-18489676D02*
X6252876Y-18527771D01*
X6329067Y-18489676D02*
X6329067Y-18527771D01*
X6624305Y-18765867D02*
X6614781Y-18756343D01*
X6595733Y-18727771D01*
X6586209Y-18708724D01*
X6576686Y-18680152D01*
X6567162Y-18632533D01*
X6567162Y-18594438D01*
X6576686Y-18546819D01*
X6586209Y-18518248D01*
X6595733Y-18499200D01*
X6614781Y-18470629D01*
X6624305Y-18461105D01*
X6786209Y-18489676D02*
X6748114Y-18489676D01*
X6729067Y-18499200D01*
X6719543Y-18508724D01*
X6700495Y-18537295D01*
X6690971Y-18575390D01*
X6690971Y-18651581D01*
X6700495Y-18670629D01*
X6710019Y-18680152D01*
X6729067Y-18689676D01*
X6767162Y-18689676D01*
X6786209Y-18680152D01*
X6795733Y-18670629D01*
X6805257Y-18651581D01*
X6805257Y-18603962D01*
X6795733Y-18584914D01*
X6786209Y-18575390D01*
X6767162Y-18565867D01*
X6729067Y-18565867D01*
X6710019Y-18575390D01*
X6700495Y-18584914D01*
X6690971Y-18603962D01*
X7043352Y-18689676D02*
X7043352Y-18489676D01*
X7129067Y-18689676D02*
X7129067Y-18584914D01*
X7119543Y-18565867D01*
X7100495Y-18556343D01*
X7071924Y-18556343D01*
X7052876Y-18565867D01*
X7043352Y-18575390D01*
X7252876Y-18689676D02*
X7233828Y-18680152D01*
X7224305Y-18670629D01*
X7214781Y-18651581D01*
X7214781Y-18594438D01*
X7224305Y-18575390D01*
X7233828Y-18565867D01*
X7252876Y-18556343D01*
X7281448Y-18556343D01*
X7300495Y-18565867D01*
X7310019Y-18575390D01*
X7319543Y-18594438D01*
X7319543Y-18651581D01*
X7310019Y-18670629D01*
X7300495Y-18680152D01*
X7281448Y-18689676D01*
X7252876Y-18689676D01*
X7433828Y-18689676D02*
X7414781Y-18680152D01*
X7405257Y-18661105D01*
X7405257Y-18489676D01*
X7586209Y-18680152D02*
X7567162Y-18689676D01*
X7529067Y-18689676D01*
X7510019Y-18680152D01*
X7500495Y-18661105D01*
X7500495Y-18584914D01*
X7510019Y-18565867D01*
X7529067Y-18556343D01*
X7567162Y-18556343D01*
X7586209Y-18565867D01*
X7595733Y-18584914D01*
X7595733Y-18603962D01*
X7500495Y-18623010D01*
X7671924Y-18680152D02*
X7690971Y-18689676D01*
X7729067Y-18689676D01*
X7748114Y-18680152D01*
X7757638Y-18661105D01*
X7757638Y-18651581D01*
X7748114Y-18632533D01*
X7729067Y-18623010D01*
X7700495Y-18623010D01*
X7681448Y-18613486D01*
X7671924Y-18594438D01*
X7671924Y-18584914D01*
X7681448Y-18565867D01*
X7700495Y-18556343D01*
X7729067Y-18556343D01*
X7748114Y-18565867D01*
X7824305Y-18765867D02*
X7833828Y-18756343D01*
X7852876Y-18727771D01*
X7862400Y-18708724D01*
X7871924Y-18680152D01*
X7881448Y-18632533D01*
X7881448Y-18594438D01*
X7871924Y-18546819D01*
X7862400Y-18518248D01*
X7852876Y-18499200D01*
X7833828Y-18470629D01*
X7824305Y-18461105D01*
X8186209Y-18765867D02*
X8176686Y-18756343D01*
X8157638Y-18727771D01*
X8148114Y-18708724D01*
X8138590Y-18680152D01*
X8129067Y-18632533D01*
X8129067Y-18594438D01*
X8138590Y-18546819D01*
X8148114Y-18518248D01*
X8157638Y-18499200D01*
X8176686Y-18470629D01*
X8186209Y-18461105D01*
X8262400Y-18556343D02*
X8262400Y-18689676D01*
X8262400Y-18575390D02*
X8271924Y-18565867D01*
X8290971Y-18556343D01*
X8319543Y-18556343D01*
X8338590Y-18565867D01*
X8348114Y-18584914D01*
X8348114Y-18689676D01*
X8471924Y-18689676D02*
X8452876Y-18680152D01*
X8443352Y-18670629D01*
X8433829Y-18651581D01*
X8433829Y-18594438D01*
X8443352Y-18575390D01*
X8452876Y-18565867D01*
X8471924Y-18556343D01*
X8500495Y-18556343D01*
X8519543Y-18565867D01*
X8529067Y-18575390D01*
X8538590Y-18594438D01*
X8538590Y-18651581D01*
X8529067Y-18670629D01*
X8519543Y-18680152D01*
X8500495Y-18689676D01*
X8471924Y-18689676D01*
X8595733Y-18556343D02*
X8671924Y-18556343D01*
X8624305Y-18489676D02*
X8624305Y-18661105D01*
X8633829Y-18680152D01*
X8652876Y-18689676D01*
X8671924Y-18689676D01*
X8890971Y-18556343D02*
X8890971Y-18756343D01*
X8890971Y-18565867D02*
X8910019Y-18556343D01*
X8948114Y-18556343D01*
X8967162Y-18565867D01*
X8976686Y-18575390D01*
X8986210Y-18594438D01*
X8986210Y-18651581D01*
X8976686Y-18670629D01*
X8967162Y-18680152D01*
X8948114Y-18689676D01*
X8910019Y-18689676D01*
X8890971Y-18680152D01*
X9100495Y-18689676D02*
X9081448Y-18680152D01*
X9071924Y-18661105D01*
X9071924Y-18489676D01*
X9262400Y-18689676D02*
X9262400Y-18584914D01*
X9252876Y-18565867D01*
X9233829Y-18556343D01*
X9195733Y-18556343D01*
X9176686Y-18565867D01*
X9262400Y-18680152D02*
X9243352Y-18689676D01*
X9195733Y-18689676D01*
X9176686Y-18680152D01*
X9167162Y-18661105D01*
X9167162Y-18642057D01*
X9176686Y-18623010D01*
X9195733Y-18613486D01*
X9243352Y-18613486D01*
X9262400Y-18603962D01*
X9329067Y-18556343D02*
X9405257Y-18556343D01*
X9357638Y-18489676D02*
X9357638Y-18661105D01*
X9367162Y-18680152D01*
X9386210Y-18689676D01*
X9405257Y-18689676D01*
X9548114Y-18680152D02*
X9529067Y-18689676D01*
X9490971Y-18689676D01*
X9471924Y-18680152D01*
X9462400Y-18661105D01*
X9462400Y-18584914D01*
X9471924Y-18565867D01*
X9490971Y-18556343D01*
X9529067Y-18556343D01*
X9548114Y-18565867D01*
X9557638Y-18584914D01*
X9557638Y-18603962D01*
X9462400Y-18623010D01*
X9729067Y-18689676D02*
X9729067Y-18489676D01*
X9729067Y-18680152D02*
X9710019Y-18689676D01*
X9671924Y-18689676D01*
X9652876Y-18680152D01*
X9643352Y-18670629D01*
X9633829Y-18651581D01*
X9633829Y-18594438D01*
X9643352Y-18575390D01*
X9652876Y-18565867D01*
X9671924Y-18556343D01*
X9710019Y-18556343D01*
X9729067Y-18565867D01*
X9805257Y-18765867D02*
X9814781Y-18756343D01*
X9833829Y-18727771D01*
X9843352Y-18708724D01*
X9852876Y-18680152D01*
X9862400Y-18632533D01*
X9862400Y-18594438D01*
X9852876Y-18546819D01*
X9843352Y-18518248D01*
X9833829Y-18499200D01*
X9814781Y-18470629D01*
X9805257Y-18461105D01*
X2852400Y-18819200D02*
X3052400Y-19019200D01*
X3052400Y-18819200D02*
X2852400Y-19019200D01*
X3052400Y-18919200D02*
G75*
G03*
X3052400Y-18919200I-100000J0D01*
G01*
X3290971Y-18809676D02*
X3414781Y-18809676D01*
X3348114Y-18885867D01*
X3376686Y-18885867D01*
X3395733Y-18895390D01*
X3405257Y-18904914D01*
X3414781Y-18923962D01*
X3414781Y-18971581D01*
X3405257Y-18990629D01*
X3395733Y-19000152D01*
X3376686Y-19009676D01*
X3319543Y-19009676D01*
X3300495Y-19000152D01*
X3290971Y-18990629D01*
X3500495Y-18990629D02*
X3510019Y-19000152D01*
X3500495Y-19009676D01*
X3490971Y-19000152D01*
X3500495Y-18990629D01*
X3500495Y-19009676D01*
X3605257Y-19009676D02*
X3643352Y-19009676D01*
X3662400Y-19000152D01*
X3671924Y-18990629D01*
X3690971Y-18962057D01*
X3700495Y-18923962D01*
X3700495Y-18847771D01*
X3690971Y-18828724D01*
X3681448Y-18819200D01*
X3662400Y-18809676D01*
X3624305Y-18809676D01*
X3605257Y-18819200D01*
X3595733Y-18828724D01*
X3586209Y-18847771D01*
X3586209Y-18895390D01*
X3595733Y-18914438D01*
X3605257Y-18923962D01*
X3624305Y-18933486D01*
X3662400Y-18933486D01*
X3681448Y-18923962D01*
X3690971Y-18914438D01*
X3700495Y-18895390D01*
X3814781Y-18895390D02*
X3795733Y-18885867D01*
X3786209Y-18876343D01*
X3776686Y-18857295D01*
X3776686Y-18847771D01*
X3786209Y-18828724D01*
X3795733Y-18819200D01*
X3814781Y-18809676D01*
X3852876Y-18809676D01*
X3871924Y-18819200D01*
X3881448Y-18828724D01*
X3890971Y-18847771D01*
X3890971Y-18857295D01*
X3881448Y-18876343D01*
X3871924Y-18885867D01*
X3852876Y-18895390D01*
X3814781Y-18895390D01*
X3795733Y-18904914D01*
X3786209Y-18914438D01*
X3776686Y-18933486D01*
X3776686Y-18971581D01*
X3786209Y-18990629D01*
X3795733Y-19000152D01*
X3814781Y-19009676D01*
X3852876Y-19009676D01*
X3871924Y-19000152D01*
X3881448Y-18990629D01*
X3890971Y-18971581D01*
X3890971Y-18933486D01*
X3881448Y-18914438D01*
X3871924Y-18904914D01*
X3852876Y-18895390D01*
X4005257Y-18895390D02*
X3986209Y-18885867D01*
X3976686Y-18876343D01*
X3967162Y-18857295D01*
X3967162Y-18847771D01*
X3976686Y-18828724D01*
X3986209Y-18819200D01*
X4005257Y-18809676D01*
X4043352Y-18809676D01*
X4062400Y-18819200D01*
X4071924Y-18828724D01*
X4081448Y-18847771D01*
X4081448Y-18857295D01*
X4071924Y-18876343D01*
X4062400Y-18885867D01*
X4043352Y-18895390D01*
X4005257Y-18895390D01*
X3986209Y-18904914D01*
X3976686Y-18914438D01*
X3967162Y-18933486D01*
X3967162Y-18971581D01*
X3976686Y-18990629D01*
X3986209Y-19000152D01*
X4005257Y-19009676D01*
X4043352Y-19009676D01*
X4062400Y-19000152D01*
X4071924Y-18990629D01*
X4081448Y-18971581D01*
X4081448Y-18933486D01*
X4071924Y-18914438D01*
X4062400Y-18904914D01*
X4043352Y-18895390D01*
X4167162Y-19009676D02*
X4167162Y-18876343D01*
X4167162Y-18895390D02*
X4176686Y-18885867D01*
X4195733Y-18876343D01*
X4224305Y-18876343D01*
X4243352Y-18885867D01*
X4252876Y-18904914D01*
X4252876Y-19009676D01*
X4252876Y-18904914D02*
X4262400Y-18885867D01*
X4281448Y-18876343D01*
X4310019Y-18876343D01*
X4329067Y-18885867D01*
X4338590Y-18904914D01*
X4338590Y-19009676D01*
X4433829Y-19009676D02*
X4433829Y-18876343D01*
X4433829Y-18895390D02*
X4443352Y-18885867D01*
X4462400Y-18876343D01*
X4490971Y-18876343D01*
X4510019Y-18885867D01*
X4519543Y-18904914D01*
X4519543Y-19009676D01*
X4519543Y-18904914D02*
X4529067Y-18885867D01*
X4548114Y-18876343D01*
X4576686Y-18876343D01*
X4595733Y-18885867D01*
X4605257Y-18904914D01*
X4605257Y-19009676D01*
X4995733Y-18800152D02*
X4824305Y-19057295D01*
X5252876Y-18809676D02*
X5271924Y-18809676D01*
X5290971Y-18819200D01*
X5300495Y-18828724D01*
X5310019Y-18847771D01*
X5319543Y-18885867D01*
X5319543Y-18933486D01*
X5310019Y-18971581D01*
X5300495Y-18990629D01*
X5290971Y-19000152D01*
X5271924Y-19009676D01*
X5252876Y-19009676D01*
X5233829Y-19000152D01*
X5224305Y-18990629D01*
X5214781Y-18971581D01*
X5205257Y-18933486D01*
X5205257Y-18885867D01*
X5214781Y-18847771D01*
X5224305Y-18828724D01*
X5233829Y-18819200D01*
X5252876Y-18809676D01*
X5405257Y-18990629D02*
X5414781Y-19000152D01*
X5405257Y-19009676D01*
X5395733Y-19000152D01*
X5405257Y-18990629D01*
X5405257Y-19009676D01*
X5605257Y-19009676D02*
X5490971Y-19009676D01*
X5548114Y-19009676D02*
X5548114Y-18809676D01*
X5529067Y-18838248D01*
X5510019Y-18857295D01*
X5490971Y-18866819D01*
X5786209Y-18809676D02*
X5690971Y-18809676D01*
X5681448Y-18904914D01*
X5690971Y-18895390D01*
X5710019Y-18885867D01*
X5757638Y-18885867D01*
X5776686Y-18895390D01*
X5786209Y-18904914D01*
X5795733Y-18923962D01*
X5795733Y-18971581D01*
X5786209Y-18990629D01*
X5776686Y-19000152D01*
X5757638Y-19009676D01*
X5710019Y-19009676D01*
X5690971Y-19000152D01*
X5681448Y-18990629D01*
X5862400Y-18809676D02*
X5995733Y-18809676D01*
X5910019Y-19009676D01*
X6110019Y-18809676D02*
X6129067Y-18809676D01*
X6148114Y-18819200D01*
X6157638Y-18828724D01*
X6167162Y-18847771D01*
X6176686Y-18885867D01*
X6176686Y-18933486D01*
X6167162Y-18971581D01*
X6157638Y-18990629D01*
X6148114Y-19000152D01*
X6129067Y-19009676D01*
X6110019Y-19009676D01*
X6090971Y-19000152D01*
X6081448Y-18990629D01*
X6071924Y-18971581D01*
X6062400Y-18933486D01*
X6062400Y-18885867D01*
X6071924Y-18847771D01*
X6081448Y-18828724D01*
X6090971Y-18819200D01*
X6110019Y-18809676D01*
X6252876Y-18809676D02*
X6252876Y-18847771D01*
X6329067Y-18809676D02*
X6329067Y-18847771D01*
X6624305Y-19085867D02*
X6614781Y-19076343D01*
X6595733Y-19047771D01*
X6586209Y-19028724D01*
X6576686Y-19000152D01*
X6567162Y-18952533D01*
X6567162Y-18914438D01*
X6576686Y-18866819D01*
X6586209Y-18838248D01*
X6595733Y-18819200D01*
X6614781Y-18790629D01*
X6624305Y-18781105D01*
X6681448Y-18809676D02*
X6814781Y-18809676D01*
X6729067Y-19009676D01*
X6929067Y-18809676D02*
X6948114Y-18809676D01*
X6967162Y-18819200D01*
X6976686Y-18828724D01*
X6986209Y-18847771D01*
X6995733Y-18885867D01*
X6995733Y-18933486D01*
X6986209Y-18971581D01*
X6976686Y-18990629D01*
X6967162Y-19000152D01*
X6948114Y-19009676D01*
X6929067Y-19009676D01*
X6910019Y-19000152D01*
X6900495Y-18990629D01*
X6890971Y-18971581D01*
X6881448Y-18933486D01*
X6881448Y-18885867D01*
X6890971Y-18847771D01*
X6900495Y-18828724D01*
X6910019Y-18819200D01*
X6929067Y-18809676D01*
X7233828Y-19009676D02*
X7233828Y-18809676D01*
X7319543Y-19009676D02*
X7319543Y-18904914D01*
X7310019Y-18885867D01*
X7290971Y-18876343D01*
X7262400Y-18876343D01*
X7243352Y-18885867D01*
X7233828Y-18895390D01*
X7443352Y-19009676D02*
X7424305Y-19000152D01*
X7414781Y-18990629D01*
X7405257Y-18971581D01*
X7405257Y-18914438D01*
X7414781Y-18895390D01*
X7424305Y-18885867D01*
X7443352Y-18876343D01*
X7471924Y-18876343D01*
X7490971Y-18885867D01*
X7500495Y-18895390D01*
X7510019Y-18914438D01*
X7510019Y-18971581D01*
X7500495Y-18990629D01*
X7490971Y-19000152D01*
X7471924Y-19009676D01*
X7443352Y-19009676D01*
X7624305Y-19009676D02*
X7605257Y-19000152D01*
X7595733Y-18981105D01*
X7595733Y-18809676D01*
X7776686Y-19000152D02*
X7757638Y-19009676D01*
X7719543Y-19009676D01*
X7700495Y-19000152D01*
X7690971Y-18981105D01*
X7690971Y-18904914D01*
X7700495Y-18885867D01*
X7719543Y-18876343D01*
X7757638Y-18876343D01*
X7776686Y-18885867D01*
X7786209Y-18904914D01*
X7786209Y-18923962D01*
X7690971Y-18943010D01*
X7862400Y-19000152D02*
X7881448Y-19009676D01*
X7919543Y-19009676D01*
X7938590Y-19000152D01*
X7948114Y-18981105D01*
X7948114Y-18971581D01*
X7938590Y-18952533D01*
X7919543Y-18943010D01*
X7890971Y-18943010D01*
X7871924Y-18933486D01*
X7862400Y-18914438D01*
X7862400Y-18904914D01*
X7871924Y-18885867D01*
X7890971Y-18876343D01*
X7919543Y-18876343D01*
X7938590Y-18885867D01*
X8014781Y-19085867D02*
X8024305Y-19076343D01*
X8043352Y-19047771D01*
X8052876Y-19028724D01*
X8062400Y-19000152D01*
X8071924Y-18952533D01*
X8071924Y-18914438D01*
X8062400Y-18866819D01*
X8052876Y-18838248D01*
X8043352Y-18819200D01*
X8024305Y-18790629D01*
X8014781Y-18781105D01*
X8376686Y-19085867D02*
X8367162Y-19076343D01*
X8348114Y-19047771D01*
X8338590Y-19028724D01*
X8329067Y-19000152D01*
X8319543Y-18952533D01*
X8319543Y-18914438D01*
X8329067Y-18866819D01*
X8338590Y-18838248D01*
X8348114Y-18819200D01*
X8367162Y-18790629D01*
X8376686Y-18781105D01*
X8452876Y-18876343D02*
X8452876Y-19009676D01*
X8452876Y-18895390D02*
X8462400Y-18885867D01*
X8481448Y-18876343D01*
X8510019Y-18876343D01*
X8529067Y-18885867D01*
X8538590Y-18904914D01*
X8538590Y-19009676D01*
X8662400Y-19009676D02*
X8643352Y-19000152D01*
X8633829Y-18990629D01*
X8624305Y-18971581D01*
X8624305Y-18914438D01*
X8633829Y-18895390D01*
X8643352Y-18885867D01*
X8662400Y-18876343D01*
X8690971Y-18876343D01*
X8710019Y-18885867D01*
X8719543Y-18895390D01*
X8729067Y-18914438D01*
X8729067Y-18971581D01*
X8719543Y-18990629D01*
X8710019Y-19000152D01*
X8690971Y-19009676D01*
X8662400Y-19009676D01*
X8786210Y-18876343D02*
X8862400Y-18876343D01*
X8814781Y-18809676D02*
X8814781Y-18981105D01*
X8824305Y-19000152D01*
X8843352Y-19009676D01*
X8862400Y-19009676D01*
X9081448Y-18876343D02*
X9081448Y-19076343D01*
X9081448Y-18885867D02*
X9100495Y-18876343D01*
X9138590Y-18876343D01*
X9157638Y-18885867D01*
X9167162Y-18895390D01*
X9176686Y-18914438D01*
X9176686Y-18971581D01*
X9167162Y-18990629D01*
X9157638Y-19000152D01*
X9138590Y-19009676D01*
X9100495Y-19009676D01*
X9081448Y-19000152D01*
X9290971Y-19009676D02*
X9271924Y-19000152D01*
X9262400Y-18981105D01*
X9262400Y-18809676D01*
X9452876Y-19009676D02*
X9452876Y-18904914D01*
X9443352Y-18885867D01*
X9424305Y-18876343D01*
X9386210Y-18876343D01*
X9367162Y-18885867D01*
X9452876Y-19000152D02*
X9433829Y-19009676D01*
X9386210Y-19009676D01*
X9367162Y-19000152D01*
X9357638Y-18981105D01*
X9357638Y-18962057D01*
X9367162Y-18943010D01*
X9386210Y-18933486D01*
X9433829Y-18933486D01*
X9452876Y-18923962D01*
X9519543Y-18876343D02*
X9595733Y-18876343D01*
X9548114Y-18809676D02*
X9548114Y-18981105D01*
X9557638Y-19000152D01*
X9576686Y-19009676D01*
X9595733Y-19009676D01*
X9738590Y-19000152D02*
X9719543Y-19009676D01*
X9681448Y-19009676D01*
X9662400Y-19000152D01*
X9652876Y-18981105D01*
X9652876Y-18904914D01*
X9662400Y-18885867D01*
X9681448Y-18876343D01*
X9719543Y-18876343D01*
X9738590Y-18885867D01*
X9748114Y-18904914D01*
X9748114Y-18923962D01*
X9652876Y-18943010D01*
X9919543Y-19009676D02*
X9919543Y-18809676D01*
X9919543Y-19000152D02*
X9900495Y-19009676D01*
X9862400Y-19009676D01*
X9843352Y-19000152D01*
X9833829Y-18990629D01*
X9824305Y-18971581D01*
X9824305Y-18914438D01*
X9833829Y-18895390D01*
X9843352Y-18885867D01*
X9862400Y-18876343D01*
X9900495Y-18876343D01*
X9919543Y-18885867D01*
X9995733Y-19085867D02*
X10005257Y-19076343D01*
X10024305Y-19047771D01*
X10033829Y-19028724D01*
X10043352Y-19000152D01*
X10052876Y-18952533D01*
X10052876Y-18914438D01*
X10043352Y-18866819D01*
X10033829Y-18838248D01*
X10024305Y-18819200D01*
X10005257Y-18790629D01*
X9995733Y-18781105D01*
M02*
