%TF.GenerationSoftware,KiCad,Pcbnew,(6.0.10-0)*%
%TF.CreationDate,2023-02-15T12:56:22-06:00*%
%TF.ProjectId,The-GarlicBoard-2,5468652d-4761-4726-9c69-63426f617264,rev?*%
%TF.SameCoordinates,Original*%
%TF.FileFunction,Drillmap*%
%TF.FilePolarity,Positive*%
%FSLAX45Y45*%
G04 Gerber Fmt 4.5, Leading zero omitted, Abs format (unit mm)*
G04 Created by KiCad (PCBNEW (6.0.10-0)) date 2023-02-15 12:56:22*
%MOMM*%
%LPD*%
G01*
G04 APERTURE LIST*
%ADD10C,0.200000*%
%ADD11C,0.030000*%
%ADD12C,0.040000*%
%ADD13C,0.080000*%
%ADD14C,0.081280*%
%ADD15C,0.100000*%
%ADD16C,0.300000*%
G04 APERTURE END LIST*
D10*
X20203136Y-16724196D02*
G75*
G03*
X20344557Y-16624200I4J149996D01*
G01*
X3062400Y-13390964D02*
X3062400Y-16224200D01*
X5336664Y-16724200D02*
X9723136Y-16724200D01*
X39152399Y-13390964D02*
G75*
G03*
X39052400Y-13249543I-150009J-6D01*
G01*
X27350636Y-16724196D02*
G75*
G03*
X27492057Y-16624200I4J149996D01*
G01*
X3062400Y-9709206D02*
X3062400Y-12542436D01*
X33914164Y-16724200D02*
X36878136Y-16724200D01*
X3562393Y-16724200D02*
X4488136Y-16724200D01*
X4629557Y-9309200D02*
G75*
G03*
X5195243Y-9309200I282843J100000D01*
G01*
X36878136Y-16724206D02*
G75*
G03*
X37019557Y-16624200I-6J150006D01*
G01*
X3062400Y-16224200D02*
G75*
G03*
X3562393Y-16724200I500000J0D01*
G01*
X3562400Y-9209200D02*
G75*
G03*
X3062400Y-9709206I0J-500000D01*
G01*
X19733136Y-9209200D02*
X12961664Y-9209200D01*
X33772743Y-16624200D02*
G75*
G03*
X33207057Y-16624200I-282843J-100000D01*
G01*
X5195243Y-16624200D02*
G75*
G03*
X4629557Y-16624200I-282843J-100000D01*
G01*
X36878136Y-9209200D02*
X33914164Y-9209200D01*
X3062404Y-12542436D02*
G75*
G03*
X3162400Y-12683857I149996J-4D01*
G01*
X9723136Y-16724196D02*
G75*
G03*
X9864557Y-16624200I4J149996D01*
G01*
X28057743Y-16624200D02*
G75*
G03*
X27492057Y-16624200I-282843J-100000D01*
G01*
X28057739Y-16624201D02*
G75*
G03*
X28199164Y-16724200I141421J50001D01*
G01*
X3162400Y-13249543D02*
G75*
G03*
X3062400Y-13390964I50000J-141421D01*
G01*
X12254561Y-9309199D02*
G75*
G03*
X12113136Y-9209200I-141421J-50001D01*
G01*
X21051664Y-16724200D02*
X27350636Y-16724200D01*
X4488136Y-9209200D02*
X3562400Y-9209200D01*
X12254557Y-9309200D02*
G75*
G03*
X12820243Y-9309200I282843J100000D01*
G01*
X37585242Y-16624200D02*
G75*
G03*
X37726664Y-16724200I141428J50010D01*
G01*
X28199164Y-16724200D02*
X33065636Y-16724200D01*
X39052400Y-12683857D02*
G75*
G03*
X39052400Y-13249543I100000J-282843D01*
G01*
X4488136Y-16724196D02*
G75*
G03*
X4629557Y-16624200I4J149996D01*
G01*
X27492057Y-9309200D02*
G75*
G03*
X28057743Y-9309200I282843J100000D01*
G01*
X33772739Y-16624201D02*
G75*
G03*
X33914164Y-16724200I141421J50001D01*
G01*
X4629561Y-9309199D02*
G75*
G03*
X4488136Y-9209200I-141421J-50001D01*
G01*
X14963136Y-16724196D02*
G75*
G03*
X15104557Y-16624200I4J149996D01*
G01*
X38652400Y-9209200D02*
X37726664Y-9209200D01*
X12113136Y-9209200D02*
X5336664Y-9209200D01*
X38652400Y-16724200D02*
G75*
G03*
X39152400Y-16224200I0J500000D01*
G01*
X15670243Y-16624200D02*
G75*
G03*
X15104557Y-16624200I-282843J-100000D01*
G01*
X33914164Y-9209204D02*
G75*
G03*
X33772743Y-9309200I-4J-149996D01*
G01*
X37726664Y-9209204D02*
G75*
G03*
X37585243Y-9309200I-4J-149996D01*
G01*
X19874561Y-9309199D02*
G75*
G03*
X19733136Y-9209200I-141421J-50001D01*
G01*
X10430243Y-16624200D02*
G75*
G03*
X9864557Y-16624200I-282843J-100000D01*
G01*
X27492061Y-9309199D02*
G75*
G03*
X27350636Y-9209200I-141421J-50001D01*
G01*
X5336664Y-9209204D02*
G75*
G03*
X5195243Y-9309200I-4J-149996D01*
G01*
X33065636Y-9209200D02*
X28199164Y-9209200D01*
X37019561Y-9309199D02*
G75*
G03*
X36878136Y-9209200I-141421J-50001D01*
G01*
X37585243Y-16624200D02*
G75*
G03*
X37019557Y-16624200I-282843J-100000D01*
G01*
X15670239Y-16624201D02*
G75*
G03*
X15811664Y-16724200I141421J50001D01*
G01*
X10430239Y-16624201D02*
G75*
G03*
X10571664Y-16724200I141421J50001D01*
G01*
X33065636Y-16724196D02*
G75*
G03*
X33207057Y-16624200I4J149996D01*
G01*
X19874557Y-9309200D02*
G75*
G03*
X20440243Y-9309200I282843J100000D01*
G01*
X15811664Y-16724200D02*
X20203136Y-16724200D01*
X39052402Y-12683863D02*
G75*
G03*
X39152400Y-12542436I-49992J141414D01*
G01*
X39152400Y-16224200D02*
X39152400Y-13390964D01*
X33207061Y-9309199D02*
G75*
G03*
X33065636Y-9209200I-141421J-50001D01*
G01*
X10571664Y-16724200D02*
X14963136Y-16724200D01*
X5195239Y-16624201D02*
G75*
G03*
X5336664Y-16724200I141421J50001D01*
G01*
X28199164Y-9209204D02*
G75*
G03*
X28057743Y-9309200I-4J-149996D01*
G01*
X37726664Y-16724200D02*
X38652400Y-16724200D01*
X3162400Y-13249543D02*
G75*
G03*
X3162400Y-12683857I-100000J282843D01*
G01*
X39152400Y-9709200D02*
G75*
G03*
X38652400Y-9209200I-500000J0D01*
G01*
X37019557Y-9309200D02*
G75*
G03*
X37585243Y-9309200I282843J100000D01*
G01*
X20581664Y-9209204D02*
G75*
G03*
X20440243Y-9309200I-4J-149996D01*
G01*
X20910239Y-16624201D02*
G75*
G03*
X21051664Y-16724200I141421J50001D01*
G01*
X12961664Y-9209204D02*
G75*
G03*
X12820243Y-9309200I-4J-149996D01*
G01*
X20910243Y-16624200D02*
G75*
G03*
X20344557Y-16624200I-282843J-100000D01*
G01*
X33207057Y-9309200D02*
G75*
G03*
X33772743Y-9309200I282843J100000D01*
G01*
X39152400Y-12542436D02*
X39152400Y-9709200D01*
X27350636Y-9209200D02*
X20581664Y-9209200D01*
D11*
X3123000Y-13320000D02*
X3153000Y-13350000D01*
X3153000Y-13320000D02*
X3123000Y-13350000D01*
X3126000Y-12587000D02*
X3156000Y-12617000D01*
X3156000Y-12587000D02*
X3126000Y-12617000D01*
X3702200Y-10657200D02*
X3732200Y-10687200D01*
X3732200Y-10657200D02*
X3702200Y-10687200D01*
X3878000Y-9676000D02*
X3908000Y-9706000D01*
X3908000Y-9676000D02*
X3878000Y-9706000D01*
X3940325Y-12562200D02*
X3970325Y-12592200D01*
X3970325Y-12562200D02*
X3940325Y-12592200D01*
X3940325Y-16372200D02*
X3970325Y-16402200D01*
X3970325Y-16372200D02*
X3940325Y-16402200D01*
X4416575Y-14467200D02*
X4446575Y-14497200D01*
X4446575Y-14467200D02*
X4416575Y-14497200D01*
X4530000Y-9271000D02*
X4560000Y-9301000D01*
X4560000Y-9271000D02*
X4530000Y-9301000D01*
X4708000Y-16405000D02*
X4738000Y-16435000D01*
X4738000Y-16405000D02*
X4708000Y-16435000D01*
X5093000Y-16406000D02*
X5123000Y-16436000D01*
X5123000Y-16406000D02*
X5093000Y-16436000D01*
X5265000Y-9272000D02*
X5295000Y-9302000D01*
X5295000Y-9272000D02*
X5265000Y-9302000D01*
X5457609Y-10522550D02*
X5487609Y-10552550D01*
X5487609Y-10522550D02*
X5457609Y-10552550D01*
X5607200Y-10547200D02*
X5637200Y-10577200D01*
X5637200Y-10547200D02*
X5607200Y-10577200D01*
X5607200Y-10657200D02*
X5637200Y-10687200D01*
X5637200Y-10657200D02*
X5607200Y-10687200D01*
X5940209Y-12427550D02*
X5970209Y-12457550D01*
X5970209Y-12427550D02*
X5940209Y-12457550D01*
X5945232Y-12587450D02*
X5975232Y-12617450D01*
X5975232Y-12587450D02*
X5945232Y-12617450D01*
X6089800Y-12452200D02*
X6119800Y-12482200D01*
X6119800Y-12452200D02*
X6089800Y-12482200D01*
X6089800Y-12562200D02*
X6119800Y-12592200D01*
X6119800Y-12562200D02*
X6089800Y-12592200D01*
X6168809Y-16237550D02*
X6198809Y-16267550D01*
X6198809Y-16237550D02*
X6168809Y-16267550D01*
X6318400Y-16262200D02*
X6348400Y-16292200D01*
X6348400Y-16262200D02*
X6318400Y-16292200D01*
X6318400Y-16372200D02*
X6348400Y-16402200D01*
X6348400Y-16372200D02*
X6318400Y-16402200D01*
X6880009Y-14332550D02*
X6910009Y-14362550D01*
X6910009Y-14332550D02*
X6880009Y-14362550D01*
X7029600Y-14357200D02*
X7059600Y-14387200D01*
X7059600Y-14357200D02*
X7029600Y-14387200D01*
X7029600Y-14467200D02*
X7059600Y-14497200D01*
X7059600Y-14467200D02*
X7029600Y-14497200D01*
X7362609Y-10522550D02*
X7392609Y-10552550D01*
X7392609Y-10522550D02*
X7362609Y-10552550D01*
X7512200Y-10547200D02*
X7542200Y-10577200D01*
X7542200Y-10547200D02*
X7512200Y-10577200D01*
X7512200Y-10657200D02*
X7542200Y-10687200D01*
X7542200Y-10657200D02*
X7512200Y-10687200D01*
X7845209Y-12427550D02*
X7875209Y-12457550D01*
X7875209Y-12427550D02*
X7845209Y-12457550D01*
X7850796Y-12587831D02*
X7880796Y-12617831D01*
X7880796Y-12587831D02*
X7850796Y-12617831D01*
X7994800Y-12452200D02*
X8024800Y-12482200D01*
X8024800Y-12452200D02*
X7994800Y-12482200D01*
X7994800Y-12562200D02*
X8024800Y-12592200D01*
X8024800Y-12562200D02*
X7994800Y-12592200D01*
X8546884Y-16237550D02*
X8576884Y-16267550D01*
X8576884Y-16237550D02*
X8546884Y-16267550D01*
X8696475Y-16262200D02*
X8726475Y-16292200D01*
X8726475Y-16262200D02*
X8696475Y-16292200D01*
X8696475Y-16372200D02*
X8726475Y-16402200D01*
X8726475Y-16372200D02*
X8696475Y-16402200D01*
X8785009Y-14332550D02*
X8815009Y-14362550D01*
X8815009Y-14332550D02*
X8785009Y-14362550D01*
X8934600Y-14357200D02*
X8964600Y-14387200D01*
X8964600Y-14357200D02*
X8934600Y-14387200D01*
X8934600Y-14467200D02*
X8964600Y-14497200D01*
X8964600Y-14467200D02*
X8934600Y-14497200D01*
X9267609Y-10522550D02*
X9297609Y-10552550D01*
X9297609Y-10522550D02*
X9267609Y-10552550D01*
X9417200Y-10547200D02*
X9447200Y-10577200D01*
X9447200Y-10547200D02*
X9417200Y-10577200D01*
X9417200Y-10657200D02*
X9447200Y-10687200D01*
X9447200Y-10657200D02*
X9417200Y-10687200D01*
X9750209Y-12427550D02*
X9780209Y-12457550D01*
X9780209Y-12427550D02*
X9750209Y-12457550D01*
X9755232Y-12587450D02*
X9785232Y-12617450D01*
X9785232Y-12587450D02*
X9755232Y-12617450D01*
X9899800Y-12452200D02*
X9929800Y-12482200D01*
X9929800Y-12452200D02*
X9899800Y-12482200D01*
X9899800Y-12562200D02*
X9929800Y-12592200D01*
X9929800Y-12562200D02*
X9899800Y-12592200D01*
X9933000Y-16408000D02*
X9963000Y-16438000D01*
X9963000Y-16408000D02*
X9933000Y-16438000D01*
X10334000Y-16408000D02*
X10364000Y-16438000D01*
X10364000Y-16408000D02*
X10334000Y-16438000D01*
X10690009Y-14332550D02*
X10720009Y-14362550D01*
X10720009Y-14332550D02*
X10690009Y-14362550D01*
X10839600Y-14357200D02*
X10869600Y-14387200D01*
X10869600Y-14357200D02*
X10839600Y-14387200D01*
X10839600Y-14467200D02*
X10869600Y-14497200D01*
X10869600Y-14467200D02*
X10839600Y-14497200D01*
X11172609Y-10522550D02*
X11202609Y-10552550D01*
X11202609Y-10522550D02*
X11172609Y-10552550D01*
X11322200Y-10547200D02*
X11352200Y-10577200D01*
X11352200Y-10547200D02*
X11322200Y-10577200D01*
X11322200Y-10657200D02*
X11352200Y-10687200D01*
X11352200Y-10657200D02*
X11322200Y-10687200D01*
X11655209Y-12427550D02*
X11685209Y-12457550D01*
X11685209Y-12427550D02*
X11655209Y-12457550D01*
X11660930Y-12587965D02*
X11690930Y-12617965D01*
X11690930Y-12587965D02*
X11660930Y-12617965D01*
X11752000Y-16406000D02*
X11782000Y-16436000D01*
X11782000Y-16406000D02*
X11752000Y-16436000D01*
X11804800Y-12452200D02*
X11834800Y-12482200D01*
X11834800Y-12452200D02*
X11804800Y-12482200D01*
X11804800Y-12562200D02*
X11834800Y-12592200D01*
X11834800Y-12562200D02*
X11804800Y-12592200D01*
X12156000Y-9272000D02*
X12186000Y-9302000D01*
X12186000Y-9272000D02*
X12156000Y-9302000D01*
X12356884Y-16237550D02*
X12386884Y-16267550D01*
X12386884Y-16237550D02*
X12356884Y-16267550D01*
X12506475Y-16262200D02*
X12536475Y-16292200D01*
X12536475Y-16262200D02*
X12506475Y-16292200D01*
X12506475Y-16372200D02*
X12536475Y-16402200D01*
X12536475Y-16372200D02*
X12506475Y-16402200D01*
X12595009Y-14332550D02*
X12625009Y-14362550D01*
X12625009Y-14332550D02*
X12595009Y-14362550D01*
X12598882Y-14492450D02*
X12628882Y-14522450D01*
X12628882Y-14492450D02*
X12598882Y-14522450D01*
X12744600Y-14357200D02*
X12774600Y-14387200D01*
X12774600Y-14357200D02*
X12744600Y-14387200D01*
X12744600Y-14467200D02*
X12774600Y-14497200D01*
X12774600Y-14467200D02*
X12744600Y-14497200D01*
X12893000Y-9267000D02*
X12923000Y-9297000D01*
X12923000Y-9267000D02*
X12893000Y-9297000D01*
X12902375Y-16173118D02*
X12932375Y-16203118D01*
X12932375Y-16173118D02*
X12902375Y-16203118D01*
X12996875Y-16262200D02*
X13026875Y-16292200D01*
X13026875Y-16262200D02*
X12996875Y-16292200D01*
X12996875Y-16372200D02*
X13026875Y-16402200D01*
X13026875Y-16372200D02*
X12996875Y-16402200D01*
X13077609Y-10522550D02*
X13107609Y-10552550D01*
X13107609Y-10522550D02*
X13077609Y-10552550D01*
X13227200Y-10547200D02*
X13257200Y-10577200D01*
X13257200Y-10547200D02*
X13227200Y-10577200D01*
X13227200Y-10657200D02*
X13257200Y-10687200D01*
X13257200Y-10657200D02*
X13227200Y-10687200D01*
X13560209Y-12427550D02*
X13590209Y-12457550D01*
X13590209Y-12427550D02*
X13560209Y-12457550D01*
X13563982Y-12587450D02*
X13593982Y-12617450D01*
X13593982Y-12587450D02*
X13563982Y-12617450D01*
X13709800Y-12452200D02*
X13739800Y-12482200D01*
X13739800Y-12452200D02*
X13709800Y-12482200D01*
X13709800Y-12562200D02*
X13739800Y-12592200D01*
X13739800Y-12562200D02*
X13709800Y-12592200D01*
X13753000Y-16406000D02*
X13783000Y-16436000D01*
X13783000Y-16406000D02*
X13753000Y-16436000D01*
X14504618Y-14492832D02*
X14534618Y-14522832D01*
X14534618Y-14492832D02*
X14504618Y-14522832D01*
X14649800Y-14357200D02*
X14679800Y-14387200D01*
X14679800Y-14357200D02*
X14649800Y-14387200D01*
X14649800Y-14467200D02*
X14679800Y-14497200D01*
X14679800Y-14467200D02*
X14649800Y-14497200D01*
X14982609Y-10522550D02*
X15012609Y-10552550D01*
X15012609Y-10522550D02*
X14982609Y-10552550D01*
X15132200Y-10547200D02*
X15162200Y-10577200D01*
X15162200Y-10547200D02*
X15132200Y-10577200D01*
X15132200Y-10657200D02*
X15162200Y-10687200D01*
X15162200Y-10657200D02*
X15132200Y-10687200D01*
X15140200Y-14357200D02*
X15170200Y-14387200D01*
X15170200Y-14357200D02*
X15140200Y-14387200D01*
X15140200Y-14467200D02*
X15170200Y-14497200D01*
X15170200Y-14467200D02*
X15140200Y-14497200D01*
X15179000Y-16405000D02*
X15209000Y-16435000D01*
X15209000Y-16405000D02*
X15179000Y-16435000D01*
X15372645Y-12829091D02*
X15402645Y-12859091D01*
X15402645Y-12829091D02*
X15372645Y-12859091D01*
X15465209Y-12427550D02*
X15495209Y-12457550D01*
X15495209Y-12427550D02*
X15465209Y-12457550D01*
X15567000Y-16408000D02*
X15597000Y-16438000D01*
X15597000Y-16408000D02*
X15567000Y-16438000D01*
X15614800Y-12452200D02*
X15644800Y-12482200D01*
X15644800Y-12452200D02*
X15614800Y-12482200D01*
X15614800Y-12562200D02*
X15644800Y-12592200D01*
X15644800Y-12562200D02*
X15614800Y-12592200D01*
X16105159Y-12587450D02*
X16135159Y-12617450D01*
X16135159Y-12587450D02*
X16105159Y-12617450D01*
X16405009Y-14332550D02*
X16435009Y-14362550D01*
X16435009Y-14332550D02*
X16405009Y-14362550D01*
X16554600Y-14357200D02*
X16584600Y-14387200D01*
X16584600Y-14357200D02*
X16554600Y-14387200D01*
X16554600Y-14467200D02*
X16584600Y-14497200D01*
X16584600Y-14467200D02*
X16554600Y-14497200D01*
X16616000Y-12873000D02*
X16646000Y-12903000D01*
X16646000Y-12873000D02*
X16616000Y-12903000D01*
X16887609Y-10522550D02*
X16917609Y-10552550D01*
X16917609Y-10522550D02*
X16887609Y-10552550D01*
X16995270Y-16408000D02*
X17025270Y-16438000D01*
X17025270Y-16408000D02*
X16995270Y-16438000D01*
X17037200Y-10547200D02*
X17067200Y-10577200D01*
X17067200Y-10547200D02*
X17037200Y-10577200D01*
X17037200Y-10657200D02*
X17067200Y-10687200D01*
X17067200Y-10657200D02*
X17037200Y-10687200D01*
X17259587Y-12867602D02*
X17289587Y-12897602D01*
X17289587Y-12867602D02*
X17259587Y-12897602D01*
X17370209Y-12427550D02*
X17400209Y-12457550D01*
X17400209Y-12427550D02*
X17370209Y-12457550D01*
X17519800Y-12452200D02*
X17549800Y-12482200D01*
X17549800Y-12452200D02*
X17519800Y-12482200D01*
X17519800Y-12562200D02*
X17549800Y-12592200D01*
X17549800Y-12562200D02*
X17519800Y-12592200D01*
X17598809Y-16237550D02*
X17628809Y-16267550D01*
X17628809Y-16237550D02*
X17598809Y-16267550D01*
X17748400Y-16262200D02*
X17778400Y-16292200D01*
X17778400Y-16262200D02*
X17748400Y-16292200D01*
X17748400Y-16372200D02*
X17778400Y-16402200D01*
X17778400Y-16372200D02*
X17748400Y-16402200D01*
X17822500Y-10682450D02*
X17852500Y-10712450D01*
X17852500Y-10682450D02*
X17822500Y-10712450D01*
X17902450Y-10682450D02*
X17932450Y-10712450D01*
X17932450Y-10682450D02*
X17902450Y-10712450D01*
X17919800Y-12367200D02*
X17949800Y-12397200D01*
X17949800Y-12367200D02*
X17919800Y-12397200D01*
X17958982Y-10742400D02*
X17988982Y-10772400D01*
X17988982Y-10742400D02*
X17958982Y-10772400D01*
X18010200Y-12452200D02*
X18040200Y-12482200D01*
X18040200Y-12452200D02*
X18010200Y-12482200D01*
X18010200Y-12562200D02*
X18040200Y-12592200D01*
X18040200Y-12562200D02*
X18010200Y-12592200D01*
X18105682Y-10804318D02*
X18135682Y-10834318D01*
X18135682Y-10804318D02*
X18105682Y-10834318D01*
X18310009Y-14332550D02*
X18340009Y-14362550D01*
X18340009Y-14332550D02*
X18310009Y-14362550D01*
X18459600Y-14357200D02*
X18489600Y-14387200D01*
X18489600Y-14357200D02*
X18459600Y-14387200D01*
X18459600Y-14467200D02*
X18489600Y-14497200D01*
X18489600Y-14467200D02*
X18459600Y-14497200D01*
X18749775Y-10804116D02*
X18779775Y-10834116D01*
X18779775Y-10804116D02*
X18749775Y-10834116D01*
X18792609Y-10522550D02*
X18822609Y-10552550D01*
X18822609Y-10522550D02*
X18792609Y-10552550D01*
X18942200Y-10547200D02*
X18972200Y-10577200D01*
X18972200Y-10547200D02*
X18942200Y-10577200D01*
X18942200Y-10657200D02*
X18972200Y-10687200D01*
X18972200Y-10657200D02*
X18942200Y-10687200D01*
X18950000Y-14357200D02*
X18980000Y-14387200D01*
X18980000Y-14357200D02*
X18950000Y-14387200D01*
X18950000Y-14467200D02*
X18980000Y-14497200D01*
X18980000Y-14467200D02*
X18950000Y-14497200D01*
X18992515Y-16408603D02*
X19022515Y-16438603D01*
X19022515Y-16408603D02*
X18992515Y-16438603D01*
X19103687Y-12708813D02*
X19133687Y-12738813D01*
X19133687Y-12708813D02*
X19103687Y-12738813D01*
X19390000Y-16397450D02*
X19420000Y-16427450D01*
X19420000Y-16397450D02*
X19390000Y-16427450D01*
X19424800Y-12452200D02*
X19454800Y-12482200D01*
X19454800Y-12452200D02*
X19424800Y-12482200D01*
X19424800Y-12562200D02*
X19454800Y-12592200D01*
X19454800Y-12562200D02*
X19424800Y-12592200D01*
X19770000Y-9267000D02*
X19800000Y-9297000D01*
X19800000Y-9267000D02*
X19770000Y-9297000D01*
X19915200Y-12452200D02*
X19945200Y-12482200D01*
X19945200Y-12452200D02*
X19915200Y-12482200D01*
X19915200Y-12562200D02*
X19945200Y-12592200D01*
X19945200Y-12562200D02*
X19915200Y-12592200D01*
X19981141Y-12666141D02*
X20011141Y-12696141D01*
X20011141Y-12666141D02*
X19981141Y-12696141D01*
X20364600Y-14467200D02*
X20394600Y-14497200D01*
X20394600Y-14467200D02*
X20364600Y-14497200D01*
X20367000Y-16446000D02*
X20397000Y-16476000D01*
X20397000Y-16446000D02*
X20367000Y-16476000D01*
X20516000Y-9267000D02*
X20546000Y-9297000D01*
X20546000Y-9267000D02*
X20516000Y-9297000D01*
X20697609Y-10522550D02*
X20727609Y-10552550D01*
X20727609Y-10522550D02*
X20697609Y-10552550D01*
X20847200Y-10547200D02*
X20877200Y-10577200D01*
X20877200Y-10547200D02*
X20847200Y-10577200D01*
X20847200Y-10657200D02*
X20877200Y-10687200D01*
X20877200Y-10657200D02*
X20847200Y-10687200D01*
X20859000Y-16446000D02*
X20889000Y-16476000D01*
X20889000Y-16446000D02*
X20859000Y-16476000D01*
X21180209Y-12427550D02*
X21210209Y-12457550D01*
X21210209Y-12427550D02*
X21180209Y-12457550D01*
X21192000Y-11002150D02*
X21222000Y-11032150D01*
X21222000Y-11002150D02*
X21192000Y-11032150D01*
X21329800Y-12452200D02*
X21359800Y-12482200D01*
X21359800Y-12452200D02*
X21329800Y-12482200D01*
X21329800Y-12562200D02*
X21359800Y-12592200D01*
X21359800Y-12562200D02*
X21329800Y-12592200D01*
X21408809Y-16237550D02*
X21438809Y-16267550D01*
X21438809Y-16237550D02*
X21408809Y-16267550D01*
X21558400Y-16262200D02*
X21588400Y-16292200D01*
X21588400Y-16262200D02*
X21558400Y-16292200D01*
X21558400Y-16372200D02*
X21588400Y-16402200D01*
X21588400Y-16372200D02*
X21558400Y-16402200D01*
X21822911Y-12950051D02*
X21852911Y-12980051D01*
X21852911Y-12950051D02*
X21822911Y-12980051D01*
X22048800Y-16262200D02*
X22078800Y-16292200D01*
X22078800Y-16262200D02*
X22048800Y-16292200D01*
X22048800Y-16372200D02*
X22078800Y-16402200D01*
X22078800Y-16372200D02*
X22048800Y-16402200D01*
X22120009Y-14332550D02*
X22150009Y-14362550D01*
X22150009Y-14332550D02*
X22120009Y-14362550D01*
X22269600Y-14357200D02*
X22299600Y-14387200D01*
X22299600Y-14357200D02*
X22269600Y-14387200D01*
X22269600Y-14467200D02*
X22299600Y-14497200D01*
X22299600Y-14467200D02*
X22269600Y-14497200D01*
X22502244Y-10682500D02*
X22532244Y-10712500D01*
X22532244Y-10682500D02*
X22502244Y-10712500D01*
X22592250Y-10682450D02*
X22622250Y-10712450D01*
X22622250Y-10682450D02*
X22592250Y-10712450D01*
X22602609Y-10522550D02*
X22632609Y-10552550D01*
X22632609Y-10522550D02*
X22602609Y-10552550D01*
X22627743Y-10758947D02*
X22657743Y-10788947D01*
X22657743Y-10758947D02*
X22627743Y-10788947D01*
X22651569Y-10839488D02*
X22681569Y-10869488D01*
X22681569Y-10839488D02*
X22651569Y-10869488D01*
X22736009Y-10932450D02*
X22766009Y-10962450D01*
X22766009Y-10932450D02*
X22736009Y-10962450D01*
X22752200Y-10547200D02*
X22782200Y-10577200D01*
X22782200Y-10547200D02*
X22752200Y-10577200D01*
X22752200Y-10657200D02*
X22782200Y-10687200D01*
X22782200Y-10657200D02*
X22752200Y-10687200D01*
X22760000Y-14357200D02*
X22790000Y-14387200D01*
X22790000Y-14357200D02*
X22760000Y-14387200D01*
X22760000Y-14467200D02*
X22790000Y-14497200D01*
X22790000Y-14467200D02*
X22760000Y-14497200D01*
X23023795Y-14081717D02*
X23053795Y-14111717D01*
X23053795Y-14081717D02*
X23023795Y-14111717D01*
X23085209Y-12427550D02*
X23115209Y-12457550D01*
X23115209Y-12427550D02*
X23085209Y-12457550D01*
X23234800Y-12452200D02*
X23264800Y-12482200D01*
X23264800Y-12452200D02*
X23234800Y-12482200D01*
X23234800Y-12562200D02*
X23264800Y-12592200D01*
X23264800Y-12562200D02*
X23234800Y-12592200D01*
X23242600Y-10657200D02*
X23272600Y-10687200D01*
X23272600Y-10657200D02*
X23242600Y-10687200D01*
X23337500Y-12987150D02*
X23367500Y-13017150D01*
X23367500Y-12987150D02*
X23337500Y-13017150D01*
X23351169Y-14212550D02*
X23381169Y-14242550D01*
X23381169Y-14212550D02*
X23351169Y-14242550D01*
X23417450Y-13027150D02*
X23447450Y-13057150D01*
X23447450Y-13027150D02*
X23417450Y-13057150D01*
X23497271Y-13067150D02*
X23527271Y-13097150D01*
X23527271Y-13067150D02*
X23497271Y-13097150D01*
X23786884Y-16237550D02*
X23816884Y-16267550D01*
X23816884Y-16237550D02*
X23786884Y-16267550D01*
X23936475Y-16262200D02*
X23966475Y-16292200D01*
X23966475Y-16262200D02*
X23936475Y-16292200D01*
X23936475Y-16372200D02*
X23966475Y-16402200D01*
X23966475Y-16372200D02*
X23936475Y-16402200D01*
X24067500Y-14212250D02*
X24097500Y-14242250D01*
X24097500Y-14212250D02*
X24067500Y-14242250D01*
X24174600Y-14357200D02*
X24204600Y-14387200D01*
X24204600Y-14357200D02*
X24174600Y-14387200D01*
X24174600Y-14467200D02*
X24204600Y-14497200D01*
X24204600Y-14467200D02*
X24174600Y-14497200D01*
X24479864Y-10762636D02*
X24509864Y-10792636D01*
X24509864Y-10762636D02*
X24479864Y-10792636D01*
X24540424Y-10823197D02*
X24570424Y-10853197D01*
X24570424Y-10823197D02*
X24540424Y-10853197D01*
X24657200Y-10547200D02*
X24687200Y-10577200D01*
X24687200Y-10547200D02*
X24657200Y-10577200D01*
X24657200Y-10657200D02*
X24687200Y-10687200D01*
X24687200Y-10657200D02*
X24657200Y-10687200D01*
X24665000Y-14357200D02*
X24695000Y-14387200D01*
X24695000Y-14357200D02*
X24665000Y-14387200D01*
X24665000Y-14467200D02*
X24695000Y-14497200D01*
X24695000Y-14467200D02*
X24665000Y-14497200D01*
X24675727Y-14172250D02*
X24705727Y-14202250D01*
X24705727Y-14172250D02*
X24675727Y-14202250D01*
X24715318Y-12987450D02*
X24745318Y-13017450D01*
X24745318Y-12987450D02*
X24715318Y-13017450D01*
X24760516Y-14211766D02*
X24790516Y-14241766D01*
X24790516Y-14211766D02*
X24760516Y-14241766D01*
X24840463Y-14212457D02*
X24870463Y-14242457D01*
X24870463Y-14212457D02*
X24840463Y-14242457D01*
X24990209Y-12427550D02*
X25020209Y-12457550D01*
X25020209Y-12427550D02*
X24990209Y-12457550D01*
X24994339Y-12587450D02*
X25024339Y-12617450D01*
X25024339Y-12587450D02*
X24994339Y-12617450D01*
X25139800Y-12452200D02*
X25169800Y-12482200D01*
X25169800Y-12452200D02*
X25139800Y-12482200D01*
X25139800Y-12562200D02*
X25169800Y-12592200D01*
X25169800Y-12562200D02*
X25139800Y-12592200D01*
X25147600Y-10547200D02*
X25177600Y-10577200D01*
X25177600Y-10547200D02*
X25147600Y-10577200D01*
X25147600Y-10657200D02*
X25177600Y-10687200D01*
X25177600Y-10657200D02*
X25147600Y-10687200D01*
X25216350Y-10902150D02*
X25246350Y-10932150D01*
X25246350Y-10902150D02*
X25216350Y-10932150D01*
X25699000Y-13111450D02*
X25729000Y-13141450D01*
X25729000Y-13111450D02*
X25699000Y-13141450D01*
X25701392Y-12341027D02*
X25731392Y-12371027D01*
X25731392Y-12341027D02*
X25701392Y-12371027D01*
X25738950Y-13191260D02*
X25768950Y-13221260D01*
X25768950Y-13191260D02*
X25738950Y-13221260D01*
X25740721Y-12410634D02*
X25770721Y-12440634D01*
X25770721Y-12410634D02*
X25740721Y-12440634D01*
X25778950Y-12481221D02*
X25808950Y-12511221D01*
X25808950Y-12481221D02*
X25778950Y-12511221D01*
X25778950Y-13264857D02*
X25808950Y-13294857D01*
X25808950Y-13264857D02*
X25778950Y-13294857D01*
X26081000Y-12099000D02*
X26111000Y-12129000D01*
X26111000Y-12099000D02*
X26081000Y-12129000D01*
X26081000Y-12196500D02*
X26111000Y-12226500D01*
X26111000Y-12196500D02*
X26081000Y-12226500D01*
X26174484Y-16237550D02*
X26204484Y-16267550D01*
X26204484Y-16237550D02*
X26174484Y-16267550D01*
X26179000Y-16397450D02*
X26209000Y-16427450D01*
X26209000Y-16397450D02*
X26179000Y-16427450D01*
X26229950Y-11930000D02*
X26259950Y-11960000D01*
X26259950Y-11930000D02*
X26229950Y-11960000D01*
X26243997Y-12463913D02*
X26273997Y-12493913D01*
X26273997Y-12463913D02*
X26243997Y-12493913D01*
X26271473Y-11809523D02*
X26301473Y-11839523D01*
X26301473Y-11809523D02*
X26271473Y-11839523D01*
X26324075Y-16262200D02*
X26354075Y-16292200D01*
X26354075Y-16262200D02*
X26324075Y-16292200D01*
X26324075Y-16372200D02*
X26354075Y-16402200D01*
X26354075Y-16372200D02*
X26324075Y-16402200D01*
X26339062Y-10722450D02*
X26369062Y-10752450D01*
X26369062Y-10722450D02*
X26339062Y-10752450D01*
X26349900Y-11923027D02*
X26379900Y-11953027D01*
X26379900Y-11923027D02*
X26349900Y-11953027D01*
X26359572Y-12240219D02*
X26389572Y-12270219D01*
X26389572Y-12240219D02*
X26359572Y-12270219D01*
X26390000Y-12840000D02*
X26420000Y-12870000D01*
X26420000Y-12840000D02*
X26390000Y-12870000D01*
X26412609Y-10522550D02*
X26442609Y-10552550D01*
X26442609Y-10522550D02*
X26412609Y-10552550D01*
X26418907Y-10683543D02*
X26448907Y-10713543D01*
X26448907Y-10683543D02*
X26418907Y-10713543D01*
X26427216Y-11956958D02*
X26457216Y-11986958D01*
X26457216Y-11956958D02*
X26427216Y-11986958D01*
X26478185Y-11776097D02*
X26508185Y-11806097D01*
X26508185Y-11776097D02*
X26478185Y-11806097D01*
X26486999Y-10751634D02*
X26516999Y-10781634D01*
X26516999Y-10751634D02*
X26486999Y-10781634D01*
X26562200Y-10547200D02*
X26592200Y-10577200D01*
X26592200Y-10547200D02*
X26562200Y-10577200D01*
X26562200Y-10657200D02*
X26592200Y-10687200D01*
X26592200Y-10657200D02*
X26562200Y-10687200D01*
X26564949Y-12055033D02*
X26594949Y-12085033D01*
X26594949Y-12055033D02*
X26564949Y-12085033D01*
X26585000Y-13165000D02*
X26615000Y-13195000D01*
X26615000Y-13165000D02*
X26585000Y-13195000D01*
X26644950Y-13220184D02*
X26674950Y-13250184D01*
X26674950Y-13220184D02*
X26644950Y-13250184D01*
X26684950Y-13299356D02*
X26714950Y-13329356D01*
X26714950Y-13299356D02*
X26684950Y-13329356D01*
X26712550Y-11803233D02*
X26742550Y-11833233D01*
X26742550Y-11803233D02*
X26712550Y-11833233D01*
X26725000Y-13055000D02*
X26755000Y-13085000D01*
X26755000Y-13055000D02*
X26725000Y-13085000D01*
X26732500Y-14372450D02*
X26762500Y-14402450D01*
X26762500Y-14372450D02*
X26732500Y-14402450D01*
X26765000Y-10842150D02*
X26795000Y-10872150D01*
X26795000Y-10842150D02*
X26765000Y-10872150D01*
X26776041Y-11864537D02*
X26806041Y-11894537D01*
X26806041Y-11864537D02*
X26776041Y-11894537D01*
X26788000Y-13377000D02*
X26818000Y-13407000D01*
X26818000Y-13377000D02*
X26788000Y-13407000D01*
X26788899Y-14429117D02*
X26818899Y-14459117D01*
X26818899Y-14429117D02*
X26788899Y-14459117D01*
X26843028Y-11931524D02*
X26873028Y-11961524D01*
X26873028Y-11931524D02*
X26843028Y-11961524D01*
X26844950Y-10842150D02*
X26874950Y-10872150D01*
X26874950Y-10842150D02*
X26844950Y-10872150D01*
X26845433Y-14485650D02*
X26875433Y-14515650D01*
X26875433Y-14485650D02*
X26845433Y-14515650D01*
X26850634Y-12123584D02*
X26880634Y-12153584D01*
X26880634Y-12123584D02*
X26850634Y-12153584D01*
X26904502Y-11992998D02*
X26934502Y-12022998D01*
X26934502Y-11992998D02*
X26904502Y-12022998D01*
X26925536Y-10833166D02*
X26955536Y-10863166D01*
X26955536Y-10833166D02*
X26925536Y-10863166D01*
X26982500Y-13042500D02*
X27012500Y-13072500D01*
X27012500Y-13042500D02*
X26982500Y-13072500D01*
X26985000Y-12845000D02*
X27015000Y-12875000D01*
X27015000Y-12845000D02*
X26985000Y-12875000D01*
X26987975Y-10782150D02*
X27017975Y-10812150D01*
X27017975Y-10782150D02*
X26987975Y-10812150D01*
X27000000Y-12240000D02*
X27030000Y-12270000D01*
X27030000Y-12240000D02*
X27000000Y-12270000D01*
X27052600Y-10547200D02*
X27082600Y-10577200D01*
X27082600Y-10547200D02*
X27052600Y-10577200D01*
X27052600Y-10657200D02*
X27082600Y-10687200D01*
X27082600Y-10657200D02*
X27052600Y-10687200D01*
X27079552Y-12630974D02*
X27109552Y-12660974D01*
X27109552Y-12630974D02*
X27079552Y-12660974D01*
X27105000Y-12125000D02*
X27135000Y-12155000D01*
X27135000Y-12125000D02*
X27105000Y-12155000D01*
X27119950Y-12785000D02*
X27149950Y-12815000D01*
X27149950Y-12785000D02*
X27119950Y-12815000D01*
X27126984Y-14332550D02*
X27156984Y-14362550D01*
X27156984Y-14332550D02*
X27126984Y-14362550D01*
X27230000Y-13110000D02*
X27260000Y-13140000D01*
X27260000Y-13110000D02*
X27230000Y-13140000D01*
X27276575Y-14357200D02*
X27306575Y-14387200D01*
X27306575Y-14357200D02*
X27276575Y-14387200D01*
X27276575Y-14467200D02*
X27306575Y-14497200D01*
X27306575Y-14467200D02*
X27276575Y-14497200D01*
X27312391Y-13112391D02*
X27342391Y-13142391D01*
X27342391Y-13112391D02*
X27312391Y-13142391D01*
X27327000Y-12420000D02*
X27357000Y-12450000D01*
X27357000Y-12420000D02*
X27327000Y-12450000D01*
X27328000Y-14080000D02*
X27358000Y-14110000D01*
X27358000Y-14080000D02*
X27328000Y-14110000D01*
X27329391Y-12615091D02*
X27359391Y-12645091D01*
X27359391Y-12615091D02*
X27329391Y-12645091D01*
X27352000Y-12920000D02*
X27382000Y-12950000D01*
X27382000Y-12920000D02*
X27352000Y-12950000D01*
X27388000Y-9267000D02*
X27418000Y-9297000D01*
X27418000Y-9267000D02*
X27388000Y-9297000D01*
X27392086Y-13118773D02*
X27422086Y-13148773D01*
X27422086Y-13118773D02*
X27392086Y-13148773D01*
X27502000Y-12178000D02*
X27532000Y-12208000D01*
X27532000Y-12178000D02*
X27502000Y-12208000D01*
X27568000Y-16405000D02*
X27598000Y-16435000D01*
X27598000Y-16405000D02*
X27568000Y-16435000D01*
X27573000Y-13006000D02*
X27603000Y-13036000D01*
X27603000Y-13006000D02*
X27573000Y-13036000D01*
X27613000Y-12355000D02*
X27643000Y-12385000D01*
X27643000Y-12355000D02*
X27613000Y-12385000D01*
X27752825Y-12452200D02*
X27782825Y-12482200D01*
X27782825Y-12452200D02*
X27752825Y-12482200D01*
X27752825Y-12562200D02*
X27782825Y-12592200D01*
X27782825Y-12562200D02*
X27752825Y-12592200D01*
X27754900Y-12711343D02*
X27784900Y-12741343D01*
X27784900Y-12711343D02*
X27754900Y-12741343D01*
X27832007Y-12690211D02*
X27862007Y-12720211D01*
X27862007Y-12690211D02*
X27832007Y-12720211D01*
X27905001Y-12722829D02*
X27935001Y-12752829D01*
X27935001Y-12722829D02*
X27905001Y-12752829D01*
X27956000Y-16407000D02*
X27986000Y-16437000D01*
X27986000Y-16407000D02*
X27956000Y-16437000D01*
X28128000Y-9271000D02*
X28158000Y-9301000D01*
X28158000Y-9271000D02*
X28128000Y-9301000D01*
X28141000Y-13099000D02*
X28171000Y-13129000D01*
X28171000Y-13099000D02*
X28141000Y-13129000D01*
X28144000Y-12782000D02*
X28174000Y-12812000D01*
X28174000Y-12782000D02*
X28144000Y-12812000D01*
X28317609Y-10522550D02*
X28347609Y-10552550D01*
X28347609Y-10522550D02*
X28317609Y-10552550D01*
X28317609Y-16237550D02*
X28347609Y-16267550D01*
X28347609Y-16237550D02*
X28317609Y-16267550D01*
X28319000Y-12782000D02*
X28349000Y-12812000D01*
X28349000Y-12782000D02*
X28319000Y-12812000D01*
X28323907Y-10683543D02*
X28353907Y-10713543D01*
X28353907Y-10683543D02*
X28323907Y-10713543D01*
X28467200Y-10547200D02*
X28497200Y-10577200D01*
X28497200Y-10547200D02*
X28467200Y-10577200D01*
X28467200Y-10657200D02*
X28497200Y-10687200D01*
X28497200Y-10657200D02*
X28467200Y-10687200D01*
X28467200Y-16262200D02*
X28497200Y-16292200D01*
X28497200Y-16262200D02*
X28467200Y-16292200D01*
X28467200Y-16372200D02*
X28497200Y-16402200D01*
X28497200Y-16372200D02*
X28467200Y-16402200D01*
X28526303Y-14138915D02*
X28556303Y-14168915D01*
X28556303Y-14138915D02*
X28526303Y-14168915D01*
X28542926Y-12983070D02*
X28572926Y-13013070D01*
X28572926Y-12983070D02*
X28542926Y-13013070D01*
X28543830Y-13063015D02*
X28573830Y-13093015D01*
X28573830Y-13063015D02*
X28543830Y-13093015D01*
X28582836Y-14082382D02*
X28612836Y-14112382D01*
X28612836Y-14082382D02*
X28582836Y-14112382D01*
X28639369Y-14025849D02*
X28669369Y-14055849D01*
X28669369Y-14025849D02*
X28639369Y-14055849D01*
X28695903Y-13969315D02*
X28725903Y-13999315D01*
X28725903Y-13969315D02*
X28695903Y-13999315D01*
X28752436Y-13912782D02*
X28782436Y-13942782D01*
X28782436Y-13912782D02*
X28752436Y-13942782D01*
X28780790Y-14393403D02*
X28810790Y-14423403D01*
X28810790Y-14393403D02*
X28780790Y-14423403D01*
X28837324Y-14336870D02*
X28867324Y-14366870D01*
X28867324Y-14336870D02*
X28837324Y-14366870D01*
X28893857Y-14280337D02*
X28923857Y-14310337D01*
X28923857Y-14280337D02*
X28893857Y-14310337D01*
X28950391Y-14223803D02*
X28980391Y-14253803D01*
X28980391Y-14223803D02*
X28950391Y-14253803D01*
X29006924Y-14167270D02*
X29036924Y-14197270D01*
X29036924Y-14167270D02*
X29006924Y-14197270D01*
X29246000Y-15077000D02*
X29276000Y-15107000D01*
X29276000Y-15077000D02*
X29246000Y-15107000D01*
X29335050Y-13100000D02*
X29365050Y-13130000D01*
X29365050Y-13100000D02*
X29335050Y-13130000D01*
X29395000Y-13165000D02*
X29425000Y-13195000D01*
X29425000Y-13165000D02*
X29395000Y-13195000D01*
X29525000Y-13175950D02*
X29555000Y-13205950D01*
X29555000Y-13175950D02*
X29525000Y-13205950D01*
X29550000Y-13650000D02*
X29580000Y-13680000D01*
X29580000Y-13650000D02*
X29550000Y-13680000D01*
X29572200Y-12947900D02*
X29602200Y-12977900D01*
X29602200Y-12947900D02*
X29572200Y-12977900D01*
X29572200Y-13049500D02*
X29602200Y-13079500D01*
X29602200Y-13049500D02*
X29572200Y-13079500D01*
X29576133Y-10984395D02*
X29606133Y-11014395D01*
X29606133Y-10984395D02*
X29576133Y-11014395D01*
X29627000Y-15704000D02*
X29657000Y-15734000D01*
X29657000Y-15704000D02*
X29627000Y-15734000D01*
X29653900Y-11005594D02*
X29683900Y-11035594D01*
X29683900Y-11005594D02*
X29653900Y-11035594D01*
X29655000Y-13675000D02*
X29685000Y-13705000D01*
X29685000Y-13675000D02*
X29655000Y-13705000D01*
X29731083Y-11028526D02*
X29761083Y-11058526D01*
X29761083Y-11028526D02*
X29731083Y-11058526D01*
X29765000Y-14030000D02*
X29795000Y-14060000D01*
X29795000Y-14030000D02*
X29765000Y-14060000D01*
X29809143Y-11045805D02*
X29839143Y-11075805D01*
X29839143Y-11045805D02*
X29809143Y-11075805D01*
X29891312Y-13899600D02*
X29921312Y-13929600D01*
X29921312Y-13899600D02*
X29891312Y-13929600D01*
X29927800Y-12706600D02*
X29957800Y-12736600D01*
X29957800Y-12706600D02*
X29927800Y-12736600D01*
X29940000Y-15588000D02*
X29970000Y-15618000D01*
X29970000Y-15588000D02*
X29940000Y-15618000D01*
X29953750Y-15430050D02*
X29983750Y-15460050D01*
X29983750Y-15430050D02*
X29953750Y-15460050D01*
X29979703Y-14104703D02*
X30009703Y-14134703D01*
X30009703Y-14104703D02*
X29979703Y-14134703D01*
X30028000Y-16104000D02*
X30058000Y-16134000D01*
X30058000Y-16104000D02*
X30028000Y-16134000D01*
X30029400Y-12706600D02*
X30059400Y-12736600D01*
X30059400Y-12706600D02*
X30029400Y-12736600D01*
X30045819Y-15430050D02*
X30075819Y-15460050D01*
X30075819Y-15430050D02*
X30045819Y-15460050D01*
X30130801Y-14059599D02*
X30160801Y-14089599D01*
X30160801Y-14059599D02*
X30130801Y-14089599D01*
X30202000Y-14189200D02*
X30232000Y-14219200D01*
X30232000Y-14189200D02*
X30202000Y-14219200D01*
X30207200Y-13240000D02*
X30237200Y-13270000D01*
X30237200Y-13240000D02*
X30207200Y-13270000D01*
X30254250Y-13950000D02*
X30284250Y-13980000D01*
X30284250Y-13950000D02*
X30254250Y-13980000D01*
X30260000Y-15902000D02*
X30290000Y-15932000D01*
X30290000Y-15902000D02*
X30260000Y-15932000D01*
X30270700Y-13665850D02*
X30300700Y-13695850D01*
X30300700Y-13665850D02*
X30270700Y-13695850D01*
X30285000Y-9850200D02*
X30315000Y-9880200D01*
X30315000Y-9850200D02*
X30285000Y-9880200D01*
X30330000Y-14189200D02*
X30360000Y-14219200D01*
X30360000Y-14189200D02*
X30330000Y-14219200D01*
X30335000Y-12605380D02*
X30365000Y-12635380D01*
X30365000Y-12605380D02*
X30335000Y-12635380D01*
X30359960Y-12930722D02*
X30389960Y-12960722D01*
X30389960Y-12930722D02*
X30359960Y-12960722D01*
X30423981Y-10742450D02*
X30453981Y-10772450D01*
X30453981Y-10742450D02*
X30423981Y-10772450D01*
X30435800Y-12605000D02*
X30465800Y-12635000D01*
X30465800Y-12605000D02*
X30435800Y-12635000D01*
X30510000Y-14702000D02*
X30540000Y-14732000D01*
X30540000Y-14702000D02*
X30510000Y-14732000D01*
X30561131Y-13977482D02*
X30591131Y-14007482D01*
X30591131Y-13977482D02*
X30561131Y-14007482D01*
X30612500Y-11047500D02*
X30642500Y-11077500D01*
X30642500Y-11047500D02*
X30612500Y-11077500D01*
X30615000Y-15155000D02*
X30645000Y-15185000D01*
X30645000Y-15155000D02*
X30615000Y-15185000D01*
X30617322Y-14712322D02*
X30647322Y-14742322D01*
X30647322Y-14712322D02*
X30617322Y-14742322D01*
X30707500Y-11047500D02*
X30737500Y-11077500D01*
X30737500Y-11047500D02*
X30707500Y-11077500D01*
X30745000Y-14660000D02*
X30775000Y-14690000D01*
X30775000Y-14660000D02*
X30745000Y-14690000D01*
X30805000Y-13080000D02*
X30835000Y-13110000D01*
X30835000Y-13080000D02*
X30805000Y-13110000D01*
X30826100Y-12334900D02*
X30856100Y-12364900D01*
X30856100Y-12334900D02*
X30826100Y-12364900D01*
X30907500Y-15585000D02*
X30937500Y-15615000D01*
X30937500Y-15585000D02*
X30907500Y-15615000D01*
X30970000Y-12547500D02*
X31000000Y-12577500D01*
X31000000Y-12547500D02*
X30970000Y-12577500D01*
X30975000Y-15901000D02*
X31005000Y-15931000D01*
X31005000Y-15901000D02*
X30975000Y-15931000D01*
X31004891Y-14235109D02*
X31034891Y-14265109D01*
X31034891Y-14235109D02*
X31004891Y-14265109D01*
X31028050Y-14032050D02*
X31058050Y-14062050D01*
X31058050Y-14032050D02*
X31028050Y-14062050D01*
X31093400Y-13113000D02*
X31123400Y-13143000D01*
X31123400Y-13113000D02*
X31093400Y-13143000D01*
X31093400Y-13595600D02*
X31123400Y-13625600D01*
X31123400Y-13595600D02*
X31093400Y-13625600D01*
X31135000Y-14845000D02*
X31165000Y-14875000D01*
X31165000Y-14845000D02*
X31135000Y-14875000D01*
X31195000Y-10693000D02*
X31225000Y-10723000D01*
X31225000Y-10693000D02*
X31195000Y-10723000D01*
X31202000Y-16107000D02*
X31232000Y-16137000D01*
X31232000Y-16107000D02*
X31202000Y-16137000D01*
X31233000Y-12865500D02*
X31263000Y-12895500D01*
X31263000Y-12865500D02*
X31233000Y-12895500D01*
X31236100Y-12327400D02*
X31266100Y-12357400D01*
X31266100Y-12327400D02*
X31236100Y-12357400D01*
X31258000Y-13788000D02*
X31288000Y-13818000D01*
X31288000Y-13788000D02*
X31258000Y-13818000D01*
X31295001Y-11097450D02*
X31325001Y-11127450D01*
X31325001Y-11097450D02*
X31295001Y-11127450D01*
X31330000Y-15536000D02*
X31360000Y-15566000D01*
X31360000Y-15536000D02*
X31330000Y-15566000D01*
X31351000Y-13504000D02*
X31381000Y-13534000D01*
X31381000Y-13504000D02*
X31351000Y-13534000D01*
X31374952Y-11137450D02*
X31404952Y-11167450D01*
X31404952Y-11137450D02*
X31374952Y-11167450D01*
X31379000Y-11308000D02*
X31409000Y-11338000D01*
X31409000Y-11308000D02*
X31379000Y-11338000D01*
X31453207Y-11177450D02*
X31483207Y-11207450D01*
X31483207Y-11177450D02*
X31453207Y-11207450D01*
X31503000Y-13161000D02*
X31533000Y-13191000D01*
X31533000Y-13161000D02*
X31503000Y-13191000D01*
X31508600Y-12227400D02*
X31538600Y-12257400D01*
X31538600Y-12227400D02*
X31508600Y-12257400D01*
X31511100Y-12327400D02*
X31541100Y-12357400D01*
X31541100Y-12327400D02*
X31511100Y-12357400D01*
X31530332Y-11217450D02*
X31560332Y-11247450D01*
X31560332Y-11217450D02*
X31530332Y-11247450D01*
X31555000Y-15755000D02*
X31585000Y-15785000D01*
X31585000Y-15755000D02*
X31555000Y-15785000D01*
X31664000Y-10690000D02*
X31694000Y-10720000D01*
X31694000Y-10690000D02*
X31664000Y-10720000D01*
X31672000Y-14202000D02*
X31702000Y-14232000D01*
X31702000Y-14202000D02*
X31672000Y-14232000D01*
X31723000Y-14813000D02*
X31753000Y-14843000D01*
X31753000Y-14813000D02*
X31723000Y-14843000D01*
X31751562Y-14260519D02*
X31781562Y-14290519D01*
X31781562Y-14260519D02*
X31751562Y-14290519D01*
X31800000Y-15738000D02*
X31830000Y-15768000D01*
X31830000Y-15738000D02*
X31800000Y-15768000D01*
X31815604Y-14211896D02*
X31845604Y-14241896D01*
X31845604Y-14211896D02*
X31815604Y-14241896D01*
X31856495Y-14551495D02*
X31886495Y-14581495D01*
X31886495Y-14551495D02*
X31856495Y-14581495D01*
X31857000Y-13046000D02*
X31887000Y-13076000D01*
X31887000Y-13046000D02*
X31857000Y-13076000D01*
X31889956Y-12514739D02*
X31919956Y-12544739D01*
X31919956Y-12514739D02*
X31889956Y-12544739D01*
X31917500Y-14492450D02*
X31947500Y-14522450D01*
X31947500Y-14492450D02*
X31917500Y-14522450D01*
X31936642Y-10554142D02*
X31966642Y-10584142D01*
X31966642Y-10554142D02*
X31936642Y-10584142D01*
X31954645Y-12577645D02*
X31984645Y-12607645D01*
X31984645Y-12577645D02*
X31954645Y-12607645D01*
X31957500Y-16117550D02*
X31987500Y-16147550D01*
X31987500Y-16117550D02*
X31957500Y-16147550D01*
X31957609Y-14212550D02*
X31987609Y-14242550D01*
X31987609Y-14212550D02*
X31957609Y-14242550D01*
X31964990Y-10469297D02*
X31994990Y-10499297D01*
X31994990Y-10469297D02*
X31964990Y-10499297D01*
X32015000Y-12349950D02*
X32045000Y-12379950D01*
X32045000Y-12349950D02*
X32015000Y-12379950D01*
X32045291Y-12587450D02*
X32075291Y-12617450D01*
X32075291Y-12587450D02*
X32045291Y-12617450D01*
X32047659Y-14292550D02*
X32077659Y-14322550D01*
X32077659Y-14292550D02*
X32047659Y-14322550D01*
X32047745Y-16197550D02*
X32077745Y-16227550D01*
X32077745Y-16197550D02*
X32047745Y-16227550D01*
X32111000Y-13146000D02*
X32141000Y-13176000D01*
X32141000Y-13146000D02*
X32111000Y-13176000D01*
X32127609Y-10522550D02*
X32157609Y-10552550D01*
X32157609Y-10522550D02*
X32127609Y-10552550D01*
X32127609Y-12427550D02*
X32157609Y-12457550D01*
X32157609Y-12427550D02*
X32127609Y-12457550D01*
X32127609Y-14332550D02*
X32157609Y-14362550D01*
X32157609Y-14332550D02*
X32127609Y-14362550D01*
X32127609Y-16237550D02*
X32157609Y-16267550D01*
X32157609Y-16237550D02*
X32127609Y-16267550D01*
X32135183Y-12589818D02*
X32165183Y-12619818D01*
X32165183Y-12589818D02*
X32135183Y-12619818D01*
X32135432Y-10685067D02*
X32165432Y-10715067D01*
X32165432Y-10685067D02*
X32135432Y-10715067D01*
X32143314Y-12290000D02*
X32173314Y-12320000D01*
X32173314Y-12290000D02*
X32143314Y-12320000D01*
X32277200Y-10547200D02*
X32307200Y-10577200D01*
X32307200Y-10547200D02*
X32277200Y-10577200D01*
X32277200Y-10657200D02*
X32307200Y-10687200D01*
X32307200Y-10657200D02*
X32277200Y-10687200D01*
X32277200Y-12452200D02*
X32307200Y-12482200D01*
X32307200Y-12452200D02*
X32277200Y-12482200D01*
X32277200Y-12562200D02*
X32307200Y-12592200D01*
X32307200Y-12562200D02*
X32277200Y-12592200D01*
X32277200Y-14357200D02*
X32307200Y-14387200D01*
X32307200Y-14357200D02*
X32277200Y-14387200D01*
X32277200Y-14467200D02*
X32307200Y-14497200D01*
X32307200Y-14467200D02*
X32277200Y-14497200D01*
X32277200Y-16262200D02*
X32307200Y-16292200D01*
X32307200Y-16262200D02*
X32277200Y-16292200D01*
X32277200Y-16372200D02*
X32307200Y-16402200D01*
X32307200Y-16372200D02*
X32277200Y-16402200D01*
X32329000Y-14081000D02*
X32359000Y-14111000D01*
X32359000Y-14081000D02*
X32329000Y-14111000D01*
X32423000Y-13524000D02*
X32453000Y-13554000D01*
X32453000Y-13524000D02*
X32423000Y-13554000D01*
X33098000Y-9268000D02*
X33128000Y-9298000D01*
X33128000Y-9268000D02*
X33098000Y-9298000D01*
X33285000Y-16405000D02*
X33315000Y-16435000D01*
X33315000Y-16405000D02*
X33285000Y-16435000D01*
X33664000Y-16406000D02*
X33694000Y-16436000D01*
X33694000Y-16406000D02*
X33664000Y-16436000D01*
X33848000Y-9269000D02*
X33878000Y-9299000D01*
X33878000Y-9269000D02*
X33848000Y-9299000D01*
X34032609Y-10522550D02*
X34062609Y-10552550D01*
X34062609Y-10522550D02*
X34032609Y-10552550D01*
X34032609Y-12427550D02*
X34062609Y-12457550D01*
X34062609Y-12427550D02*
X34032609Y-12457550D01*
X34032609Y-14332550D02*
X34062609Y-14362550D01*
X34062609Y-14332550D02*
X34032609Y-14362550D01*
X34032609Y-16237550D02*
X34062609Y-16267550D01*
X34062609Y-16237550D02*
X34032609Y-16267550D01*
X34037682Y-10682450D02*
X34067682Y-10712450D01*
X34067682Y-10682450D02*
X34037682Y-10712450D01*
X34182200Y-10547200D02*
X34212200Y-10577200D01*
X34212200Y-10547200D02*
X34182200Y-10577200D01*
X34182200Y-10657200D02*
X34212200Y-10687200D01*
X34212200Y-10657200D02*
X34182200Y-10687200D01*
X34182200Y-12452200D02*
X34212200Y-12482200D01*
X34212200Y-12452200D02*
X34182200Y-12482200D01*
X34182200Y-12562200D02*
X34212200Y-12592200D01*
X34212200Y-12562200D02*
X34182200Y-12592200D01*
X34182200Y-14357200D02*
X34212200Y-14387200D01*
X34212200Y-14357200D02*
X34182200Y-14387200D01*
X34182200Y-14467200D02*
X34212200Y-14497200D01*
X34212200Y-14467200D02*
X34182200Y-14497200D01*
X34182200Y-16262200D02*
X34212200Y-16292200D01*
X34212200Y-16262200D02*
X34182200Y-16292200D01*
X34182200Y-16372200D02*
X34212200Y-16402200D01*
X34212200Y-16372200D02*
X34182200Y-16402200D01*
X35937609Y-10522550D02*
X35967609Y-10552550D01*
X35967609Y-10522550D02*
X35937609Y-10552550D01*
X35937609Y-12427550D02*
X35967609Y-12457550D01*
X35967609Y-12427550D02*
X35937609Y-12457550D01*
X35937609Y-14332550D02*
X35967609Y-14362550D01*
X35967609Y-14332550D02*
X35937609Y-14362550D01*
X35937609Y-16237550D02*
X35967609Y-16267550D01*
X35967609Y-16237550D02*
X35937609Y-16267550D01*
X35941432Y-10682450D02*
X35971432Y-10712450D01*
X35971432Y-10682450D02*
X35941432Y-10712450D01*
X36087200Y-10547200D02*
X36117200Y-10577200D01*
X36117200Y-10547200D02*
X36087200Y-10577200D01*
X36087200Y-10657200D02*
X36117200Y-10687200D01*
X36117200Y-10657200D02*
X36087200Y-10687200D01*
X36087200Y-12452200D02*
X36117200Y-12482200D01*
X36117200Y-12452200D02*
X36087200Y-12482200D01*
X36087200Y-12562200D02*
X36117200Y-12592200D01*
X36117200Y-12562200D02*
X36087200Y-12592200D01*
X36087200Y-14357200D02*
X36117200Y-14387200D01*
X36117200Y-14357200D02*
X36087200Y-14387200D01*
X36087200Y-14467200D02*
X36117200Y-14497200D01*
X36117200Y-14467200D02*
X36087200Y-14497200D01*
X36087200Y-16262200D02*
X36117200Y-16292200D01*
X36117200Y-16262200D02*
X36087200Y-16292200D01*
X36087200Y-16372200D02*
X36117200Y-16402200D01*
X36117200Y-16372200D02*
X36087200Y-16402200D01*
X36909000Y-9267000D02*
X36939000Y-9297000D01*
X36939000Y-9267000D02*
X36909000Y-9297000D01*
X37088000Y-16407000D02*
X37118000Y-16437000D01*
X37118000Y-16407000D02*
X37088000Y-16437000D01*
X37487000Y-16407000D02*
X37517000Y-16437000D01*
X37517000Y-16407000D02*
X37487000Y-16437000D01*
X37660000Y-9267000D02*
X37690000Y-9297000D01*
X37690000Y-9267000D02*
X37660000Y-9297000D01*
X37842609Y-10522550D02*
X37872609Y-10552550D01*
X37872609Y-10522550D02*
X37842609Y-10552550D01*
X37842609Y-12427550D02*
X37872609Y-12457550D01*
X37872609Y-12427550D02*
X37842609Y-12457550D01*
X37842609Y-14332550D02*
X37872609Y-14362550D01*
X37872609Y-14332550D02*
X37842609Y-14362550D01*
X37842609Y-16237550D02*
X37872609Y-16267550D01*
X37872609Y-16237550D02*
X37842609Y-16267550D01*
X37843151Y-10682450D02*
X37873151Y-10712450D01*
X37873151Y-10682450D02*
X37843151Y-10712450D01*
X37992200Y-10547200D02*
X38022200Y-10577200D01*
X38022200Y-10547200D02*
X37992200Y-10577200D01*
X37992200Y-10657200D02*
X38022200Y-10687200D01*
X38022200Y-10657200D02*
X37992200Y-10687200D01*
X37992200Y-12452200D02*
X38022200Y-12482200D01*
X38022200Y-12452200D02*
X37992200Y-12482200D01*
X37992200Y-12562200D02*
X38022200Y-12592200D01*
X38022200Y-12562200D02*
X37992200Y-12592200D01*
X37992200Y-14357200D02*
X38022200Y-14387200D01*
X38022200Y-14357200D02*
X37992200Y-14387200D01*
X37992200Y-14467200D02*
X38022200Y-14497200D01*
X38022200Y-14467200D02*
X37992200Y-14497200D01*
X37992200Y-16262200D02*
X38022200Y-16292200D01*
X38022200Y-16262200D02*
X37992200Y-16292200D01*
X37992200Y-16372200D02*
X38022200Y-16402200D01*
X38022200Y-16372200D02*
X37992200Y-16402200D01*
X39060000Y-13318000D02*
X39090000Y-13348000D01*
X39090000Y-13318000D02*
X39060000Y-13348000D01*
X39066000Y-12575000D02*
X39096000Y-12605000D01*
X39096000Y-12575000D02*
X39066000Y-12605000D01*
X30239200Y-13345900D02*
G75*
G03*
X30239200Y-13345900I-15000J0D01*
G01*
X30239200Y-13470900D02*
G75*
G03*
X30239200Y-13470900I-15000J0D01*
G01*
X30239200Y-13595900D02*
G75*
G03*
X30239200Y-13595900I-15000J0D01*
G01*
X30364200Y-13345900D02*
G75*
G03*
X30364200Y-13345900I-15000J0D01*
G01*
X30364200Y-13470900D02*
G75*
G03*
X30364200Y-13470900I-15000J0D01*
G01*
X30364200Y-13595900D02*
G75*
G03*
X30364200Y-13595900I-15000J0D01*
G01*
X30489200Y-13345900D02*
G75*
G03*
X30489200Y-13345900I-15000J0D01*
G01*
X30489200Y-13470900D02*
G75*
G03*
X30489200Y-13470900I-15000J0D01*
G01*
X30489200Y-13595900D02*
G75*
G03*
X30489200Y-13595900I-15000J0D01*
G01*
D12*
X26275000Y-11310000D02*
X26275000Y-11350000D01*
X26255000Y-11330000D02*
X26295000Y-11330000D01*
X26385000Y-11250000D02*
X26385000Y-11290000D01*
X26365000Y-11270000D02*
X26405000Y-11270000D01*
X26495000Y-11310000D02*
X26495000Y-11350000D01*
X26475000Y-11330000D02*
X26515000Y-11330000D01*
X28464906Y-12844956D02*
X28464906Y-12884956D01*
X28444906Y-12864956D02*
X28484906Y-12864956D01*
X29090000Y-11845000D02*
X29090000Y-11885000D01*
X29070000Y-11865000D02*
X29110000Y-11865000D01*
X29285000Y-12720000D02*
X29285000Y-12760000D01*
X29265000Y-12740000D02*
X29305000Y-12740000D01*
X29480000Y-11650000D02*
X29480000Y-11690000D01*
X29460000Y-11670000D02*
X29500000Y-11670000D01*
X29550000Y-12055000D02*
X29550000Y-12095000D01*
X29530000Y-12075000D02*
X29570000Y-12075000D01*
X30523500Y-11317000D02*
X30523500Y-11357000D01*
X30503500Y-11337000D02*
X30543500Y-11337000D01*
X30524000Y-11907000D02*
X30524000Y-11947000D01*
X30504000Y-11927000D02*
X30544000Y-11927000D01*
X30770500Y-11335000D02*
X30770500Y-11375000D01*
X30750500Y-11355000D02*
X30790500Y-11355000D01*
X30770500Y-11694000D02*
X30770500Y-11734000D01*
X30750500Y-11714000D02*
X30790500Y-11714000D01*
D13*
X29880034Y-9463735D02*
X29880034Y-9407166D01*
X29823465Y-9407166D01*
X29823465Y-9463735D01*
X29880034Y-9463735D01*
X30065034Y-9463735D02*
X30065034Y-9407166D01*
X30008465Y-9407166D01*
X30008465Y-9463735D01*
X30065034Y-9463735D01*
D14*
X30251400Y-15732840D02*
X30292040Y-15692200D01*
X30251400Y-15651560D01*
X30210760Y-15692200D01*
X30251400Y-15732840D01*
X30505400Y-15732840D02*
X30546040Y-15692200D01*
X30505400Y-15651560D01*
X30464760Y-15692200D01*
X30505400Y-15732840D01*
X30759400Y-15732840D02*
X30800040Y-15692200D01*
X30759400Y-15651560D01*
X30718760Y-15692200D01*
X30759400Y-15732840D01*
X31013400Y-15732840D02*
X31054040Y-15692200D01*
X31013400Y-15651560D01*
X30972760Y-15692200D01*
X31013400Y-15732840D01*
D15*
X29520000Y-14060000D02*
X29620000Y-14160000D01*
X29620000Y-14060000D02*
X29520000Y-14160000D01*
X29620000Y-14110000D02*
G75*
G03*
X29620000Y-14110000I-50000J0D01*
G01*
X29520000Y-14314000D02*
X29620000Y-14414000D01*
X29620000Y-14314000D02*
X29520000Y-14414000D01*
X29620000Y-14364000D02*
G75*
G03*
X29620000Y-14364000I-50000J0D01*
G01*
X29520000Y-14568000D02*
X29620000Y-14668000D01*
X29620000Y-14568000D02*
X29520000Y-14668000D01*
X29620000Y-14618000D02*
G75*
G03*
X29620000Y-14618000I-50000J0D01*
G01*
X29520000Y-14822000D02*
X29620000Y-14922000D01*
X29620000Y-14822000D02*
X29520000Y-14922000D01*
X29620000Y-14872000D02*
G75*
G03*
X29620000Y-14872000I-50000J0D01*
G01*
X29924250Y-9669450D02*
X30024250Y-9769450D01*
X30024250Y-9669450D02*
X29924250Y-9769450D01*
X30024250Y-9719450D02*
G75*
G03*
X30024250Y-9719450I-50000J0D01*
G01*
X29924250Y-9923450D02*
X30024250Y-10023450D01*
X30024250Y-9923450D02*
X29924250Y-10023450D01*
X30024250Y-9973450D02*
G75*
G03*
X30024250Y-9973450I-50000J0D01*
G01*
X29924250Y-10177450D02*
X30024250Y-10277450D01*
X30024250Y-10177450D02*
X29924250Y-10277450D01*
X30024250Y-10227450D02*
G75*
G03*
X30024250Y-10227450I-50000J0D01*
G01*
X29924250Y-10431450D02*
X30024250Y-10531450D01*
X30024250Y-10431450D02*
X29924250Y-10531450D01*
X30024250Y-10481450D02*
G75*
G03*
X30024250Y-10481450I-50000J0D01*
G01*
D16*
X3431400Y-9705200D02*
X3731400Y-10005200D01*
X3731400Y-9705200D02*
X3431400Y-10005200D01*
X3581400Y-9705200D02*
X3581400Y-10005200D01*
X3431400Y-9855200D02*
X3731400Y-9855200D01*
X3669525Y-11610200D02*
X3969525Y-11910200D01*
X3969525Y-11610200D02*
X3669525Y-11910200D01*
X3819525Y-11610200D02*
X3819525Y-11910200D01*
X3669525Y-11760200D02*
X3969525Y-11760200D01*
X3669525Y-15420200D02*
X3969525Y-15720200D01*
X3969525Y-15420200D02*
X3669525Y-15720200D01*
X3819525Y-15420200D02*
X3819525Y-15720200D01*
X3669525Y-15570200D02*
X3969525Y-15570200D01*
X4066400Y-9451200D02*
X4366400Y-9751200D01*
X4366400Y-9451200D02*
X4066400Y-9751200D01*
X4216400Y-9451200D02*
X4216400Y-9751200D01*
X4066400Y-9601200D02*
X4366400Y-9601200D01*
X4145775Y-13515200D02*
X4445775Y-13815200D01*
X4445775Y-13515200D02*
X4145775Y-13815200D01*
X4295775Y-13515200D02*
X4295775Y-13815200D01*
X4145775Y-13665200D02*
X4445775Y-13665200D01*
X4304525Y-11356200D02*
X4604525Y-11656200D01*
X4604525Y-11356200D02*
X4304525Y-11656200D01*
X4454525Y-11356200D02*
X4454525Y-11656200D01*
X4304525Y-11506200D02*
X4604525Y-11506200D01*
X4304525Y-15166200D02*
X4604525Y-15466200D01*
X4604525Y-15166200D02*
X4304525Y-15466200D01*
X4454525Y-15166200D02*
X4454525Y-15466200D01*
X4304525Y-15316200D02*
X4604525Y-15316200D01*
X4780775Y-13261200D02*
X5080775Y-13561200D01*
X5080775Y-13261200D02*
X4780775Y-13561200D01*
X4930775Y-13261200D02*
X4930775Y-13561200D01*
X4780775Y-13411200D02*
X5080775Y-13411200D01*
X5336400Y-9705200D02*
X5636400Y-10005200D01*
X5636400Y-9705200D02*
X5336400Y-10005200D01*
X5486400Y-9705200D02*
X5486400Y-10005200D01*
X5336400Y-9855200D02*
X5636400Y-9855200D01*
X5819000Y-11610200D02*
X6119000Y-11910200D01*
X6119000Y-11610200D02*
X5819000Y-11910200D01*
X5969000Y-11610200D02*
X5969000Y-11910200D01*
X5819000Y-11760200D02*
X6119000Y-11760200D01*
X5971400Y-9451200D02*
X6271400Y-9751200D01*
X6271400Y-9451200D02*
X5971400Y-9751200D01*
X6121400Y-9451200D02*
X6121400Y-9751200D01*
X5971400Y-9601200D02*
X6271400Y-9601200D01*
X6047600Y-15420200D02*
X6347600Y-15720200D01*
X6347600Y-15420200D02*
X6047600Y-15720200D01*
X6197600Y-15420200D02*
X6197600Y-15720200D01*
X6047600Y-15570200D02*
X6347600Y-15570200D01*
X6454000Y-11356200D02*
X6754000Y-11656200D01*
X6754000Y-11356200D02*
X6454000Y-11656200D01*
X6604000Y-11356200D02*
X6604000Y-11656200D01*
X6454000Y-11506200D02*
X6754000Y-11506200D01*
X6682600Y-15166200D02*
X6982600Y-15466200D01*
X6982600Y-15166200D02*
X6682600Y-15466200D01*
X6832600Y-15166200D02*
X6832600Y-15466200D01*
X6682600Y-15316200D02*
X6982600Y-15316200D01*
X6758800Y-13515200D02*
X7058800Y-13815200D01*
X7058800Y-13515200D02*
X6758800Y-13815200D01*
X6908800Y-13515200D02*
X6908800Y-13815200D01*
X6758800Y-13665200D02*
X7058800Y-13665200D01*
X7241400Y-9705200D02*
X7541400Y-10005200D01*
X7541400Y-9705200D02*
X7241400Y-10005200D01*
X7391400Y-9705200D02*
X7391400Y-10005200D01*
X7241400Y-9855200D02*
X7541400Y-9855200D01*
X7393800Y-13261200D02*
X7693800Y-13561200D01*
X7693800Y-13261200D02*
X7393800Y-13561200D01*
X7543800Y-13261200D02*
X7543800Y-13561200D01*
X7393800Y-13411200D02*
X7693800Y-13411200D01*
X7724000Y-11610200D02*
X8024000Y-11910200D01*
X8024000Y-11610200D02*
X7724000Y-11910200D01*
X7874000Y-11610200D02*
X7874000Y-11910200D01*
X7724000Y-11760200D02*
X8024000Y-11760200D01*
X7876400Y-9451200D02*
X8176400Y-9751200D01*
X8176400Y-9451200D02*
X7876400Y-9751200D01*
X8026400Y-9451200D02*
X8026400Y-9751200D01*
X7876400Y-9601200D02*
X8176400Y-9601200D01*
X8359000Y-11356200D02*
X8659000Y-11656200D01*
X8659000Y-11356200D02*
X8359000Y-11656200D01*
X8509000Y-11356200D02*
X8509000Y-11656200D01*
X8359000Y-11506200D02*
X8659000Y-11506200D01*
X8425675Y-15420200D02*
X8725675Y-15720200D01*
X8725675Y-15420200D02*
X8425675Y-15720200D01*
X8575675Y-15420200D02*
X8575675Y-15720200D01*
X8425675Y-15570200D02*
X8725675Y-15570200D01*
X8663800Y-13515200D02*
X8963800Y-13815200D01*
X8963800Y-13515200D02*
X8663800Y-13815200D01*
X8813800Y-13515200D02*
X8813800Y-13815200D01*
X8663800Y-13665200D02*
X8963800Y-13665200D01*
X9060675Y-15166200D02*
X9360675Y-15466200D01*
X9360675Y-15166200D02*
X9060675Y-15466200D01*
X9210675Y-15166200D02*
X9210675Y-15466200D01*
X9060675Y-15316200D02*
X9360675Y-15316200D01*
X9146400Y-9705200D02*
X9446400Y-10005200D01*
X9446400Y-9705200D02*
X9146400Y-10005200D01*
X9296400Y-9705200D02*
X9296400Y-10005200D01*
X9146400Y-9855200D02*
X9446400Y-9855200D01*
X9298800Y-13261200D02*
X9598800Y-13561200D01*
X9598800Y-13261200D02*
X9298800Y-13561200D01*
X9448800Y-13261200D02*
X9448800Y-13561200D01*
X9298800Y-13411200D02*
X9598800Y-13411200D01*
X9629000Y-11610200D02*
X9929000Y-11910200D01*
X9929000Y-11610200D02*
X9629000Y-11910200D01*
X9779000Y-11610200D02*
X9779000Y-11910200D01*
X9629000Y-11760200D02*
X9929000Y-11760200D01*
X9781400Y-9451200D02*
X10081400Y-9751200D01*
X10081400Y-9451200D02*
X9781400Y-9751200D01*
X9931400Y-9451200D02*
X9931400Y-9751200D01*
X9781400Y-9601200D02*
X10081400Y-9601200D01*
X10264000Y-11356200D02*
X10564000Y-11656200D01*
X10564000Y-11356200D02*
X10264000Y-11656200D01*
X10414000Y-11356200D02*
X10414000Y-11656200D01*
X10264000Y-11506200D02*
X10564000Y-11506200D01*
X10568800Y-13515200D02*
X10868800Y-13815200D01*
X10868800Y-13515200D02*
X10568800Y-13815200D01*
X10718800Y-13515200D02*
X10718800Y-13815200D01*
X10568800Y-13665200D02*
X10868800Y-13665200D01*
X11051400Y-9705200D02*
X11351400Y-10005200D01*
X11351400Y-9705200D02*
X11051400Y-10005200D01*
X11201400Y-9705200D02*
X11201400Y-10005200D01*
X11051400Y-9855200D02*
X11351400Y-9855200D01*
X11203800Y-13261200D02*
X11503800Y-13561200D01*
X11503800Y-13261200D02*
X11203800Y-13561200D01*
X11353800Y-13261200D02*
X11353800Y-13561200D01*
X11203800Y-13411200D02*
X11503800Y-13411200D01*
X11534000Y-11610200D02*
X11834000Y-11910200D01*
X11834000Y-11610200D02*
X11534000Y-11910200D01*
X11684000Y-11610200D02*
X11684000Y-11910200D01*
X11534000Y-11760200D02*
X11834000Y-11760200D01*
X11686400Y-9451200D02*
X11986400Y-9751200D01*
X11986400Y-9451200D02*
X11686400Y-9751200D01*
X11836400Y-9451200D02*
X11836400Y-9751200D01*
X11686400Y-9601200D02*
X11986400Y-9601200D01*
X12169000Y-11356200D02*
X12469000Y-11656200D01*
X12469000Y-11356200D02*
X12169000Y-11656200D01*
X12319000Y-11356200D02*
X12319000Y-11656200D01*
X12169000Y-11506200D02*
X12469000Y-11506200D01*
X12235675Y-15420200D02*
X12535675Y-15720200D01*
X12535675Y-15420200D02*
X12235675Y-15720200D01*
X12385675Y-15420200D02*
X12385675Y-15720200D01*
X12235675Y-15570200D02*
X12535675Y-15570200D01*
X12473800Y-13515200D02*
X12773800Y-13815200D01*
X12773800Y-13515200D02*
X12473800Y-13815200D01*
X12623800Y-13515200D02*
X12623800Y-13815200D01*
X12473800Y-13665200D02*
X12773800Y-13665200D01*
X12870675Y-15166200D02*
X13170675Y-15466200D01*
X13170675Y-15166200D02*
X12870675Y-15466200D01*
X13020675Y-15166200D02*
X13020675Y-15466200D01*
X12870675Y-15316200D02*
X13170675Y-15316200D01*
X12956400Y-9705200D02*
X13256400Y-10005200D01*
X13256400Y-9705200D02*
X12956400Y-10005200D01*
X13106400Y-9705200D02*
X13106400Y-10005200D01*
X12956400Y-9855200D02*
X13256400Y-9855200D01*
X13108800Y-13261200D02*
X13408800Y-13561200D01*
X13408800Y-13261200D02*
X13108800Y-13561200D01*
X13258800Y-13261200D02*
X13258800Y-13561200D01*
X13108800Y-13411200D02*
X13408800Y-13411200D01*
X13439000Y-11610200D02*
X13739000Y-11910200D01*
X13739000Y-11610200D02*
X13439000Y-11910200D01*
X13589000Y-11610200D02*
X13589000Y-11910200D01*
X13439000Y-11760200D02*
X13739000Y-11760200D01*
X13591400Y-9451200D02*
X13891400Y-9751200D01*
X13891400Y-9451200D02*
X13591400Y-9751200D01*
X13741400Y-9451200D02*
X13741400Y-9751200D01*
X13591400Y-9601200D02*
X13891400Y-9601200D01*
X14074000Y-11356200D02*
X14374000Y-11656200D01*
X14374000Y-11356200D02*
X14074000Y-11656200D01*
X14224000Y-11356200D02*
X14224000Y-11656200D01*
X14074000Y-11506200D02*
X14374000Y-11506200D01*
X14378800Y-13515200D02*
X14678800Y-13815200D01*
X14678800Y-13515200D02*
X14378800Y-13815200D01*
X14528800Y-13515200D02*
X14528800Y-13815200D01*
X14378800Y-13665200D02*
X14678800Y-13665200D01*
X14861400Y-9705200D02*
X15161400Y-10005200D01*
X15161400Y-9705200D02*
X14861400Y-10005200D01*
X15011400Y-9705200D02*
X15011400Y-10005200D01*
X14861400Y-9855200D02*
X15161400Y-9855200D01*
X15013800Y-13261200D02*
X15313800Y-13561200D01*
X15313800Y-13261200D02*
X15013800Y-13561200D01*
X15163800Y-13261200D02*
X15163800Y-13561200D01*
X15013800Y-13411200D02*
X15313800Y-13411200D01*
X15344000Y-11610200D02*
X15644000Y-11910200D01*
X15644000Y-11610200D02*
X15344000Y-11910200D01*
X15494000Y-11610200D02*
X15494000Y-11910200D01*
X15344000Y-11760200D02*
X15644000Y-11760200D01*
X15496400Y-9451200D02*
X15796400Y-9751200D01*
X15796400Y-9451200D02*
X15496400Y-9751200D01*
X15646400Y-9451200D02*
X15646400Y-9751200D01*
X15496400Y-9601200D02*
X15796400Y-9601200D01*
X15979000Y-11356200D02*
X16279000Y-11656200D01*
X16279000Y-11356200D02*
X15979000Y-11656200D01*
X16129000Y-11356200D02*
X16129000Y-11656200D01*
X15979000Y-11506200D02*
X16279000Y-11506200D01*
X16283800Y-13515200D02*
X16583800Y-13815200D01*
X16583800Y-13515200D02*
X16283800Y-13815200D01*
X16433800Y-13515200D02*
X16433800Y-13815200D01*
X16283800Y-13665200D02*
X16583800Y-13665200D01*
X16766400Y-9705200D02*
X17066400Y-10005200D01*
X17066400Y-9705200D02*
X16766400Y-10005200D01*
X16916400Y-9705200D02*
X16916400Y-10005200D01*
X16766400Y-9855200D02*
X17066400Y-9855200D01*
X16918800Y-13261200D02*
X17218800Y-13561200D01*
X17218800Y-13261200D02*
X16918800Y-13561200D01*
X17068800Y-13261200D02*
X17068800Y-13561200D01*
X16918800Y-13411200D02*
X17218800Y-13411200D01*
X17249000Y-11610200D02*
X17549000Y-11910200D01*
X17549000Y-11610200D02*
X17249000Y-11910200D01*
X17399000Y-11610200D02*
X17399000Y-11910200D01*
X17249000Y-11760200D02*
X17549000Y-11760200D01*
X17401400Y-9451200D02*
X17701400Y-9751200D01*
X17701400Y-9451200D02*
X17401400Y-9751200D01*
X17551400Y-9451200D02*
X17551400Y-9751200D01*
X17401400Y-9601200D02*
X17701400Y-9601200D01*
X17477600Y-15420200D02*
X17777600Y-15720200D01*
X17777600Y-15420200D02*
X17477600Y-15720200D01*
X17627600Y-15420200D02*
X17627600Y-15720200D01*
X17477600Y-15570200D02*
X17777600Y-15570200D01*
X17884000Y-11356200D02*
X18184000Y-11656200D01*
X18184000Y-11356200D02*
X17884000Y-11656200D01*
X18034000Y-11356200D02*
X18034000Y-11656200D01*
X17884000Y-11506200D02*
X18184000Y-11506200D01*
X18112600Y-15166200D02*
X18412600Y-15466200D01*
X18412600Y-15166200D02*
X18112600Y-15466200D01*
X18262600Y-15166200D02*
X18262600Y-15466200D01*
X18112600Y-15316200D02*
X18412600Y-15316200D01*
X18188800Y-13515200D02*
X18488800Y-13815200D01*
X18488800Y-13515200D02*
X18188800Y-13815200D01*
X18338800Y-13515200D02*
X18338800Y-13815200D01*
X18188800Y-13665200D02*
X18488800Y-13665200D01*
X18671400Y-9705200D02*
X18971400Y-10005200D01*
X18971400Y-9705200D02*
X18671400Y-10005200D01*
X18821400Y-9705200D02*
X18821400Y-10005200D01*
X18671400Y-9855200D02*
X18971400Y-9855200D01*
X18823800Y-13261200D02*
X19123800Y-13561200D01*
X19123800Y-13261200D02*
X18823800Y-13561200D01*
X18973800Y-13261200D02*
X18973800Y-13561200D01*
X18823800Y-13411200D02*
X19123800Y-13411200D01*
X19154000Y-11610200D02*
X19454000Y-11910200D01*
X19454000Y-11610200D02*
X19154000Y-11910200D01*
X19304000Y-11610200D02*
X19304000Y-11910200D01*
X19154000Y-11760200D02*
X19454000Y-11760200D01*
X19306400Y-9451200D02*
X19606400Y-9751200D01*
X19606400Y-9451200D02*
X19306400Y-9751200D01*
X19456400Y-9451200D02*
X19456400Y-9751200D01*
X19306400Y-9601200D02*
X19606400Y-9601200D01*
X19789000Y-11356200D02*
X20089000Y-11656200D01*
X20089000Y-11356200D02*
X19789000Y-11656200D01*
X19939000Y-11356200D02*
X19939000Y-11656200D01*
X19789000Y-11506200D02*
X20089000Y-11506200D01*
X20093800Y-13515200D02*
X20393800Y-13815200D01*
X20393800Y-13515200D02*
X20093800Y-13815200D01*
X20243800Y-13515200D02*
X20243800Y-13815200D01*
X20093800Y-13665200D02*
X20393800Y-13665200D01*
X20576400Y-9705200D02*
X20876400Y-10005200D01*
X20876400Y-9705200D02*
X20576400Y-10005200D01*
X20726400Y-9705200D02*
X20726400Y-10005200D01*
X20576400Y-9855200D02*
X20876400Y-9855200D01*
X20728800Y-13261200D02*
X21028800Y-13561200D01*
X21028800Y-13261200D02*
X20728800Y-13561200D01*
X20878800Y-13261200D02*
X20878800Y-13561200D01*
X20728800Y-13411200D02*
X21028800Y-13411200D01*
X21059000Y-11610200D02*
X21359000Y-11910200D01*
X21359000Y-11610200D02*
X21059000Y-11910200D01*
X21209000Y-11610200D02*
X21209000Y-11910200D01*
X21059000Y-11760200D02*
X21359000Y-11760200D01*
X21211400Y-9451200D02*
X21511400Y-9751200D01*
X21511400Y-9451200D02*
X21211400Y-9751200D01*
X21361400Y-9451200D02*
X21361400Y-9751200D01*
X21211400Y-9601200D02*
X21511400Y-9601200D01*
X21287600Y-15420200D02*
X21587600Y-15720200D01*
X21587600Y-15420200D02*
X21287600Y-15720200D01*
X21437600Y-15420200D02*
X21437600Y-15720200D01*
X21287600Y-15570200D02*
X21587600Y-15570200D01*
X21694000Y-11356200D02*
X21994000Y-11656200D01*
X21994000Y-11356200D02*
X21694000Y-11656200D01*
X21844000Y-11356200D02*
X21844000Y-11656200D01*
X21694000Y-11506200D02*
X21994000Y-11506200D01*
X21922600Y-15166200D02*
X22222600Y-15466200D01*
X22222600Y-15166200D02*
X21922600Y-15466200D01*
X22072600Y-15166200D02*
X22072600Y-15466200D01*
X21922600Y-15316200D02*
X22222600Y-15316200D01*
X21998800Y-13515200D02*
X22298800Y-13815200D01*
X22298800Y-13515200D02*
X21998800Y-13815200D01*
X22148800Y-13515200D02*
X22148800Y-13815200D01*
X21998800Y-13665200D02*
X22298800Y-13665200D01*
X22481400Y-9705200D02*
X22781400Y-10005200D01*
X22781400Y-9705200D02*
X22481400Y-10005200D01*
X22631400Y-9705200D02*
X22631400Y-10005200D01*
X22481400Y-9855200D02*
X22781400Y-9855200D01*
X22633800Y-13261200D02*
X22933800Y-13561200D01*
X22933800Y-13261200D02*
X22633800Y-13561200D01*
X22783800Y-13261200D02*
X22783800Y-13561200D01*
X22633800Y-13411200D02*
X22933800Y-13411200D01*
X22964000Y-11610200D02*
X23264000Y-11910200D01*
X23264000Y-11610200D02*
X22964000Y-11910200D01*
X23114000Y-11610200D02*
X23114000Y-11910200D01*
X22964000Y-11760200D02*
X23264000Y-11760200D01*
X23116400Y-9451200D02*
X23416400Y-9751200D01*
X23416400Y-9451200D02*
X23116400Y-9751200D01*
X23266400Y-9451200D02*
X23266400Y-9751200D01*
X23116400Y-9601200D02*
X23416400Y-9601200D01*
X23599000Y-11356200D02*
X23899000Y-11656200D01*
X23899000Y-11356200D02*
X23599000Y-11656200D01*
X23749000Y-11356200D02*
X23749000Y-11656200D01*
X23599000Y-11506200D02*
X23899000Y-11506200D01*
X23665675Y-15420200D02*
X23965675Y-15720200D01*
X23965675Y-15420200D02*
X23665675Y-15720200D01*
X23815675Y-15420200D02*
X23815675Y-15720200D01*
X23665675Y-15570200D02*
X23965675Y-15570200D01*
X23903800Y-13515200D02*
X24203800Y-13815200D01*
X24203800Y-13515200D02*
X23903800Y-13815200D01*
X24053800Y-13515200D02*
X24053800Y-13815200D01*
X23903800Y-13665200D02*
X24203800Y-13665200D01*
X24300675Y-15166200D02*
X24600675Y-15466200D01*
X24600675Y-15166200D02*
X24300675Y-15466200D01*
X24450675Y-15166200D02*
X24450675Y-15466200D01*
X24300675Y-15316200D02*
X24600675Y-15316200D01*
X24386400Y-9705200D02*
X24686400Y-10005200D01*
X24686400Y-9705200D02*
X24386400Y-10005200D01*
X24536400Y-9705200D02*
X24536400Y-10005200D01*
X24386400Y-9855200D02*
X24686400Y-9855200D01*
X24538800Y-13261200D02*
X24838800Y-13561200D01*
X24838800Y-13261200D02*
X24538800Y-13561200D01*
X24688800Y-13261200D02*
X24688800Y-13561200D01*
X24538800Y-13411200D02*
X24838800Y-13411200D01*
X24869000Y-11610200D02*
X25169000Y-11910200D01*
X25169000Y-11610200D02*
X24869000Y-11910200D01*
X25019000Y-11610200D02*
X25019000Y-11910200D01*
X24869000Y-11760200D02*
X25169000Y-11760200D01*
X25021400Y-9451200D02*
X25321400Y-9751200D01*
X25321400Y-9451200D02*
X25021400Y-9751200D01*
X25171400Y-9451200D02*
X25171400Y-9751200D01*
X25021400Y-9601200D02*
X25321400Y-9601200D01*
X25504000Y-11356200D02*
X25804000Y-11656200D01*
X25804000Y-11356200D02*
X25504000Y-11656200D01*
X25654000Y-11356200D02*
X25654000Y-11656200D01*
X25504000Y-11506200D02*
X25804000Y-11506200D01*
X26053275Y-15420200D02*
X26353275Y-15720200D01*
X26353275Y-15420200D02*
X26053275Y-15720200D01*
X26203275Y-15420200D02*
X26203275Y-15720200D01*
X26053275Y-15570200D02*
X26353275Y-15570200D01*
X26291400Y-9705200D02*
X26591400Y-10005200D01*
X26591400Y-9705200D02*
X26291400Y-10005200D01*
X26441400Y-9705200D02*
X26441400Y-10005200D01*
X26291400Y-9855200D02*
X26591400Y-9855200D01*
X26688275Y-15166200D02*
X26988275Y-15466200D01*
X26988275Y-15166200D02*
X26688275Y-15466200D01*
X26838275Y-15166200D02*
X26838275Y-15466200D01*
X26688275Y-15316200D02*
X26988275Y-15316200D01*
X26926400Y-9451200D02*
X27226400Y-9751200D01*
X27226400Y-9451200D02*
X26926400Y-9751200D01*
X27076400Y-9451200D02*
X27076400Y-9751200D01*
X26926400Y-9601200D02*
X27226400Y-9601200D01*
X27005775Y-13515200D02*
X27305775Y-13815200D01*
X27305775Y-13515200D02*
X27005775Y-13815200D01*
X27155775Y-13515200D02*
X27155775Y-13815200D01*
X27005775Y-13665200D02*
X27305775Y-13665200D01*
X27482025Y-11610200D02*
X27782025Y-11910200D01*
X27782025Y-11610200D02*
X27482025Y-11910200D01*
X27632025Y-11610200D02*
X27632025Y-11910200D01*
X27482025Y-11760200D02*
X27782025Y-11760200D01*
X27640775Y-13261200D02*
X27940775Y-13561200D01*
X27940775Y-13261200D02*
X27640775Y-13561200D01*
X27790775Y-13261200D02*
X27790775Y-13561200D01*
X27640775Y-13411200D02*
X27940775Y-13411200D01*
X28117025Y-11356200D02*
X28417025Y-11656200D01*
X28417025Y-11356200D02*
X28117025Y-11656200D01*
X28267025Y-11356200D02*
X28267025Y-11656200D01*
X28117025Y-11506200D02*
X28417025Y-11506200D01*
X28196400Y-9705200D02*
X28496400Y-10005200D01*
X28496400Y-9705200D02*
X28196400Y-10005200D01*
X28346400Y-9705200D02*
X28346400Y-10005200D01*
X28196400Y-9855200D02*
X28496400Y-9855200D01*
X28196400Y-15420200D02*
X28496400Y-15720200D01*
X28496400Y-15420200D02*
X28196400Y-15720200D01*
X28346400Y-15420200D02*
X28346400Y-15720200D01*
X28196400Y-15570200D02*
X28496400Y-15570200D01*
X28831400Y-9451200D02*
X29131400Y-9751200D01*
X29131400Y-9451200D02*
X28831400Y-9751200D01*
X28981400Y-9451200D02*
X28981400Y-9751200D01*
X28831400Y-9601200D02*
X29131400Y-9601200D01*
X28831400Y-15166200D02*
X29131400Y-15466200D01*
X29131400Y-15166200D02*
X28831400Y-15466200D01*
X28981400Y-15166200D02*
X28981400Y-15466200D01*
X28831400Y-15316200D02*
X29131400Y-15316200D01*
X32006400Y-9705200D02*
X32306400Y-10005200D01*
X32306400Y-9705200D02*
X32006400Y-10005200D01*
X32156400Y-9705200D02*
X32156400Y-10005200D01*
X32006400Y-9855200D02*
X32306400Y-9855200D01*
X32006400Y-11610200D02*
X32306400Y-11910200D01*
X32306400Y-11610200D02*
X32006400Y-11910200D01*
X32156400Y-11610200D02*
X32156400Y-11910200D01*
X32006400Y-11760200D02*
X32306400Y-11760200D01*
X32006400Y-13515200D02*
X32306400Y-13815200D01*
X32306400Y-13515200D02*
X32006400Y-13815200D01*
X32156400Y-13515200D02*
X32156400Y-13815200D01*
X32006400Y-13665200D02*
X32306400Y-13665200D01*
X32006400Y-15420200D02*
X32306400Y-15720200D01*
X32306400Y-15420200D02*
X32006400Y-15720200D01*
X32156400Y-15420200D02*
X32156400Y-15720200D01*
X32006400Y-15570200D02*
X32306400Y-15570200D01*
X32641400Y-9451200D02*
X32941400Y-9751200D01*
X32941400Y-9451200D02*
X32641400Y-9751200D01*
X32791400Y-9451200D02*
X32791400Y-9751200D01*
X32641400Y-9601200D02*
X32941400Y-9601200D01*
X32641400Y-11356200D02*
X32941400Y-11656200D01*
X32941400Y-11356200D02*
X32641400Y-11656200D01*
X32791400Y-11356200D02*
X32791400Y-11656200D01*
X32641400Y-11506200D02*
X32941400Y-11506200D01*
X32641400Y-13261200D02*
X32941400Y-13561200D01*
X32941400Y-13261200D02*
X32641400Y-13561200D01*
X32791400Y-13261200D02*
X32791400Y-13561200D01*
X32641400Y-13411200D02*
X32941400Y-13411200D01*
X32641400Y-15166200D02*
X32941400Y-15466200D01*
X32941400Y-15166200D02*
X32641400Y-15466200D01*
X32791400Y-15166200D02*
X32791400Y-15466200D01*
X32641400Y-15316200D02*
X32941400Y-15316200D01*
X33911400Y-9705200D02*
X34211400Y-10005200D01*
X34211400Y-9705200D02*
X33911400Y-10005200D01*
X34061400Y-9705200D02*
X34061400Y-10005200D01*
X33911400Y-9855200D02*
X34211400Y-9855200D01*
X33911400Y-11610200D02*
X34211400Y-11910200D01*
X34211400Y-11610200D02*
X33911400Y-11910200D01*
X34061400Y-11610200D02*
X34061400Y-11910200D01*
X33911400Y-11760200D02*
X34211400Y-11760200D01*
X33911400Y-13515200D02*
X34211400Y-13815200D01*
X34211400Y-13515200D02*
X33911400Y-13815200D01*
X34061400Y-13515200D02*
X34061400Y-13815200D01*
X33911400Y-13665200D02*
X34211400Y-13665200D01*
X33911400Y-15420200D02*
X34211400Y-15720200D01*
X34211400Y-15420200D02*
X33911400Y-15720200D01*
X34061400Y-15420200D02*
X34061400Y-15720200D01*
X33911400Y-15570200D02*
X34211400Y-15570200D01*
X34546400Y-9451200D02*
X34846400Y-9751200D01*
X34846400Y-9451200D02*
X34546400Y-9751200D01*
X34696400Y-9451200D02*
X34696400Y-9751200D01*
X34546400Y-9601200D02*
X34846400Y-9601200D01*
X34546400Y-11356200D02*
X34846400Y-11656200D01*
X34846400Y-11356200D02*
X34546400Y-11656200D01*
X34696400Y-11356200D02*
X34696400Y-11656200D01*
X34546400Y-11506200D02*
X34846400Y-11506200D01*
X34546400Y-13261200D02*
X34846400Y-13561200D01*
X34846400Y-13261200D02*
X34546400Y-13561200D01*
X34696400Y-13261200D02*
X34696400Y-13561200D01*
X34546400Y-13411200D02*
X34846400Y-13411200D01*
X34546400Y-15166200D02*
X34846400Y-15466200D01*
X34846400Y-15166200D02*
X34546400Y-15466200D01*
X34696400Y-15166200D02*
X34696400Y-15466200D01*
X34546400Y-15316200D02*
X34846400Y-15316200D01*
X35816400Y-9705200D02*
X36116400Y-10005200D01*
X36116400Y-9705200D02*
X35816400Y-10005200D01*
X35966400Y-9705200D02*
X35966400Y-10005200D01*
X35816400Y-9855200D02*
X36116400Y-9855200D01*
X35816400Y-11610200D02*
X36116400Y-11910200D01*
X36116400Y-11610200D02*
X35816400Y-11910200D01*
X35966400Y-11610200D02*
X35966400Y-11910200D01*
X35816400Y-11760200D02*
X36116400Y-11760200D01*
X35816400Y-13515200D02*
X36116400Y-13815200D01*
X36116400Y-13515200D02*
X35816400Y-13815200D01*
X35966400Y-13515200D02*
X35966400Y-13815200D01*
X35816400Y-13665200D02*
X36116400Y-13665200D01*
X35816400Y-15420200D02*
X36116400Y-15720200D01*
X36116400Y-15420200D02*
X35816400Y-15720200D01*
X35966400Y-15420200D02*
X35966400Y-15720200D01*
X35816400Y-15570200D02*
X36116400Y-15570200D01*
X36451400Y-9451200D02*
X36751400Y-9751200D01*
X36751400Y-9451200D02*
X36451400Y-9751200D01*
X36601400Y-9451200D02*
X36601400Y-9751200D01*
X36451400Y-9601200D02*
X36751400Y-9601200D01*
X36451400Y-11356200D02*
X36751400Y-11656200D01*
X36751400Y-11356200D02*
X36451400Y-11656200D01*
X36601400Y-11356200D02*
X36601400Y-11656200D01*
X36451400Y-11506200D02*
X36751400Y-11506200D01*
X36451400Y-13261200D02*
X36751400Y-13561200D01*
X36751400Y-13261200D02*
X36451400Y-13561200D01*
X36601400Y-13261200D02*
X36601400Y-13561200D01*
X36451400Y-13411200D02*
X36751400Y-13411200D01*
X36451400Y-15166200D02*
X36751400Y-15466200D01*
X36751400Y-15166200D02*
X36451400Y-15466200D01*
X36601400Y-15166200D02*
X36601400Y-15466200D01*
X36451400Y-15316200D02*
X36751400Y-15316200D01*
X37721400Y-9705200D02*
X38021400Y-10005200D01*
X38021400Y-9705200D02*
X37721400Y-10005200D01*
X37871400Y-9705200D02*
X37871400Y-10005200D01*
X37721400Y-9855200D02*
X38021400Y-9855200D01*
X37721400Y-11610200D02*
X38021400Y-11910200D01*
X38021400Y-11610200D02*
X37721400Y-11910200D01*
X37871400Y-11610200D02*
X37871400Y-11910200D01*
X37721400Y-11760200D02*
X38021400Y-11760200D01*
X37721400Y-13515200D02*
X38021400Y-13815200D01*
X38021400Y-13515200D02*
X37721400Y-13815200D01*
X37871400Y-13515200D02*
X37871400Y-13815200D01*
X37721400Y-13665200D02*
X38021400Y-13665200D01*
X37721400Y-15420200D02*
X38021400Y-15720200D01*
X38021400Y-15420200D02*
X37721400Y-15720200D01*
X37871400Y-15420200D02*
X37871400Y-15720200D01*
X37721400Y-15570200D02*
X38021400Y-15570200D01*
X38356400Y-9451200D02*
X38656400Y-9751200D01*
X38656400Y-9451200D02*
X38356400Y-9751200D01*
X38506400Y-9451200D02*
X38506400Y-9751200D01*
X38356400Y-9601200D02*
X38656400Y-9601200D01*
X38356400Y-11356200D02*
X38656400Y-11656200D01*
X38656400Y-11356200D02*
X38356400Y-11656200D01*
X38506400Y-11356200D02*
X38506400Y-11656200D01*
X38356400Y-11506200D02*
X38656400Y-11506200D01*
X38356400Y-13261200D02*
X38656400Y-13561200D01*
X38656400Y-13261200D02*
X38356400Y-13561200D01*
X38506400Y-13261200D02*
X38506400Y-13561200D01*
X38356400Y-13411200D02*
X38656400Y-13411200D01*
X38356400Y-15166200D02*
X38656400Y-15466200D01*
X38656400Y-15166200D02*
X38356400Y-15466200D01*
X38506400Y-15166200D02*
X38506400Y-15466200D01*
X38356400Y-15316200D02*
X38656400Y-15316200D01*
D10*
X3310019Y-17044676D02*
X3310019Y-16844676D01*
X3357638Y-16844676D01*
X3386209Y-16854200D01*
X3405257Y-16873248D01*
X3414781Y-16892295D01*
X3424305Y-16930390D01*
X3424305Y-16958962D01*
X3414781Y-16997057D01*
X3405257Y-17016105D01*
X3386209Y-17035152D01*
X3357638Y-17044676D01*
X3310019Y-17044676D01*
X3510019Y-17044676D02*
X3510019Y-16911343D01*
X3510019Y-16949438D02*
X3519543Y-16930390D01*
X3529067Y-16920867D01*
X3548114Y-16911343D01*
X3567162Y-16911343D01*
X3633828Y-17044676D02*
X3633828Y-16911343D01*
X3633828Y-16844676D02*
X3624305Y-16854200D01*
X3633828Y-16863724D01*
X3643352Y-16854200D01*
X3633828Y-16844676D01*
X3633828Y-16863724D01*
X3757638Y-17044676D02*
X3738590Y-17035152D01*
X3729067Y-17016105D01*
X3729067Y-16844676D01*
X3862400Y-17044676D02*
X3843352Y-17035152D01*
X3833828Y-17016105D01*
X3833828Y-16844676D01*
X4090971Y-17044676D02*
X4090971Y-16844676D01*
X4157638Y-16987533D01*
X4224305Y-16844676D01*
X4224305Y-17044676D01*
X4405257Y-17044676D02*
X4405257Y-16939914D01*
X4395733Y-16920867D01*
X4376686Y-16911343D01*
X4338590Y-16911343D01*
X4319543Y-16920867D01*
X4405257Y-17035152D02*
X4386210Y-17044676D01*
X4338590Y-17044676D01*
X4319543Y-17035152D01*
X4310019Y-17016105D01*
X4310019Y-16997057D01*
X4319543Y-16978010D01*
X4338590Y-16968486D01*
X4386210Y-16968486D01*
X4405257Y-16958962D01*
X4500495Y-16911343D02*
X4500495Y-17111343D01*
X4500495Y-16920867D02*
X4519543Y-16911343D01*
X4557638Y-16911343D01*
X4576686Y-16920867D01*
X4586210Y-16930390D01*
X4595733Y-16949438D01*
X4595733Y-17006581D01*
X4586210Y-17025629D01*
X4576686Y-17035152D01*
X4557638Y-17044676D01*
X4519543Y-17044676D01*
X4500495Y-17035152D01*
X4681448Y-17025629D02*
X4690971Y-17035152D01*
X4681448Y-17044676D01*
X4671924Y-17035152D01*
X4681448Y-17025629D01*
X4681448Y-17044676D01*
X4681448Y-16920867D02*
X4690971Y-16930390D01*
X4681448Y-16939914D01*
X4671924Y-16930390D01*
X4681448Y-16920867D01*
X4681448Y-16939914D01*
D11*
X3022400Y-17359200D02*
X3052400Y-17389200D01*
X3052400Y-17359200D02*
X3022400Y-17389200D01*
D10*
X3348114Y-17264676D02*
X3367162Y-17264676D01*
X3386209Y-17274200D01*
X3395733Y-17283724D01*
X3405257Y-17302771D01*
X3414781Y-17340867D01*
X3414781Y-17388486D01*
X3405257Y-17426581D01*
X3395733Y-17445629D01*
X3386209Y-17455152D01*
X3367162Y-17464676D01*
X3348114Y-17464676D01*
X3329067Y-17455152D01*
X3319543Y-17445629D01*
X3310019Y-17426581D01*
X3300495Y-17388486D01*
X3300495Y-17340867D01*
X3310019Y-17302771D01*
X3319543Y-17283724D01*
X3329067Y-17274200D01*
X3348114Y-17264676D01*
X3500495Y-17445629D02*
X3510019Y-17455152D01*
X3500495Y-17464676D01*
X3490971Y-17455152D01*
X3500495Y-17445629D01*
X3500495Y-17464676D01*
X3576686Y-17264676D02*
X3700495Y-17264676D01*
X3633828Y-17340867D01*
X3662400Y-17340867D01*
X3681448Y-17350390D01*
X3690971Y-17359914D01*
X3700495Y-17378962D01*
X3700495Y-17426581D01*
X3690971Y-17445629D01*
X3681448Y-17455152D01*
X3662400Y-17464676D01*
X3605257Y-17464676D01*
X3586209Y-17455152D01*
X3576686Y-17445629D01*
X3824305Y-17264676D02*
X3843352Y-17264676D01*
X3862400Y-17274200D01*
X3871924Y-17283724D01*
X3881448Y-17302771D01*
X3890971Y-17340867D01*
X3890971Y-17388486D01*
X3881448Y-17426581D01*
X3871924Y-17445629D01*
X3862400Y-17455152D01*
X3843352Y-17464676D01*
X3824305Y-17464676D01*
X3805257Y-17455152D01*
X3795733Y-17445629D01*
X3786209Y-17426581D01*
X3776686Y-17388486D01*
X3776686Y-17340867D01*
X3786209Y-17302771D01*
X3795733Y-17283724D01*
X3805257Y-17274200D01*
X3824305Y-17264676D01*
X4014781Y-17264676D02*
X4033828Y-17264676D01*
X4052876Y-17274200D01*
X4062400Y-17283724D01*
X4071924Y-17302771D01*
X4081448Y-17340867D01*
X4081448Y-17388486D01*
X4071924Y-17426581D01*
X4062400Y-17445629D01*
X4052876Y-17455152D01*
X4033828Y-17464676D01*
X4014781Y-17464676D01*
X3995733Y-17455152D01*
X3986209Y-17445629D01*
X3976686Y-17426581D01*
X3967162Y-17388486D01*
X3967162Y-17340867D01*
X3976686Y-17302771D01*
X3986209Y-17283724D01*
X3995733Y-17274200D01*
X4014781Y-17264676D01*
X4167162Y-17464676D02*
X4167162Y-17331343D01*
X4167162Y-17350390D02*
X4176686Y-17340867D01*
X4195733Y-17331343D01*
X4224305Y-17331343D01*
X4243352Y-17340867D01*
X4252876Y-17359914D01*
X4252876Y-17464676D01*
X4252876Y-17359914D02*
X4262400Y-17340867D01*
X4281448Y-17331343D01*
X4310019Y-17331343D01*
X4329067Y-17340867D01*
X4338590Y-17359914D01*
X4338590Y-17464676D01*
X4433829Y-17464676D02*
X4433829Y-17331343D01*
X4433829Y-17350390D02*
X4443352Y-17340867D01*
X4462400Y-17331343D01*
X4490971Y-17331343D01*
X4510019Y-17340867D01*
X4519543Y-17359914D01*
X4519543Y-17464676D01*
X4519543Y-17359914D02*
X4529067Y-17340867D01*
X4548114Y-17331343D01*
X4576686Y-17331343D01*
X4595733Y-17340867D01*
X4605257Y-17359914D01*
X4605257Y-17464676D01*
X4995733Y-17255152D02*
X4824305Y-17512295D01*
X5252876Y-17264676D02*
X5271924Y-17264676D01*
X5290971Y-17274200D01*
X5300495Y-17283724D01*
X5310019Y-17302771D01*
X5319543Y-17340867D01*
X5319543Y-17388486D01*
X5310019Y-17426581D01*
X5300495Y-17445629D01*
X5290971Y-17455152D01*
X5271924Y-17464676D01*
X5252876Y-17464676D01*
X5233829Y-17455152D01*
X5224305Y-17445629D01*
X5214781Y-17426581D01*
X5205257Y-17388486D01*
X5205257Y-17340867D01*
X5214781Y-17302771D01*
X5224305Y-17283724D01*
X5233829Y-17274200D01*
X5252876Y-17264676D01*
X5405257Y-17445629D02*
X5414781Y-17455152D01*
X5405257Y-17464676D01*
X5395733Y-17455152D01*
X5405257Y-17445629D01*
X5405257Y-17464676D01*
X5538590Y-17264676D02*
X5557638Y-17264676D01*
X5576686Y-17274200D01*
X5586210Y-17283724D01*
X5595733Y-17302771D01*
X5605257Y-17340867D01*
X5605257Y-17388486D01*
X5595733Y-17426581D01*
X5586210Y-17445629D01*
X5576686Y-17455152D01*
X5557638Y-17464676D01*
X5538590Y-17464676D01*
X5519543Y-17455152D01*
X5510019Y-17445629D01*
X5500495Y-17426581D01*
X5490971Y-17388486D01*
X5490971Y-17340867D01*
X5500495Y-17302771D01*
X5510019Y-17283724D01*
X5519543Y-17274200D01*
X5538590Y-17264676D01*
X5795733Y-17464676D02*
X5681448Y-17464676D01*
X5738590Y-17464676D02*
X5738590Y-17264676D01*
X5719543Y-17293248D01*
X5700495Y-17312295D01*
X5681448Y-17321819D01*
X5986209Y-17464676D02*
X5871924Y-17464676D01*
X5929067Y-17464676D02*
X5929067Y-17264676D01*
X5910019Y-17293248D01*
X5890971Y-17312295D01*
X5871924Y-17321819D01*
X6100495Y-17350390D02*
X6081448Y-17340867D01*
X6071924Y-17331343D01*
X6062400Y-17312295D01*
X6062400Y-17302771D01*
X6071924Y-17283724D01*
X6081448Y-17274200D01*
X6100495Y-17264676D01*
X6138590Y-17264676D01*
X6157638Y-17274200D01*
X6167162Y-17283724D01*
X6176686Y-17302771D01*
X6176686Y-17312295D01*
X6167162Y-17331343D01*
X6157638Y-17340867D01*
X6138590Y-17350390D01*
X6100495Y-17350390D01*
X6081448Y-17359914D01*
X6071924Y-17369438D01*
X6062400Y-17388486D01*
X6062400Y-17426581D01*
X6071924Y-17445629D01*
X6081448Y-17455152D01*
X6100495Y-17464676D01*
X6138590Y-17464676D01*
X6157638Y-17455152D01*
X6167162Y-17445629D01*
X6176686Y-17426581D01*
X6176686Y-17388486D01*
X6167162Y-17369438D01*
X6157638Y-17359914D01*
X6138590Y-17350390D01*
X6252876Y-17264676D02*
X6252876Y-17302771D01*
X6329067Y-17264676D02*
X6329067Y-17302771D01*
X6624305Y-17540867D02*
X6614781Y-17531343D01*
X6595733Y-17502771D01*
X6586209Y-17483724D01*
X6576686Y-17455152D01*
X6567162Y-17407533D01*
X6567162Y-17369438D01*
X6576686Y-17321819D01*
X6586209Y-17293248D01*
X6595733Y-17274200D01*
X6614781Y-17245629D01*
X6624305Y-17236105D01*
X6786209Y-17331343D02*
X6786209Y-17464676D01*
X6738590Y-17255152D02*
X6690971Y-17398010D01*
X6814781Y-17398010D01*
X6976686Y-17331343D02*
X6976686Y-17464676D01*
X6929067Y-17255152D02*
X6881448Y-17398010D01*
X7005257Y-17398010D01*
X7062400Y-17264676D02*
X7186209Y-17264676D01*
X7119543Y-17340867D01*
X7148114Y-17340867D01*
X7167162Y-17350390D01*
X7176686Y-17359914D01*
X7186209Y-17378962D01*
X7186209Y-17426581D01*
X7176686Y-17445629D01*
X7167162Y-17455152D01*
X7148114Y-17464676D01*
X7090971Y-17464676D01*
X7071924Y-17455152D01*
X7062400Y-17445629D01*
X7424305Y-17464676D02*
X7424305Y-17264676D01*
X7510019Y-17464676D02*
X7510019Y-17359914D01*
X7500495Y-17340867D01*
X7481448Y-17331343D01*
X7452876Y-17331343D01*
X7433828Y-17340867D01*
X7424305Y-17350390D01*
X7633828Y-17464676D02*
X7614781Y-17455152D01*
X7605257Y-17445629D01*
X7595733Y-17426581D01*
X7595733Y-17369438D01*
X7605257Y-17350390D01*
X7614781Y-17340867D01*
X7633828Y-17331343D01*
X7662400Y-17331343D01*
X7681448Y-17340867D01*
X7690971Y-17350390D01*
X7700495Y-17369438D01*
X7700495Y-17426581D01*
X7690971Y-17445629D01*
X7681448Y-17455152D01*
X7662400Y-17464676D01*
X7633828Y-17464676D01*
X7814781Y-17464676D02*
X7795733Y-17455152D01*
X7786209Y-17436105D01*
X7786209Y-17264676D01*
X7967162Y-17455152D02*
X7948114Y-17464676D01*
X7910019Y-17464676D01*
X7890971Y-17455152D01*
X7881448Y-17436105D01*
X7881448Y-17359914D01*
X7890971Y-17340867D01*
X7910019Y-17331343D01*
X7948114Y-17331343D01*
X7967162Y-17340867D01*
X7976686Y-17359914D01*
X7976686Y-17378962D01*
X7881448Y-17398010D01*
X8052876Y-17455152D02*
X8071924Y-17464676D01*
X8110019Y-17464676D01*
X8129067Y-17455152D01*
X8138590Y-17436105D01*
X8138590Y-17426581D01*
X8129067Y-17407533D01*
X8110019Y-17398010D01*
X8081448Y-17398010D01*
X8062400Y-17388486D01*
X8052876Y-17369438D01*
X8052876Y-17359914D01*
X8062400Y-17340867D01*
X8081448Y-17331343D01*
X8110019Y-17331343D01*
X8129067Y-17340867D01*
X8205257Y-17540867D02*
X8214781Y-17531343D01*
X8233828Y-17502771D01*
X8243352Y-17483724D01*
X8252876Y-17455152D01*
X8262400Y-17407533D01*
X8262400Y-17369438D01*
X8252876Y-17321819D01*
X8243352Y-17293248D01*
X8233828Y-17274200D01*
X8214781Y-17245629D01*
X8205257Y-17236105D01*
D11*
X3052400Y-17638200D02*
G75*
G03*
X3052400Y-17638200I-15000J0D01*
G01*
D10*
X3348114Y-17528676D02*
X3367162Y-17528676D01*
X3386209Y-17538200D01*
X3395733Y-17547724D01*
X3405257Y-17566771D01*
X3414781Y-17604867D01*
X3414781Y-17652486D01*
X3405257Y-17690581D01*
X3395733Y-17709629D01*
X3386209Y-17719152D01*
X3367162Y-17728676D01*
X3348114Y-17728676D01*
X3329067Y-17719152D01*
X3319543Y-17709629D01*
X3310019Y-17690581D01*
X3300495Y-17652486D01*
X3300495Y-17604867D01*
X3310019Y-17566771D01*
X3319543Y-17547724D01*
X3329067Y-17538200D01*
X3348114Y-17528676D01*
X3500495Y-17709629D02*
X3510019Y-17719152D01*
X3500495Y-17728676D01*
X3490971Y-17719152D01*
X3500495Y-17709629D01*
X3500495Y-17728676D01*
X3576686Y-17528676D02*
X3700495Y-17528676D01*
X3633828Y-17604867D01*
X3662400Y-17604867D01*
X3681448Y-17614390D01*
X3690971Y-17623914D01*
X3700495Y-17642962D01*
X3700495Y-17690581D01*
X3690971Y-17709629D01*
X3681448Y-17719152D01*
X3662400Y-17728676D01*
X3605257Y-17728676D01*
X3586209Y-17719152D01*
X3576686Y-17709629D01*
X3824305Y-17528676D02*
X3843352Y-17528676D01*
X3862400Y-17538200D01*
X3871924Y-17547724D01*
X3881448Y-17566771D01*
X3890971Y-17604867D01*
X3890971Y-17652486D01*
X3881448Y-17690581D01*
X3871924Y-17709629D01*
X3862400Y-17719152D01*
X3843352Y-17728676D01*
X3824305Y-17728676D01*
X3805257Y-17719152D01*
X3795733Y-17709629D01*
X3786209Y-17690581D01*
X3776686Y-17652486D01*
X3776686Y-17604867D01*
X3786209Y-17566771D01*
X3795733Y-17547724D01*
X3805257Y-17538200D01*
X3824305Y-17528676D01*
X4014781Y-17528676D02*
X4033828Y-17528676D01*
X4052876Y-17538200D01*
X4062400Y-17547724D01*
X4071924Y-17566771D01*
X4081448Y-17604867D01*
X4081448Y-17652486D01*
X4071924Y-17690581D01*
X4062400Y-17709629D01*
X4052876Y-17719152D01*
X4033828Y-17728676D01*
X4014781Y-17728676D01*
X3995733Y-17719152D01*
X3986209Y-17709629D01*
X3976686Y-17690581D01*
X3967162Y-17652486D01*
X3967162Y-17604867D01*
X3976686Y-17566771D01*
X3986209Y-17547724D01*
X3995733Y-17538200D01*
X4014781Y-17528676D01*
X4167162Y-17728676D02*
X4167162Y-17595343D01*
X4167162Y-17614390D02*
X4176686Y-17604867D01*
X4195733Y-17595343D01*
X4224305Y-17595343D01*
X4243352Y-17604867D01*
X4252876Y-17623914D01*
X4252876Y-17728676D01*
X4252876Y-17623914D02*
X4262400Y-17604867D01*
X4281448Y-17595343D01*
X4310019Y-17595343D01*
X4329067Y-17604867D01*
X4338590Y-17623914D01*
X4338590Y-17728676D01*
X4433829Y-17728676D02*
X4433829Y-17595343D01*
X4433829Y-17614390D02*
X4443352Y-17604867D01*
X4462400Y-17595343D01*
X4490971Y-17595343D01*
X4510019Y-17604867D01*
X4519543Y-17623914D01*
X4519543Y-17728676D01*
X4519543Y-17623914D02*
X4529067Y-17604867D01*
X4548114Y-17595343D01*
X4576686Y-17595343D01*
X4595733Y-17604867D01*
X4605257Y-17623914D01*
X4605257Y-17728676D01*
X4995733Y-17519152D02*
X4824305Y-17776295D01*
X5252876Y-17528676D02*
X5271924Y-17528676D01*
X5290971Y-17538200D01*
X5300495Y-17547724D01*
X5310019Y-17566771D01*
X5319543Y-17604867D01*
X5319543Y-17652486D01*
X5310019Y-17690581D01*
X5300495Y-17709629D01*
X5290971Y-17719152D01*
X5271924Y-17728676D01*
X5252876Y-17728676D01*
X5233829Y-17719152D01*
X5224305Y-17709629D01*
X5214781Y-17690581D01*
X5205257Y-17652486D01*
X5205257Y-17604867D01*
X5214781Y-17566771D01*
X5224305Y-17547724D01*
X5233829Y-17538200D01*
X5252876Y-17528676D01*
X5405257Y-17709629D02*
X5414781Y-17719152D01*
X5405257Y-17728676D01*
X5395733Y-17719152D01*
X5405257Y-17709629D01*
X5405257Y-17728676D01*
X5538590Y-17528676D02*
X5557638Y-17528676D01*
X5576686Y-17538200D01*
X5586210Y-17547724D01*
X5595733Y-17566771D01*
X5605257Y-17604867D01*
X5605257Y-17652486D01*
X5595733Y-17690581D01*
X5586210Y-17709629D01*
X5576686Y-17719152D01*
X5557638Y-17728676D01*
X5538590Y-17728676D01*
X5519543Y-17719152D01*
X5510019Y-17709629D01*
X5500495Y-17690581D01*
X5490971Y-17652486D01*
X5490971Y-17604867D01*
X5500495Y-17566771D01*
X5510019Y-17547724D01*
X5519543Y-17538200D01*
X5538590Y-17528676D01*
X5795733Y-17728676D02*
X5681448Y-17728676D01*
X5738590Y-17728676D02*
X5738590Y-17528676D01*
X5719543Y-17557248D01*
X5700495Y-17576295D01*
X5681448Y-17585819D01*
X5986209Y-17728676D02*
X5871924Y-17728676D01*
X5929067Y-17728676D02*
X5929067Y-17528676D01*
X5910019Y-17557248D01*
X5890971Y-17576295D01*
X5871924Y-17585819D01*
X6100495Y-17614390D02*
X6081448Y-17604867D01*
X6071924Y-17595343D01*
X6062400Y-17576295D01*
X6062400Y-17566771D01*
X6071924Y-17547724D01*
X6081448Y-17538200D01*
X6100495Y-17528676D01*
X6138590Y-17528676D01*
X6157638Y-17538200D01*
X6167162Y-17547724D01*
X6176686Y-17566771D01*
X6176686Y-17576295D01*
X6167162Y-17595343D01*
X6157638Y-17604867D01*
X6138590Y-17614390D01*
X6100495Y-17614390D01*
X6081448Y-17623914D01*
X6071924Y-17633438D01*
X6062400Y-17652486D01*
X6062400Y-17690581D01*
X6071924Y-17709629D01*
X6081448Y-17719152D01*
X6100495Y-17728676D01*
X6138590Y-17728676D01*
X6157638Y-17719152D01*
X6167162Y-17709629D01*
X6176686Y-17690581D01*
X6176686Y-17652486D01*
X6167162Y-17633438D01*
X6157638Y-17623914D01*
X6138590Y-17614390D01*
X6252876Y-17528676D02*
X6252876Y-17566771D01*
X6329067Y-17528676D02*
X6329067Y-17566771D01*
X6624305Y-17804867D02*
X6614781Y-17795343D01*
X6595733Y-17766771D01*
X6586209Y-17747724D01*
X6576686Y-17719152D01*
X6567162Y-17671533D01*
X6567162Y-17633438D01*
X6576686Y-17585819D01*
X6586209Y-17557248D01*
X6595733Y-17538200D01*
X6614781Y-17509629D01*
X6624305Y-17500105D01*
X6710019Y-17728676D02*
X6748114Y-17728676D01*
X6767162Y-17719152D01*
X6776686Y-17709629D01*
X6795733Y-17681057D01*
X6805257Y-17642962D01*
X6805257Y-17566771D01*
X6795733Y-17547724D01*
X6786209Y-17538200D01*
X6767162Y-17528676D01*
X6729067Y-17528676D01*
X6710019Y-17538200D01*
X6700495Y-17547724D01*
X6690971Y-17566771D01*
X6690971Y-17614390D01*
X6700495Y-17633438D01*
X6710019Y-17642962D01*
X6729067Y-17652486D01*
X6767162Y-17652486D01*
X6786209Y-17642962D01*
X6795733Y-17633438D01*
X6805257Y-17614390D01*
X7043352Y-17728676D02*
X7043352Y-17528676D01*
X7129067Y-17728676D02*
X7129067Y-17623914D01*
X7119543Y-17604867D01*
X7100495Y-17595343D01*
X7071924Y-17595343D01*
X7052876Y-17604867D01*
X7043352Y-17614390D01*
X7252876Y-17728676D02*
X7233828Y-17719152D01*
X7224305Y-17709629D01*
X7214781Y-17690581D01*
X7214781Y-17633438D01*
X7224305Y-17614390D01*
X7233828Y-17604867D01*
X7252876Y-17595343D01*
X7281448Y-17595343D01*
X7300495Y-17604867D01*
X7310019Y-17614390D01*
X7319543Y-17633438D01*
X7319543Y-17690581D01*
X7310019Y-17709629D01*
X7300495Y-17719152D01*
X7281448Y-17728676D01*
X7252876Y-17728676D01*
X7433828Y-17728676D02*
X7414781Y-17719152D01*
X7405257Y-17700105D01*
X7405257Y-17528676D01*
X7586209Y-17719152D02*
X7567162Y-17728676D01*
X7529067Y-17728676D01*
X7510019Y-17719152D01*
X7500495Y-17700105D01*
X7500495Y-17623914D01*
X7510019Y-17604867D01*
X7529067Y-17595343D01*
X7567162Y-17595343D01*
X7586209Y-17604867D01*
X7595733Y-17623914D01*
X7595733Y-17642962D01*
X7500495Y-17662010D01*
X7671924Y-17719152D02*
X7690971Y-17728676D01*
X7729067Y-17728676D01*
X7748114Y-17719152D01*
X7757638Y-17700105D01*
X7757638Y-17690581D01*
X7748114Y-17671533D01*
X7729067Y-17662010D01*
X7700495Y-17662010D01*
X7681448Y-17652486D01*
X7671924Y-17633438D01*
X7671924Y-17623914D01*
X7681448Y-17604867D01*
X7700495Y-17595343D01*
X7729067Y-17595343D01*
X7748114Y-17604867D01*
X7824305Y-17804867D02*
X7833828Y-17795343D01*
X7852876Y-17766771D01*
X7862400Y-17747724D01*
X7871924Y-17719152D01*
X7881448Y-17671533D01*
X7881448Y-17633438D01*
X7871924Y-17585819D01*
X7862400Y-17557248D01*
X7852876Y-17538200D01*
X7833828Y-17509629D01*
X7824305Y-17500105D01*
D12*
X3032400Y-17882200D02*
X3032400Y-17922200D01*
X3012400Y-17902200D02*
X3052400Y-17902200D01*
D10*
X3348114Y-17792676D02*
X3367162Y-17792676D01*
X3386209Y-17802200D01*
X3395733Y-17811724D01*
X3405257Y-17830771D01*
X3414781Y-17868867D01*
X3414781Y-17916486D01*
X3405257Y-17954581D01*
X3395733Y-17973629D01*
X3386209Y-17983152D01*
X3367162Y-17992676D01*
X3348114Y-17992676D01*
X3329067Y-17983152D01*
X3319543Y-17973629D01*
X3310019Y-17954581D01*
X3300495Y-17916486D01*
X3300495Y-17868867D01*
X3310019Y-17830771D01*
X3319543Y-17811724D01*
X3329067Y-17802200D01*
X3348114Y-17792676D01*
X3500495Y-17973629D02*
X3510019Y-17983152D01*
X3500495Y-17992676D01*
X3490971Y-17983152D01*
X3500495Y-17973629D01*
X3500495Y-17992676D01*
X3681448Y-17859343D02*
X3681448Y-17992676D01*
X3633828Y-17783152D02*
X3586209Y-17926010D01*
X3710019Y-17926010D01*
X3824305Y-17792676D02*
X3843352Y-17792676D01*
X3862400Y-17802200D01*
X3871924Y-17811724D01*
X3881448Y-17830771D01*
X3890971Y-17868867D01*
X3890971Y-17916486D01*
X3881448Y-17954581D01*
X3871924Y-17973629D01*
X3862400Y-17983152D01*
X3843352Y-17992676D01*
X3824305Y-17992676D01*
X3805257Y-17983152D01*
X3795733Y-17973629D01*
X3786209Y-17954581D01*
X3776686Y-17916486D01*
X3776686Y-17868867D01*
X3786209Y-17830771D01*
X3795733Y-17811724D01*
X3805257Y-17802200D01*
X3824305Y-17792676D01*
X4014781Y-17792676D02*
X4033828Y-17792676D01*
X4052876Y-17802200D01*
X4062400Y-17811724D01*
X4071924Y-17830771D01*
X4081448Y-17868867D01*
X4081448Y-17916486D01*
X4071924Y-17954581D01*
X4062400Y-17973629D01*
X4052876Y-17983152D01*
X4033828Y-17992676D01*
X4014781Y-17992676D01*
X3995733Y-17983152D01*
X3986209Y-17973629D01*
X3976686Y-17954581D01*
X3967162Y-17916486D01*
X3967162Y-17868867D01*
X3976686Y-17830771D01*
X3986209Y-17811724D01*
X3995733Y-17802200D01*
X4014781Y-17792676D01*
X4167162Y-17992676D02*
X4167162Y-17859343D01*
X4167162Y-17878390D02*
X4176686Y-17868867D01*
X4195733Y-17859343D01*
X4224305Y-17859343D01*
X4243352Y-17868867D01*
X4252876Y-17887914D01*
X4252876Y-17992676D01*
X4252876Y-17887914D02*
X4262400Y-17868867D01*
X4281448Y-17859343D01*
X4310019Y-17859343D01*
X4329067Y-17868867D01*
X4338590Y-17887914D01*
X4338590Y-17992676D01*
X4433829Y-17992676D02*
X4433829Y-17859343D01*
X4433829Y-17878390D02*
X4443352Y-17868867D01*
X4462400Y-17859343D01*
X4490971Y-17859343D01*
X4510019Y-17868867D01*
X4519543Y-17887914D01*
X4519543Y-17992676D01*
X4519543Y-17887914D02*
X4529067Y-17868867D01*
X4548114Y-17859343D01*
X4576686Y-17859343D01*
X4595733Y-17868867D01*
X4605257Y-17887914D01*
X4605257Y-17992676D01*
X4995733Y-17783152D02*
X4824305Y-18040295D01*
X5252876Y-17792676D02*
X5271924Y-17792676D01*
X5290971Y-17802200D01*
X5300495Y-17811724D01*
X5310019Y-17830771D01*
X5319543Y-17868867D01*
X5319543Y-17916486D01*
X5310019Y-17954581D01*
X5300495Y-17973629D01*
X5290971Y-17983152D01*
X5271924Y-17992676D01*
X5252876Y-17992676D01*
X5233829Y-17983152D01*
X5224305Y-17973629D01*
X5214781Y-17954581D01*
X5205257Y-17916486D01*
X5205257Y-17868867D01*
X5214781Y-17830771D01*
X5224305Y-17811724D01*
X5233829Y-17802200D01*
X5252876Y-17792676D01*
X5405257Y-17973629D02*
X5414781Y-17983152D01*
X5405257Y-17992676D01*
X5395733Y-17983152D01*
X5405257Y-17973629D01*
X5405257Y-17992676D01*
X5538590Y-17792676D02*
X5557638Y-17792676D01*
X5576686Y-17802200D01*
X5586210Y-17811724D01*
X5595733Y-17830771D01*
X5605257Y-17868867D01*
X5605257Y-17916486D01*
X5595733Y-17954581D01*
X5586210Y-17973629D01*
X5576686Y-17983152D01*
X5557638Y-17992676D01*
X5538590Y-17992676D01*
X5519543Y-17983152D01*
X5510019Y-17973629D01*
X5500495Y-17954581D01*
X5490971Y-17916486D01*
X5490971Y-17868867D01*
X5500495Y-17830771D01*
X5510019Y-17811724D01*
X5519543Y-17802200D01*
X5538590Y-17792676D01*
X5795733Y-17992676D02*
X5681448Y-17992676D01*
X5738590Y-17992676D02*
X5738590Y-17792676D01*
X5719543Y-17821248D01*
X5700495Y-17840295D01*
X5681448Y-17849819D01*
X5976686Y-17792676D02*
X5881448Y-17792676D01*
X5871924Y-17887914D01*
X5881448Y-17878390D01*
X5900495Y-17868867D01*
X5948114Y-17868867D01*
X5967162Y-17878390D01*
X5976686Y-17887914D01*
X5986209Y-17906962D01*
X5986209Y-17954581D01*
X5976686Y-17973629D01*
X5967162Y-17983152D01*
X5948114Y-17992676D01*
X5900495Y-17992676D01*
X5881448Y-17983152D01*
X5871924Y-17973629D01*
X6052876Y-17792676D02*
X6186209Y-17792676D01*
X6100495Y-17992676D01*
X6252876Y-17792676D02*
X6252876Y-17830771D01*
X6329067Y-17792676D02*
X6329067Y-17830771D01*
X6624305Y-18068867D02*
X6614781Y-18059343D01*
X6595733Y-18030771D01*
X6586209Y-18011724D01*
X6576686Y-17983152D01*
X6567162Y-17935533D01*
X6567162Y-17897438D01*
X6576686Y-17849819D01*
X6586209Y-17821248D01*
X6595733Y-17802200D01*
X6614781Y-17773629D01*
X6624305Y-17764105D01*
X6805257Y-17992676D02*
X6690971Y-17992676D01*
X6748114Y-17992676D02*
X6748114Y-17792676D01*
X6729067Y-17821248D01*
X6710019Y-17840295D01*
X6690971Y-17849819D01*
X6881448Y-17811724D02*
X6890971Y-17802200D01*
X6910019Y-17792676D01*
X6957638Y-17792676D01*
X6976686Y-17802200D01*
X6986209Y-17811724D01*
X6995733Y-17830771D01*
X6995733Y-17849819D01*
X6986209Y-17878390D01*
X6871924Y-17992676D01*
X6995733Y-17992676D01*
X7233828Y-17992676D02*
X7233828Y-17792676D01*
X7319543Y-17992676D02*
X7319543Y-17887914D01*
X7310019Y-17868867D01*
X7290971Y-17859343D01*
X7262400Y-17859343D01*
X7243352Y-17868867D01*
X7233828Y-17878390D01*
X7443352Y-17992676D02*
X7424305Y-17983152D01*
X7414781Y-17973629D01*
X7405257Y-17954581D01*
X7405257Y-17897438D01*
X7414781Y-17878390D01*
X7424305Y-17868867D01*
X7443352Y-17859343D01*
X7471924Y-17859343D01*
X7490971Y-17868867D01*
X7500495Y-17878390D01*
X7510019Y-17897438D01*
X7510019Y-17954581D01*
X7500495Y-17973629D01*
X7490971Y-17983152D01*
X7471924Y-17992676D01*
X7443352Y-17992676D01*
X7624305Y-17992676D02*
X7605257Y-17983152D01*
X7595733Y-17964105D01*
X7595733Y-17792676D01*
X7776686Y-17983152D02*
X7757638Y-17992676D01*
X7719543Y-17992676D01*
X7700495Y-17983152D01*
X7690971Y-17964105D01*
X7690971Y-17887914D01*
X7700495Y-17868867D01*
X7719543Y-17859343D01*
X7757638Y-17859343D01*
X7776686Y-17868867D01*
X7786209Y-17887914D01*
X7786209Y-17906962D01*
X7690971Y-17926010D01*
X7862400Y-17983152D02*
X7881448Y-17992676D01*
X7919543Y-17992676D01*
X7938590Y-17983152D01*
X7948114Y-17964105D01*
X7948114Y-17954581D01*
X7938590Y-17935533D01*
X7919543Y-17926010D01*
X7890971Y-17926010D01*
X7871924Y-17916486D01*
X7862400Y-17897438D01*
X7862400Y-17887914D01*
X7871924Y-17868867D01*
X7890971Y-17859343D01*
X7919543Y-17859343D01*
X7938590Y-17868867D01*
X8014781Y-18068867D02*
X8024305Y-18059343D01*
X8043352Y-18030771D01*
X8052876Y-18011724D01*
X8062400Y-17983152D01*
X8071924Y-17935533D01*
X8071924Y-17897438D01*
X8062400Y-17849819D01*
X8052876Y-17821248D01*
X8043352Y-17802200D01*
X8024305Y-17773629D01*
X8014781Y-17764105D01*
D13*
X3040684Y-18194485D02*
X3040684Y-18137916D01*
X2984115Y-18137916D01*
X2984115Y-18194485D01*
X3040684Y-18194485D01*
D10*
X3348114Y-18056676D02*
X3367162Y-18056676D01*
X3386209Y-18066200D01*
X3395733Y-18075724D01*
X3405257Y-18094771D01*
X3414781Y-18132867D01*
X3414781Y-18180486D01*
X3405257Y-18218581D01*
X3395733Y-18237629D01*
X3386209Y-18247152D01*
X3367162Y-18256676D01*
X3348114Y-18256676D01*
X3329067Y-18247152D01*
X3319543Y-18237629D01*
X3310019Y-18218581D01*
X3300495Y-18180486D01*
X3300495Y-18132867D01*
X3310019Y-18094771D01*
X3319543Y-18075724D01*
X3329067Y-18066200D01*
X3348114Y-18056676D01*
X3500495Y-18237629D02*
X3510019Y-18247152D01*
X3500495Y-18256676D01*
X3490971Y-18247152D01*
X3500495Y-18237629D01*
X3500495Y-18256676D01*
X3624305Y-18142390D02*
X3605257Y-18132867D01*
X3595733Y-18123343D01*
X3586209Y-18104295D01*
X3586209Y-18094771D01*
X3595733Y-18075724D01*
X3605257Y-18066200D01*
X3624305Y-18056676D01*
X3662400Y-18056676D01*
X3681448Y-18066200D01*
X3690971Y-18075724D01*
X3700495Y-18094771D01*
X3700495Y-18104295D01*
X3690971Y-18123343D01*
X3681448Y-18132867D01*
X3662400Y-18142390D01*
X3624305Y-18142390D01*
X3605257Y-18151914D01*
X3595733Y-18161438D01*
X3586209Y-18180486D01*
X3586209Y-18218581D01*
X3595733Y-18237629D01*
X3605257Y-18247152D01*
X3624305Y-18256676D01*
X3662400Y-18256676D01*
X3681448Y-18247152D01*
X3690971Y-18237629D01*
X3700495Y-18218581D01*
X3700495Y-18180486D01*
X3690971Y-18161438D01*
X3681448Y-18151914D01*
X3662400Y-18142390D01*
X3824305Y-18056676D02*
X3843352Y-18056676D01*
X3862400Y-18066200D01*
X3871924Y-18075724D01*
X3881448Y-18094771D01*
X3890971Y-18132867D01*
X3890971Y-18180486D01*
X3881448Y-18218581D01*
X3871924Y-18237629D01*
X3862400Y-18247152D01*
X3843352Y-18256676D01*
X3824305Y-18256676D01*
X3805257Y-18247152D01*
X3795733Y-18237629D01*
X3786209Y-18218581D01*
X3776686Y-18180486D01*
X3776686Y-18132867D01*
X3786209Y-18094771D01*
X3795733Y-18075724D01*
X3805257Y-18066200D01*
X3824305Y-18056676D01*
X4014781Y-18056676D02*
X4033828Y-18056676D01*
X4052876Y-18066200D01*
X4062400Y-18075724D01*
X4071924Y-18094771D01*
X4081448Y-18132867D01*
X4081448Y-18180486D01*
X4071924Y-18218581D01*
X4062400Y-18237629D01*
X4052876Y-18247152D01*
X4033828Y-18256676D01*
X4014781Y-18256676D01*
X3995733Y-18247152D01*
X3986209Y-18237629D01*
X3976686Y-18218581D01*
X3967162Y-18180486D01*
X3967162Y-18132867D01*
X3976686Y-18094771D01*
X3986209Y-18075724D01*
X3995733Y-18066200D01*
X4014781Y-18056676D01*
X4167162Y-18256676D02*
X4167162Y-18123343D01*
X4167162Y-18142390D02*
X4176686Y-18132867D01*
X4195733Y-18123343D01*
X4224305Y-18123343D01*
X4243352Y-18132867D01*
X4252876Y-18151914D01*
X4252876Y-18256676D01*
X4252876Y-18151914D02*
X4262400Y-18132867D01*
X4281448Y-18123343D01*
X4310019Y-18123343D01*
X4329067Y-18132867D01*
X4338590Y-18151914D01*
X4338590Y-18256676D01*
X4433829Y-18256676D02*
X4433829Y-18123343D01*
X4433829Y-18142390D02*
X4443352Y-18132867D01*
X4462400Y-18123343D01*
X4490971Y-18123343D01*
X4510019Y-18132867D01*
X4519543Y-18151914D01*
X4519543Y-18256676D01*
X4519543Y-18151914D02*
X4529067Y-18132867D01*
X4548114Y-18123343D01*
X4576686Y-18123343D01*
X4595733Y-18132867D01*
X4605257Y-18151914D01*
X4605257Y-18256676D01*
X4995733Y-18047152D02*
X4824305Y-18304295D01*
X5252876Y-18056676D02*
X5271924Y-18056676D01*
X5290971Y-18066200D01*
X5300495Y-18075724D01*
X5310019Y-18094771D01*
X5319543Y-18132867D01*
X5319543Y-18180486D01*
X5310019Y-18218581D01*
X5300495Y-18237629D01*
X5290971Y-18247152D01*
X5271924Y-18256676D01*
X5252876Y-18256676D01*
X5233829Y-18247152D01*
X5224305Y-18237629D01*
X5214781Y-18218581D01*
X5205257Y-18180486D01*
X5205257Y-18132867D01*
X5214781Y-18094771D01*
X5224305Y-18075724D01*
X5233829Y-18066200D01*
X5252876Y-18056676D01*
X5405257Y-18237629D02*
X5414781Y-18247152D01*
X5405257Y-18256676D01*
X5395733Y-18247152D01*
X5405257Y-18237629D01*
X5405257Y-18256676D01*
X5538590Y-18056676D02*
X5557638Y-18056676D01*
X5576686Y-18066200D01*
X5586210Y-18075724D01*
X5595733Y-18094771D01*
X5605257Y-18132867D01*
X5605257Y-18180486D01*
X5595733Y-18218581D01*
X5586210Y-18237629D01*
X5576686Y-18247152D01*
X5557638Y-18256676D01*
X5538590Y-18256676D01*
X5519543Y-18247152D01*
X5510019Y-18237629D01*
X5500495Y-18218581D01*
X5490971Y-18180486D01*
X5490971Y-18132867D01*
X5500495Y-18094771D01*
X5510019Y-18075724D01*
X5519543Y-18066200D01*
X5538590Y-18056676D01*
X5671924Y-18056676D02*
X5795733Y-18056676D01*
X5729067Y-18132867D01*
X5757638Y-18132867D01*
X5776686Y-18142390D01*
X5786209Y-18151914D01*
X5795733Y-18170962D01*
X5795733Y-18218581D01*
X5786209Y-18237629D01*
X5776686Y-18247152D01*
X5757638Y-18256676D01*
X5700495Y-18256676D01*
X5681448Y-18247152D01*
X5671924Y-18237629D01*
X5986209Y-18256676D02*
X5871924Y-18256676D01*
X5929067Y-18256676D02*
X5929067Y-18056676D01*
X5910019Y-18085248D01*
X5890971Y-18104295D01*
X5871924Y-18113819D01*
X6167162Y-18056676D02*
X6071924Y-18056676D01*
X6062400Y-18151914D01*
X6071924Y-18142390D01*
X6090971Y-18132867D01*
X6138590Y-18132867D01*
X6157638Y-18142390D01*
X6167162Y-18151914D01*
X6176686Y-18170962D01*
X6176686Y-18218581D01*
X6167162Y-18237629D01*
X6157638Y-18247152D01*
X6138590Y-18256676D01*
X6090971Y-18256676D01*
X6071924Y-18247152D01*
X6062400Y-18237629D01*
X6252876Y-18056676D02*
X6252876Y-18094771D01*
X6329067Y-18056676D02*
X6329067Y-18094771D01*
X6624305Y-18332867D02*
X6614781Y-18323343D01*
X6595733Y-18294771D01*
X6586209Y-18275724D01*
X6576686Y-18247152D01*
X6567162Y-18199533D01*
X6567162Y-18161438D01*
X6576686Y-18113819D01*
X6586209Y-18085248D01*
X6595733Y-18066200D01*
X6614781Y-18037629D01*
X6624305Y-18028105D01*
X6690971Y-18075724D02*
X6700495Y-18066200D01*
X6719543Y-18056676D01*
X6767162Y-18056676D01*
X6786209Y-18066200D01*
X6795733Y-18075724D01*
X6805257Y-18094771D01*
X6805257Y-18113819D01*
X6795733Y-18142390D01*
X6681448Y-18256676D01*
X6805257Y-18256676D01*
X7043352Y-18256676D02*
X7043352Y-18056676D01*
X7129067Y-18256676D02*
X7129067Y-18151914D01*
X7119543Y-18132867D01*
X7100495Y-18123343D01*
X7071924Y-18123343D01*
X7052876Y-18132867D01*
X7043352Y-18142390D01*
X7252876Y-18256676D02*
X7233828Y-18247152D01*
X7224305Y-18237629D01*
X7214781Y-18218581D01*
X7214781Y-18161438D01*
X7224305Y-18142390D01*
X7233828Y-18132867D01*
X7252876Y-18123343D01*
X7281448Y-18123343D01*
X7300495Y-18132867D01*
X7310019Y-18142390D01*
X7319543Y-18161438D01*
X7319543Y-18218581D01*
X7310019Y-18237629D01*
X7300495Y-18247152D01*
X7281448Y-18256676D01*
X7252876Y-18256676D01*
X7433828Y-18256676D02*
X7414781Y-18247152D01*
X7405257Y-18228105D01*
X7405257Y-18056676D01*
X7586209Y-18247152D02*
X7567162Y-18256676D01*
X7529067Y-18256676D01*
X7510019Y-18247152D01*
X7500495Y-18228105D01*
X7500495Y-18151914D01*
X7510019Y-18132867D01*
X7529067Y-18123343D01*
X7567162Y-18123343D01*
X7586209Y-18132867D01*
X7595733Y-18151914D01*
X7595733Y-18170962D01*
X7500495Y-18190010D01*
X7671924Y-18247152D02*
X7690971Y-18256676D01*
X7729067Y-18256676D01*
X7748114Y-18247152D01*
X7757638Y-18228105D01*
X7757638Y-18218581D01*
X7748114Y-18199533D01*
X7729067Y-18190010D01*
X7700495Y-18190010D01*
X7681448Y-18180486D01*
X7671924Y-18161438D01*
X7671924Y-18151914D01*
X7681448Y-18132867D01*
X7700495Y-18123343D01*
X7729067Y-18123343D01*
X7748114Y-18132867D01*
X7824305Y-18332867D02*
X7833828Y-18323343D01*
X7852876Y-18294771D01*
X7862400Y-18275724D01*
X7871924Y-18247152D01*
X7881448Y-18199533D01*
X7881448Y-18161438D01*
X7871924Y-18113819D01*
X7862400Y-18085248D01*
X7852876Y-18066200D01*
X7833828Y-18037629D01*
X7824305Y-18028105D01*
D14*
X3011760Y-18470840D02*
X3052400Y-18430200D01*
X3011760Y-18389560D01*
X2971120Y-18430200D01*
X3011760Y-18470840D01*
D10*
X3348114Y-18320676D02*
X3367162Y-18320676D01*
X3386209Y-18330200D01*
X3395733Y-18339724D01*
X3405257Y-18358771D01*
X3414781Y-18396867D01*
X3414781Y-18444486D01*
X3405257Y-18482581D01*
X3395733Y-18501629D01*
X3386209Y-18511152D01*
X3367162Y-18520676D01*
X3348114Y-18520676D01*
X3329067Y-18511152D01*
X3319543Y-18501629D01*
X3310019Y-18482581D01*
X3300495Y-18444486D01*
X3300495Y-18396867D01*
X3310019Y-18358771D01*
X3319543Y-18339724D01*
X3329067Y-18330200D01*
X3348114Y-18320676D01*
X3500495Y-18501629D02*
X3510019Y-18511152D01*
X3500495Y-18520676D01*
X3490971Y-18511152D01*
X3500495Y-18501629D01*
X3500495Y-18520676D01*
X3624305Y-18406390D02*
X3605257Y-18396867D01*
X3595733Y-18387343D01*
X3586209Y-18368295D01*
X3586209Y-18358771D01*
X3595733Y-18339724D01*
X3605257Y-18330200D01*
X3624305Y-18320676D01*
X3662400Y-18320676D01*
X3681448Y-18330200D01*
X3690971Y-18339724D01*
X3700495Y-18358771D01*
X3700495Y-18368295D01*
X3690971Y-18387343D01*
X3681448Y-18396867D01*
X3662400Y-18406390D01*
X3624305Y-18406390D01*
X3605257Y-18415914D01*
X3595733Y-18425438D01*
X3586209Y-18444486D01*
X3586209Y-18482581D01*
X3595733Y-18501629D01*
X3605257Y-18511152D01*
X3624305Y-18520676D01*
X3662400Y-18520676D01*
X3681448Y-18511152D01*
X3690971Y-18501629D01*
X3700495Y-18482581D01*
X3700495Y-18444486D01*
X3690971Y-18425438D01*
X3681448Y-18415914D01*
X3662400Y-18406390D01*
X3890971Y-18520676D02*
X3776686Y-18520676D01*
X3833828Y-18520676D02*
X3833828Y-18320676D01*
X3814781Y-18349248D01*
X3795733Y-18368295D01*
X3776686Y-18377819D01*
X3957638Y-18320676D02*
X4081448Y-18320676D01*
X4014781Y-18396867D01*
X4043352Y-18396867D01*
X4062400Y-18406390D01*
X4071924Y-18415914D01*
X4081448Y-18434962D01*
X4081448Y-18482581D01*
X4071924Y-18501629D01*
X4062400Y-18511152D01*
X4043352Y-18520676D01*
X3986209Y-18520676D01*
X3967162Y-18511152D01*
X3957638Y-18501629D01*
X4167162Y-18520676D02*
X4167162Y-18387343D01*
X4167162Y-18406390D02*
X4176686Y-18396867D01*
X4195733Y-18387343D01*
X4224305Y-18387343D01*
X4243352Y-18396867D01*
X4252876Y-18415914D01*
X4252876Y-18520676D01*
X4252876Y-18415914D02*
X4262400Y-18396867D01*
X4281448Y-18387343D01*
X4310019Y-18387343D01*
X4329067Y-18396867D01*
X4338590Y-18415914D01*
X4338590Y-18520676D01*
X4433829Y-18520676D02*
X4433829Y-18387343D01*
X4433829Y-18406390D02*
X4443352Y-18396867D01*
X4462400Y-18387343D01*
X4490971Y-18387343D01*
X4510019Y-18396867D01*
X4519543Y-18415914D01*
X4519543Y-18520676D01*
X4519543Y-18415914D02*
X4529067Y-18396867D01*
X4548114Y-18387343D01*
X4576686Y-18387343D01*
X4595733Y-18396867D01*
X4605257Y-18415914D01*
X4605257Y-18520676D01*
X4995733Y-18311152D02*
X4824305Y-18568295D01*
X5252876Y-18320676D02*
X5271924Y-18320676D01*
X5290971Y-18330200D01*
X5300495Y-18339724D01*
X5310019Y-18358771D01*
X5319543Y-18396867D01*
X5319543Y-18444486D01*
X5310019Y-18482581D01*
X5300495Y-18501629D01*
X5290971Y-18511152D01*
X5271924Y-18520676D01*
X5252876Y-18520676D01*
X5233829Y-18511152D01*
X5224305Y-18501629D01*
X5214781Y-18482581D01*
X5205257Y-18444486D01*
X5205257Y-18396867D01*
X5214781Y-18358771D01*
X5224305Y-18339724D01*
X5233829Y-18330200D01*
X5252876Y-18320676D01*
X5405257Y-18501629D02*
X5414781Y-18511152D01*
X5405257Y-18520676D01*
X5395733Y-18511152D01*
X5405257Y-18501629D01*
X5405257Y-18520676D01*
X5538590Y-18320676D02*
X5557638Y-18320676D01*
X5576686Y-18330200D01*
X5586210Y-18339724D01*
X5595733Y-18358771D01*
X5605257Y-18396867D01*
X5605257Y-18444486D01*
X5595733Y-18482581D01*
X5586210Y-18501629D01*
X5576686Y-18511152D01*
X5557638Y-18520676D01*
X5538590Y-18520676D01*
X5519543Y-18511152D01*
X5510019Y-18501629D01*
X5500495Y-18482581D01*
X5490971Y-18444486D01*
X5490971Y-18396867D01*
X5500495Y-18358771D01*
X5510019Y-18339724D01*
X5519543Y-18330200D01*
X5538590Y-18320676D01*
X5671924Y-18320676D02*
X5795733Y-18320676D01*
X5729067Y-18396867D01*
X5757638Y-18396867D01*
X5776686Y-18406390D01*
X5786209Y-18415914D01*
X5795733Y-18434962D01*
X5795733Y-18482581D01*
X5786209Y-18501629D01*
X5776686Y-18511152D01*
X5757638Y-18520676D01*
X5700495Y-18520676D01*
X5681448Y-18511152D01*
X5671924Y-18501629D01*
X5871924Y-18339724D02*
X5881448Y-18330200D01*
X5900495Y-18320676D01*
X5948114Y-18320676D01*
X5967162Y-18330200D01*
X5976686Y-18339724D01*
X5986209Y-18358771D01*
X5986209Y-18377819D01*
X5976686Y-18406390D01*
X5862400Y-18520676D01*
X5986209Y-18520676D01*
X6110019Y-18320676D02*
X6129067Y-18320676D01*
X6148114Y-18330200D01*
X6157638Y-18339724D01*
X6167162Y-18358771D01*
X6176686Y-18396867D01*
X6176686Y-18444486D01*
X6167162Y-18482581D01*
X6157638Y-18501629D01*
X6148114Y-18511152D01*
X6129067Y-18520676D01*
X6110019Y-18520676D01*
X6090971Y-18511152D01*
X6081448Y-18501629D01*
X6071924Y-18482581D01*
X6062400Y-18444486D01*
X6062400Y-18396867D01*
X6071924Y-18358771D01*
X6081448Y-18339724D01*
X6090971Y-18330200D01*
X6110019Y-18320676D01*
X6252876Y-18320676D02*
X6252876Y-18358771D01*
X6329067Y-18320676D02*
X6329067Y-18358771D01*
X6624305Y-18596867D02*
X6614781Y-18587343D01*
X6595733Y-18558771D01*
X6586209Y-18539724D01*
X6576686Y-18511152D01*
X6567162Y-18463533D01*
X6567162Y-18425438D01*
X6576686Y-18377819D01*
X6586209Y-18349248D01*
X6595733Y-18330200D01*
X6614781Y-18301629D01*
X6624305Y-18292105D01*
X6786209Y-18387343D02*
X6786209Y-18520676D01*
X6738590Y-18311152D02*
X6690971Y-18454010D01*
X6814781Y-18454010D01*
X7043352Y-18520676D02*
X7043352Y-18320676D01*
X7129067Y-18520676D02*
X7129067Y-18415914D01*
X7119543Y-18396867D01*
X7100495Y-18387343D01*
X7071924Y-18387343D01*
X7052876Y-18396867D01*
X7043352Y-18406390D01*
X7252876Y-18520676D02*
X7233828Y-18511152D01*
X7224305Y-18501629D01*
X7214781Y-18482581D01*
X7214781Y-18425438D01*
X7224305Y-18406390D01*
X7233828Y-18396867D01*
X7252876Y-18387343D01*
X7281448Y-18387343D01*
X7300495Y-18396867D01*
X7310019Y-18406390D01*
X7319543Y-18425438D01*
X7319543Y-18482581D01*
X7310019Y-18501629D01*
X7300495Y-18511152D01*
X7281448Y-18520676D01*
X7252876Y-18520676D01*
X7433828Y-18520676D02*
X7414781Y-18511152D01*
X7405257Y-18492105D01*
X7405257Y-18320676D01*
X7586209Y-18511152D02*
X7567162Y-18520676D01*
X7529067Y-18520676D01*
X7510019Y-18511152D01*
X7500495Y-18492105D01*
X7500495Y-18415914D01*
X7510019Y-18396867D01*
X7529067Y-18387343D01*
X7567162Y-18387343D01*
X7586209Y-18396867D01*
X7595733Y-18415914D01*
X7595733Y-18434962D01*
X7500495Y-18454010D01*
X7671924Y-18511152D02*
X7690971Y-18520676D01*
X7729067Y-18520676D01*
X7748114Y-18511152D01*
X7757638Y-18492105D01*
X7757638Y-18482581D01*
X7748114Y-18463533D01*
X7729067Y-18454010D01*
X7700495Y-18454010D01*
X7681448Y-18444486D01*
X7671924Y-18425438D01*
X7671924Y-18415914D01*
X7681448Y-18396867D01*
X7700495Y-18387343D01*
X7729067Y-18387343D01*
X7748114Y-18396867D01*
X7824305Y-18596867D02*
X7833828Y-18587343D01*
X7852876Y-18558771D01*
X7862400Y-18539724D01*
X7871924Y-18511152D01*
X7881448Y-18463533D01*
X7881448Y-18425438D01*
X7871924Y-18377819D01*
X7862400Y-18349248D01*
X7852876Y-18330200D01*
X7833828Y-18301629D01*
X7824305Y-18292105D01*
D15*
X2952400Y-18644200D02*
X3052400Y-18744200D01*
X3052400Y-18644200D02*
X2952400Y-18744200D01*
X3052400Y-18694200D02*
G75*
G03*
X3052400Y-18694200I-50000J0D01*
G01*
D10*
X3414781Y-18784676D02*
X3300495Y-18784676D01*
X3357638Y-18784676D02*
X3357638Y-18584676D01*
X3338590Y-18613248D01*
X3319543Y-18632295D01*
X3300495Y-18641819D01*
X3500495Y-18765629D02*
X3510019Y-18775152D01*
X3500495Y-18784676D01*
X3490971Y-18775152D01*
X3500495Y-18765629D01*
X3500495Y-18784676D01*
X3633828Y-18584676D02*
X3652876Y-18584676D01*
X3671924Y-18594200D01*
X3681448Y-18603724D01*
X3690971Y-18622771D01*
X3700495Y-18660867D01*
X3700495Y-18708486D01*
X3690971Y-18746581D01*
X3681448Y-18765629D01*
X3671924Y-18775152D01*
X3652876Y-18784676D01*
X3633828Y-18784676D01*
X3614781Y-18775152D01*
X3605257Y-18765629D01*
X3595733Y-18746581D01*
X3586209Y-18708486D01*
X3586209Y-18660867D01*
X3595733Y-18622771D01*
X3605257Y-18603724D01*
X3614781Y-18594200D01*
X3633828Y-18584676D01*
X3824305Y-18584676D02*
X3843352Y-18584676D01*
X3862400Y-18594200D01*
X3871924Y-18603724D01*
X3881448Y-18622771D01*
X3890971Y-18660867D01*
X3890971Y-18708486D01*
X3881448Y-18746581D01*
X3871924Y-18765629D01*
X3862400Y-18775152D01*
X3843352Y-18784676D01*
X3824305Y-18784676D01*
X3805257Y-18775152D01*
X3795733Y-18765629D01*
X3786209Y-18746581D01*
X3776686Y-18708486D01*
X3776686Y-18660867D01*
X3786209Y-18622771D01*
X3795733Y-18603724D01*
X3805257Y-18594200D01*
X3824305Y-18584676D01*
X4014781Y-18584676D02*
X4033828Y-18584676D01*
X4052876Y-18594200D01*
X4062400Y-18603724D01*
X4071924Y-18622771D01*
X4081448Y-18660867D01*
X4081448Y-18708486D01*
X4071924Y-18746581D01*
X4062400Y-18765629D01*
X4052876Y-18775152D01*
X4033828Y-18784676D01*
X4014781Y-18784676D01*
X3995733Y-18775152D01*
X3986209Y-18765629D01*
X3976686Y-18746581D01*
X3967162Y-18708486D01*
X3967162Y-18660867D01*
X3976686Y-18622771D01*
X3986209Y-18603724D01*
X3995733Y-18594200D01*
X4014781Y-18584676D01*
X4167162Y-18784676D02*
X4167162Y-18651343D01*
X4167162Y-18670390D02*
X4176686Y-18660867D01*
X4195733Y-18651343D01*
X4224305Y-18651343D01*
X4243352Y-18660867D01*
X4252876Y-18679914D01*
X4252876Y-18784676D01*
X4252876Y-18679914D02*
X4262400Y-18660867D01*
X4281448Y-18651343D01*
X4310019Y-18651343D01*
X4329067Y-18660867D01*
X4338590Y-18679914D01*
X4338590Y-18784676D01*
X4433829Y-18784676D02*
X4433829Y-18651343D01*
X4433829Y-18670390D02*
X4443352Y-18660867D01*
X4462400Y-18651343D01*
X4490971Y-18651343D01*
X4510019Y-18660867D01*
X4519543Y-18679914D01*
X4519543Y-18784676D01*
X4519543Y-18679914D02*
X4529067Y-18660867D01*
X4548114Y-18651343D01*
X4576686Y-18651343D01*
X4595733Y-18660867D01*
X4605257Y-18679914D01*
X4605257Y-18784676D01*
X4995733Y-18575152D02*
X4824305Y-18832295D01*
X5252876Y-18584676D02*
X5271924Y-18584676D01*
X5290971Y-18594200D01*
X5300495Y-18603724D01*
X5310019Y-18622771D01*
X5319543Y-18660867D01*
X5319543Y-18708486D01*
X5310019Y-18746581D01*
X5300495Y-18765629D01*
X5290971Y-18775152D01*
X5271924Y-18784676D01*
X5252876Y-18784676D01*
X5233829Y-18775152D01*
X5224305Y-18765629D01*
X5214781Y-18746581D01*
X5205257Y-18708486D01*
X5205257Y-18660867D01*
X5214781Y-18622771D01*
X5224305Y-18603724D01*
X5233829Y-18594200D01*
X5252876Y-18584676D01*
X5405257Y-18765629D02*
X5414781Y-18775152D01*
X5405257Y-18784676D01*
X5395733Y-18775152D01*
X5405257Y-18765629D01*
X5405257Y-18784676D01*
X5538590Y-18584676D02*
X5557638Y-18584676D01*
X5576686Y-18594200D01*
X5586210Y-18603724D01*
X5595733Y-18622771D01*
X5605257Y-18660867D01*
X5605257Y-18708486D01*
X5595733Y-18746581D01*
X5586210Y-18765629D01*
X5576686Y-18775152D01*
X5557638Y-18784676D01*
X5538590Y-18784676D01*
X5519543Y-18775152D01*
X5510019Y-18765629D01*
X5500495Y-18746581D01*
X5490971Y-18708486D01*
X5490971Y-18660867D01*
X5500495Y-18622771D01*
X5510019Y-18603724D01*
X5519543Y-18594200D01*
X5538590Y-18584676D01*
X5671924Y-18584676D02*
X5795733Y-18584676D01*
X5729067Y-18660867D01*
X5757638Y-18660867D01*
X5776686Y-18670390D01*
X5786209Y-18679914D01*
X5795733Y-18698962D01*
X5795733Y-18746581D01*
X5786209Y-18765629D01*
X5776686Y-18775152D01*
X5757638Y-18784676D01*
X5700495Y-18784676D01*
X5681448Y-18775152D01*
X5671924Y-18765629D01*
X5890971Y-18784676D02*
X5929067Y-18784676D01*
X5948114Y-18775152D01*
X5957638Y-18765629D01*
X5976686Y-18737057D01*
X5986209Y-18698962D01*
X5986209Y-18622771D01*
X5976686Y-18603724D01*
X5967162Y-18594200D01*
X5948114Y-18584676D01*
X5910019Y-18584676D01*
X5890971Y-18594200D01*
X5881448Y-18603724D01*
X5871924Y-18622771D01*
X5871924Y-18670390D01*
X5881448Y-18689438D01*
X5890971Y-18698962D01*
X5910019Y-18708486D01*
X5948114Y-18708486D01*
X5967162Y-18698962D01*
X5976686Y-18689438D01*
X5986209Y-18670390D01*
X6157638Y-18651343D02*
X6157638Y-18784676D01*
X6110019Y-18575152D02*
X6062400Y-18718010D01*
X6186209Y-18718010D01*
X6252876Y-18584676D02*
X6252876Y-18622771D01*
X6329067Y-18584676D02*
X6329067Y-18622771D01*
X6624305Y-18860867D02*
X6614781Y-18851343D01*
X6595733Y-18822771D01*
X6586209Y-18803724D01*
X6576686Y-18775152D01*
X6567162Y-18727533D01*
X6567162Y-18689438D01*
X6576686Y-18641819D01*
X6586209Y-18613248D01*
X6595733Y-18594200D01*
X6614781Y-18565629D01*
X6624305Y-18556105D01*
X6729067Y-18670390D02*
X6710019Y-18660867D01*
X6700495Y-18651343D01*
X6690971Y-18632295D01*
X6690971Y-18622771D01*
X6700495Y-18603724D01*
X6710019Y-18594200D01*
X6729067Y-18584676D01*
X6767162Y-18584676D01*
X6786209Y-18594200D01*
X6795733Y-18603724D01*
X6805257Y-18622771D01*
X6805257Y-18632295D01*
X6795733Y-18651343D01*
X6786209Y-18660867D01*
X6767162Y-18670390D01*
X6729067Y-18670390D01*
X6710019Y-18679914D01*
X6700495Y-18689438D01*
X6690971Y-18708486D01*
X6690971Y-18746581D01*
X6700495Y-18765629D01*
X6710019Y-18775152D01*
X6729067Y-18784676D01*
X6767162Y-18784676D01*
X6786209Y-18775152D01*
X6795733Y-18765629D01*
X6805257Y-18746581D01*
X6805257Y-18708486D01*
X6795733Y-18689438D01*
X6786209Y-18679914D01*
X6767162Y-18670390D01*
X7043352Y-18784676D02*
X7043352Y-18584676D01*
X7129067Y-18784676D02*
X7129067Y-18679914D01*
X7119543Y-18660867D01*
X7100495Y-18651343D01*
X7071924Y-18651343D01*
X7052876Y-18660867D01*
X7043352Y-18670390D01*
X7252876Y-18784676D02*
X7233828Y-18775152D01*
X7224305Y-18765629D01*
X7214781Y-18746581D01*
X7214781Y-18689438D01*
X7224305Y-18670390D01*
X7233828Y-18660867D01*
X7252876Y-18651343D01*
X7281448Y-18651343D01*
X7300495Y-18660867D01*
X7310019Y-18670390D01*
X7319543Y-18689438D01*
X7319543Y-18746581D01*
X7310019Y-18765629D01*
X7300495Y-18775152D01*
X7281448Y-18784676D01*
X7252876Y-18784676D01*
X7433828Y-18784676D02*
X7414781Y-18775152D01*
X7405257Y-18756105D01*
X7405257Y-18584676D01*
X7586209Y-18775152D02*
X7567162Y-18784676D01*
X7529067Y-18784676D01*
X7510019Y-18775152D01*
X7500495Y-18756105D01*
X7500495Y-18679914D01*
X7510019Y-18660867D01*
X7529067Y-18651343D01*
X7567162Y-18651343D01*
X7586209Y-18660867D01*
X7595733Y-18679914D01*
X7595733Y-18698962D01*
X7500495Y-18718010D01*
X7671924Y-18775152D02*
X7690971Y-18784676D01*
X7729067Y-18784676D01*
X7748114Y-18775152D01*
X7757638Y-18756105D01*
X7757638Y-18746581D01*
X7748114Y-18727533D01*
X7729067Y-18718010D01*
X7700495Y-18718010D01*
X7681448Y-18708486D01*
X7671924Y-18689438D01*
X7671924Y-18679914D01*
X7681448Y-18660867D01*
X7700495Y-18651343D01*
X7729067Y-18651343D01*
X7748114Y-18660867D01*
X7824305Y-18860867D02*
X7833828Y-18851343D01*
X7852876Y-18822771D01*
X7862400Y-18803724D01*
X7871924Y-18775152D01*
X7881448Y-18727533D01*
X7881448Y-18689438D01*
X7871924Y-18641819D01*
X7862400Y-18613248D01*
X7852876Y-18594200D01*
X7833828Y-18565629D01*
X7824305Y-18556105D01*
X2852400Y-18858200D02*
X3052400Y-19058200D01*
X3052400Y-18858200D02*
X2852400Y-19058200D01*
X2952400Y-18858200D02*
X2952400Y-19058200D01*
X2852400Y-18958200D02*
X3052400Y-18958200D01*
X3290971Y-18848676D02*
X3414781Y-18848676D01*
X3348114Y-18924867D01*
X3376686Y-18924867D01*
X3395733Y-18934390D01*
X3405257Y-18943914D01*
X3414781Y-18962962D01*
X3414781Y-19010581D01*
X3405257Y-19029629D01*
X3395733Y-19039152D01*
X3376686Y-19048676D01*
X3319543Y-19048676D01*
X3300495Y-19039152D01*
X3290971Y-19029629D01*
X3500495Y-19029629D02*
X3510019Y-19039152D01*
X3500495Y-19048676D01*
X3490971Y-19039152D01*
X3500495Y-19029629D01*
X3500495Y-19048676D01*
X3633828Y-18848676D02*
X3652876Y-18848676D01*
X3671924Y-18858200D01*
X3681448Y-18867724D01*
X3690971Y-18886771D01*
X3700495Y-18924867D01*
X3700495Y-18972486D01*
X3690971Y-19010581D01*
X3681448Y-19029629D01*
X3671924Y-19039152D01*
X3652876Y-19048676D01*
X3633828Y-19048676D01*
X3614781Y-19039152D01*
X3605257Y-19029629D01*
X3595733Y-19010581D01*
X3586209Y-18972486D01*
X3586209Y-18924867D01*
X3595733Y-18886771D01*
X3605257Y-18867724D01*
X3614781Y-18858200D01*
X3633828Y-18848676D01*
X3824305Y-18848676D02*
X3843352Y-18848676D01*
X3862400Y-18858200D01*
X3871924Y-18867724D01*
X3881448Y-18886771D01*
X3890971Y-18924867D01*
X3890971Y-18972486D01*
X3881448Y-19010581D01*
X3871924Y-19029629D01*
X3862400Y-19039152D01*
X3843352Y-19048676D01*
X3824305Y-19048676D01*
X3805257Y-19039152D01*
X3795733Y-19029629D01*
X3786209Y-19010581D01*
X3776686Y-18972486D01*
X3776686Y-18924867D01*
X3786209Y-18886771D01*
X3795733Y-18867724D01*
X3805257Y-18858200D01*
X3824305Y-18848676D01*
X4014781Y-18848676D02*
X4033828Y-18848676D01*
X4052876Y-18858200D01*
X4062400Y-18867724D01*
X4071924Y-18886771D01*
X4081448Y-18924867D01*
X4081448Y-18972486D01*
X4071924Y-19010581D01*
X4062400Y-19029629D01*
X4052876Y-19039152D01*
X4033828Y-19048676D01*
X4014781Y-19048676D01*
X3995733Y-19039152D01*
X3986209Y-19029629D01*
X3976686Y-19010581D01*
X3967162Y-18972486D01*
X3967162Y-18924867D01*
X3976686Y-18886771D01*
X3986209Y-18867724D01*
X3995733Y-18858200D01*
X4014781Y-18848676D01*
X4167162Y-19048676D02*
X4167162Y-18915343D01*
X4167162Y-18934390D02*
X4176686Y-18924867D01*
X4195733Y-18915343D01*
X4224305Y-18915343D01*
X4243352Y-18924867D01*
X4252876Y-18943914D01*
X4252876Y-19048676D01*
X4252876Y-18943914D02*
X4262400Y-18924867D01*
X4281448Y-18915343D01*
X4310019Y-18915343D01*
X4329067Y-18924867D01*
X4338590Y-18943914D01*
X4338590Y-19048676D01*
X4433829Y-19048676D02*
X4433829Y-18915343D01*
X4433829Y-18934390D02*
X4443352Y-18924867D01*
X4462400Y-18915343D01*
X4490971Y-18915343D01*
X4510019Y-18924867D01*
X4519543Y-18943914D01*
X4519543Y-19048676D01*
X4519543Y-18943914D02*
X4529067Y-18924867D01*
X4548114Y-18915343D01*
X4576686Y-18915343D01*
X4595733Y-18924867D01*
X4605257Y-18943914D01*
X4605257Y-19048676D01*
X4995733Y-18839152D02*
X4824305Y-19096295D01*
X5252876Y-18848676D02*
X5271924Y-18848676D01*
X5290971Y-18858200D01*
X5300495Y-18867724D01*
X5310019Y-18886771D01*
X5319543Y-18924867D01*
X5319543Y-18972486D01*
X5310019Y-19010581D01*
X5300495Y-19029629D01*
X5290971Y-19039152D01*
X5271924Y-19048676D01*
X5252876Y-19048676D01*
X5233829Y-19039152D01*
X5224305Y-19029629D01*
X5214781Y-19010581D01*
X5205257Y-18972486D01*
X5205257Y-18924867D01*
X5214781Y-18886771D01*
X5224305Y-18867724D01*
X5233829Y-18858200D01*
X5252876Y-18848676D01*
X5405257Y-19029629D02*
X5414781Y-19039152D01*
X5405257Y-19048676D01*
X5395733Y-19039152D01*
X5405257Y-19029629D01*
X5405257Y-19048676D01*
X5605257Y-19048676D02*
X5490971Y-19048676D01*
X5548114Y-19048676D02*
X5548114Y-18848676D01*
X5529067Y-18877248D01*
X5510019Y-18896295D01*
X5490971Y-18905819D01*
X5795733Y-19048676D02*
X5681448Y-19048676D01*
X5738590Y-19048676D02*
X5738590Y-18848676D01*
X5719543Y-18877248D01*
X5700495Y-18896295D01*
X5681448Y-18905819D01*
X5910019Y-18934390D02*
X5890971Y-18924867D01*
X5881448Y-18915343D01*
X5871924Y-18896295D01*
X5871924Y-18886771D01*
X5881448Y-18867724D01*
X5890971Y-18858200D01*
X5910019Y-18848676D01*
X5948114Y-18848676D01*
X5967162Y-18858200D01*
X5976686Y-18867724D01*
X5986209Y-18886771D01*
X5986209Y-18896295D01*
X5976686Y-18915343D01*
X5967162Y-18924867D01*
X5948114Y-18934390D01*
X5910019Y-18934390D01*
X5890971Y-18943914D01*
X5881448Y-18953438D01*
X5871924Y-18972486D01*
X5871924Y-19010581D01*
X5881448Y-19029629D01*
X5890971Y-19039152D01*
X5910019Y-19048676D01*
X5948114Y-19048676D01*
X5967162Y-19039152D01*
X5976686Y-19029629D01*
X5986209Y-19010581D01*
X5986209Y-18972486D01*
X5976686Y-18953438D01*
X5967162Y-18943914D01*
X5948114Y-18934390D01*
X6176686Y-19048676D02*
X6062400Y-19048676D01*
X6119543Y-19048676D02*
X6119543Y-18848676D01*
X6100495Y-18877248D01*
X6081448Y-18896295D01*
X6062400Y-18905819D01*
X6252876Y-18848676D02*
X6252876Y-18886771D01*
X6329067Y-18848676D02*
X6329067Y-18886771D01*
X6624305Y-19124867D02*
X6614781Y-19115343D01*
X6595733Y-19086771D01*
X6586209Y-19067724D01*
X6576686Y-19039152D01*
X6567162Y-18991533D01*
X6567162Y-18953438D01*
X6576686Y-18905819D01*
X6586209Y-18877248D01*
X6595733Y-18858200D01*
X6614781Y-18829629D01*
X6624305Y-18820105D01*
X6805257Y-19048676D02*
X6690971Y-19048676D01*
X6748114Y-19048676D02*
X6748114Y-18848676D01*
X6729067Y-18877248D01*
X6710019Y-18896295D01*
X6690971Y-18905819D01*
X6881448Y-18867724D02*
X6890971Y-18858200D01*
X6910019Y-18848676D01*
X6957638Y-18848676D01*
X6976686Y-18858200D01*
X6986209Y-18867724D01*
X6995733Y-18886771D01*
X6995733Y-18905819D01*
X6986209Y-18934390D01*
X6871924Y-19048676D01*
X6995733Y-19048676D01*
X7110019Y-18934390D02*
X7090971Y-18924867D01*
X7081448Y-18915343D01*
X7071924Y-18896295D01*
X7071924Y-18886771D01*
X7081448Y-18867724D01*
X7090971Y-18858200D01*
X7110019Y-18848676D01*
X7148114Y-18848676D01*
X7167162Y-18858200D01*
X7176686Y-18867724D01*
X7186209Y-18886771D01*
X7186209Y-18896295D01*
X7176686Y-18915343D01*
X7167162Y-18924867D01*
X7148114Y-18934390D01*
X7110019Y-18934390D01*
X7090971Y-18943914D01*
X7081448Y-18953438D01*
X7071924Y-18972486D01*
X7071924Y-19010581D01*
X7081448Y-19029629D01*
X7090971Y-19039152D01*
X7110019Y-19048676D01*
X7148114Y-19048676D01*
X7167162Y-19039152D01*
X7176686Y-19029629D01*
X7186209Y-19010581D01*
X7186209Y-18972486D01*
X7176686Y-18953438D01*
X7167162Y-18943914D01*
X7148114Y-18934390D01*
X7424305Y-19048676D02*
X7424305Y-18848676D01*
X7510019Y-19048676D02*
X7510019Y-18943914D01*
X7500495Y-18924867D01*
X7481448Y-18915343D01*
X7452876Y-18915343D01*
X7433828Y-18924867D01*
X7424305Y-18934390D01*
X7633828Y-19048676D02*
X7614781Y-19039152D01*
X7605257Y-19029629D01*
X7595733Y-19010581D01*
X7595733Y-18953438D01*
X7605257Y-18934390D01*
X7614781Y-18924867D01*
X7633828Y-18915343D01*
X7662400Y-18915343D01*
X7681448Y-18924867D01*
X7690971Y-18934390D01*
X7700495Y-18953438D01*
X7700495Y-19010581D01*
X7690971Y-19029629D01*
X7681448Y-19039152D01*
X7662400Y-19048676D01*
X7633828Y-19048676D01*
X7814781Y-19048676D02*
X7795733Y-19039152D01*
X7786209Y-19020105D01*
X7786209Y-18848676D01*
X7967162Y-19039152D02*
X7948114Y-19048676D01*
X7910019Y-19048676D01*
X7890971Y-19039152D01*
X7881448Y-19020105D01*
X7881448Y-18943914D01*
X7890971Y-18924867D01*
X7910019Y-18915343D01*
X7948114Y-18915343D01*
X7967162Y-18924867D01*
X7976686Y-18943914D01*
X7976686Y-18962962D01*
X7881448Y-18982010D01*
X8052876Y-19039152D02*
X8071924Y-19048676D01*
X8110019Y-19048676D01*
X8129067Y-19039152D01*
X8138590Y-19020105D01*
X8138590Y-19010581D01*
X8129067Y-18991533D01*
X8110019Y-18982010D01*
X8081448Y-18982010D01*
X8062400Y-18972486D01*
X8052876Y-18953438D01*
X8052876Y-18943914D01*
X8062400Y-18924867D01*
X8081448Y-18915343D01*
X8110019Y-18915343D01*
X8129067Y-18924867D01*
X8205257Y-19124867D02*
X8214781Y-19115343D01*
X8233828Y-19086771D01*
X8243352Y-19067724D01*
X8252876Y-19039152D01*
X8262400Y-18991533D01*
X8262400Y-18953438D01*
X8252876Y-18905819D01*
X8243352Y-18877248D01*
X8233828Y-18858200D01*
X8214781Y-18829629D01*
X8205257Y-18820105D01*
M02*
