%TF.GenerationSoftware,KiCad,Pcbnew,(6.0.10-0)*%
%TF.CreationDate,2023-03-08T08:25:19-06:00*%
%TF.ProjectId,The-GarlicBoard-2,5468652d-4761-4726-9c69-63426f617264,rev?*%
%TF.SameCoordinates,Original*%
%TF.FileFunction,Profile,NP*%
%FSLAX46Y46*%
G04 Gerber Fmt 4.6, Leading zero omitted, Abs format (unit mm)*
G04 Created by KiCad (PCBNEW (6.0.10-0)) date 2023-03-08 08:25:19*
%MOMM*%
%LPD*%
G01*
G04 APERTURE LIST*
%TA.AperFunction,Profile*%
%ADD10C,0.200000*%
%TD*%
G04 APERTURE END LIST*
D10*
X202031359Y-167241962D02*
G75*
G03*
X203445573Y-166242000I41J1499962D01*
G01*
X30624000Y-133909641D02*
X30624000Y-162242000D01*
X53366641Y-167242000D02*
X97231359Y-167242000D01*
X391523988Y-133909641D02*
G75*
G03*
X390524000Y-132495428I-1500088J-59D01*
G01*
X273506359Y-167241962D02*
G75*
G03*
X274920573Y-166242000I41J1499962D01*
G01*
X30624000Y-97092064D02*
X30624000Y-125424360D01*
X339141641Y-167242000D02*
X368781359Y-167242000D01*
X35623934Y-167242000D02*
X44881359Y-167242000D01*
X46295573Y-93092000D02*
G75*
G03*
X51952427Y-93092000I2828427J1000000D01*
G01*
X368781359Y-167242056D02*
G75*
G03*
X370195573Y-166242000I-59J1500056D01*
G01*
X30624000Y-162242000D02*
G75*
G03*
X35623934Y-167242000I5000000J0D01*
G01*
X35624000Y-92092000D02*
G75*
G03*
X30624000Y-97092064I0J-5000000D01*
G01*
X197331359Y-92092000D02*
X129616641Y-92092000D01*
X337727427Y-166242000D02*
G75*
G03*
X332070573Y-166242000I-2828427J-1000000D01*
G01*
X51952427Y-166242000D02*
G75*
G03*
X46295573Y-166242000I-2828427J-1000000D01*
G01*
X368781359Y-92092000D02*
X339141641Y-92092000D01*
X30624038Y-125424360D02*
G75*
G03*
X31624000Y-126838573I1499962J-40D01*
G01*
X97231359Y-167241962D02*
G75*
G03*
X98645573Y-166242000I41J1499962D01*
G01*
X280577427Y-166242000D02*
G75*
G03*
X274920573Y-166242000I-2828427J-1000000D01*
G01*
X280577391Y-166242013D02*
G75*
G03*
X281991641Y-167242000I1414209J500013D01*
G01*
X31624000Y-132495427D02*
G75*
G03*
X30624000Y-133909641I500000J-1414213D01*
G01*
X122545609Y-93091987D02*
G75*
G03*
X121131359Y-92092000I-1414209J-500013D01*
G01*
X210516641Y-167242000D02*
X273506359Y-167242000D01*
X44881359Y-92092000D02*
X35624000Y-92092000D01*
X122545573Y-93092000D02*
G75*
G03*
X128202427Y-93092000I2828427J1000000D01*
G01*
X375852417Y-166242004D02*
G75*
G03*
X377266641Y-167242000I1414283J500104D01*
G01*
X281991641Y-167242000D02*
X330656359Y-167242000D01*
X390524000Y-126838572D02*
G75*
G03*
X390524000Y-132495428I1000000J-2828428D01*
G01*
X44881359Y-167241962D02*
G75*
G03*
X46295573Y-166242000I41J1499962D01*
G01*
X274920573Y-93092000D02*
G75*
G03*
X280577427Y-93092000I2828427J1000000D01*
G01*
X337727391Y-166242013D02*
G75*
G03*
X339141641Y-167242000I1414209J500013D01*
G01*
X46295609Y-93091987D02*
G75*
G03*
X44881359Y-92092000I-1414209J-500013D01*
G01*
X149631359Y-167241962D02*
G75*
G03*
X151045573Y-166242000I41J1499962D01*
G01*
X386523996Y-92092000D02*
X377266641Y-92092000D01*
X121131359Y-92092000D02*
X53366641Y-92092000D01*
X386524000Y-167242000D02*
G75*
G03*
X391524000Y-162242003I0J5000000D01*
G01*
X156702427Y-166242000D02*
G75*
G03*
X151045573Y-166242000I-2828427J-1000000D01*
G01*
X339141641Y-92092038D02*
G75*
G03*
X337727427Y-93092000I-41J-1499962D01*
G01*
X377266641Y-92092038D02*
G75*
G03*
X375852427Y-93092000I-41J-1499962D01*
G01*
X198745609Y-93091987D02*
G75*
G03*
X197331359Y-92092000I-1414209J-500013D01*
G01*
X104302427Y-166242000D02*
G75*
G03*
X98645573Y-166242000I-2828427J-1000000D01*
G01*
X274920609Y-93091987D02*
G75*
G03*
X273506359Y-92092000I-1414209J-500013D01*
G01*
X53366641Y-92092038D02*
G75*
G03*
X51952427Y-93092000I-41J-1499962D01*
G01*
X330656359Y-92092000D02*
X281991641Y-92092000D01*
X370195609Y-93091987D02*
G75*
G03*
X368781359Y-92092000I-1414209J-500013D01*
G01*
X375852427Y-166242000D02*
G75*
G03*
X370195573Y-166242000I-2828427J-1000000D01*
G01*
X156702391Y-166242013D02*
G75*
G03*
X158116641Y-167242000I1414209J500013D01*
G01*
X104302391Y-166242013D02*
G75*
G03*
X105716641Y-167242000I1414209J500013D01*
G01*
X330656359Y-167241962D02*
G75*
G03*
X332070573Y-166242000I41J1499962D01*
G01*
X198745573Y-93092000D02*
G75*
G03*
X204402427Y-93092000I2828427J1000000D01*
G01*
X158116641Y-167242000D02*
X202031359Y-167242000D01*
X390524022Y-126838635D02*
G75*
G03*
X391524000Y-125424360I-499922J1414135D01*
G01*
X391524000Y-162242003D02*
X391524000Y-133909641D01*
X332070609Y-93091987D02*
G75*
G03*
X330656359Y-92092000I-1414209J-500013D01*
G01*
X105716641Y-167242000D02*
X149631359Y-167242000D01*
X51952391Y-166242013D02*
G75*
G03*
X53366641Y-167242000I1414209J500013D01*
G01*
X281991641Y-92092038D02*
G75*
G03*
X280577427Y-93092000I-41J-1499962D01*
G01*
X377266641Y-167242000D02*
X386524000Y-167242000D01*
X31624000Y-132495427D02*
G75*
G03*
X31624000Y-126838573I-1000000J2828427D01*
G01*
X391524000Y-97092000D02*
G75*
G03*
X386523996Y-92092000I-5000000J0D01*
G01*
X370195573Y-93092000D02*
G75*
G03*
X375852427Y-93092000I2828427J1000000D01*
G01*
X205816641Y-92092038D02*
G75*
G03*
X204402427Y-93092000I-41J-1499962D01*
G01*
X209102391Y-166242013D02*
G75*
G03*
X210516641Y-167242000I1414209J500013D01*
G01*
X129616641Y-92092038D02*
G75*
G03*
X128202427Y-93092000I-41J-1499962D01*
G01*
X209102427Y-166242000D02*
G75*
G03*
X203445573Y-166242000I-2828427J-1000000D01*
G01*
X332070573Y-93092000D02*
G75*
G03*
X337727427Y-93092000I2828427J1000000D01*
G01*
X391524000Y-125424360D02*
X391524000Y-97092000D01*
X273506359Y-92092000D02*
X205816641Y-92092000D01*
M02*
