M48
; DRILL file {KiCad (6.0.10-0)} date Wednesday, February 15, 2023 at 12:56:02 PM
; FORMAT={-:-/ absolute / metric / decimal}
; #@! TF.CreationDate,2023-02-15T12:56:02-06:00
; #@! TF.GenerationSoftware,Kicad,Pcbnew,(6.0.10-0)
; #@! TF.FileFunction,NonPlated,1,2,NPTH
FMAT,2
METRIC
; #@! TA.AperFunction,NonPlated,NPTH,ComponentDrill
T1C1.700
; #@! TA.AperFunction,NonPlated,NPTH,ComponentDrill
T2C1.750
; #@! TA.AperFunction,NonPlated,NPTH,ComponentDrill
T3C2.100
; #@! TA.AperFunction,NonPlated,NPTH,ComponentDrill
T4C2.200
; #@! TA.AperFunction,NonPlated,NPTH,ComponentDrill
T5C3.048
; #@! TA.AperFunction,NonPlated,NPTH,ComponentDrill
T6C3.988
%
G90
G05
T1
X299.743Y-107.304
T2
X34.544Y-101.092
X36.925Y-120.142
X36.925Y-158.242
X41.688Y-139.192
X44.704Y-101.092
X47.085Y-120.142
X47.085Y-158.242
X51.848Y-139.192
X53.594Y-101.092
X58.42Y-120.142
X60.706Y-158.242
X63.754Y-101.092
X67.818Y-139.192
X68.58Y-120.142
X70.866Y-158.242
X72.644Y-101.092
X77.47Y-120.142
X77.978Y-139.192
X82.804Y-101.092
X84.487Y-158.242
X86.868Y-139.192
X87.63Y-120.142
X91.694Y-101.092
X94.647Y-158.242
X96.52Y-120.142
X97.028Y-139.192
X101.854Y-101.092
X105.918Y-139.192
X106.68Y-120.142
X110.744Y-101.092
X115.57Y-120.142
X116.078Y-139.192
X120.904Y-101.092
X122.587Y-158.242
X124.968Y-139.192
X125.73Y-120.142
X129.794Y-101.092
X132.747Y-158.242
X134.62Y-120.142
X135.128Y-139.192
X139.954Y-101.092
X144.018Y-139.192
X144.78Y-120.142
X148.844Y-101.092
X153.67Y-120.142
X154.178Y-139.192
X159.004Y-101.092
X163.068Y-139.192
X163.83Y-120.142
X167.894Y-101.092
X172.72Y-120.142
X173.228Y-139.192
X175.006Y-158.242
X178.054Y-101.092
X182.118Y-139.192
X182.88Y-120.142
X185.166Y-158.242
X186.944Y-101.092
X191.77Y-120.142
X192.278Y-139.192
X197.104Y-101.092
X201.168Y-139.192
X201.93Y-120.142
X205.994Y-101.092
X210.82Y-120.142
X211.328Y-139.192
X213.106Y-158.242
X216.154Y-101.092
X220.218Y-139.192
X220.98Y-120.142
X223.266Y-158.242
X225.044Y-101.092
X229.87Y-120.142
X230.378Y-139.192
X235.204Y-101.092
X236.887Y-158.242
X239.268Y-139.192
X240.03Y-120.142
X244.094Y-101.092
X247.047Y-158.242
X248.92Y-120.142
X249.428Y-139.192
X254.254Y-101.092
X259.08Y-120.142
X260.763Y-158.242
X263.144Y-101.092
X270.288Y-139.192
X270.923Y-158.242
X273.304Y-101.092
X275.05Y-120.142
X280.448Y-139.192
X282.194Y-101.092
X282.194Y-158.242
X285.21Y-120.142
X292.354Y-101.092
X292.354Y-158.242
X320.294Y-101.092
X320.294Y-120.142
X320.294Y-139.192
X320.294Y-158.242
X330.454Y-101.092
X330.454Y-120.142
X330.454Y-139.192
X330.454Y-158.242
X339.344Y-101.092
X339.344Y-120.142
X339.344Y-139.192
X339.344Y-158.242
X349.504Y-101.092
X349.504Y-120.142
X349.504Y-139.192
X349.504Y-158.242
X358.394Y-101.092
X358.394Y-120.142
X358.394Y-139.192
X358.394Y-158.242
X368.554Y-101.092
X368.554Y-120.142
X368.554Y-139.192
X368.554Y-158.242
X377.444Y-101.092
X377.444Y-120.142
X377.444Y-139.192
X377.444Y-158.242
X387.604Y-101.092
X387.604Y-120.142
X387.604Y-139.192
X387.604Y-158.242
T3
X39.624Y-106.172
X42.005Y-125.222
X42.005Y-163.322
X46.768Y-144.272
X58.674Y-106.172
X63.5Y-125.222
X65.786Y-163.322
X72.898Y-144.272
X77.724Y-106.172
X82.55Y-125.222
X89.567Y-163.322
X91.948Y-144.272
X96.774Y-106.172
X101.6Y-125.222
X110.998Y-144.272
X115.824Y-106.172
X120.65Y-125.222
X127.667Y-163.322
X130.048Y-144.272
X134.874Y-106.172
X139.7Y-125.222
X149.1Y-144.272
X153.924Y-106.172
X158.75Y-125.222
X168.148Y-144.272
X172.974Y-106.172
X177.8Y-125.222
X180.086Y-163.322
X187.198Y-144.272
X192.024Y-106.172
X196.85Y-125.222
X206.248Y-144.272
X211.074Y-106.172
X215.9Y-125.222
X218.186Y-163.322
X225.298Y-144.272
X230.124Y-106.172
X234.95Y-125.222
X241.967Y-163.322
X244.348Y-144.272
X249.174Y-106.172
X254.0Y-125.222
X265.843Y-163.322
X268.224Y-106.172
X275.368Y-144.272
X280.13Y-125.222
X287.274Y-106.172
X287.274Y-163.322
X325.374Y-106.172
X325.374Y-125.222
X325.374Y-144.272
X325.374Y-163.322
X344.424Y-106.172
X344.424Y-125.222
X344.424Y-144.272
X344.424Y-163.322
X363.474Y-106.172
X363.474Y-125.222
X363.474Y-144.272
X363.474Y-163.322
X382.524Y-106.172
X382.524Y-125.222
X382.524Y-144.272
X382.524Y-163.322
T4
X53.911Y-110.617
X53.911Y-148.717
X253.936Y-148.717
X258.7Y-110.6
X372.999Y-110.617
X373.0Y-148.7
T5
X115.729Y-165.227
X139.605Y-165.227
X168.148Y-165.227
X192.024Y-165.227
X263.43Y-132.207
X287.306Y-132.207
T6
X39.624Y-101.092
X42.005Y-120.142
X42.005Y-158.242
X46.768Y-139.192
X58.674Y-101.092
X63.5Y-120.142
X65.786Y-158.242
X72.898Y-139.192
X77.724Y-101.092
X82.55Y-120.142
X89.567Y-158.242
X91.948Y-139.192
X96.774Y-101.092
X101.6Y-120.142
X110.998Y-139.192
X115.729Y-149.987
X115.824Y-101.092
X120.65Y-120.142
X127.667Y-158.242
X130.048Y-139.192
X134.874Y-101.092
X139.605Y-149.987
X139.7Y-120.142
X149.098Y-139.192
X153.924Y-101.092
X158.75Y-120.142
X168.148Y-139.192
X168.148Y-149.987
X172.974Y-101.092
X177.8Y-120.142
X180.086Y-158.242
X187.198Y-139.192
X192.024Y-101.092
X192.024Y-149.987
X196.85Y-120.142
X206.248Y-139.192
X211.074Y-101.092
X215.9Y-120.142
X218.186Y-158.242
X225.298Y-139.192
X230.124Y-101.092
X234.95Y-120.142
X241.967Y-158.242
X244.348Y-139.192
X249.174Y-101.092
X254.0Y-120.142
X263.43Y-147.447
X265.843Y-158.242
X268.224Y-101.092
X275.368Y-139.192
X280.13Y-120.142
X287.274Y-101.092
X287.274Y-158.242
X287.306Y-147.447
X325.374Y-101.092
X325.374Y-120.142
X325.374Y-139.192
X325.374Y-158.242
X344.424Y-101.092
X344.424Y-120.142
X344.424Y-139.192
X344.424Y-158.242
X363.474Y-101.092
X363.474Y-120.142
X363.474Y-139.192
X363.474Y-158.242
X382.524Y-101.092
X382.524Y-120.142
X382.524Y-139.192
X382.524Y-158.242
T0
M30
