%TF.GenerationSoftware,KiCad,Pcbnew,(6.0.10-0)*%
%TF.CreationDate,2023-03-08T08:25:19-06:00*%
%TF.ProjectId,The-GarlicBoard-2,5468652d-4761-4726-9c69-63426f617264,rev?*%
%TF.SameCoordinates,Original*%
%TF.FileFunction,Paste,Bot*%
%TF.FilePolarity,Positive*%
%FSLAX46Y46*%
G04 Gerber Fmt 4.6, Leading zero omitted, Abs format (unit mm)*
G04 Created by KiCad (PCBNEW (6.0.10-0)) date 2023-03-08 08:25:19*
%MOMM*%
%LPD*%
G01*
G04 APERTURE LIST*
G04 Aperture macros list*
%AMRoundRect*
0 Rectangle with rounded corners*
0 $1 Rounding radius*
0 $2 $3 $4 $5 $6 $7 $8 $9 X,Y pos of 4 corners*
0 Add a 4 corners polygon primitive as box body*
4,1,4,$2,$3,$4,$5,$6,$7,$8,$9,$2,$3,0*
0 Add four circle primitives for the rounded corners*
1,1,$1+$1,$2,$3*
1,1,$1+$1,$4,$5*
1,1,$1+$1,$6,$7*
1,1,$1+$1,$8,$9*
0 Add four rect primitives between the rounded corners*
20,1,$1+$1,$2,$3,$4,$5,0*
20,1,$1+$1,$4,$5,$6,$7,0*
20,1,$1+$1,$6,$7,$8,$9,0*
20,1,$1+$1,$8,$9,$2,$3,0*%
%AMRotRect*
0 Rectangle, with rotation*
0 The origin of the aperture is its center*
0 $1 length*
0 $2 width*
0 $3 Rotation angle, in degrees counterclockwise*
0 Add horizontal line*
21,1,$1,$2,0,0,$3*%
G04 Aperture macros list end*
%ADD10RoundRect,0.070000X-0.330000X-0.280000X0.330000X-0.280000X0.330000X0.280000X-0.330000X0.280000X0*%
%ADD11RoundRect,0.250000X1.025000X1.000000X-1.025000X1.000000X-1.025000X-1.000000X1.025000X-1.000000X0*%
%ADD12RoundRect,0.140000X0.140000X0.170000X-0.140000X0.170000X-0.140000X-0.170000X0.140000X-0.170000X0*%
%ADD13RoundRect,0.218750X0.218750X0.256250X-0.218750X0.256250X-0.218750X-0.256250X0.218750X-0.256250X0*%
%ADD14R,1.000000X1.000000*%
%ADD15R,0.450000X0.600000*%
%ADD16RoundRect,0.135000X0.135000X0.185000X-0.135000X0.185000X-0.135000X-0.185000X0.135000X-0.185000X0*%
%ADD17RoundRect,0.140000X0.170000X-0.140000X0.170000X0.140000X-0.170000X0.140000X-0.170000X-0.140000X0*%
%ADD18RoundRect,0.250000X0.315000X-0.315000X0.315000X0.315000X-0.315000X0.315000X-0.315000X-0.315000X0*%
%ADD19RoundRect,0.050000X0.050000X-0.375000X0.050000X0.375000X-0.050000X0.375000X-0.050000X-0.375000X0*%
%ADD20RoundRect,0.050000X0.375000X-0.050000X0.375000X0.050000X-0.375000X0.050000X-0.375000X-0.050000X0*%
%ADD21RotRect,1.400000X1.200000X45.000000*%
%ADD22RoundRect,0.140000X0.219203X0.021213X0.021213X0.219203X-0.219203X-0.021213X-0.021213X-0.219203X0*%
%ADD23RoundRect,0.140000X-0.140000X-0.170000X0.140000X-0.170000X0.140000X0.170000X-0.140000X0.170000X0*%
%ADD24RoundRect,0.249999X0.395001X0.395001X-0.395001X0.395001X-0.395001X-0.395001X0.395001X-0.395001X0*%
%ADD25RoundRect,0.050000X0.387500X0.050000X-0.387500X0.050000X-0.387500X-0.050000X0.387500X-0.050000X0*%
%ADD26RoundRect,0.050000X0.050000X0.387500X-0.050000X0.387500X-0.050000X-0.387500X0.050000X-0.387500X0*%
%ADD27RoundRect,0.135000X-0.135000X-0.185000X0.135000X-0.185000X0.135000X0.185000X-0.135000X0.185000X0*%
%ADD28R,0.450000X0.700000*%
%ADD29RoundRect,0.250000X0.425000X-0.450000X0.425000X0.450000X-0.425000X0.450000X-0.425000X-0.450000X0*%
%ADD30RoundRect,0.135000X0.185000X-0.135000X0.185000X0.135000X-0.185000X0.135000X-0.185000X-0.135000X0*%
%ADD31RoundRect,0.140000X-0.170000X0.140000X-0.170000X-0.140000X0.170000X-0.140000X0.170000X0.140000X0*%
%ADD32RoundRect,0.140000X0.021213X-0.219203X0.219203X-0.021213X-0.021213X0.219203X-0.219203X0.021213X0*%
%ADD33R,0.900000X1.700000*%
%ADD34R,1.500000X2.000000*%
%ADD35R,3.800000X2.000000*%
%ADD36RoundRect,0.150000X0.275000X-0.150000X0.275000X0.150000X-0.275000X0.150000X-0.275000X-0.150000X0*%
%ADD37RoundRect,0.175000X0.225000X-0.175000X0.225000X0.175000X-0.225000X0.175000X-0.225000X-0.175000X0*%
%ADD38R,0.600000X0.450000*%
%ADD39RoundRect,0.250000X0.250000X0.475000X-0.250000X0.475000X-0.250000X-0.475000X0.250000X-0.475000X0*%
%ADD40RoundRect,0.135000X-0.185000X0.135000X-0.185000X-0.135000X0.185000X-0.135000X0.185000X0.135000X0*%
%ADD41RoundRect,0.150000X0.650000X0.150000X-0.650000X0.150000X-0.650000X-0.150000X0.650000X-0.150000X0*%
%ADD42RoundRect,0.218750X0.256250X-0.218750X0.256250X0.218750X-0.256250X0.218750X-0.256250X-0.218750X0*%
G04 APERTURE END LIST*
D10*
X285724000Y-106722000D03*
X285724000Y-105622000D03*
X288824000Y-105622000D03*
X288824000Y-106722000D03*
X273817750Y-144822000D03*
X273817750Y-143722000D03*
X276917750Y-143722000D03*
X276917750Y-144822000D03*
D11*
X208540000Y-117602000D03*
X221990000Y-115062000D03*
D12*
X297269000Y-135979000D03*
X296309000Y-135979000D03*
D13*
X309207500Y-120210000D03*
X307632500Y-120210000D03*
D14*
X291350000Y-135650000D03*
D10*
X240416750Y-163872000D03*
X240416750Y-162772000D03*
X243516750Y-162772000D03*
X243516750Y-163872000D03*
D11*
X94240000Y-117602000D03*
X107690000Y-115062000D03*
D15*
X220600000Y-104525000D03*
X220600000Y-102425000D03*
X333900000Y-104525000D03*
X333900000Y-102425000D03*
D16*
X270985000Y-129775000D03*
X269965000Y-129775000D03*
D17*
X304508000Y-128026200D03*
X304508000Y-127066200D03*
D11*
X375164000Y-155702000D03*
X388614000Y-153162000D03*
D12*
X272625000Y-124350000D03*
X271665000Y-124350000D03*
D15*
X163450000Y-104525000D03*
X163450000Y-102425000D03*
X258700000Y-104525000D03*
X258700000Y-102425000D03*
D10*
X285724000Y-163872000D03*
X285724000Y-162772000D03*
X288824000Y-162772000D03*
X288824000Y-163872000D03*
X133324000Y-106722000D03*
X133324000Y-105622000D03*
X136424000Y-105622000D03*
X136424000Y-106722000D03*
D11*
X241814000Y-98552000D03*
X255264000Y-96012000D03*
D15*
X353950000Y-123575000D03*
X353950000Y-121475000D03*
X168250000Y-123575000D03*
X168250000Y-121475000D03*
D11*
X268007750Y-136652000D03*
X281457750Y-134112000D03*
D18*
X265650000Y-125600000D03*
X268450000Y-124200000D03*
X265650000Y-127000000D03*
X268450000Y-125600000D03*
X267050000Y-124200000D03*
X265650000Y-124200000D03*
X267050000Y-125600000D03*
X267050000Y-127000000D03*
X268450000Y-127000000D03*
D19*
X269250000Y-128550000D03*
X268850000Y-128550000D03*
X268450000Y-128550000D03*
X268050000Y-128550000D03*
X267650000Y-128550000D03*
X267250000Y-128550000D03*
X266850000Y-128550000D03*
X266450000Y-128550000D03*
X266050000Y-128550000D03*
X265650000Y-128550000D03*
X265250000Y-128550000D03*
X264850000Y-128550000D03*
D20*
X264100000Y-127800000D03*
X264100000Y-127400000D03*
X264100000Y-127000000D03*
X264100000Y-126600000D03*
X264100000Y-126200000D03*
X264100000Y-125800000D03*
X264100000Y-125400000D03*
X264100000Y-125000000D03*
X264100000Y-124600000D03*
X264100000Y-124200000D03*
X264100000Y-123800000D03*
X264100000Y-123400000D03*
D19*
X264850000Y-122650000D03*
X265250000Y-122650000D03*
X265650000Y-122650000D03*
X266050000Y-122650000D03*
X266450000Y-122650000D03*
X266850000Y-122650000D03*
X267250000Y-122650000D03*
X267650000Y-122650000D03*
X268050000Y-122650000D03*
X268450000Y-122650000D03*
X268850000Y-122650000D03*
X269250000Y-122650000D03*
D20*
X270000000Y-123400000D03*
X270000000Y-123800000D03*
X270000000Y-124200000D03*
X270000000Y-124600000D03*
X270000000Y-125000000D03*
X270000000Y-125400000D03*
X270000000Y-125800000D03*
X270000000Y-126200000D03*
X270000000Y-126600000D03*
X270000000Y-127000000D03*
X270000000Y-127400000D03*
X270000000Y-127800000D03*
D10*
X100050000Y-125772000D03*
X100050000Y-124672000D03*
X103150000Y-124672000D03*
X103150000Y-125772000D03*
D15*
X130150000Y-123575000D03*
X130150000Y-121475000D03*
D12*
X266330000Y-118900000D03*
X265370000Y-118900000D03*
D15*
X196700000Y-142625000D03*
X196700000Y-140525000D03*
D11*
X279914000Y-155702000D03*
X293364000Y-153162000D03*
D17*
X272175000Y-123380000D03*
X272175000Y-122420000D03*
D15*
X215750000Y-142625000D03*
X215750000Y-140525000D03*
D21*
X305121142Y-144626777D03*
X306676777Y-143071142D03*
X307878858Y-144273223D03*
X306323223Y-145828858D03*
D10*
X380974000Y-163872000D03*
X380974000Y-162772000D03*
X384074000Y-162772000D03*
X384074000Y-163872000D03*
D15*
X144400000Y-104525000D03*
X144400000Y-102425000D03*
X101450000Y-142625000D03*
X101450000Y-140525000D03*
D10*
X81000000Y-125772000D03*
X81000000Y-124672000D03*
X84100000Y-124672000D03*
X84100000Y-125772000D03*
D15*
X239650000Y-104525000D03*
X239650000Y-102425000D03*
X48150000Y-104525000D03*
X48150000Y-102425000D03*
D22*
X304589411Y-146509411D03*
X303910589Y-145830589D03*
D10*
X323824000Y-144822000D03*
X323824000Y-143722000D03*
X326924000Y-143722000D03*
X326924000Y-144822000D03*
X114274000Y-106722000D03*
X114274000Y-105622000D03*
X117374000Y-105622000D03*
X117374000Y-106722000D03*
D11*
X82206750Y-155702000D03*
X95656750Y-153162000D03*
X179838000Y-136652000D03*
X193288000Y-134112000D03*
D15*
X265817750Y-142625000D03*
X265817750Y-140525000D03*
D11*
X236988000Y-136652000D03*
X250438000Y-134112000D03*
X151390000Y-117602000D03*
X164840000Y-115062000D03*
D10*
X323824000Y-106722000D03*
X323824000Y-105622000D03*
X326924000Y-105622000D03*
X326924000Y-106722000D03*
D15*
X68200000Y-104525000D03*
X68200000Y-102425000D03*
D10*
X223748000Y-144822000D03*
X223748000Y-143722000D03*
X226848000Y-143722000D03*
X226848000Y-144822000D03*
D15*
X106300000Y-104525000D03*
X106300000Y-102425000D03*
X206400000Y-123575000D03*
X206400000Y-121475000D03*
D11*
X272770250Y-117602000D03*
X286220250Y-115062000D03*
D10*
X61950000Y-125772000D03*
X61950000Y-124672000D03*
X65050000Y-124672000D03*
X65050000Y-125772000D03*
D23*
X309235000Y-131280000D03*
X310195000Y-131280000D03*
D11*
X203714000Y-98552000D03*
X217164000Y-96012000D03*
D15*
X335850000Y-161675000D03*
X335850000Y-159575000D03*
D10*
X323824000Y-163872000D03*
X323824000Y-162772000D03*
X326924000Y-162772000D03*
X326924000Y-163872000D03*
D14*
X291350000Y-133050000D03*
D10*
X119100000Y-125772000D03*
X119100000Y-124672000D03*
X122200000Y-124672000D03*
X122200000Y-125772000D03*
D24*
X302692000Y-135509000D03*
X304292000Y-135509000D03*
X304292000Y-133909000D03*
X302692000Y-133909000D03*
D25*
X306929500Y-132109000D03*
X306929500Y-132509000D03*
X306929500Y-132909000D03*
X306929500Y-133309000D03*
X306929500Y-133709000D03*
X306929500Y-134109000D03*
X306929500Y-134509000D03*
X306929500Y-134909000D03*
X306929500Y-135309000D03*
X306929500Y-135709000D03*
X306929500Y-136109000D03*
X306929500Y-136509000D03*
X306929500Y-136909000D03*
X306929500Y-137309000D03*
D26*
X306092000Y-138146500D03*
X305692000Y-138146500D03*
X305292000Y-138146500D03*
X304892000Y-138146500D03*
X304492000Y-138146500D03*
X304092000Y-138146500D03*
X303692000Y-138146500D03*
X303292000Y-138146500D03*
X302892000Y-138146500D03*
X302492000Y-138146500D03*
X302092000Y-138146500D03*
X301692000Y-138146500D03*
X301292000Y-138146500D03*
X300892000Y-138146500D03*
D25*
X300054500Y-137309000D03*
X300054500Y-136909000D03*
X300054500Y-136509000D03*
X300054500Y-136109000D03*
X300054500Y-135709000D03*
X300054500Y-135309000D03*
X300054500Y-134909000D03*
X300054500Y-134509000D03*
X300054500Y-134109000D03*
X300054500Y-133709000D03*
X300054500Y-133309000D03*
X300054500Y-132909000D03*
X300054500Y-132509000D03*
X300054500Y-132109000D03*
D26*
X300892000Y-131271500D03*
X301292000Y-131271500D03*
X301692000Y-131271500D03*
X302092000Y-131271500D03*
X302492000Y-131271500D03*
X302892000Y-131271500D03*
X303292000Y-131271500D03*
X303692000Y-131271500D03*
X304092000Y-131271500D03*
X304492000Y-131271500D03*
X304892000Y-131271500D03*
X305292000Y-131271500D03*
X305692000Y-131271500D03*
X306092000Y-131271500D03*
D11*
X172726000Y-155702000D03*
X186176000Y-153162000D03*
D15*
X52900000Y-161675000D03*
X52900000Y-159575000D03*
D11*
X141738000Y-136652000D03*
X155188000Y-134112000D03*
D10*
X361924000Y-163872000D03*
X361924000Y-162772000D03*
X365024000Y-162772000D03*
X365024000Y-163872000D03*
D15*
X208686000Y-161675000D03*
X208686000Y-159575000D03*
X120500000Y-142625000D03*
X120500000Y-140525000D03*
X335900000Y-123575000D03*
X335900000Y-121475000D03*
D10*
X190474000Y-106722000D03*
X190474000Y-105622000D03*
X193574000Y-105622000D03*
X193574000Y-106722000D03*
D11*
X122688000Y-136652000D03*
X136138000Y-134112000D03*
X56140000Y-117602000D03*
X69590000Y-115062000D03*
D27*
X308650002Y-141800000D03*
X309670002Y-141800000D03*
D15*
X182500000Y-104525000D03*
X182500000Y-102425000D03*
D10*
X126116750Y-163872000D03*
X126116750Y-162772000D03*
X129216750Y-162772000D03*
X129216750Y-163872000D03*
D15*
X139550000Y-142625000D03*
X139550000Y-140525000D03*
X244450000Y-123575000D03*
X244450000Y-121475000D03*
D11*
X318014000Y-155702000D03*
X331464000Y-153162000D03*
D10*
X216636000Y-163872000D03*
X216636000Y-162772000D03*
X219736000Y-162772000D03*
X219736000Y-163872000D03*
D11*
X89414000Y-98552000D03*
X102864000Y-96012000D03*
D15*
X87250000Y-104525000D03*
X87250000Y-102425000D03*
D10*
X138150000Y-125772000D03*
X138150000Y-124672000D03*
X141250000Y-124672000D03*
X141250000Y-125772000D03*
D28*
X299680000Y-114110000D03*
X300980000Y-114110000D03*
X300330000Y-116110000D03*
D10*
X361924000Y-144822000D03*
X361924000Y-143722000D03*
X365024000Y-143722000D03*
X365024000Y-144822000D03*
D15*
X54976000Y-123575000D03*
X54976000Y-121475000D03*
D10*
X147550000Y-144822000D03*
X147550000Y-143722000D03*
X150650000Y-143722000D03*
X150650000Y-144822000D03*
X71348000Y-144822000D03*
X71348000Y-143722000D03*
X74448000Y-143722000D03*
X74448000Y-144822000D03*
D11*
X70364000Y-98552000D03*
X83814000Y-96012000D03*
X356114000Y-117602000D03*
X369564000Y-115062000D03*
D15*
X64374000Y-142625000D03*
X64374000Y-140525000D03*
D29*
X263850000Y-117100000D03*
X263850000Y-114400000D03*
D15*
X353950000Y-104525000D03*
X353950000Y-102425000D03*
D11*
X234606750Y-155702000D03*
X248056750Y-153162000D03*
D30*
X272600000Y-126310000D03*
X272600000Y-125290000D03*
D17*
X271200000Y-123380000D03*
X271200000Y-122420000D03*
D12*
X262840000Y-122115000D03*
X261880000Y-122115000D03*
D14*
X291350000Y-134350000D03*
D11*
X279914000Y-98552000D03*
X293364000Y-96012000D03*
D10*
X178536000Y-163872000D03*
X178536000Y-162772000D03*
X181636000Y-162772000D03*
X181636000Y-163872000D03*
D15*
X149200000Y-123575000D03*
X149200000Y-121475000D03*
D10*
X185648000Y-144822000D03*
X185648000Y-143722000D03*
X188748000Y-143722000D03*
X188748000Y-144822000D03*
X380974000Y-144822000D03*
X380974000Y-143722000D03*
X384074000Y-143722000D03*
X384074000Y-144822000D03*
D11*
X75190000Y-117602000D03*
X88640000Y-115062000D03*
X258482750Y-155702000D03*
X271932750Y-153162000D03*
D10*
X342874000Y-144822000D03*
X342874000Y-143722000D03*
X345974000Y-143722000D03*
X345974000Y-144822000D03*
D15*
X177650000Y-142625000D03*
X177650000Y-140525000D03*
X234850000Y-142625000D03*
X234850000Y-140525000D03*
D17*
X299428000Y-129062400D03*
X299428000Y-128102400D03*
D15*
X225400000Y-123575000D03*
X225400000Y-121475000D03*
D10*
X214350000Y-125772000D03*
X214350000Y-124672000D03*
X217450000Y-124672000D03*
X217450000Y-125772000D03*
D15*
X373000000Y-123575000D03*
X373000000Y-121475000D03*
D10*
X195300000Y-125772000D03*
X195300000Y-124672000D03*
X198400000Y-124672000D03*
X198400000Y-125772000D03*
D27*
X313455000Y-123424000D03*
X314475000Y-123424000D03*
D11*
X356114000Y-155702000D03*
X369564000Y-153162000D03*
X113290000Y-117602000D03*
X126740000Y-115062000D03*
X132340000Y-117602000D03*
X145790000Y-115062000D03*
X375164000Y-117602000D03*
X388614000Y-115062000D03*
X337064000Y-136652000D03*
X350514000Y-134112000D03*
X318014000Y-117602000D03*
X331464000Y-115062000D03*
D10*
X342874000Y-106722000D03*
X342874000Y-105622000D03*
X345974000Y-105622000D03*
X345974000Y-106722000D03*
D11*
X318014000Y-136652000D03*
X331464000Y-134112000D03*
D15*
X373000000Y-104525000D03*
X373000000Y-102425000D03*
X125350000Y-104525000D03*
X125350000Y-102425000D03*
D31*
X303450000Y-140320000D03*
X303450000Y-141280000D03*
D12*
X297650000Y-129629000D03*
X296690000Y-129629000D03*
D15*
X50150000Y-104525000D03*
X50150000Y-102425000D03*
D11*
X217938000Y-136652000D03*
X231388000Y-134112000D03*
D10*
X361924000Y-125772000D03*
X361924000Y-124672000D03*
X365024000Y-124672000D03*
X365024000Y-125772000D03*
D15*
X54900000Y-161675000D03*
X54900000Y-159575000D03*
D10*
X76174000Y-106722000D03*
X76174000Y-105622000D03*
X79274000Y-105622000D03*
X79274000Y-106722000D03*
D15*
X92050000Y-123575000D03*
X92050000Y-121475000D03*
X256342750Y-161675000D03*
X256342750Y-159575000D03*
D10*
X278580250Y-125772000D03*
X278580250Y-124672000D03*
X281680250Y-124672000D03*
X281680250Y-125772000D03*
D15*
X284650000Y-124700000D03*
X284650000Y-122600000D03*
D11*
X120306750Y-155702000D03*
X133756750Y-153162000D03*
D15*
X158600000Y-142625000D03*
X158600000Y-140525000D03*
D11*
X58426000Y-155702000D03*
X71876000Y-153162000D03*
X34645250Y-155702000D03*
X48095250Y-153162000D03*
X170440000Y-117602000D03*
X183890000Y-115062000D03*
D15*
X62400000Y-142625000D03*
X62400000Y-140525000D03*
D11*
X227590000Y-117602000D03*
X241040000Y-115062000D03*
D27*
X308650002Y-140450000D03*
X309670002Y-140450000D03*
D15*
X187300000Y-123575000D03*
X187300000Y-121475000D03*
D11*
X165614000Y-98552000D03*
X179064000Y-96012000D03*
D10*
X266674000Y-106722000D03*
X266674000Y-105622000D03*
X269774000Y-105622000D03*
X269774000Y-106722000D03*
X57124000Y-106722000D03*
X57124000Y-105622000D03*
X60224000Y-105622000D03*
X60224000Y-106722000D03*
X342874000Y-125772000D03*
X342874000Y-124672000D03*
X345974000Y-124672000D03*
X345974000Y-125772000D03*
D11*
X318014000Y-98552000D03*
X331464000Y-96012000D03*
D14*
X291350000Y-136950000D03*
D32*
X308310589Y-146039411D03*
X308989411Y-145360589D03*
D10*
X242798000Y-144822000D03*
X242798000Y-143722000D03*
X245898000Y-143722000D03*
X245898000Y-144822000D03*
D33*
X307100500Y-149600000D03*
X310500500Y-149600000D03*
D15*
X170586000Y-161675000D03*
X170586000Y-159575000D03*
D10*
X45217750Y-144822000D03*
X45217750Y-143722000D03*
X48317750Y-143722000D03*
X48317750Y-144822000D03*
D12*
X262840000Y-121140000D03*
X261880000Y-121140000D03*
D11*
X375164000Y-98552000D03*
X388614000Y-96012000D03*
D10*
X233400000Y-125772000D03*
X233400000Y-124672000D03*
X236500000Y-124672000D03*
X236500000Y-125772000D03*
D15*
X335850000Y-142625000D03*
X335850000Y-140525000D03*
D33*
X305547500Y-149600000D03*
X302147500Y-149600000D03*
D23*
X306625000Y-123499000D03*
X307585000Y-123499000D03*
D15*
X201550000Y-104525000D03*
X201550000Y-102425000D03*
D27*
X312940000Y-140410000D03*
X313960000Y-140410000D03*
D10*
X380974000Y-106722000D03*
X380974000Y-105622000D03*
X384074000Y-105622000D03*
X384074000Y-106722000D03*
D34*
X294800000Y-118650000D03*
D35*
X297100000Y-124950000D03*
D34*
X297100000Y-118650000D03*
X299400000Y-118650000D03*
D11*
X51314000Y-98552000D03*
X64764000Y-96012000D03*
D15*
X373000000Y-142625000D03*
X373000000Y-140525000D03*
X80066750Y-161675000D03*
X80066750Y-159575000D03*
X333900000Y-142625000D03*
X333900000Y-140525000D03*
D27*
X269490000Y-121400000D03*
X270510000Y-121400000D03*
D16*
X306340000Y-120440000D03*
X305320000Y-120440000D03*
D15*
X335900000Y-104525000D03*
X335900000Y-102425000D03*
D10*
X323824000Y-125772000D03*
X323824000Y-124672000D03*
X326924000Y-124672000D03*
X326924000Y-125772000D03*
D11*
X246640000Y-117602000D03*
X260090000Y-115062000D03*
D15*
X82400000Y-142625000D03*
X82400000Y-140525000D03*
D10*
X64236000Y-163872000D03*
X64236000Y-162772000D03*
X67336000Y-162772000D03*
X67336000Y-163872000D03*
D15*
X111100000Y-123575000D03*
X111100000Y-121475000D03*
X372750000Y-161675000D03*
X372750000Y-159575000D03*
D11*
X34645250Y-117602000D03*
X48095250Y-115062000D03*
X184664000Y-98552000D03*
X198114000Y-96012000D03*
D10*
X40455250Y-125772000D03*
X40455250Y-124672000D03*
X43555250Y-124672000D03*
X43555250Y-125772000D03*
D30*
X304700000Y-141810000D03*
X304700000Y-140790000D03*
D11*
X108464000Y-98552000D03*
X121914000Y-96012000D03*
D31*
X302200000Y-140320000D03*
X302200000Y-141280000D03*
D36*
X309010000Y-117140000D03*
X309010000Y-115940000D03*
X309010000Y-114740000D03*
X309010000Y-113540000D03*
D37*
X305235000Y-112390000D03*
X305235000Y-118290000D03*
D38*
X305274000Y-101092000D03*
X307374000Y-101092000D03*
D10*
X342874000Y-163872000D03*
X342874000Y-162772000D03*
X345974000Y-162772000D03*
X345974000Y-163872000D03*
D39*
X296150000Y-127400000D03*
X294250000Y-127400000D03*
D10*
X109448000Y-144822000D03*
X109448000Y-143722000D03*
X112548000Y-143722000D03*
X112548000Y-144822000D03*
D15*
X118166750Y-161675000D03*
X118166750Y-159575000D03*
D40*
X301460000Y-128072400D03*
X301460000Y-129092400D03*
D11*
X32264000Y-98552000D03*
X45714000Y-96012000D03*
X210826000Y-155702000D03*
X224276000Y-153162000D03*
D10*
X157200000Y-125772000D03*
X157200000Y-124672000D03*
X160300000Y-124672000D03*
X160300000Y-125772000D03*
D23*
X309235000Y-136106000D03*
X310195000Y-136106000D03*
D12*
X297650000Y-130899000D03*
X296690000Y-130899000D03*
D11*
X65538000Y-136652000D03*
X78988000Y-134112000D03*
X356114000Y-136652000D03*
X369564000Y-134112000D03*
X39407750Y-136652000D03*
X52857750Y-134112000D03*
D15*
X354000000Y-142625000D03*
X354000000Y-140525000D03*
D10*
X40455250Y-163872000D03*
X40455250Y-162772000D03*
X43555250Y-162772000D03*
X43555250Y-163872000D03*
D15*
X53000000Y-123575000D03*
X53000000Y-121475000D03*
D10*
X176250000Y-125772000D03*
X176250000Y-124672000D03*
X179350000Y-124672000D03*
X179350000Y-125772000D03*
D11*
X222764000Y-98552000D03*
X236214000Y-96012000D03*
D16*
X314475000Y-122424000D03*
X313455000Y-122424000D03*
D10*
X361924000Y-106722000D03*
X361924000Y-105622000D03*
X365024000Y-105622000D03*
X365024000Y-106722000D03*
D11*
X337064000Y-155702000D03*
X350514000Y-153162000D03*
D10*
X264292750Y-163872000D03*
X264292750Y-162772000D03*
X267392750Y-162772000D03*
X267392750Y-163872000D03*
D11*
X337064000Y-117602000D03*
X350514000Y-115062000D03*
X189490000Y-117602000D03*
X202940000Y-115062000D03*
X260864000Y-98552000D03*
X274314000Y-96012000D03*
D10*
X166598000Y-144822000D03*
X166598000Y-143722000D03*
X169698000Y-143722000D03*
X169698000Y-144822000D03*
X247624000Y-106722000D03*
X247624000Y-105622000D03*
X250724000Y-105622000D03*
X250724000Y-106722000D03*
X204698000Y-144822000D03*
X204698000Y-143722000D03*
X207798000Y-143722000D03*
X207798000Y-144822000D03*
D17*
X303500000Y-128030000D03*
X303500000Y-127070000D03*
D41*
X313825000Y-124995000D03*
X313825000Y-126265000D03*
X313825000Y-127535000D03*
X313825000Y-128805000D03*
X306625000Y-128805000D03*
X306625000Y-127535000D03*
X306625000Y-126265000D03*
X306625000Y-124995000D03*
D10*
X228574000Y-106722000D03*
X228574000Y-105622000D03*
X231674000Y-105622000D03*
X231674000Y-106722000D03*
D11*
X160788000Y-136652000D03*
X174238000Y-134112000D03*
D10*
X171424000Y-106722000D03*
X171424000Y-105622000D03*
X174524000Y-105622000D03*
X174524000Y-106722000D03*
D11*
X84588000Y-136652000D03*
X98038000Y-134112000D03*
D15*
X232466750Y-161675000D03*
X232466750Y-159575000D03*
D10*
X128498000Y-144822000D03*
X128498000Y-143722000D03*
X131598000Y-143722000D03*
X131598000Y-144822000D03*
D40*
X272600000Y-127240000D03*
X272600000Y-128260000D03*
D10*
X380974000Y-125772000D03*
X380974000Y-124672000D03*
X384074000Y-124672000D03*
X384074000Y-125772000D03*
X152374000Y-106722000D03*
X152374000Y-105622000D03*
X155474000Y-105622000D03*
X155474000Y-106722000D03*
D11*
X356114000Y-98552000D03*
X369564000Y-96012000D03*
D40*
X302476000Y-128075000D03*
X302476000Y-129095000D03*
D15*
X277750000Y-104525000D03*
X277750000Y-102425000D03*
D42*
X313960000Y-143437500D03*
X313960000Y-141862500D03*
D15*
X353800000Y-161675000D03*
X353800000Y-159575000D03*
D11*
X337064000Y-98552000D03*
X350514000Y-96012000D03*
X198888000Y-136652000D03*
X212338000Y-134112000D03*
D15*
X277774000Y-161675000D03*
X277774000Y-159575000D03*
D10*
X38074000Y-106722000D03*
X38074000Y-105622000D03*
X41174000Y-105622000D03*
X41174000Y-106722000D03*
D14*
X291350000Y-131750000D03*
D11*
X103638000Y-136652000D03*
X117088000Y-134112000D03*
D10*
X209524000Y-106722000D03*
X209524000Y-105622000D03*
X212624000Y-105622000D03*
X212624000Y-106722000D03*
D12*
X266330000Y-119900000D03*
X265370000Y-119900000D03*
D10*
X95224000Y-106722000D03*
X95224000Y-105622000D03*
X98324000Y-105622000D03*
X98324000Y-106722000D03*
X88016750Y-163872000D03*
X88016750Y-162772000D03*
X91116750Y-162772000D03*
X91116750Y-163872000D03*
D30*
X301150000Y-143210000D03*
X301150000Y-142190000D03*
D11*
X146564000Y-98552000D03*
X160014000Y-96012000D03*
D39*
X298050000Y-116200000D03*
X296150000Y-116200000D03*
D11*
X375164000Y-136652000D03*
X388614000Y-134112000D03*
D15*
X333900000Y-161675000D03*
X333900000Y-159575000D03*
D10*
X90398000Y-144822000D03*
X90398000Y-143722000D03*
X93498000Y-143722000D03*
X93498000Y-144822000D03*
D15*
X333900000Y-123575000D03*
X333900000Y-121475000D03*
D11*
X127514000Y-98552000D03*
X140964000Y-96012000D03*
D17*
X300444000Y-129062400D03*
X300444000Y-128102400D03*
D10*
X252450000Y-125772000D03*
X252450000Y-124672000D03*
X255550000Y-124672000D03*
X255550000Y-125772000D03*
D15*
X73050000Y-123575000D03*
X73050000Y-121475000D03*
M02*
