M48
; DRILL file {KiCad (6.0.10-0)} date Wednesday, March 08, 2023 at 08:25:22 AM
; FORMAT={-:-/ absolute / metric / decimal}
; #@! TF.CreationDate,2023-03-08T08:25:22-06:00
; #@! TF.GenerationSoftware,Kicad,Pcbnew,(6.0.10-0)
; #@! TF.FileFunction,Plated,1,2,PTH
FMAT,2
METRIC
; #@! TA.AperFunction,Plated,PTH,ViaDrill
T1C0.300
; #@! TA.AperFunction,Plated,PTH,ComponentDrill
T2C0.300
; #@! TA.AperFunction,Plated,PTH,ViaDrill
T3C0.400
; #@! TA.AperFunction,Plated,PTH,ComponentDrill
T4C0.813
; #@! TA.AperFunction,Plated,PTH,ComponentDrill
T5C1.000
; #@! TA.AperFunction,Plated,PTH,ComponentDrill
T6C1.500
; #@! TA.AperFunction,Plated,PTH,ComponentDrill
T7C3.000
%
G90
G05
T1
X31.38Y-133.35
X31.41Y-126.02
X37.172Y-106.722
X38.93Y-96.91
X39.553Y-125.772
X39.553Y-163.872
X44.316Y-144.822
X45.45Y-92.86
X47.23Y-164.2
X51.08Y-164.21
X52.8Y-92.87
X54.726Y-105.375
X56.222Y-105.622
X56.222Y-106.722
X59.552Y-124.425
X59.602Y-126.024
X61.048Y-124.672
X61.048Y-125.772
X61.838Y-162.525
X63.334Y-162.772
X63.334Y-163.872
X68.95Y-143.475
X70.446Y-143.722
X70.446Y-144.822
X73.776Y-105.375
X75.272Y-105.622
X75.272Y-106.722
X78.602Y-124.425
X78.658Y-126.028
X80.098Y-124.672
X80.098Y-125.772
X85.619Y-162.525
X87.115Y-162.772
X87.115Y-163.872
X88.0Y-143.475
X89.496Y-143.722
X89.496Y-144.822
X92.826Y-105.375
X94.322Y-105.622
X94.322Y-106.722
X97.652Y-124.425
X97.702Y-126.024
X99.148Y-124.672
X99.148Y-125.772
X99.48Y-164.23
X103.49Y-164.23
X107.05Y-143.475
X108.546Y-143.722
X108.546Y-144.822
X111.876Y-105.375
X113.372Y-105.622
X113.372Y-106.722
X116.702Y-124.425
X116.759Y-126.03
X117.67Y-164.21
X118.198Y-124.672
X118.198Y-125.772
X121.71Y-92.87
X123.719Y-162.525
X125.215Y-162.772
X125.215Y-163.872
X126.1Y-143.475
X126.139Y-145.075
X127.596Y-143.722
X127.596Y-144.822
X129.08Y-92.82
X129.174Y-161.881
X130.119Y-162.772
X130.119Y-163.872
X130.926Y-105.375
X132.422Y-105.622
X132.422Y-106.722
X135.752Y-124.425
X135.79Y-126.024
X137.248Y-124.672
X137.248Y-125.772
X137.68Y-164.21
X145.196Y-145.078
X146.648Y-143.722
X146.648Y-144.822
X149.976Y-105.375
X151.472Y-105.622
X151.472Y-106.722
X151.552Y-143.722
X151.552Y-144.822
X151.94Y-164.2
X153.876Y-128.441
X154.802Y-124.425
X155.82Y-164.23
X156.298Y-124.672
X156.298Y-125.772
X161.202Y-126.024
X164.2Y-143.475
X165.696Y-143.722
X165.696Y-144.822
X166.31Y-128.88
X169.026Y-105.375
X170.103Y-164.23
X170.522Y-105.622
X170.522Y-106.722
X172.746Y-128.826
X173.852Y-124.425
X175.348Y-124.672
X175.348Y-125.772
X176.138Y-162.525
X177.634Y-162.772
X177.634Y-163.872
X178.375Y-106.974
X179.175Y-106.974
X179.348Y-123.822
X179.74Y-107.574
X180.252Y-124.672
X180.252Y-125.772
X181.207Y-108.193
X183.25Y-143.475
X184.746Y-143.722
X184.746Y-144.822
X187.648Y-108.191
X188.076Y-105.375
X189.572Y-105.622
X189.572Y-106.722
X189.65Y-143.722
X189.65Y-144.822
X190.075Y-164.236
X191.187Y-127.238
X194.05Y-164.124
X194.398Y-124.672
X194.398Y-125.772
X197.85Y-92.82
X199.302Y-124.672
X199.302Y-125.772
X199.961Y-126.811
X203.796Y-144.822
X203.82Y-164.61
X205.31Y-92.82
X207.126Y-105.375
X208.622Y-105.622
X208.622Y-106.722
X208.74Y-164.61
X211.952Y-124.425
X212.07Y-110.172
X213.448Y-124.672
X213.448Y-125.772
X214.238Y-162.525
X215.734Y-162.772
X215.734Y-163.872
X218.379Y-129.651
X220.638Y-162.772
X220.638Y-163.872
X221.35Y-143.475
X222.846Y-143.722
X222.846Y-144.822
X225.172Y-106.975
X226.072Y-106.974
X226.176Y-105.375
X226.427Y-107.739
X226.666Y-108.545
X227.51Y-109.474
X227.672Y-105.622
X227.672Y-106.722
X227.75Y-143.722
X227.75Y-144.822
X229.246Y-142.109
X231.002Y-124.425
X232.498Y-124.672
X232.498Y-125.772
X232.576Y-106.722
X233.525Y-130.022
X233.662Y-142.275
X234.325Y-130.422
X235.123Y-130.822
X238.019Y-162.525
X239.515Y-162.772
X239.515Y-163.872
X240.825Y-142.272
X241.896Y-143.722
X241.896Y-144.822
X244.949Y-107.776
X245.554Y-108.382
X246.722Y-105.622
X246.722Y-106.722
X246.8Y-143.722
X246.8Y-144.822
X246.907Y-141.872
X247.303Y-130.024
X247.755Y-142.268
X248.555Y-142.275
X250.052Y-124.425
X250.093Y-126.024
X251.548Y-124.672
X251.548Y-125.772
X251.626Y-105.622
X251.626Y-106.722
X252.313Y-109.171
X257.14Y-131.264
X257.164Y-123.56
X257.539Y-132.063
X257.557Y-124.256
X257.94Y-124.962
X257.94Y-132.799
X260.88Y-131.36
X260.96Y-121.14
X260.96Y-122.115
X261.895Y-162.525
X261.94Y-164.124
X262.45Y-119.45
X262.59Y-124.789
X262.865Y-118.245
X263.391Y-162.772
X263.391Y-163.872
X263.541Y-107.374
X263.649Y-119.38
X263.746Y-122.552
X264.05Y-128.55
X264.276Y-105.375
X264.339Y-106.985
X264.422Y-119.72
X264.932Y-117.911
X265.02Y-107.666
X265.772Y-105.622
X265.772Y-106.722
X265.799Y-120.7
X266.0Y-131.8
X266.07Y-136.92
X266.599Y-132.352
X267.0Y-133.144
X267.275Y-118.182
X267.4Y-130.7
X267.475Y-143.874
X267.91Y-118.795
X268.039Y-144.441
X268.206Y-108.602
X268.58Y-119.465
X268.604Y-145.007
X268.656Y-121.386
X268.838Y-109.092
X269.195Y-120.08
X269.595Y-109.349
X269.975Y-130.575
X270.0Y-128.6
X270.15Y-122.55
X270.42Y-109.217
X270.676Y-105.622
X270.676Y-106.722
X270.946Y-126.46
X271.2Y-121.4
X271.349Y-128.0
X271.42Y-143.475
X272.45Y-131.25
X272.916Y-143.722
X272.916Y-144.822
X273.274Y-131.274
X273.38Y-140.99
X273.42Y-124.35
X273.444Y-126.301
X273.64Y-129.32
X273.69Y-127.54
X274.03Y-92.82
X274.071Y-131.338
X275.17Y-121.93
X275.61Y-130.58
X275.83Y-164.2
X276.28Y-123.7
X277.678Y-124.672
X277.678Y-125.772
X277.699Y-127.263
X278.47Y-127.052
X279.2Y-127.378
X279.71Y-164.22
X281.43Y-92.86
X281.59Y-127.97
X281.59Y-132.33
X283.326Y-105.375
X283.326Y-162.525
X283.34Y-127.97
X283.389Y-106.985
X283.97Y-130.404
X284.37Y-131.34
X284.822Y-105.622
X284.822Y-106.722
X284.822Y-162.772
X284.822Y-163.872
X284.87Y-132.052
X285.413Y-141.539
X285.978Y-140.974
X286.544Y-140.408
X287.109Y-139.843
X287.674Y-139.278
X287.958Y-144.084
X288.523Y-143.519
X289.089Y-142.953
X289.654Y-142.388
X290.219Y-141.823
X292.37Y-151.36
X293.5Y-131.15
X294.1Y-131.8
X295.4Y-131.909
X295.65Y-136.65
X295.872Y-129.629
X295.872Y-130.645
X296.42Y-157.19
X296.7Y-136.9
X297.8Y-140.45
X299.063Y-139.146
X299.428Y-127.216
X299.55Y-156.03
X299.688Y-154.451
X299.947Y-141.197
X300.189Y-109.585
X300.43Y-161.19
X300.444Y-127.216
X300.58Y-154.451
X300.755Y-109.019
X301.34Y-108.42
X301.38Y-154.451
X301.458Y-140.746
X301.905Y-107.85
X302.17Y-142.042
X302.222Y-132.55
X302.67Y-102.31
X302.692Y-139.65
X302.75Y-159.17
X302.857Y-136.809
X303.1Y-105.6
X303.45Y-142.042
X303.5Y-126.204
X303.75Y-129.457
X303.902Y-105.191
X304.372Y-101.092
X304.508Y-126.2
X305.25Y-147.17
X305.73Y-110.46
X305.761Y-139.925
X306.3Y-151.7
X306.323Y-147.273
X306.96Y-110.45
X307.016Y-139.484
X307.6Y-146.75
X308.2Y-130.95
X308.28Y-138.89
X308.411Y-123.499
X309.19Y-102.32
X309.225Y-156.0
X309.3Y-106.05
X309.85Y-125.625
X309.9Y-159.16
X310.199Y-142.501
X310.431Y-140.47
X310.764Y-143.066
X311.08Y-107.85
X311.084Y-131.28
X311.084Y-136.106
X311.5Y-148.6
X311.645Y-108.42
X311.7Y-140.73
X312.17Y-161.22
X312.174Y-109.019
X312.48Y-128.805
X312.5Y-155.3
X312.511Y-123.424
X312.73Y-138.03
X312.739Y-109.585
X313.66Y-135.19
X313.94Y-113.23
X313.96Y-144.72
X315.18Y-131.76
X315.236Y-122.424
X315.25Y-158.3
X315.261Y-123.424
X316.87Y-142.17
X317.38Y-148.28
X317.4Y-119.55
X317.666Y-142.755
X318.15Y-157.53
X318.306Y-142.269
X318.715Y-145.665
X318.72Y-130.61
X319.05Y-125.297
X319.325Y-145.075
X319.33Y-121.52
X319.516Y-105.691
X319.696Y-125.926
X319.725Y-161.326
X319.726Y-142.275
X319.8Y-104.843
X320.3Y-123.649
X320.603Y-126.024
X320.627Y-143.076
X320.627Y-162.125
X321.26Y-131.61
X321.426Y-105.375
X321.426Y-124.425
X321.426Y-143.475
X321.426Y-162.525
X321.502Y-126.048
X321.504Y-107.001
X321.583Y-123.05
X322.922Y-105.622
X322.922Y-106.722
X322.922Y-124.672
X322.922Y-125.772
X322.922Y-143.722
X322.922Y-144.822
X322.922Y-162.772
X322.922Y-163.872
X323.28Y-140.99
X324.38Y-135.39
X331.13Y-92.83
X333.0Y-164.2
X336.79Y-164.21
X338.63Y-92.84
X340.476Y-105.375
X340.476Y-124.425
X340.476Y-143.475
X340.476Y-162.525
X340.527Y-106.974
X341.972Y-105.622
X341.972Y-106.722
X341.972Y-124.672
X341.972Y-125.772
X341.972Y-143.722
X341.972Y-144.822
X341.972Y-162.772
X341.972Y-163.872
X359.526Y-105.375
X359.526Y-124.425
X359.526Y-143.475
X359.526Y-162.525
X359.564Y-106.974
X361.022Y-105.622
X361.022Y-106.722
X361.022Y-124.672
X361.022Y-125.772
X361.022Y-143.722
X361.022Y-144.822
X361.022Y-162.772
X361.022Y-163.872
X369.24Y-92.82
X371.03Y-164.22
X375.02Y-164.22
X376.75Y-92.82
X378.576Y-105.375
X378.576Y-124.425
X378.576Y-143.475
X378.576Y-162.525
X378.582Y-106.974
X380.072Y-105.622
X380.072Y-106.722
X380.072Y-124.672
X380.072Y-125.772
X380.072Y-143.722
X380.072Y-144.822
X380.072Y-162.772
X380.072Y-163.872
X390.75Y-133.33
X390.81Y-125.9
T2
X265.55Y-124.1
X265.55Y-125.6
X265.55Y-127.1
X267.05Y-124.1
X267.05Y-125.6
X267.05Y-127.1
X268.55Y-124.1
X268.55Y-125.6
X268.55Y-127.1
X302.242Y-133.459
X302.242Y-134.709
X302.242Y-135.959
X303.492Y-133.459
X303.492Y-134.709
X303.492Y-135.959
X304.742Y-133.459
X304.742Y-134.709
X304.742Y-135.959
T3
X262.75Y-113.3
X263.85Y-112.7
X264.95Y-113.3
X284.649Y-128.65
X289.53Y-131.55
X289.97Y-133.27
X290.68Y-123.99
X290.9Y-118.65
X292.85Y-127.4
X292.9Y-116.02
X292.92Y-124.0
X294.8Y-116.7
X294.89Y-114.79
X295.5Y-120.75
X298.36Y-114.11
X301.09Y-119.31
X302.11Y-115.11
X302.99Y-120.34
X305.235Y-113.37
X305.24Y-119.27
X307.705Y-113.55
X307.705Y-117.14
X311.58Y-121.48
X313.92Y-120.42
T4
X302.514Y-156.922
X305.054Y-156.922
X307.594Y-156.922
X310.134Y-156.922
T5
X295.7Y-141.1
X295.7Y-143.64
X295.7Y-146.18
X295.7Y-148.72
X298.824Y-98.592
X298.824Y-101.092
X298.824Y-103.592
X313.324Y-98.592
X313.324Y-103.592
T7
X35.814Y-98.552
X38.195Y-117.602
X38.195Y-155.702
X42.164Y-96.012
X42.958Y-136.652
X44.545Y-115.062
X44.545Y-153.162
X49.308Y-134.112
X54.864Y-98.552
X59.69Y-117.602
X61.214Y-96.012
X61.976Y-155.702
X66.04Y-115.062
X68.326Y-153.162
X69.088Y-136.652
X73.914Y-98.552
X75.438Y-134.112
X78.74Y-117.602
X80.264Y-96.012
X85.09Y-115.062
X85.757Y-155.702
X88.138Y-136.652
X92.107Y-153.162
X92.964Y-98.552
X94.488Y-134.112
X97.79Y-117.602
X99.314Y-96.012
X104.14Y-115.062
X107.188Y-136.652
X112.014Y-98.552
X113.538Y-134.112
X116.84Y-117.602
X118.364Y-96.012
X123.19Y-115.062
X123.857Y-155.702
X126.238Y-136.652
X130.207Y-153.162
X131.064Y-98.552
X132.588Y-134.112
X135.89Y-117.602
X137.414Y-96.012
X142.24Y-115.062
X145.288Y-136.652
X150.114Y-98.552
X151.638Y-134.112
X154.94Y-117.602
X156.464Y-96.012
X161.29Y-115.062
X164.338Y-136.652
X169.164Y-98.552
X170.688Y-134.112
X173.99Y-117.602
X175.514Y-96.012
X176.276Y-155.702
X180.34Y-115.062
X182.626Y-153.162
X183.388Y-136.652
X188.214Y-98.552
X189.738Y-134.112
X193.04Y-117.602
X194.564Y-96.012
X199.39Y-115.062
X202.438Y-136.652
X207.264Y-98.552
X208.788Y-134.112
X212.09Y-117.602
X213.614Y-96.012
X214.376Y-155.702
X218.44Y-115.062
X220.726Y-153.162
X221.488Y-136.652
X226.314Y-98.552
X227.838Y-134.112
X231.14Y-117.602
X232.664Y-96.012
X237.49Y-115.062
X238.157Y-155.702
X240.538Y-136.652
X244.507Y-153.162
X245.364Y-98.552
X246.888Y-134.112
X250.19Y-117.602
X251.714Y-96.012
X256.54Y-115.062
X262.033Y-155.702
X264.414Y-98.552
X268.383Y-153.162
X270.764Y-96.012
X271.558Y-136.652
X276.32Y-117.602
X277.908Y-134.112
X282.67Y-115.062
X283.464Y-98.552
X283.464Y-155.702
X289.814Y-96.012
X289.814Y-153.162
X321.564Y-98.552
X321.564Y-117.602
X321.564Y-136.652
X321.564Y-155.702
X327.914Y-96.012
X327.914Y-115.062
X327.914Y-134.112
X327.914Y-153.162
X340.614Y-98.552
X340.614Y-117.602
X340.614Y-136.652
X340.614Y-155.702
X346.964Y-96.012
X346.964Y-115.062
X346.964Y-134.112
X346.964Y-153.162
X359.664Y-98.552
X359.664Y-117.602
X359.664Y-136.652
X359.664Y-155.702
X366.014Y-96.012
X366.014Y-115.062
X366.014Y-134.112
X366.014Y-153.162
X378.714Y-98.552
X378.714Y-117.602
X378.714Y-136.652
X378.714Y-155.702
X385.064Y-96.012
X385.064Y-115.062
X385.064Y-134.112
X385.064Y-153.162
T6
X305.674Y-95.492G85X306.974Y-95.492
G05
X305.674Y-106.692G85X306.974Y-106.692
G05
T0
M30
