%TF.GenerationSoftware,KiCad,Pcbnew,(6.0.10-0)*%
%TF.CreationDate,2023-02-15T12:55:37-06:00*%
%TF.ProjectId,The-GarlicBoard-2,5468652d-4761-4726-9c69-63426f617264,rev?*%
%TF.SameCoordinates,Original*%
%TF.FileFunction,Soldermask,Bot*%
%TF.FilePolarity,Negative*%
%FSLAX46Y46*%
G04 Gerber Fmt 4.6, Leading zero omitted, Abs format (unit mm)*
G04 Created by KiCad (PCBNEW (6.0.10-0)) date 2023-02-15 12:55:37*
%MOMM*%
%LPD*%
G01*
G04 APERTURE LIST*
G04 Aperture macros list*
%AMRoundRect*
0 Rectangle with rounded corners*
0 $1 Rounding radius*
0 $2 $3 $4 $5 $6 $7 $8 $9 X,Y pos of 4 corners*
0 Add a 4 corners polygon primitive as box body*
4,1,4,$2,$3,$4,$5,$6,$7,$8,$9,$2,$3,0*
0 Add four circle primitives for the rounded corners*
1,1,$1+$1,$2,$3*
1,1,$1+$1,$4,$5*
1,1,$1+$1,$6,$7*
1,1,$1+$1,$8,$9*
0 Add four rect primitives between the rounded corners*
20,1,$1+$1,$2,$3,$4,$5,0*
20,1,$1+$1,$4,$5,$6,$7,0*
20,1,$1+$1,$6,$7,$8,$9,0*
20,1,$1+$1,$8,$9,$2,$3,0*%
%AMRotRect*
0 Rectangle, with rotation*
0 The origin of the aperture is its center*
0 $1 length*
0 $2 width*
0 $3 Rotation angle, in degrees counterclockwise*
0 Add horizontal line*
21,1,$1,$2,0,0,$3*%
G04 Aperture macros list end*
%ADD10C,3.987800*%
%ADD11C,1.750000*%
%ADD12C,4.000000*%
%ADD13R,3.000000X2.500000*%
%ADD14C,3.048000*%
%ADD15R,3.012000X2.520000*%
%ADD16C,2.200000*%
%ADD17C,1.397000*%
%ADD18C,1.700000*%
%ADD19R,2.000000X2.000000*%
%ADD20C,2.000000*%
%ADD21C,1.600000*%
%ADD22C,2.100000*%
%ADD23RoundRect,0.070000X-0.330000X-0.280000X0.330000X-0.280000X0.330000X0.280000X-0.330000X0.280000X0*%
%ADD24RoundRect,0.140000X0.140000X0.170000X-0.140000X0.170000X-0.140000X-0.170000X0.140000X-0.170000X0*%
%ADD25R,1.000000X1.000000*%
%ADD26R,0.450000X0.600000*%
%ADD27RoundRect,0.135000X0.135000X0.185000X-0.135000X0.185000X-0.135000X-0.185000X0.135000X-0.185000X0*%
%ADD28RoundRect,0.140000X0.170000X-0.140000X0.170000X0.140000X-0.170000X0.140000X-0.170000X-0.140000X0*%
%ADD29RoundRect,0.050000X0.050000X-0.375000X0.050000X0.375000X-0.050000X0.375000X-0.050000X-0.375000X0*%
%ADD30RoundRect,0.050000X0.375000X-0.050000X0.375000X0.050000X-0.375000X0.050000X-0.375000X-0.050000X0*%
%ADD31R,4.200000X4.200000*%
%ADD32RotRect,1.400000X1.200000X45.000000*%
%ADD33RoundRect,0.140000X0.219203X0.021213X0.021213X0.219203X-0.219203X-0.021213X-0.021213X-0.219203X0*%
%ADD34RoundRect,0.140000X-0.140000X-0.170000X0.140000X-0.170000X0.140000X0.170000X-0.140000X0.170000X0*%
%ADD35RoundRect,0.050000X0.387500X0.050000X-0.387500X0.050000X-0.387500X-0.050000X0.387500X-0.050000X0*%
%ADD36RoundRect,0.050000X0.050000X0.387500X-0.050000X0.387500X-0.050000X-0.387500X0.050000X-0.387500X0*%
%ADD37C,0.600000*%
%ADD38R,3.200000X3.200000*%
%ADD39RoundRect,0.135000X-0.135000X-0.185000X0.135000X-0.185000X0.135000X0.185000X-0.135000X0.185000X0*%
%ADD40RoundRect,0.250000X0.425000X-0.450000X0.425000X0.450000X-0.425000X0.450000X-0.425000X-0.450000X0*%
%ADD41RoundRect,0.135000X0.185000X-0.135000X0.185000X0.135000X-0.185000X0.135000X-0.185000X-0.135000X0*%
%ADD42RoundRect,0.140000X-0.170000X0.140000X-0.170000X-0.140000X0.170000X-0.140000X0.170000X0.140000X0*%
%ADD43RoundRect,0.140000X0.021213X-0.219203X0.219203X-0.021213X-0.021213X0.219203X-0.219203X0.021213X0*%
%ADD44R,0.900000X1.700000*%
%ADD45R,1.500000X2.000000*%
%ADD46R,3.800000X2.000000*%
%ADD47RoundRect,0.150000X0.275000X-0.150000X0.275000X0.150000X-0.275000X0.150000X-0.275000X-0.150000X0*%
%ADD48RoundRect,0.175000X0.225000X-0.175000X0.225000X0.175000X-0.225000X0.175000X-0.225000X-0.175000X0*%
%ADD49RoundRect,0.250000X0.250000X0.475000X-0.250000X0.475000X-0.250000X-0.475000X0.250000X-0.475000X0*%
%ADD50RoundRect,0.135000X-0.185000X0.135000X-0.185000X-0.135000X0.185000X-0.135000X0.185000X0.135000X0*%
%ADD51R,1.700000X1.700000*%
%ADD52O,1.700000X1.700000*%
%ADD53RoundRect,0.150000X0.650000X0.150000X-0.650000X0.150000X-0.650000X-0.150000X0.650000X-0.150000X0*%
G04 APERTURE END LIST*
D10*
X215900000Y-120142000D03*
D11*
X220980000Y-120142000D03*
X210820000Y-120142000D03*
D12*
X212090000Y-117602000D03*
D13*
X209030000Y-117602000D03*
D12*
X218440000Y-115062000D03*
D13*
X221500000Y-115062000D03*
D11*
X96520000Y-120142000D03*
X106680000Y-120142000D03*
D10*
X101600000Y-120142000D03*
D13*
X94730000Y-117602000D03*
D12*
X97790000Y-117602000D03*
D13*
X107200000Y-115062000D03*
D12*
X104140000Y-115062000D03*
D11*
X387604000Y-158242000D03*
X377444000Y-158242000D03*
D10*
X382524000Y-158242000D03*
D13*
X375654000Y-155702000D03*
D12*
X378714000Y-155702000D03*
D13*
X388124000Y-153162000D03*
D12*
X385064000Y-153162000D03*
D11*
X254254000Y-101092000D03*
D10*
X249174000Y-101092000D03*
D11*
X244094000Y-101092000D03*
D12*
X245364000Y-98552000D03*
D13*
X242304000Y-98552000D03*
X254774000Y-96012000D03*
D12*
X251714000Y-96012000D03*
D14*
X287305750Y-132207000D03*
X263429750Y-132207000D03*
D10*
X263429750Y-147447000D03*
X275367750Y-139192000D03*
D11*
X270287750Y-139192000D03*
X280447750Y-139192000D03*
D10*
X287305750Y-147447000D03*
D15*
X268497750Y-136652000D03*
D12*
X271557750Y-136652000D03*
D13*
X280967750Y-134112000D03*
D12*
X277907750Y-134112000D03*
D11*
X292354000Y-158242000D03*
D10*
X287274000Y-158242000D03*
D11*
X282194000Y-158242000D03*
D12*
X283464000Y-155702000D03*
D13*
X280404000Y-155702000D03*
D12*
X289814000Y-153162000D03*
D13*
X292874000Y-153162000D03*
D11*
X84486750Y-158242000D03*
X94646750Y-158242000D03*
D10*
X89566750Y-158242000D03*
D12*
X85756750Y-155702000D03*
D13*
X82696750Y-155702000D03*
X95166750Y-153162000D03*
D12*
X92106750Y-153162000D03*
D11*
X182118000Y-139192000D03*
X192278000Y-139192000D03*
D10*
X187198000Y-139192000D03*
D13*
X180328000Y-136652000D03*
D12*
X183388000Y-136652000D03*
X189738000Y-134112000D03*
D13*
X192798000Y-134112000D03*
D11*
X249428000Y-139192000D03*
X239268000Y-139192000D03*
D10*
X244348000Y-139192000D03*
D13*
X237478000Y-136652000D03*
D12*
X240538000Y-136652000D03*
X246888000Y-134112000D03*
D13*
X249948000Y-134112000D03*
D11*
X163830000Y-120142000D03*
X153670000Y-120142000D03*
D10*
X158750000Y-120142000D03*
D13*
X151880000Y-117602000D03*
D12*
X154940000Y-117602000D03*
X161290000Y-115062000D03*
D13*
X164350000Y-115062000D03*
D16*
X373000000Y-148700000D03*
D11*
X285210250Y-120142000D03*
D10*
X280130250Y-120142000D03*
D11*
X275050250Y-120142000D03*
D13*
X273260250Y-117602000D03*
D12*
X276320250Y-117602000D03*
X282670250Y-115062000D03*
D13*
X285730250Y-115062000D03*
D10*
X211074000Y-101092000D03*
D11*
X205994000Y-101092000D03*
X216154000Y-101092000D03*
D12*
X207264000Y-98552000D03*
D13*
X204204000Y-98552000D03*
D12*
X213614000Y-96012000D03*
D13*
X216674000Y-96012000D03*
D10*
X180086000Y-158242000D03*
D14*
X168148000Y-165227000D03*
D11*
X185166000Y-158242000D03*
D10*
X168148000Y-149987000D03*
X192024000Y-149987000D03*
D11*
X175006000Y-158242000D03*
D14*
X192024000Y-165227000D03*
D12*
X176276000Y-155702000D03*
D13*
X173216000Y-155702000D03*
X185686000Y-153162000D03*
D12*
X182626000Y-153162000D03*
D10*
X149098000Y-139192000D03*
D11*
X154178000Y-139192000D03*
X144018000Y-139192000D03*
D12*
X145288000Y-136652000D03*
D13*
X142228000Y-136652000D03*
D12*
X151638000Y-134112000D03*
D13*
X154698000Y-134112000D03*
D10*
X130048000Y-139192000D03*
D11*
X124968000Y-139192000D03*
X135128000Y-139192000D03*
D12*
X126238000Y-136652000D03*
D13*
X123178000Y-136652000D03*
D12*
X132588000Y-134112000D03*
D13*
X135648000Y-134112000D03*
D11*
X68580000Y-120142000D03*
D10*
X63500000Y-120142000D03*
D11*
X58420000Y-120142000D03*
D12*
X59690000Y-117602000D03*
D13*
X56630000Y-117602000D03*
D12*
X66040000Y-115062000D03*
D13*
X69100000Y-115062000D03*
D10*
X325374000Y-158242000D03*
D11*
X320294000Y-158242000D03*
X330454000Y-158242000D03*
D13*
X318504000Y-155702000D03*
D12*
X321564000Y-155702000D03*
D13*
X330974000Y-153162000D03*
D12*
X327914000Y-153162000D03*
D11*
X91694000Y-101092000D03*
X101854000Y-101092000D03*
D10*
X96774000Y-101092000D03*
D12*
X92964000Y-98552000D03*
D13*
X89904000Y-98552000D03*
D12*
X99314000Y-96012000D03*
D13*
X102374000Y-96012000D03*
D10*
X77724000Y-101092000D03*
D11*
X82804000Y-101092000D03*
X72644000Y-101092000D03*
D13*
X70854000Y-98552000D03*
D12*
X73914000Y-98552000D03*
D13*
X83324000Y-96012000D03*
D12*
X80264000Y-96012000D03*
D10*
X363474000Y-120142000D03*
D11*
X368554000Y-120142000D03*
X358394000Y-120142000D03*
D13*
X356604000Y-117602000D03*
D12*
X359664000Y-117602000D03*
D13*
X369074000Y-115062000D03*
D12*
X366014000Y-115062000D03*
D11*
X247046750Y-158242000D03*
X236886750Y-158242000D03*
D10*
X241966750Y-158242000D03*
D12*
X238156750Y-155702000D03*
D13*
X235096750Y-155702000D03*
X247566750Y-153162000D03*
D12*
X244506750Y-153162000D03*
D16*
X53911500Y-148717000D03*
D10*
X287274000Y-101092000D03*
D11*
X282194000Y-101092000D03*
X292354000Y-101092000D03*
D12*
X283464000Y-98552000D03*
D13*
X280404000Y-98552000D03*
D12*
X289814000Y-96012000D03*
D13*
X292874000Y-96012000D03*
D11*
X77470000Y-120142000D03*
D10*
X82550000Y-120142000D03*
D11*
X87630000Y-120142000D03*
D12*
X78740000Y-117602000D03*
D13*
X75680000Y-117602000D03*
D12*
X85090000Y-115062000D03*
D13*
X88150000Y-115062000D03*
D10*
X265842750Y-158242000D03*
D11*
X260762750Y-158242000D03*
X270922750Y-158242000D03*
D12*
X262032750Y-155702000D03*
D13*
X258972750Y-155702000D03*
D12*
X268382750Y-153162000D03*
D13*
X271442750Y-153162000D03*
D11*
X368554000Y-158242000D03*
D10*
X363474000Y-158242000D03*
D11*
X358394000Y-158242000D03*
D13*
X356604000Y-155702000D03*
D12*
X359664000Y-155702000D03*
X366014000Y-153162000D03*
D13*
X369074000Y-153162000D03*
D11*
X115570000Y-120142000D03*
X125730000Y-120142000D03*
D10*
X120650000Y-120142000D03*
D12*
X116840000Y-117602000D03*
D13*
X113780000Y-117602000D03*
X126250000Y-115062000D03*
D12*
X123190000Y-115062000D03*
D10*
X139700000Y-120142000D03*
D11*
X144780000Y-120142000D03*
X134620000Y-120142000D03*
D12*
X135890000Y-117602000D03*
D13*
X132830000Y-117602000D03*
D12*
X142240000Y-115062000D03*
D13*
X145300000Y-115062000D03*
D11*
X387604000Y-120142000D03*
D10*
X382524000Y-120142000D03*
D11*
X377444000Y-120142000D03*
D13*
X375654000Y-117602000D03*
D12*
X378714000Y-117602000D03*
X385064000Y-115062000D03*
D13*
X388124000Y-115062000D03*
D11*
X339344000Y-139192000D03*
X349504000Y-139192000D03*
D10*
X344424000Y-139192000D03*
D13*
X337554000Y-136652000D03*
D12*
X340614000Y-136652000D03*
D13*
X350024000Y-134112000D03*
D12*
X346964000Y-134112000D03*
D11*
X330454000Y-120142000D03*
D10*
X325374000Y-120142000D03*
D11*
X320294000Y-120142000D03*
D12*
X321564000Y-117602000D03*
D13*
X318504000Y-117602000D03*
X330974000Y-115062000D03*
D12*
X327914000Y-115062000D03*
D10*
X325374000Y-139192000D03*
D11*
X320294000Y-139192000D03*
X330454000Y-139192000D03*
D13*
X318504000Y-136652000D03*
D12*
X321564000Y-136652000D03*
X327914000Y-134112000D03*
D13*
X330974000Y-134112000D03*
D11*
X220218000Y-139192000D03*
X230378000Y-139192000D03*
D10*
X225298000Y-139192000D03*
D13*
X218428000Y-136652000D03*
D12*
X221488000Y-136652000D03*
D13*
X230898000Y-134112000D03*
D12*
X227838000Y-134112000D03*
D16*
X372999000Y-110617000D03*
D11*
X132746750Y-158242000D03*
X122586750Y-158242000D03*
D14*
X139604750Y-165227000D03*
D10*
X115728750Y-149987000D03*
D14*
X115728750Y-165227000D03*
D10*
X127666750Y-158242000D03*
X139604750Y-149987000D03*
D12*
X123856750Y-155702000D03*
D13*
X120796750Y-155702000D03*
D12*
X130206750Y-153162000D03*
D13*
X133266750Y-153162000D03*
D11*
X70866000Y-158242000D03*
X60706000Y-158242000D03*
D10*
X65786000Y-158242000D03*
D12*
X61976000Y-155702000D03*
D13*
X58916000Y-155702000D03*
D12*
X68326000Y-153162000D03*
D13*
X71386000Y-153162000D03*
D11*
X47085250Y-158242000D03*
X36925250Y-158242000D03*
D10*
X42005250Y-158242000D03*
D12*
X38195250Y-155702000D03*
D13*
X35135250Y-155702000D03*
X47605250Y-153162000D03*
D12*
X44545250Y-153162000D03*
D10*
X177800000Y-120142000D03*
D11*
X172720000Y-120142000D03*
X182880000Y-120142000D03*
D12*
X173990000Y-117602000D03*
D13*
X170930000Y-117602000D03*
D12*
X180340000Y-115062000D03*
D13*
X183400000Y-115062000D03*
D16*
X253936500Y-148717000D03*
D11*
X240030000Y-120142000D03*
D10*
X234950000Y-120142000D03*
D11*
X229870000Y-120142000D03*
D12*
X231140000Y-117602000D03*
D13*
X228080000Y-117602000D03*
X240550000Y-115062000D03*
D12*
X237490000Y-115062000D03*
D10*
X172974000Y-101092000D03*
D11*
X178054000Y-101092000D03*
X167894000Y-101092000D03*
D12*
X169164000Y-98552000D03*
D13*
X166104000Y-98552000D03*
X178574000Y-96012000D03*
D12*
X175514000Y-96012000D03*
D11*
X330454000Y-101092000D03*
D10*
X325374000Y-101092000D03*
D11*
X320294000Y-101092000D03*
D12*
X321564000Y-98552000D03*
D13*
X318504000Y-98552000D03*
X330974000Y-96012000D03*
D12*
X327914000Y-96012000D03*
D17*
X302514000Y-156922000D03*
X305054000Y-156922000D03*
X307594000Y-156922000D03*
X310134000Y-156922000D03*
D10*
X382524000Y-101092000D03*
D11*
X387604000Y-101092000D03*
X377444000Y-101092000D03*
D12*
X378714000Y-98552000D03*
D13*
X375654000Y-98552000D03*
X388124000Y-96012000D03*
D12*
X385064000Y-96012000D03*
D11*
X63754000Y-101092000D03*
X53594000Y-101092000D03*
D10*
X58674000Y-101092000D03*
D13*
X51804000Y-98552000D03*
D12*
X54864000Y-98552000D03*
X61214000Y-96012000D03*
D13*
X64274000Y-96012000D03*
D11*
X259080000Y-120142000D03*
D10*
X254000000Y-120142000D03*
D11*
X248920000Y-120142000D03*
D13*
X247130000Y-117602000D03*
D12*
X250190000Y-117602000D03*
X256540000Y-115062000D03*
D13*
X259600000Y-115062000D03*
D10*
X42005250Y-120142000D03*
D11*
X47085250Y-120142000D03*
X36925250Y-120142000D03*
D12*
X38195250Y-117602000D03*
D13*
X35135250Y-117602000D03*
X47605250Y-115062000D03*
D12*
X44545250Y-115062000D03*
D11*
X186944000Y-101092000D03*
X197104000Y-101092000D03*
D10*
X192024000Y-101092000D03*
D12*
X188214000Y-98552000D03*
D13*
X185154000Y-98552000D03*
X197624000Y-96012000D03*
D12*
X194564000Y-96012000D03*
D10*
X115824000Y-101092000D03*
D11*
X120904000Y-101092000D03*
X110744000Y-101092000D03*
D13*
X108954000Y-98552000D03*
D12*
X112014000Y-98552000D03*
D13*
X121424000Y-96012000D03*
D12*
X118364000Y-96012000D03*
D16*
X258700000Y-110600000D03*
D10*
X39624000Y-101092000D03*
D11*
X34544000Y-101092000D03*
X44704000Y-101092000D03*
D12*
X35814000Y-98552000D03*
D13*
X32754000Y-98552000D03*
X45224000Y-96012000D03*
D12*
X42164000Y-96012000D03*
D16*
X53911500Y-110617000D03*
D11*
X223266000Y-158242000D03*
D10*
X218186000Y-158242000D03*
D11*
X213106000Y-158242000D03*
D13*
X211316000Y-155702000D03*
D12*
X214376000Y-155702000D03*
D13*
X223786000Y-153162000D03*
D12*
X220726000Y-153162000D03*
D10*
X72898000Y-139192000D03*
D11*
X77978000Y-139192000D03*
X67818000Y-139192000D03*
D13*
X66028000Y-136652000D03*
D12*
X69088000Y-136652000D03*
D13*
X78498000Y-134112000D03*
D12*
X75438000Y-134112000D03*
D11*
X368554000Y-139192000D03*
X358394000Y-139192000D03*
D10*
X363474000Y-139192000D03*
D13*
X356604000Y-136652000D03*
D12*
X359664000Y-136652000D03*
D13*
X369074000Y-134112000D03*
D12*
X366014000Y-134112000D03*
D11*
X51847750Y-139192000D03*
X41687750Y-139192000D03*
D10*
X46767750Y-139192000D03*
D12*
X42957750Y-136652000D03*
D13*
X39897750Y-136652000D03*
D12*
X49307750Y-134112000D03*
D13*
X52367750Y-134112000D03*
D11*
X235204000Y-101092000D03*
X225044000Y-101092000D03*
D10*
X230124000Y-101092000D03*
D13*
X223254000Y-98552000D03*
D12*
X226314000Y-98552000D03*
X232664000Y-96012000D03*
D13*
X235724000Y-96012000D03*
D10*
X344424000Y-158242000D03*
D11*
X339344000Y-158242000D03*
X349504000Y-158242000D03*
D13*
X337554000Y-155702000D03*
D12*
X340614000Y-155702000D03*
D13*
X350024000Y-153162000D03*
D12*
X346964000Y-153162000D03*
D11*
X339344000Y-120142000D03*
D10*
X344424000Y-120142000D03*
D11*
X349504000Y-120142000D03*
D13*
X337554000Y-117602000D03*
D12*
X340614000Y-117602000D03*
X346964000Y-115062000D03*
D13*
X350024000Y-115062000D03*
D11*
X201930000Y-120142000D03*
X191770000Y-120142000D03*
D10*
X196850000Y-120142000D03*
D12*
X193040000Y-117602000D03*
D13*
X189980000Y-117602000D03*
D12*
X199390000Y-115062000D03*
D13*
X202450000Y-115062000D03*
D10*
X268224000Y-101092000D03*
D11*
X273304000Y-101092000D03*
X263144000Y-101092000D03*
D12*
X264414000Y-98552000D03*
D13*
X261354000Y-98552000D03*
D12*
X270764000Y-96012000D03*
D13*
X273824000Y-96012000D03*
D10*
X168148000Y-139192000D03*
D11*
X163068000Y-139192000D03*
X173228000Y-139192000D03*
D13*
X161278000Y-136652000D03*
D12*
X164338000Y-136652000D03*
X170688000Y-134112000D03*
D13*
X173748000Y-134112000D03*
D10*
X91948000Y-139192000D03*
D11*
X86868000Y-139192000D03*
X97028000Y-139192000D03*
D13*
X85078000Y-136652000D03*
D12*
X88138000Y-136652000D03*
X94488000Y-134112000D03*
D13*
X97548000Y-134112000D03*
D10*
X363474000Y-101092000D03*
D11*
X358394000Y-101092000D03*
X368554000Y-101092000D03*
D12*
X359664000Y-98552000D03*
D13*
X356604000Y-98552000D03*
D12*
X366014000Y-96012000D03*
D13*
X369074000Y-96012000D03*
D11*
X339344000Y-101092000D03*
D10*
X344424000Y-101092000D03*
D11*
X349504000Y-101092000D03*
D13*
X337554000Y-98552000D03*
D12*
X340614000Y-98552000D03*
X346964000Y-96012000D03*
D13*
X350024000Y-96012000D03*
D11*
X201168000Y-139192000D03*
X211328000Y-139192000D03*
D10*
X206248000Y-139192000D03*
D13*
X199378000Y-136652000D03*
D12*
X202438000Y-136652000D03*
D13*
X211848000Y-134112000D03*
D12*
X208788000Y-134112000D03*
D10*
X110998000Y-139192000D03*
D11*
X105918000Y-139192000D03*
X116078000Y-139192000D03*
D12*
X107188000Y-136652000D03*
D13*
X104128000Y-136652000D03*
D12*
X113538000Y-134112000D03*
D13*
X116598000Y-134112000D03*
D11*
X148844000Y-101092000D03*
D10*
X153924000Y-101092000D03*
D11*
X159004000Y-101092000D03*
D12*
X150114000Y-98552000D03*
D13*
X147054000Y-98552000D03*
D12*
X156464000Y-96012000D03*
D13*
X159524000Y-96012000D03*
D11*
X377444000Y-139192000D03*
X387604000Y-139192000D03*
D10*
X382524000Y-139192000D03*
D13*
X375654000Y-136652000D03*
D12*
X378714000Y-136652000D03*
D13*
X388124000Y-134112000D03*
D12*
X385064000Y-134112000D03*
D10*
X134874000Y-101092000D03*
D11*
X129794000Y-101092000D03*
X139954000Y-101092000D03*
D13*
X128004000Y-98552000D03*
D12*
X131064000Y-98552000D03*
X137414000Y-96012000D03*
D13*
X140474000Y-96012000D03*
D18*
X299742500Y-107304500D03*
D19*
X299742500Y-97194500D03*
D20*
X299742500Y-99734500D03*
X299742500Y-102274500D03*
X299742500Y-104814500D03*
D21*
X298517500Y-94354500D03*
X300367500Y-94354500D03*
D22*
X287274000Y-106172000D03*
D23*
X285724000Y-106722000D03*
X285724000Y-105622000D03*
X288824000Y-105622000D03*
X288824000Y-106722000D03*
D22*
X275367750Y-144272000D03*
D23*
X273817750Y-144822000D03*
X273817750Y-143722000D03*
X276917750Y-143722000D03*
X276917750Y-144822000D03*
D24*
X297269000Y-135979000D03*
X296309000Y-135979000D03*
D25*
X291350000Y-135650000D03*
D22*
X241966750Y-163322000D03*
D23*
X240416750Y-163872000D03*
X240416750Y-162772000D03*
X243516750Y-162772000D03*
X243516750Y-163872000D03*
D26*
X220600000Y-104525000D03*
X220600000Y-102425000D03*
X333900000Y-104525000D03*
X333900000Y-102425000D03*
D27*
X270985000Y-129775000D03*
X269965000Y-129775000D03*
D28*
X304508000Y-128026200D03*
X304508000Y-127066200D03*
D24*
X272625000Y-124350000D03*
X271665000Y-124350000D03*
D26*
X163450000Y-104525000D03*
X163450000Y-102425000D03*
X258700000Y-104525000D03*
X258700000Y-102425000D03*
D22*
X287274000Y-163322000D03*
D23*
X285724000Y-163872000D03*
X285724000Y-162772000D03*
X288824000Y-162772000D03*
X288824000Y-163872000D03*
D22*
X134874000Y-106172000D03*
D23*
X133324000Y-106722000D03*
X133324000Y-105622000D03*
X136424000Y-105622000D03*
X136424000Y-106722000D03*
D26*
X353950000Y-123575000D03*
X353950000Y-121475000D03*
X168250000Y-123575000D03*
X168250000Y-121475000D03*
D29*
X269250000Y-128550000D03*
X268850000Y-128550000D03*
X268450000Y-128550000D03*
X268050000Y-128550000D03*
X267650000Y-128550000D03*
X267250000Y-128550000D03*
X266850000Y-128550000D03*
X266450000Y-128550000D03*
X266050000Y-128550000D03*
X265650000Y-128550000D03*
X265250000Y-128550000D03*
X264850000Y-128550000D03*
D30*
X264100000Y-127800000D03*
X264100000Y-127400000D03*
X264100000Y-127000000D03*
X264100000Y-126600000D03*
X264100000Y-126200000D03*
X264100000Y-125800000D03*
X264100000Y-125400000D03*
X264100000Y-125000000D03*
X264100000Y-124600000D03*
X264100000Y-124200000D03*
X264100000Y-123800000D03*
X264100000Y-123400000D03*
D29*
X264850000Y-122650000D03*
X265250000Y-122650000D03*
X265650000Y-122650000D03*
X266050000Y-122650000D03*
X266450000Y-122650000D03*
X266850000Y-122650000D03*
X267250000Y-122650000D03*
X267650000Y-122650000D03*
X268050000Y-122650000D03*
X268450000Y-122650000D03*
X268850000Y-122650000D03*
X269250000Y-122650000D03*
D30*
X270000000Y-123400000D03*
X270000000Y-123800000D03*
X270000000Y-124200000D03*
X270000000Y-124600000D03*
X270000000Y-125000000D03*
X270000000Y-125400000D03*
X270000000Y-125800000D03*
X270000000Y-126200000D03*
X270000000Y-126600000D03*
X270000000Y-127000000D03*
X270000000Y-127400000D03*
X270000000Y-127800000D03*
D31*
X267050000Y-125600000D03*
D22*
X101600000Y-125222000D03*
D23*
X100050000Y-125772000D03*
X100050000Y-124672000D03*
X103150000Y-124672000D03*
X103150000Y-125772000D03*
D26*
X130150000Y-123575000D03*
X130150000Y-121475000D03*
D24*
X266330000Y-118900000D03*
X265370000Y-118900000D03*
D26*
X196700000Y-142625000D03*
X196700000Y-140525000D03*
D28*
X272175000Y-123380000D03*
X272175000Y-122420000D03*
D26*
X215750000Y-142625000D03*
X215750000Y-140525000D03*
D32*
X305121142Y-144626777D03*
X306676777Y-143071142D03*
X307878858Y-144273223D03*
X306323223Y-145828858D03*
D22*
X382524000Y-163322000D03*
D23*
X380974000Y-163872000D03*
X380974000Y-162772000D03*
X384074000Y-162772000D03*
X384074000Y-163872000D03*
D26*
X144400000Y-104525000D03*
X144400000Y-102425000D03*
X101450000Y-142625000D03*
X101450000Y-140525000D03*
D22*
X82550000Y-125222000D03*
D23*
X81000000Y-125772000D03*
X81000000Y-124672000D03*
X84100000Y-124672000D03*
X84100000Y-125772000D03*
D26*
X239650000Y-104525000D03*
X239650000Y-102425000D03*
X48150000Y-104525000D03*
X48150000Y-102425000D03*
D33*
X304589411Y-146509411D03*
X303910589Y-145830589D03*
D22*
X325374000Y-144272000D03*
D23*
X323824000Y-144822000D03*
X323824000Y-143722000D03*
X326924000Y-143722000D03*
X326924000Y-144822000D03*
D22*
X115824000Y-106172000D03*
D23*
X114274000Y-106722000D03*
X114274000Y-105622000D03*
X117374000Y-105622000D03*
X117374000Y-106722000D03*
D26*
X265817750Y-142625000D03*
X265817750Y-140525000D03*
D22*
X325374000Y-106172000D03*
D23*
X323824000Y-106722000D03*
X323824000Y-105622000D03*
X326924000Y-105622000D03*
X326924000Y-106722000D03*
D26*
X68200000Y-104525000D03*
X68200000Y-102425000D03*
D22*
X225298000Y-144272000D03*
D23*
X223748000Y-144822000D03*
X223748000Y-143722000D03*
X226848000Y-143722000D03*
X226848000Y-144822000D03*
D26*
X106300000Y-104525000D03*
X106300000Y-102425000D03*
X206400000Y-123575000D03*
X206400000Y-121475000D03*
D22*
X63500000Y-125222000D03*
D23*
X61950000Y-125772000D03*
X61950000Y-124672000D03*
X65050000Y-124672000D03*
X65050000Y-125772000D03*
D34*
X309235000Y-131280000D03*
X310195000Y-131280000D03*
D26*
X335850000Y-161675000D03*
X335850000Y-159575000D03*
D22*
X325374000Y-163322000D03*
D23*
X323824000Y-163872000D03*
X323824000Y-162772000D03*
X326924000Y-162772000D03*
X326924000Y-163872000D03*
D25*
X291350000Y-133050000D03*
D22*
X120650000Y-125222000D03*
D23*
X119100000Y-125772000D03*
X119100000Y-124672000D03*
X122200000Y-124672000D03*
X122200000Y-125772000D03*
D35*
X306929500Y-132109000D03*
X306929500Y-132509000D03*
X306929500Y-132909000D03*
X306929500Y-133309000D03*
X306929500Y-133709000D03*
X306929500Y-134109000D03*
X306929500Y-134509000D03*
X306929500Y-134909000D03*
X306929500Y-135309000D03*
X306929500Y-135709000D03*
X306929500Y-136109000D03*
X306929500Y-136509000D03*
X306929500Y-136909000D03*
X306929500Y-137309000D03*
D36*
X306092000Y-138146500D03*
X305692000Y-138146500D03*
X305292000Y-138146500D03*
X304892000Y-138146500D03*
X304492000Y-138146500D03*
X304092000Y-138146500D03*
X303692000Y-138146500D03*
X303292000Y-138146500D03*
X302892000Y-138146500D03*
X302492000Y-138146500D03*
X302092000Y-138146500D03*
X301692000Y-138146500D03*
X301292000Y-138146500D03*
X300892000Y-138146500D03*
D35*
X300054500Y-137309000D03*
X300054500Y-136909000D03*
X300054500Y-136509000D03*
X300054500Y-136109000D03*
X300054500Y-135709000D03*
X300054500Y-135309000D03*
X300054500Y-134909000D03*
X300054500Y-134509000D03*
X300054500Y-134109000D03*
X300054500Y-133709000D03*
X300054500Y-133309000D03*
X300054500Y-132909000D03*
X300054500Y-132509000D03*
X300054500Y-132109000D03*
D36*
X300892000Y-131271500D03*
X301292000Y-131271500D03*
X301692000Y-131271500D03*
X302092000Y-131271500D03*
X302492000Y-131271500D03*
X302892000Y-131271500D03*
X303292000Y-131271500D03*
X303692000Y-131271500D03*
X304092000Y-131271500D03*
X304492000Y-131271500D03*
X304892000Y-131271500D03*
X305292000Y-131271500D03*
X305692000Y-131271500D03*
X306092000Y-131271500D03*
D37*
X304742000Y-133459000D03*
X302242000Y-133459000D03*
D38*
X303492000Y-134709000D03*
D37*
X304742000Y-135959000D03*
X303492000Y-133459000D03*
X303492000Y-135959000D03*
X303492000Y-134709000D03*
X302242000Y-134709000D03*
X302242000Y-135959000D03*
X304742000Y-134709000D03*
D26*
X52900000Y-161675000D03*
X52900000Y-159575000D03*
D22*
X363474000Y-163322000D03*
D23*
X361924000Y-163872000D03*
X361924000Y-162772000D03*
X365024000Y-162772000D03*
X365024000Y-163872000D03*
D26*
X208686000Y-161675000D03*
X208686000Y-159575000D03*
X120500000Y-142625000D03*
X120500000Y-140525000D03*
X335900000Y-123575000D03*
X335900000Y-121475000D03*
D22*
X192024000Y-106172000D03*
D23*
X190474000Y-106722000D03*
X190474000Y-105622000D03*
X193574000Y-105622000D03*
X193574000Y-106722000D03*
D39*
X308650002Y-141800000D03*
X309670002Y-141800000D03*
D26*
X182500000Y-104525000D03*
X182500000Y-102425000D03*
D22*
X127666750Y-163322000D03*
D23*
X126116750Y-163872000D03*
X126116750Y-162772000D03*
X129216750Y-162772000D03*
X129216750Y-163872000D03*
D26*
X139550000Y-142625000D03*
X139550000Y-140525000D03*
X244450000Y-123575000D03*
X244450000Y-121475000D03*
D22*
X218186000Y-163322000D03*
D23*
X216636000Y-163872000D03*
X216636000Y-162772000D03*
X219736000Y-162772000D03*
X219736000Y-163872000D03*
D26*
X87250000Y-104525000D03*
X87250000Y-102425000D03*
D22*
X139700000Y-125222000D03*
D23*
X138150000Y-125772000D03*
X138150000Y-124672000D03*
X141250000Y-124672000D03*
X141250000Y-125772000D03*
D22*
X363474000Y-144272000D03*
D23*
X361924000Y-144822000D03*
X361924000Y-143722000D03*
X365024000Y-143722000D03*
X365024000Y-144822000D03*
D26*
X54976000Y-123575000D03*
X54976000Y-121475000D03*
D22*
X149100000Y-144272000D03*
D23*
X147550000Y-144822000D03*
X147550000Y-143722000D03*
X150650000Y-143722000D03*
X150650000Y-144822000D03*
D22*
X72898000Y-144272000D03*
D23*
X71348000Y-144822000D03*
X71348000Y-143722000D03*
X74448000Y-143722000D03*
X74448000Y-144822000D03*
D26*
X64374000Y-142625000D03*
X64374000Y-140525000D03*
D40*
X263850000Y-117100000D03*
X263850000Y-114400000D03*
D26*
X353950000Y-104525000D03*
X353950000Y-102425000D03*
D41*
X272600000Y-126310000D03*
X272600000Y-125290000D03*
D28*
X271200000Y-123380000D03*
X271200000Y-122420000D03*
D24*
X262840000Y-122115000D03*
X261880000Y-122115000D03*
D25*
X291350000Y-134350000D03*
D22*
X180086000Y-163322000D03*
D23*
X178536000Y-163872000D03*
X178536000Y-162772000D03*
X181636000Y-162772000D03*
X181636000Y-163872000D03*
D26*
X149200000Y-123575000D03*
X149200000Y-121475000D03*
D22*
X187198000Y-144272000D03*
D23*
X185648000Y-144822000D03*
X185648000Y-143722000D03*
X188748000Y-143722000D03*
X188748000Y-144822000D03*
D22*
X382524000Y-144272000D03*
D23*
X380974000Y-144822000D03*
X380974000Y-143722000D03*
X384074000Y-143722000D03*
X384074000Y-144822000D03*
D22*
X344424000Y-144272000D03*
D23*
X342874000Y-144822000D03*
X342874000Y-143722000D03*
X345974000Y-143722000D03*
X345974000Y-144822000D03*
D26*
X177650000Y-142625000D03*
X177650000Y-140525000D03*
X234850000Y-142625000D03*
X234850000Y-140525000D03*
D28*
X299428000Y-129062400D03*
X299428000Y-128102400D03*
D26*
X225400000Y-123575000D03*
X225400000Y-121475000D03*
D22*
X215900000Y-125222000D03*
D23*
X214350000Y-125772000D03*
X214350000Y-124672000D03*
X217450000Y-124672000D03*
X217450000Y-125772000D03*
D26*
X373000000Y-123575000D03*
X373000000Y-121475000D03*
D22*
X196850000Y-125222000D03*
D23*
X195300000Y-125772000D03*
X195300000Y-124672000D03*
X198400000Y-124672000D03*
X198400000Y-125772000D03*
D39*
X313455000Y-123424000D03*
X314475000Y-123424000D03*
D22*
X344424000Y-106172000D03*
D23*
X342874000Y-106722000D03*
X342874000Y-105622000D03*
X345974000Y-105622000D03*
X345974000Y-106722000D03*
D26*
X373000000Y-104525000D03*
X373000000Y-102425000D03*
X125350000Y-104525000D03*
X125350000Y-102425000D03*
D42*
X303450000Y-140320000D03*
X303450000Y-141280000D03*
D24*
X297650000Y-129629000D03*
X296690000Y-129629000D03*
D26*
X50150000Y-104525000D03*
X50150000Y-102425000D03*
D22*
X363474000Y-125222000D03*
D23*
X361924000Y-125772000D03*
X361924000Y-124672000D03*
X365024000Y-124672000D03*
X365024000Y-125772000D03*
D26*
X54900000Y-161675000D03*
X54900000Y-159575000D03*
D22*
X77724000Y-106172000D03*
D23*
X76174000Y-106722000D03*
X76174000Y-105622000D03*
X79274000Y-105622000D03*
X79274000Y-106722000D03*
D26*
X92050000Y-123575000D03*
X92050000Y-121475000D03*
X256342750Y-161675000D03*
X256342750Y-159575000D03*
D22*
X280130250Y-125222000D03*
D23*
X278580250Y-125772000D03*
X278580250Y-124672000D03*
X281680250Y-124672000D03*
X281680250Y-125772000D03*
D26*
X284650000Y-124700000D03*
X284650000Y-122600000D03*
X158600000Y-142625000D03*
X158600000Y-140525000D03*
X62400000Y-142625000D03*
X62400000Y-140525000D03*
D39*
X308650002Y-140450000D03*
X309670002Y-140450000D03*
D26*
X187300000Y-123575000D03*
X187300000Y-121475000D03*
D22*
X268224000Y-106172000D03*
D23*
X266674000Y-106722000D03*
X266674000Y-105622000D03*
X269774000Y-105622000D03*
X269774000Y-106722000D03*
D22*
X58674000Y-106172000D03*
D23*
X57124000Y-106722000D03*
X57124000Y-105622000D03*
X60224000Y-105622000D03*
X60224000Y-106722000D03*
D22*
X344424000Y-125222000D03*
D23*
X342874000Y-125772000D03*
X342874000Y-124672000D03*
X345974000Y-124672000D03*
X345974000Y-125772000D03*
D25*
X291350000Y-136950000D03*
D43*
X308310589Y-146039411D03*
X308989411Y-145360589D03*
D22*
X244348000Y-144272000D03*
D23*
X242798000Y-144822000D03*
X242798000Y-143722000D03*
X245898000Y-143722000D03*
X245898000Y-144822000D03*
D44*
X307100500Y-149600000D03*
X310500500Y-149600000D03*
D26*
X170586000Y-161675000D03*
X170586000Y-159575000D03*
D22*
X46767750Y-144272000D03*
D23*
X45217750Y-144822000D03*
X45217750Y-143722000D03*
X48317750Y-143722000D03*
X48317750Y-144822000D03*
D24*
X262840000Y-121140000D03*
X261880000Y-121140000D03*
D22*
X234950000Y-125222000D03*
D23*
X233400000Y-125772000D03*
X233400000Y-124672000D03*
X236500000Y-124672000D03*
X236500000Y-125772000D03*
D26*
X335850000Y-142625000D03*
X335850000Y-140525000D03*
D44*
X305547500Y-149600000D03*
X302147500Y-149600000D03*
D34*
X306625000Y-123499000D03*
X307585000Y-123499000D03*
D26*
X201550000Y-104525000D03*
X201550000Y-102425000D03*
D22*
X382524000Y-106172000D03*
D23*
X380974000Y-106722000D03*
X380974000Y-105622000D03*
X384074000Y-105622000D03*
X384074000Y-106722000D03*
D45*
X294800000Y-118650000D03*
D46*
X297100000Y-124950000D03*
D45*
X297100000Y-118650000D03*
X299400000Y-118650000D03*
D26*
X373000000Y-142625000D03*
X373000000Y-140525000D03*
X80066750Y-161675000D03*
X80066750Y-159575000D03*
X333900000Y-142625000D03*
X333900000Y-140525000D03*
D39*
X269490000Y-121400000D03*
X270510000Y-121400000D03*
D26*
X335900000Y-104525000D03*
X335900000Y-102425000D03*
D22*
X325374000Y-125222000D03*
D23*
X323824000Y-125772000D03*
X323824000Y-124672000D03*
X326924000Y-124672000D03*
X326924000Y-125772000D03*
D26*
X82400000Y-142625000D03*
X82400000Y-140525000D03*
D22*
X65786000Y-163322000D03*
D23*
X64236000Y-163872000D03*
X64236000Y-162772000D03*
X67336000Y-162772000D03*
X67336000Y-163872000D03*
D26*
X111100000Y-123575000D03*
X111100000Y-121475000D03*
X372750000Y-161675000D03*
X372750000Y-159575000D03*
D22*
X42005250Y-125222000D03*
D23*
X40455250Y-125772000D03*
X40455250Y-124672000D03*
X43555250Y-124672000D03*
X43555250Y-125772000D03*
D41*
X304700000Y-141810000D03*
X304700000Y-140790000D03*
D42*
X302200000Y-140320000D03*
X302200000Y-141280000D03*
D47*
X309010000Y-117140000D03*
X309010000Y-115940000D03*
X309010000Y-114740000D03*
X309010000Y-113540000D03*
D48*
X305235000Y-112390000D03*
X305235000Y-118290000D03*
D26*
X303000000Y-97750000D03*
X303000000Y-95650000D03*
D22*
X344424000Y-163322000D03*
D23*
X342874000Y-163872000D03*
X342874000Y-162772000D03*
X345974000Y-162772000D03*
X345974000Y-163872000D03*
D49*
X296150000Y-127400000D03*
X294250000Y-127400000D03*
D22*
X110998000Y-144272000D03*
D23*
X109448000Y-144822000D03*
X109448000Y-143722000D03*
X112548000Y-143722000D03*
X112548000Y-144822000D03*
D26*
X118166750Y-161675000D03*
X118166750Y-159575000D03*
D50*
X301460000Y-128072400D03*
X301460000Y-129092400D03*
D22*
X158750000Y-125222000D03*
D23*
X157200000Y-125772000D03*
X157200000Y-124672000D03*
X160300000Y-124672000D03*
X160300000Y-125772000D03*
D34*
X309235000Y-136106000D03*
X310195000Y-136106000D03*
D24*
X297650000Y-130899000D03*
X296690000Y-130899000D03*
D26*
X354000000Y-142625000D03*
X354000000Y-140525000D03*
D51*
X295700000Y-141100000D03*
D52*
X295700000Y-143640000D03*
X295700000Y-146180000D03*
X295700000Y-148720000D03*
D22*
X42005250Y-163322000D03*
D23*
X40455250Y-163872000D03*
X40455250Y-162772000D03*
X43555250Y-162772000D03*
X43555250Y-163872000D03*
D26*
X53000000Y-123575000D03*
X53000000Y-121475000D03*
D22*
X177800000Y-125222000D03*
D23*
X176250000Y-125772000D03*
X176250000Y-124672000D03*
X179350000Y-124672000D03*
X179350000Y-125772000D03*
D27*
X314475000Y-122424000D03*
X313455000Y-122424000D03*
D22*
X363474000Y-106172000D03*
D23*
X361924000Y-106722000D03*
X361924000Y-105622000D03*
X365024000Y-105622000D03*
X365024000Y-106722000D03*
D22*
X265842750Y-163322000D03*
D23*
X264292750Y-163872000D03*
X264292750Y-162772000D03*
X267392750Y-162772000D03*
X267392750Y-163872000D03*
D22*
X168148000Y-144272000D03*
D23*
X166598000Y-144822000D03*
X166598000Y-143722000D03*
X169698000Y-143722000D03*
X169698000Y-144822000D03*
D22*
X249174000Y-106172000D03*
D23*
X247624000Y-106722000D03*
X247624000Y-105622000D03*
X250724000Y-105622000D03*
X250724000Y-106722000D03*
D22*
X206248000Y-144272000D03*
D23*
X204698000Y-144822000D03*
X204698000Y-143722000D03*
X207798000Y-143722000D03*
X207798000Y-144822000D03*
D28*
X303500000Y-128030000D03*
X303500000Y-127070000D03*
D53*
X313825000Y-124995000D03*
X313825000Y-126265000D03*
X313825000Y-127535000D03*
X313825000Y-128805000D03*
X306625000Y-128805000D03*
X306625000Y-127535000D03*
X306625000Y-126265000D03*
X306625000Y-124995000D03*
D22*
X230124000Y-106172000D03*
D23*
X228574000Y-106722000D03*
X228574000Y-105622000D03*
X231674000Y-105622000D03*
X231674000Y-106722000D03*
D22*
X172974000Y-106172000D03*
D23*
X171424000Y-106722000D03*
X171424000Y-105622000D03*
X174524000Y-105622000D03*
X174524000Y-106722000D03*
D26*
X232466750Y-161675000D03*
X232466750Y-159575000D03*
D22*
X130048000Y-144272000D03*
D23*
X128498000Y-144822000D03*
X128498000Y-143722000D03*
X131598000Y-143722000D03*
X131598000Y-144822000D03*
D50*
X272600000Y-127240000D03*
X272600000Y-128260000D03*
D22*
X382524000Y-125222000D03*
D23*
X380974000Y-125772000D03*
X380974000Y-124672000D03*
X384074000Y-124672000D03*
X384074000Y-125772000D03*
D22*
X153924000Y-106172000D03*
D23*
X152374000Y-106722000D03*
X152374000Y-105622000D03*
X155474000Y-105622000D03*
X155474000Y-106722000D03*
D50*
X302476000Y-128075000D03*
X302476000Y-129095000D03*
D26*
X277750000Y-104525000D03*
X277750000Y-102425000D03*
X353800000Y-161675000D03*
X353800000Y-159575000D03*
X277774000Y-161675000D03*
X277774000Y-159575000D03*
D22*
X39624000Y-106172000D03*
D23*
X38074000Y-106722000D03*
X38074000Y-105622000D03*
X41174000Y-105622000D03*
X41174000Y-106722000D03*
D25*
X291350000Y-131750000D03*
D22*
X211074000Y-106172000D03*
D23*
X209524000Y-106722000D03*
X209524000Y-105622000D03*
X212624000Y-105622000D03*
X212624000Y-106722000D03*
D24*
X266330000Y-119900000D03*
X265370000Y-119900000D03*
D22*
X96774000Y-106172000D03*
D23*
X95224000Y-106722000D03*
X95224000Y-105622000D03*
X98324000Y-105622000D03*
X98324000Y-106722000D03*
D22*
X89566750Y-163322000D03*
D23*
X88016750Y-163872000D03*
X88016750Y-162772000D03*
X91116750Y-162772000D03*
X91116750Y-163872000D03*
D41*
X301150000Y-143210000D03*
X301150000Y-142190000D03*
D49*
X298050000Y-116200000D03*
X296150000Y-116200000D03*
D26*
X333900000Y-161675000D03*
X333900000Y-159575000D03*
D22*
X91948000Y-144272000D03*
D23*
X90398000Y-144822000D03*
X90398000Y-143722000D03*
X93498000Y-143722000D03*
X93498000Y-144822000D03*
D26*
X333900000Y-123575000D03*
X333900000Y-121475000D03*
D28*
X300444000Y-129062400D03*
X300444000Y-128102400D03*
D22*
X254000000Y-125222000D03*
D23*
X252450000Y-125772000D03*
X252450000Y-124672000D03*
X255550000Y-124672000D03*
X255550000Y-125772000D03*
D26*
X73050000Y-123575000D03*
X73050000Y-121475000D03*
M02*
